<svg width="40" height="47" viewBox="0 0 40 47" fill="none" xmlns="http://www.w3.org/2000/svg" xmlns:xlink="http://www.w3.org/1999/xlink">
<rect x="0.369385" y="0.92749" width="38.6494" height="45.4538" fill="url(#pattern0_40_5071)"/>
<path d="M19.3198 28.8713C17.5254 28.8713 15.7713 28.3392 14.2793 27.3423C12.7874 26.3454 11.6245 24.9285 10.9378 23.2706C10.2511 21.6128 10.0715 19.7886 10.4215 18.0287C10.7716 16.2688 11.6357 14.6522 12.9045 13.3834C14.1733 12.1146 15.7899 11.2505 17.5498 10.9004C19.3097 10.5503 21.134 10.73 22.7918 11.4167C24.4496 12.1034 25.8665 13.2662 26.8634 14.7582C27.8603 16.2502 28.3924 18.0043 28.3924 19.7987C28.3924 22.2049 27.4366 24.5126 25.7351 26.214C24.0337 27.9155 21.726 28.8713 19.3198 28.8713Z" fill="url(#paint0_linear_40_5071)"/>
<path d="M19.3195 29.1547C17.4745 29.1547 15.6709 28.6079 14.1365 27.5833C12.6021 26.5587 11.4058 25.1024 10.6987 23.3982C9.99163 21.6941 9.80548 19.8186 10.1638 18.0087C10.5221 16.1988 11.4088 14.5357 12.7118 13.2295C14.0148 11.9233 15.6758 11.0326 17.4848 10.6699C19.2938 10.3072 21.1697 10.4888 22.8756 11.1918C24.5815 11.8947 26.0407 13.0875 27.069 14.6194C28.0973 16.1513 28.6485 17.9536 28.653 19.7986C28.6545 21.0258 28.4142 22.2412 27.946 23.3755C27.4778 24.5099 26.7907 25.5409 25.924 26.4097C25.0573 27.2785 24.028 27.9681 22.8948 28.439C21.7616 28.91 20.5467 29.1532 19.3195 29.1547ZM19.3195 11.0095C17.5867 11.0095 15.8927 11.5231 14.4515 12.4853C13.0104 13.4476 11.8868 14.8154 11.2226 16.4159C10.5584 18.0164 10.3835 19.7779 10.7199 21.4778C11.0564 23.1777 11.889 24.7398 13.1127 25.9667C14.3365 27.1936 15.8964 28.0303 17.5954 28.3711C19.2944 28.7119 21.0564 28.5415 22.6586 27.8815C24.2608 27.2215 25.6315 26.1014 26.5975 24.6627C27.5635 23.2241 28.0815 21.5314 28.0859 19.7986C28.077 17.4784 27.1497 15.2562 25.507 13.6177C23.8643 11.9793 21.6397 11.0578 19.3195 11.0548V11.0095Z" fill="url(#paint1_linear_40_5071)"/>
<path d="M19.5012 36.6172C19.0001 36.6217 18.509 36.4772 18.0901 36.2021C17.6712 35.9269 17.3436 35.5335 17.1487 35.0718C16.9538 34.6101 16.9004 34.1009 16.9954 33.6089C17.0905 33.1168 17.3295 32.6641 17.6823 32.3081C18.035 31.9522 18.4856 31.709 18.9768 31.6096C19.468 31.5102 19.9776 31.5589 20.4411 31.7496C20.9045 31.9404 21.3008 32.2645 21.5797 32.6809C21.8586 33.0972 22.0075 33.5871 22.0076 34.0882C22.0076 34.755 21.7443 35.3949 21.2749 35.8685C20.8055 36.3421 20.168 36.6112 19.5012 36.6172Z" fill="url(#paint2_linear_40_5071)"/>
<path d="M19.5014 36.9008C18.9451 36.9008 18.4013 36.7358 17.9388 36.4268C17.4763 36.1177 17.1158 35.6785 16.9029 35.1646C16.6901 34.6507 16.6344 34.0851 16.7429 33.5396C16.8514 32.994 17.1193 32.4929 17.5126 32.0995C17.906 31.7062 18.4071 31.4383 18.9527 31.3298C19.4982 31.2213 20.0637 31.277 20.5777 31.4898C21.0916 31.7027 21.5308 32.0632 21.8399 32.5257C22.1489 32.9882 22.3139 33.532 22.3139 34.0883C22.3109 34.8333 22.0136 35.5469 21.4868 36.0737C20.96 36.6005 20.2464 36.8978 19.5014 36.9008ZM19.5014 31.8428C19.0528 31.8428 18.6142 31.9758 18.2412 32.225C17.8682 32.4743 17.5775 32.8285 17.4059 33.243C17.2342 33.6574 17.1893 34.1135 17.2768 34.5534C17.3643 34.9934 17.5803 35.3976 17.8975 35.7148C18.2147 36.032 18.6189 36.248 19.0589 36.3355C19.4988 36.423 19.9549 36.3781 20.3694 36.2065C20.7838 36.0348 21.138 35.7441 21.3873 35.3711C21.6365 34.9981 21.7695 34.5596 21.7695 34.111C21.7695 33.5094 21.5305 32.9325 21.1052 32.5071C20.6798 32.0818 20.1029 31.8428 19.5014 31.8428Z" fill="url(#paint3_linear_40_5071)"/>
<path d="M9.2947 30.856C8.79358 30.8605 8.30241 30.716 7.88354 30.4408C7.46468 30.1657 7.13702 29.7723 6.94212 29.3106C6.74722 28.8489 6.6939 28.3397 6.7889 27.8477C6.88391 27.3556 7.12296 26.9029 7.47573 26.5469C7.82849 26.1909 8.27907 25.9478 8.77025 25.8484C9.26144 25.7489 9.77108 25.7977 10.2345 25.9884C10.698 26.1791 11.0943 26.5033 11.3732 26.9196C11.6521 27.336 11.801 27.8258 11.801 28.327C11.8011 28.9938 11.5377 29.6337 11.0683 30.1073C10.5989 30.5809 9.9615 30.85 9.2947 30.856Z" fill="url(#paint4_linear_40_5071)"/>
<path d="M9.29481 31.1393C8.73855 31.1393 8.19478 30.9744 7.73227 30.6653C7.26975 30.3563 6.90927 29.917 6.69639 29.4031C6.48352 28.8892 6.42782 28.3237 6.53634 27.7781C6.64486 27.2325 6.91273 26.7314 7.30607 26.338C7.69941 25.9447 8.20055 25.6768 8.74613 25.5683C9.2917 25.4598 9.8572 25.5155 10.3711 25.7284C10.885 25.9412 11.3243 26.3017 11.6333 26.7643C11.9424 27.2268 12.1073 27.7705 12.1073 28.3268C12.1043 29.0718 11.8071 29.7854 11.2803 30.3122C10.7535 30.839 10.0398 31.1363 9.29481 31.1393ZM9.29481 26.0813C8.84621 26.0813 8.4077 26.2143 8.0347 26.4636C7.6617 26.7128 7.37099 27.067 7.19932 27.4815C7.02765 27.8959 6.98273 28.352 7.07024 28.792C7.15776 29.232 7.37379 29.6361 7.691 29.9533C8.0082 30.2705 8.41235 30.4865 8.85233 30.5741C9.29231 30.6616 9.74836 30.6166 10.1628 30.445C10.5773 30.2733 10.9315 29.9826 11.1807 29.6096C11.4299 29.2366 11.563 28.7981 11.563 28.3495C11.563 27.7479 11.324 27.171 10.8986 26.7456C10.4733 26.3203 9.89636 26.0813 9.29481 26.0813Z" fill="url(#paint5_linear_40_5071)"/>
<path d="M29.6174 30.8561C30.1176 30.8561 30.6065 30.7078 31.0224 30.4299C31.4383 30.152 31.7624 29.757 31.9539 29.2949C32.1453 28.8328 32.1954 28.3243 32.0978 27.8337C32.0002 27.3431 31.7593 26.8925 31.4056 26.5388C31.052 26.1851 30.6013 25.9443 30.1108 25.8467C29.6202 25.7491 29.1117 25.7992 28.6496 25.9906C28.1875 26.182 27.7925 26.5062 27.5146 26.9221C27.2367 27.338 27.0884 27.8269 27.0884 28.3271C27.0884 28.9978 27.3548 29.6411 27.8291 30.1154C28.3034 30.5896 28.9467 30.8561 29.6174 30.8561Z" fill="url(#paint6_linear_40_5071)"/>
<path d="M29.6172 31.1393C29.061 31.1393 28.5172 30.9744 28.0547 30.6653C27.5921 30.3563 27.2317 29.917 27.0188 29.4031C26.8059 28.8892 26.7502 28.3237 26.8587 27.7781C26.9673 27.2325 27.2351 26.7314 27.6285 26.338C28.0218 25.9447 28.5229 25.6768 29.0685 25.5683C29.6141 25.4598 30.1796 25.5155 30.6935 25.7284C31.2074 25.9412 31.6467 26.3017 31.9557 26.7643C32.2648 27.2268 32.4297 27.7705 32.4297 28.3268C32.4297 29.0727 32.1334 29.7881 31.606 30.3155C31.0785 30.843 30.3631 31.1393 29.6172 31.1393ZM29.6172 26.0813C29.1686 26.0813 28.7301 26.2143 28.3571 26.4636C27.9841 26.7128 27.6934 27.067 27.5217 27.4815C27.35 27.8959 27.3051 28.352 27.3926 28.792C27.4801 29.232 27.6962 29.6361 28.0134 29.9533C28.3306 30.2705 28.7347 30.4865 29.1747 30.5741C29.6147 30.6616 30.0707 30.6166 30.4852 30.445C30.8996 30.2733 31.2539 29.9826 31.5031 29.6096C31.7523 29.2366 31.8854 28.7981 31.8854 28.3495C31.8854 27.7479 31.6464 27.171 31.221 26.7456C30.7957 26.3203 30.2188 26.0813 29.6172 26.0813Z" fill="url(#paint7_linear_40_5071)"/>
<path d="M6.56134 21.3073C6.06116 21.3073 5.5722 21.1589 5.15631 20.881C4.74042 20.6032 4.41626 20.2082 4.22485 19.7461C4.03344 19.284 3.98336 18.7755 4.08095 18.2849C4.17853 17.7943 4.41938 17.3437 4.77306 16.99C5.12675 16.6363 5.57738 16.3954 6.06795 16.2979C6.55853 16.2003 7.06703 16.2504 7.52914 16.4418C7.99125 16.6332 8.38623 16.9573 8.66412 17.3732C8.94201 17.7891 9.09033 18.2781 9.09033 18.7783C9.09033 19.1104 9.02491 19.4392 8.89782 19.7461C8.77072 20.0529 8.58444 20.3317 8.34961 20.5665C8.11477 20.8014 7.83597 20.9876 7.52914 21.1147C7.22231 21.2418 6.89346 21.3073 6.56134 21.3073Z" fill="url(#paint8_linear_40_5071)"/>
<path d="M6.5613 21.5907C6.00504 21.5907 5.46126 21.4258 4.99875 21.1167C4.53623 20.8077 4.17574 20.3684 3.96287 19.8545C3.75 19.3406 3.6943 18.7751 3.80282 18.2295C3.91134 17.6839 4.17921 17.1828 4.57255 16.7895C4.96589 16.3961 5.46703 16.1283 6.01261 16.0197C6.55818 15.9112 7.12368 15.9669 7.6376 16.1798C8.15152 16.3927 8.59078 16.7531 8.89982 17.2157C9.20886 17.6782 9.37381 18.2219 9.37381 18.7782C9.37381 19.5241 9.07749 20.2395 8.55004 20.767C8.02259 21.2944 7.30723 21.5907 6.5613 21.5907ZM6.5613 16.5441C6.11271 16.5441 5.67418 16.6771 5.30118 16.9263C4.92818 17.1756 4.63747 17.5298 4.4658 17.9442C4.29413 18.3587 4.2492 18.8147 4.33672 19.2547C4.42424 19.6947 4.64027 20.0989 4.95747 20.4161C5.27468 20.7333 5.67883 20.9493 6.11881 21.0368C6.55879 21.1243 7.01484 21.0794 7.42929 20.9077C7.84374 20.7361 8.19797 20.4454 8.4472 20.0724C8.69643 19.6994 8.82946 19.2608 8.82946 18.8122C8.82946 18.2107 8.5905 17.6338 8.16513 17.2084C7.73977 16.783 7.16286 16.5441 6.5613 16.5441Z" fill="url(#paint9_linear_40_5071)"/>
<path d="M32.3506 21.3073C32.8508 21.3073 33.3398 21.1589 33.7557 20.881C34.1716 20.6032 34.4957 20.2082 34.6871 19.7461C34.8785 19.284 34.9286 18.7755 34.831 18.2849C34.7335 17.7943 34.4926 17.3437 34.1389 16.99C33.7852 16.6363 33.3346 16.3954 32.844 16.2979C32.3535 16.2003 31.845 16.2504 31.3828 16.4418C30.9207 16.6332 30.5258 16.9573 30.2479 17.3732C29.97 17.7891 29.8217 18.2781 29.8217 18.7783C29.8217 19.1104 29.8871 19.4392 30.0142 19.7461C30.1413 20.0529 30.3275 20.3317 30.5624 20.5665C30.7972 20.8014 31.076 20.9876 31.3828 21.1147C31.6897 21.2418 32.0185 21.3073 32.3506 21.3073Z" fill="url(#paint10_linear_40_5071)"/>
<path d="M32.3508 21.5907C31.7946 21.5907 31.2508 21.4258 30.7883 21.1167C30.3258 20.8077 29.9653 20.3684 29.7524 19.8545C29.5396 19.3406 29.4839 18.7751 29.5924 18.2295C29.7009 17.6839 29.9688 17.1828 30.3621 16.7895C30.7554 16.3961 31.2566 16.1283 31.8021 16.0197C32.3477 15.9112 32.9132 15.9669 33.4272 16.1798C33.9411 16.3927 34.3803 16.7531 34.6894 17.2157C34.9984 17.6782 35.1634 18.2219 35.1634 18.7782C35.1604 19.5232 34.8631 20.2369 34.3363 20.7637C33.8095 21.2905 33.0958 21.5877 32.3508 21.5907ZM32.3508 16.5441C31.9022 16.5441 31.4637 16.6771 31.0907 16.9263C30.7177 17.1756 30.427 17.5298 30.2553 17.9442C30.0837 18.3587 30.0388 18.8147 30.1263 19.2547C30.2138 19.6947 30.4298 20.0989 30.747 20.4161C31.0642 20.7333 31.4684 20.9493 31.9083 21.0368C32.3483 21.1243 32.8044 21.0794 33.2188 20.9077C33.6333 20.7361 33.9875 20.4454 34.2368 20.0724C34.486 19.6994 34.619 19.2608 34.619 18.8122C34.619 18.2107 34.38 17.6338 33.9547 17.2084C33.5293 16.783 32.9524 16.5441 32.3508 16.5441Z" fill="url(#paint11_linear_40_5071)"/>
<path d="M10.1453 12.5176C9.64514 12.5176 9.15618 12.3693 8.74029 12.0914C8.3244 11.8135 8.00026 11.4185 7.80885 10.9564C7.61744 10.4943 7.56734 9.98578 7.66493 9.49521C7.76251 9.00463 8.00337 8.55401 8.35706 8.20032C8.71075 7.84663 9.16137 7.60577 9.65195 7.50819C10.1425 7.41061 10.651 7.46069 11.1131 7.6521C11.5753 7.84352 11.9702 8.16767 12.2481 8.58356C12.526 8.99945 12.6743 9.4884 12.6743 9.98859C12.6743 10.6593 12.4079 11.3026 11.9336 11.7769C11.4593 12.2511 10.8161 12.5176 10.1453 12.5176Z" fill="url(#paint12_linear_40_5071)"/>
<path d="M10.1452 12.8017C9.58804 12.8062 9.04207 12.6451 8.57658 12.3388C8.11109 12.0325 7.74708 11.5948 7.53072 11.0813C7.31437 10.5678 7.25542 10.0016 7.36136 9.45452C7.46731 8.90746 7.73338 8.4042 8.1258 8.00859C8.51821 7.61298 9.01931 7.34286 9.56549 7.23248C10.1117 7.12211 10.6783 7.17647 11.1936 7.38866C11.7088 7.60085 12.1494 7.96131 12.4595 8.4243C12.7695 8.8873 12.9351 9.43196 12.9351 9.98918C12.9322 10.7303 12.638 11.4405 12.1161 11.9667C11.5942 12.4929 10.8863 12.7928 10.1452 12.8017ZM10.1452 7.75505C9.69665 7.75505 9.25814 7.88807 8.88514 8.1373C8.51214 8.38653 8.22143 8.74077 8.04976 9.15522C7.87809 9.56967 7.83317 10.0257 7.92068 10.4657C8.0082 10.9057 8.22423 11.3098 8.54144 11.627C8.85864 11.9442 9.26279 12.1603 9.70277 12.2478C10.1427 12.3353 10.5988 12.2904 11.0132 12.1187C11.4277 11.947 11.7819 11.6563 12.0312 11.2833C12.2804 10.9103 12.4134 10.4718 12.4134 10.0232C12.4134 9.42165 12.1744 8.84474 11.7491 8.41938C11.3237 7.99401 10.7468 7.75505 10.1452 7.75505Z" fill="url(#paint13_linear_40_5071)"/>
<path d="M28.8121 12.5176C29.3123 12.5176 29.8012 12.3693 30.2171 12.0914C30.633 11.8135 30.9571 11.4185 31.1486 10.9564C31.34 10.4943 31.39 9.98578 31.2925 9.49521C31.1949 9.00463 30.954 8.55401 30.6003 8.20032C30.2466 7.84663 29.796 7.60577 29.3055 7.50819C28.8149 7.41061 28.3064 7.46069 27.8443 7.6521C27.3822 7.84352 26.9872 8.16767 26.7093 8.58356C26.4314 8.99945 26.2831 9.4884 26.2831 9.98859C26.2831 10.6593 26.5495 11.3026 27.0238 11.7769C27.4981 12.2511 28.1413 12.5176 28.8121 12.5176Z" fill="url(#paint14_linear_40_5071)"/>
<path d="M28.8124 12.8011C28.2561 12.8011 27.7124 12.6361 27.2498 12.3271C26.7873 12.018 26.4268 11.5788 26.214 11.0648C26.0011 10.5509 25.9454 9.98542 26.0539 9.43985C26.1624 8.89427 26.4303 8.39313 26.8236 7.99979C27.217 7.60646 27.7181 7.33859 28.2637 7.23007C28.8093 7.12155 29.3748 7.17724 29.8887 7.39012C30.4026 7.60299 30.8419 7.96348 31.1509 8.42599C31.4599 8.88851 31.6249 9.43228 31.6249 9.98854C31.6249 10.7345 31.3286 11.4498 30.8011 11.9773C30.2737 12.5047 29.5583 12.8011 28.8124 12.8011ZM28.8124 7.75441C28.3638 7.75441 27.9253 7.88743 27.5523 8.13666C27.1793 8.38589 26.8886 8.74012 26.7169 9.15458C26.5452 9.56903 26.5003 10.0251 26.5878 10.4651C26.6753 10.905 26.8913 11.3092 27.2086 11.6264C27.5258 11.9436 27.9299 12.1596 28.3699 12.2471C28.8099 12.3347 29.2659 12.2897 29.6804 12.1181C30.0948 11.9464 30.4491 11.6557 30.6983 11.2827C30.9475 10.9097 31.0805 10.4712 31.0805 10.0226C31.0805 9.42101 30.8416 8.8441 30.4162 8.41873C29.9909 7.99337 29.4139 7.75441 28.8124 7.75441Z" fill="url(#paint15_linear_40_5071)"/>
<path d="M19.4108 8.55982C18.9107 8.55982 18.4217 8.4115 18.0058 8.13361C17.5899 7.85572 17.2658 7.46074 17.0744 6.99863C16.8829 6.53652 16.8328 6.02802 16.9304 5.53745C17.028 5.04687 17.2689 4.59625 17.6226 4.24256C17.9762 3.88887 18.4269 3.64801 18.9175 3.55043C19.408 3.45284 19.9165 3.50293 20.3786 3.69434C20.8408 3.88575 21.2357 4.2099 21.5136 4.62579C21.7915 5.04168 21.9398 5.53064 21.9398 6.03083C21.9398 6.70156 21.6734 7.34482 21.1991 7.81909C20.7248 8.29337 20.0816 8.55982 19.4108 8.55982Z" fill="url(#paint16_linear_40_5071)"/>
<path d="M19.4107 8.84329C18.8544 8.84329 18.3106 8.67833 17.8481 8.36929C17.3856 8.06025 17.0251 7.621 16.8122 7.10708C16.5994 6.59316 16.5437 6.02765 16.6522 5.48208C16.7607 4.9365 17.0286 4.43537 17.4219 4.04203C17.8153 3.64869 18.3164 3.38083 18.862 3.27231C19.4075 3.16378 19.973 3.21948 20.487 3.43235C21.0009 3.64522 21.4401 4.00571 21.7492 4.46823C22.0582 4.93074 22.2232 5.47451 22.2232 6.03077C22.2202 6.77578 21.9229 7.48942 21.3961 8.01622C20.8693 8.54303 20.1557 8.8403 19.4107 8.84329ZM19.4107 3.7853C18.9621 3.7853 18.5235 3.91832 18.1505 4.16755C17.7775 4.41678 17.4868 4.77102 17.3152 5.18547C17.1435 5.59992 17.0986 6.05597 17.1861 6.49595C17.2736 6.93593 17.4896 7.34008 17.8068 7.65728C18.124 7.97449 18.5282 8.19051 18.9682 8.27803C19.4082 8.36555 19.8642 8.32063 20.2787 8.14896C20.6931 7.97729 21.0473 7.68657 21.2966 7.31358C21.5458 6.94058 21.6788 6.50206 21.6788 6.05346C21.6788 5.4519 21.4398 4.87499 21.0145 4.44963C20.5891 4.02427 20.0122 3.7853 19.4107 3.7853Z" fill="url(#paint17_linear_40_5071)"/>
<defs>
<pattern id="pattern0_40_5071" patternContentUnits="objectBoundingBox" width="1" height="1">
<use xlink:href="#image0_40_5071" transform="scale(0.00704225 0.00598802)"/>
</pattern>
<linearGradient id="paint0_linear_40_5071" x1="19.3198" y1="9.78479" x2="19.3198" y2="28.5424" gradientUnits="userSpaceOnUse">
<stop offset="0.05" stop-color="#DF9333"/>
<stop offset="0.19" stop-color="#DF9634"/>
<stop offset="0.24" stop-color="#E27829"/>
<stop offset="0.3" stop-color="#E06824"/>
<stop offset="0.36" stop-color="#E3862D"/>
<stop offset="0.42" stop-color="#E6A436"/>
<stop offset="0.47" stop-color="#E5D336"/>
<stop offset="0.6" stop-color="#E5E536"/>
<stop offset="0.7" stop-color="#E39E35"/>
<stop offset="0.8" stop-color="#D47F30"/>
<stop offset="0.83" stop-color="#E06824"/>
<stop offset="0.95" stop-color="#DF9634"/>
</linearGradient>
<linearGradient id="paint1_linear_40_5071" x1="9.98606" y1="19.8213" x2="28.653" y2="19.8213" gradientUnits="userSpaceOnUse">
<stop offset="0.05" stop-color="#DF9333"/>
<stop offset="0.19" stop-color="#DF9634"/>
<stop offset="0.24" stop-color="#E27829"/>
<stop offset="0.3" stop-color="#E06824"/>
<stop offset="0.39" stop-color="#E3862D"/>
<stop offset="0.5" stop-color="#E6A436"/>
<stop offset="0.6" stop-color="#E5E536"/>
<stop offset="0.7" stop-color="#E39E35"/>
<stop offset="0.8" stop-color="#D47F30"/>
<stop offset="0.83" stop-color="#E06824"/>
<stop offset="0.95" stop-color="#DF9634"/>
</linearGradient>
<linearGradient id="paint2_linear_40_5071" x1="19.5013" y1="31.287" x2="19.5013" y2="36.5265" gradientUnits="userSpaceOnUse">
<stop offset="0.05" stop-color="#DF9333"/>
<stop offset="0.19" stop-color="#DF9634"/>
<stop offset="0.24" stop-color="#E27829"/>
<stop offset="0.3" stop-color="#E06824"/>
<stop offset="0.36" stop-color="#E3862D"/>
<stop offset="0.42" stop-color="#E6A436"/>
<stop offset="0.47" stop-color="#E5D336"/>
<stop offset="0.6" stop-color="#E5E536"/>
<stop offset="0.7" stop-color="#E39E35"/>
<stop offset="0.8" stop-color="#D47F30"/>
<stop offset="0.83" stop-color="#E06824"/>
<stop offset="0.95" stop-color="#DF9634"/>
</linearGradient>
<linearGradient id="paint3_linear_40_5071" x1="16.6888" y1="34.0883" x2="22.3139" y2="34.0883" gradientUnits="userSpaceOnUse">
<stop offset="0.05" stop-color="#DF9333"/>
<stop offset="0.19" stop-color="#DF9634"/>
<stop offset="0.24" stop-color="#E27829"/>
<stop offset="0.3" stop-color="#E06824"/>
<stop offset="0.39" stop-color="#E3862D"/>
<stop offset="0.5" stop-color="#E6A436"/>
<stop offset="0.6" stop-color="#E5E536"/>
<stop offset="0.7" stop-color="#E39E35"/>
<stop offset="0.8" stop-color="#D47F30"/>
<stop offset="0.83" stop-color="#E06824"/>
<stop offset="0.95" stop-color="#DF9634"/>
</linearGradient>
<linearGradient id="paint4_linear_40_5071" x1="9.29472" y1="25.5258" x2="9.29472" y2="30.7653" gradientUnits="userSpaceOnUse">
<stop offset="0.05" stop-color="#DF9333"/>
<stop offset="0.19" stop-color="#DF9634"/>
<stop offset="0.24" stop-color="#E27829"/>
<stop offset="0.3" stop-color="#E06824"/>
<stop offset="0.36" stop-color="#E3862D"/>
<stop offset="0.42" stop-color="#E6A436"/>
<stop offset="0.47" stop-color="#E5D336"/>
<stop offset="0.6" stop-color="#E5E536"/>
<stop offset="0.7" stop-color="#E39E35"/>
<stop offset="0.8" stop-color="#D47F30"/>
<stop offset="0.83" stop-color="#E06824"/>
<stop offset="0.95" stop-color="#DF9634"/>
</linearGradient>
<linearGradient id="paint5_linear_40_5071" x1="6.4823" y1="28.3268" x2="12.1073" y2="28.3268" gradientUnits="userSpaceOnUse">
<stop offset="0.05" stop-color="#DF9333"/>
<stop offset="0.19" stop-color="#DF9634"/>
<stop offset="0.24" stop-color="#E27829"/>
<stop offset="0.3" stop-color="#E06824"/>
<stop offset="0.39" stop-color="#E3862D"/>
<stop offset="0.5" stop-color="#E6A436"/>
<stop offset="0.6" stop-color="#E5E536"/>
<stop offset="0.7" stop-color="#E39E35"/>
<stop offset="0.8" stop-color="#D47F30"/>
<stop offset="0.83" stop-color="#E06824"/>
<stop offset="0.95" stop-color="#DF9634"/>
</linearGradient>
<linearGradient id="paint6_linear_40_5071" x1="29.6174" y1="25.5259" x2="29.6174" y2="30.7654" gradientUnits="userSpaceOnUse">
<stop offset="0.05" stop-color="#DF9333"/>
<stop offset="0.19" stop-color="#DF9634"/>
<stop offset="0.24" stop-color="#E27829"/>
<stop offset="0.3" stop-color="#E06824"/>
<stop offset="0.36" stop-color="#E3862D"/>
<stop offset="0.42" stop-color="#E6A436"/>
<stop offset="0.47" stop-color="#E5D336"/>
<stop offset="0.6" stop-color="#E5E536"/>
<stop offset="0.7" stop-color="#E39E35"/>
<stop offset="0.8" stop-color="#D47F30"/>
<stop offset="0.83" stop-color="#E06824"/>
<stop offset="0.95" stop-color="#DF9634"/>
</linearGradient>
<linearGradient id="paint7_linear_40_5071" x1="32.4297" y1="28.3268" x2="26.8047" y2="28.3268" gradientUnits="userSpaceOnUse">
<stop offset="0.05" stop-color="#DF9333"/>
<stop offset="0.19" stop-color="#DF9634"/>
<stop offset="0.24" stop-color="#E27829"/>
<stop offset="0.3" stop-color="#E06824"/>
<stop offset="0.39" stop-color="#E3862D"/>
<stop offset="0.5" stop-color="#E6A436"/>
<stop offset="0.6" stop-color="#E5E536"/>
<stop offset="0.7" stop-color="#E39E35"/>
<stop offset="0.8" stop-color="#D47F30"/>
<stop offset="0.83" stop-color="#E06824"/>
<stop offset="0.95" stop-color="#DF9634"/>
</linearGradient>
<linearGradient id="paint8_linear_40_5071" x1="6.56134" y1="15.9771" x2="6.56134" y2="21.2165" gradientUnits="userSpaceOnUse">
<stop offset="0.05" stop-color="#DF9333"/>
<stop offset="0.19" stop-color="#DF9634"/>
<stop offset="0.24" stop-color="#E27829"/>
<stop offset="0.3" stop-color="#E06824"/>
<stop offset="0.36" stop-color="#E3862D"/>
<stop offset="0.42" stop-color="#E6A436"/>
<stop offset="0.47" stop-color="#E5D336"/>
<stop offset="0.6" stop-color="#E5E536"/>
<stop offset="0.7" stop-color="#E39E35"/>
<stop offset="0.8" stop-color="#D47F30"/>
<stop offset="0.83" stop-color="#E06824"/>
<stop offset="0.95" stop-color="#DF9634"/>
</linearGradient>
<linearGradient id="paint9_linear_40_5071" x1="3.74878" y1="18.7782" x2="9.37381" y2="18.7782" gradientUnits="userSpaceOnUse">
<stop offset="0.05" stop-color="#DF9333"/>
<stop offset="0.19" stop-color="#DF9634"/>
<stop offset="0.24" stop-color="#E27829"/>
<stop offset="0.3" stop-color="#E06824"/>
<stop offset="0.39" stop-color="#E3862D"/>
<stop offset="0.5" stop-color="#E6A436"/>
<stop offset="0.6" stop-color="#E5E536"/>
<stop offset="0.7" stop-color="#E39E35"/>
<stop offset="0.8" stop-color="#D47F30"/>
<stop offset="0.83" stop-color="#E06824"/>
<stop offset="0.95" stop-color="#DF9634"/>
</linearGradient>
<linearGradient id="paint10_linear_40_5071" x1="32.3506" y1="15.9771" x2="32.3506" y2="21.2165" gradientUnits="userSpaceOnUse">
<stop offset="0.05" stop-color="#DF9333"/>
<stop offset="0.19" stop-color="#DF9634"/>
<stop offset="0.24" stop-color="#E27829"/>
<stop offset="0.3" stop-color="#E06824"/>
<stop offset="0.36" stop-color="#E3862D"/>
<stop offset="0.42" stop-color="#E6A436"/>
<stop offset="0.47" stop-color="#E5D336"/>
<stop offset="0.6" stop-color="#E5E536"/>
<stop offset="0.7" stop-color="#E39E35"/>
<stop offset="0.8" stop-color="#D47F30"/>
<stop offset="0.83" stop-color="#E06824"/>
<stop offset="0.95" stop-color="#DF9634"/>
</linearGradient>
<linearGradient id="paint11_linear_40_5071" x1="35.1634" y1="18.7782" x2="29.5383" y2="18.7782" gradientUnits="userSpaceOnUse">
<stop offset="0.05" stop-color="#DF9333"/>
<stop offset="0.19" stop-color="#DF9634"/>
<stop offset="0.24" stop-color="#E27829"/>
<stop offset="0.3" stop-color="#E06824"/>
<stop offset="0.39" stop-color="#E3862D"/>
<stop offset="0.5" stop-color="#E6A436"/>
<stop offset="0.6" stop-color="#E5E536"/>
<stop offset="0.7" stop-color="#E39E35"/>
<stop offset="0.8" stop-color="#D47F30"/>
<stop offset="0.83" stop-color="#E06824"/>
<stop offset="0.95" stop-color="#DF9634"/>
</linearGradient>
<linearGradient id="paint12_linear_40_5071" x1="10.1453" y1="7.18742" x2="10.1453" y2="12.4269" gradientUnits="userSpaceOnUse">
<stop offset="0.05" stop-color="#DF9333"/>
<stop offset="0.19" stop-color="#DF9634"/>
<stop offset="0.24" stop-color="#E27829"/>
<stop offset="0.3" stop-color="#E06824"/>
<stop offset="0.36" stop-color="#E3862D"/>
<stop offset="0.42" stop-color="#E6A436"/>
<stop offset="0.47" stop-color="#E5D336"/>
<stop offset="0.6" stop-color="#E5E536"/>
<stop offset="0.7" stop-color="#E39E35"/>
<stop offset="0.8" stop-color="#D47F30"/>
<stop offset="0.83" stop-color="#E06824"/>
<stop offset="0.95" stop-color="#DF9634"/>
</linearGradient>
<linearGradient id="paint13_linear_40_5071" x1="7.33274" y1="9.98918" x2="12.9578" y2="9.98918" gradientUnits="userSpaceOnUse">
<stop offset="0.05" stop-color="#DF9333"/>
<stop offset="0.19" stop-color="#DF9634"/>
<stop offset="0.24" stop-color="#E27829"/>
<stop offset="0.3" stop-color="#E06824"/>
<stop offset="0.39" stop-color="#E3862D"/>
<stop offset="0.5" stop-color="#E6A436"/>
<stop offset="0.6" stop-color="#E5E536"/>
<stop offset="0.7" stop-color="#E39E35"/>
<stop offset="0.8" stop-color="#D47F30"/>
<stop offset="0.83" stop-color="#E06824"/>
<stop offset="0.95" stop-color="#DF9634"/>
</linearGradient>
<linearGradient id="paint14_linear_40_5071" x1="28.7667" y1="7.18742" x2="28.7667" y2="12.4269" gradientUnits="userSpaceOnUse">
<stop offset="0.05" stop-color="#DF9333"/>
<stop offset="0.19" stop-color="#DF9634"/>
<stop offset="0.24" stop-color="#E27829"/>
<stop offset="0.3" stop-color="#E06824"/>
<stop offset="0.36" stop-color="#E3862D"/>
<stop offset="0.42" stop-color="#E6A436"/>
<stop offset="0.47" stop-color="#E5D336"/>
<stop offset="0.6" stop-color="#E5E536"/>
<stop offset="0.7" stop-color="#E39E35"/>
<stop offset="0.8" stop-color="#D47F30"/>
<stop offset="0.83" stop-color="#E06824"/>
<stop offset="0.95" stop-color="#DF9634"/>
</linearGradient>
<linearGradient id="paint15_linear_40_5071" x1="31.5795" y1="9.98854" x2="25.9545" y2="9.98854" gradientUnits="userSpaceOnUse">
<stop offset="0.05" stop-color="#DF9333"/>
<stop offset="0.19" stop-color="#DF9634"/>
<stop offset="0.24" stop-color="#E27829"/>
<stop offset="0.3" stop-color="#E06824"/>
<stop offset="0.39" stop-color="#E3862D"/>
<stop offset="0.5" stop-color="#E6A436"/>
<stop offset="0.6" stop-color="#E5E536"/>
<stop offset="0.7" stop-color="#E39E35"/>
<stop offset="0.8" stop-color="#D47F30"/>
<stop offset="0.83" stop-color="#E06824"/>
<stop offset="0.95" stop-color="#DF9634"/>
</linearGradient>
<linearGradient id="paint16_linear_40_5071" x1="19.4108" y1="3.21831" x2="19.4108" y2="8.45775" gradientUnits="userSpaceOnUse">
<stop offset="0.05" stop-color="#DF9333"/>
<stop offset="0.19" stop-color="#DF9634"/>
<stop offset="0.24" stop-color="#E27829"/>
<stop offset="0.3" stop-color="#E06824"/>
<stop offset="0.36" stop-color="#E3862D"/>
<stop offset="0.42" stop-color="#E6A436"/>
<stop offset="0.47" stop-color="#E5D336"/>
<stop offset="0.6" stop-color="#E5E536"/>
<stop offset="0.7" stop-color="#E39E35"/>
<stop offset="0.8" stop-color="#D47F30"/>
<stop offset="0.83" stop-color="#E06824"/>
<stop offset="0.95" stop-color="#DF9634"/>
</linearGradient>
<linearGradient id="paint17_linear_40_5071" x1="16.5981" y1="6.03078" x2="22.2232" y2="6.03078" gradientUnits="userSpaceOnUse">
<stop offset="0.05" stop-color="#DF9333"/>
<stop offset="0.19" stop-color="#DF9634"/>
<stop offset="0.24" stop-color="#E27829"/>
<stop offset="0.3" stop-color="#E06824"/>
<stop offset="0.39" stop-color="#E3862D"/>
<stop offset="0.5" stop-color="#E6A436"/>
<stop offset="0.6" stop-color="#E5E536"/>
<stop offset="0.7" stop-color="#E39E35"/>
<stop offset="0.8" stop-color="#D47F30"/>
<stop offset="0.83" stop-color="#E06824"/>
<stop offset="0.95" stop-color="#DF9634"/>
</linearGradient>
</defs>
</svg>
