<svg width="270" height="112" viewBox="0 0 270 112" fill="none" xmlns="http://www.w3.org/2000/svg">
<g filter="url(#filter0_d_44_6554)">
<path fill-rule="evenodd" clip-rule="evenodd" d="M242.18 60.9661C242.156 67.8602 239.406 74.4649 234.531 79.3398C229.656 84.2146 223.052 86.9641 216.158 86.9886H52.123C45.2289 86.9641 38.6242 84.2146 33.7494 79.3398C28.8745 74.4649 26.125 67.8602 26.1005 60.9661L26.1005 56.7839H242.18V60.9661Z" fill="url(#paint0_linear_44_6554)"/>
<path fill-rule="evenodd" clip-rule="evenodd" d="M52.1219 30.8082H216.157C219.765 30.4661 223.405 30.8816 226.843 32.0279C230.282 33.1742 233.443 35.0262 236.124 37.4651C238.805 39.904 240.947 42.8761 242.412 46.1909C243.878 49.5057 244.635 53.0901 244.635 56.7146C244.635 60.339 243.878 63.9234 242.412 67.2382C240.947 70.5531 238.805 73.5251 236.124 75.9641C233.443 78.403 230.282 80.2549 226.843 81.4012C223.405 82.5476 219.765 82.963 216.157 82.6209H52.1219C48.6152 82.7692 45.1147 82.2065 41.831 80.9668C38.5474 79.7271 35.5485 77.8359 33.0147 75.407C30.481 72.9781 28.4648 70.0618 27.0874 66.8334C25.71 63.6051 25 60.1315 25 56.6216C25 53.1117 25.71 49.6381 27.0874 46.4098C28.4648 43.1815 30.481 40.2651 33.0147 37.8363C35.5485 35.4074 38.5474 33.5162 41.831 32.2765C45.1147 31.0367 48.6152 30.4741 52.1219 30.6224V30.8082Z" fill="url(#paint1_linear_44_6554)"/>
<path fill-rule="evenodd" clip-rule="evenodd" d="M239.855 56.7838C239.843 63.0821 237.339 69.1195 232.89 73.5774C228.44 78.0353 222.408 80.5513 216.11 80.5759H52.1215C45.8233 80.5513 39.7908 78.0353 35.3416 73.5774C30.8924 69.1195 28.3882 63.0821 28.376 56.7838V48.7448H239.855V56.7838Z" fill="url(#paint2_linear_44_6554)"/>
<path style="mix-blend-mode:screen" fill-rule="evenodd" clip-rule="evenodd" d="M59.4167 83.8288H65.6435C66.2663 84.3908 67.0821 84.6905 67.9205 84.6653C68.337 84.688 68.7537 84.6255 69.1452 84.4817C69.5367 84.3379 69.8948 84.1157 70.1975 83.8288H215.319C218.999 83.8222 222.634 83.0313 225.983 81.5089C229.333 79.9864 232.319 77.7674 234.743 74.9998C232.322 77.474 229.43 79.4393 226.238 80.7799C223.046 82.1206 219.618 82.8096 216.156 82.8065H52.1211C48.659 82.8096 45.2312 82.1206 42.0391 80.7799C38.8471 79.4393 35.9553 77.474 33.5336 74.9998C35.8897 77.7046 38.785 79.8872 42.0339 81.4077C45.2829 82.9281 48.8137 83.7528 52.3999 83.8288C52.8227 84.3486 53.3642 84.7593 53.9788 85.0261C54.5934 85.293 55.2631 85.4083 55.9316 85.3623C56.5938 85.4126 57.2581 85.299 57.866 85.0315C58.4738 84.7641 59.0064 84.351 59.4167 83.8288Z" fill="url(#paint3_linear_44_6554)"/>
<path fill-rule="evenodd" clip-rule="evenodd" d="M52.1215 25H216.156C222.454 25 228.494 27.5018 232.947 31.9549C237.4 36.4081 239.902 42.4478 239.902 48.7455C239.902 55.0432 237.4 61.083 232.947 65.5362C228.494 69.9893 222.454 72.4911 216.156 72.4911H52.1215C45.8238 72.4911 39.7841 69.9893 35.3309 65.5362C30.8778 61.083 28.376 55.0432 28.376 48.7455C28.376 42.4478 30.8778 36.4081 35.3309 31.9549C39.7841 27.5018 45.8238 25 52.1215 25Z" fill="url(#paint4_linear_44_6554)"/>
<path style="mix-blend-mode:screen" fill-rule="evenodd" clip-rule="evenodd" d="M52.1228 26.1151C46.1407 26.1273 40.4057 28.5027 36.167 32.724C31.9283 36.9453 29.5293 42.6704 29.4926 48.6525H238.602C238.566 42.7024 236.192 37.005 231.994 32.789C227.795 28.5729 222.107 26.176 216.158 26.1151H52.1228Z" fill="url(#paint5_linear_44_6554)"/>
<path style="mix-blend-mode:screen" fill-rule="evenodd" clip-rule="evenodd" d="M52.958 73.5595H58.0231C58.4483 74.0614 58.9848 74.4571 59.5898 74.7152C60.1948 74.9734 60.8517 75.0868 61.5082 75.0465C62.1656 75.0943 62.8249 74.9843 63.4311 74.7256C64.0374 74.467 64.573 74.0672 64.9934 73.5595H71.2667C71.9055 74.0889 72.7142 74.3695 73.5436 74.3495C74.36 74.3755 75.1562 74.0935 75.7741 73.5595H215.18C218.609 73.5508 221.995 72.7936 225.101 71.3408C228.207 69.8881 230.959 67.7749 233.164 65.1487C230.951 67.4687 228.29 69.3156 225.343 70.5776C222.396 71.8396 219.223 72.4904 216.017 72.4907H52.1216C48.9154 72.4904 45.7427 71.8396 42.7954 70.5776C39.848 69.3156 37.1874 67.4687 34.9746 65.1487C37.1794 67.7749 39.931 69.8881 43.0371 71.3408C46.1432 72.7936 49.529 73.5508 52.958 73.5595Z" fill="url(#paint6_linear_44_6554)"/>
<path fill-rule="evenodd" clip-rule="evenodd" d="M48.4501 30.0646C50.2159 33.178 39.621 39.3584 37.8087 36.1985C35.9965 33.0386 46.6378 26.9047 48.4501 30.0646Z" fill="#FFFCE1"/>
<g filter="url(#filter1_d_44_6554)">
<mask id="path-9-outside-1_44_6554" maskUnits="userSpaceOnUse" x="71" y="42" width="128" height="21" fill="black">
<rect fill="white" x="71" y="42" width="128" height="21"/>
<path d="M73.046 58.264C72.782 58.264 72.5767 58.1027 72.43 57.78C72.298 57.4573 72.232 57.098 72.232 56.702C72.232 56.13 72.298 55.1987 72.43 53.908L73.574 42.71H75.334C75.8033 42.71 76.06 42.9007 76.104 43.282C76.148 43.6487 76.1187 44.2793 76.016 45.174L75.004 54.502C74.9747 54.81 74.96 55.118 74.96 55.426C74.96 55.734 74.982 56.042 75.026 56.35L79.756 55.25C79.9173 55.2207 80.042 55.1987 80.13 55.184C80.218 55.1547 80.284 55.14 80.328 55.14C80.504 55.14 80.592 55.2427 80.592 55.448C80.592 55.8147 80.526 56.196 80.394 56.592C80.2767 56.988 80.108 57.3253 79.888 57.604C79.668 57.868 79.3967 58 79.074 58H78.414C77.314 58 76.412 58.022 75.708 58.066C75.0187 58.11 74.4687 58.154 74.058 58.198C73.6473 58.242 73.31 58.264 73.046 58.264ZM87.8783 58.352C86.4556 58.352 85.3116 58.1907 84.4463 57.868C83.5956 57.5307 83.009 56.9733 82.6863 56.196C82.3636 55.4187 82.2683 54.3627 82.4003 53.028L83.4783 42.71H85.2383C85.5316 42.71 85.7296 42.7833 85.8323 42.93C85.9496 43.062 86.0083 43.326 86.0083 43.722C86.0083 44.074 85.9863 44.426 85.9423 44.778C85.913 45.13 85.869 45.5407 85.8103 46.01C85.7516 46.4793 85.6856 47.0587 85.6123 47.748L85.1283 52.236C84.967 53.732 85.1283 54.832 85.6123 55.536C86.111 56.24 87.0423 56.592 88.4063 56.592C89.037 56.592 89.609 56.4673 90.1223 56.218C90.6503 55.9687 91.083 55.58 91.4203 55.052C91.7723 54.5093 91.9923 53.8053 92.0803 52.94L92.5423 48.672C92.6303 47.8507 92.667 47.1687 92.6523 46.626C92.6376 46.0833 92.5936 45.636 92.5203 45.284C92.447 44.9173 92.381 44.6167 92.3223 44.382C92.2636 44.1327 92.2343 43.9127 92.2343 43.722C92.2343 43.546 92.3443 43.3847 92.5643 43.238C92.799 43.0767 93.0703 42.952 93.3783 42.864C93.6863 42.776 93.9576 42.732 94.1923 42.732C94.4123 42.732 94.581 42.8053 94.6983 42.952C94.8303 43.084 94.9183 43.2527 94.9623 43.458C95.021 43.6633 95.0503 43.8613 95.0503 44.052C95.0503 44.3013 95.0283 44.6533 94.9843 45.108C94.9403 45.548 94.889 46.0027 94.8303 46.472L94.1483 52.764C93.987 54.2747 93.6496 55.4333 93.1363 56.24C92.6376 57.0467 91.9483 57.604 91.0683 57.912C90.203 58.2053 89.1396 58.352 87.8783 58.352ZM102.469 58.352C101.237 58.352 100.159 58.11 99.2348 57.626C98.3254 57.1273 97.6141 56.3867 97.1008 55.404C96.5874 54.4213 96.3308 53.2113 96.3308 51.774C96.3308 50.454 96.5361 49.244 96.9468 48.144C97.3721 47.0293 97.9661 46.0687 98.7288 45.262C99.4914 44.4407 100.401 43.81 101.457 43.37C102.513 42.9153 103.686 42.688 104.977 42.688C106.179 42.688 107.081 42.82 107.683 43.084C108.284 43.3333 108.585 43.788 108.585 44.448C108.585 44.8 108.519 45.1007 108.387 45.35C108.269 45.5993 108.137 45.724 107.991 45.724C107.859 45.724 107.705 45.68 107.529 45.592C107.367 45.504 107.184 45.4087 106.979 45.306C106.627 45.13 106.238 44.9467 105.813 44.756C105.402 44.5507 104.852 44.448 104.163 44.448C103.268 44.448 102.447 44.7413 101.699 45.328C100.965 45.9147 100.371 46.7287 99.9168 47.77C99.4768 48.7967 99.2568 49.9993 99.2568 51.378C99.2568 52.5367 99.4254 53.5047 99.7628 54.282C100.115 55.0593 100.577 55.6387 101.149 56.02C101.721 56.4013 102.344 56.592 103.019 56.592C103.576 56.592 104.075 56.4893 104.515 56.284C104.955 56.064 105.336 55.8147 105.659 55.536C105.996 55.2573 106.297 55.0153 106.561 54.81C106.825 54.59 107.059 54.48 107.265 54.48C107.426 54.48 107.558 54.5167 107.661 54.59C107.778 54.6633 107.837 54.8173 107.837 55.052C107.837 55.624 107.595 56.1593 107.111 56.658C106.627 57.1567 105.981 57.5673 105.175 57.89C104.368 58.198 103.466 58.352 102.469 58.352ZM118.896 58.154C118.602 58.154 118.258 57.9707 117.862 57.604C117.48 57.2227 117.07 56.7167 116.63 56.086C116.204 55.4553 115.764 54.7513 115.31 53.974C114.87 53.1967 114.437 52.4047 114.012 51.598C113.938 51.4367 113.858 51.268 113.77 51.092C113.696 50.916 113.66 50.7253 113.66 50.52C113.66 50.2707 113.718 49.97 113.836 49.618C113.968 49.266 114.224 48.8187 114.606 48.276C114.987 47.7333 115.574 47.0513 116.366 46.23L117.84 44.712C118.456 44.0667 119.02 43.5753 119.534 43.238C120.062 42.9007 120.582 42.732 121.096 42.732C121.55 42.732 121.858 42.8347 122.02 43.04C122.196 43.2453 122.284 43.5387 122.284 43.92C122.284 44.272 122.24 44.5947 122.152 44.888C122.064 45.1667 121.954 45.3867 121.822 45.548C121.69 45.7093 121.55 45.79 121.404 45.79C121.257 45.79 121.088 45.768 120.898 45.724C120.707 45.6653 120.48 45.636 120.216 45.636C120.04 45.636 119.842 45.6873 119.622 45.79C119.402 45.878 119.138 46.054 118.83 46.318C118.522 46.582 118.133 46.9853 117.664 47.528L115.266 50.278L115.662 48.804C116.116 50.036 116.644 51.1433 117.246 52.126C117.862 53.1087 118.441 53.9227 118.984 54.568C119.526 55.2133 119.922 55.646 120.172 55.866C120.509 56.1447 120.773 56.3427 120.964 56.46C121.169 56.5627 121.316 56.636 121.404 56.68C121.492 56.724 121.536 56.8047 121.536 56.922C121.536 57.054 121.44 57.1933 121.25 57.34C121.074 57.4867 120.846 57.626 120.568 57.758C120.289 57.8753 119.996 57.9707 119.688 58.044C119.394 58.1173 119.13 58.154 118.896 58.154ZM110.58 58.176C110.374 58.176 110.206 58.088 110.074 57.912C109.956 57.736 109.868 57.5087 109.81 57.23C109.751 56.9513 109.722 56.6727 109.722 56.394C109.722 55.7927 109.758 55.2133 109.832 54.656C109.905 54.0987 109.971 53.4973 110.03 52.852L111.086 42.71H112.626C113.007 42.71 113.256 42.8567 113.374 43.15C113.506 43.4287 113.572 43.766 113.572 44.162C113.572 44.514 113.557 44.8293 113.528 45.108C113.498 45.3867 113.454 45.724 113.396 46.12C113.352 46.516 113.293 47.0587 113.22 47.748L112.12 58.176H110.58ZM127.524 52.258L125.544 47.55C125.251 46.846 124.979 46.274 124.73 45.834C124.495 45.3793 124.231 45.0347 123.938 44.8C123.571 44.5067 123.329 44.294 123.212 44.162C123.095 44.03 123.036 43.8907 123.036 43.744C123.036 43.612 123.161 43.4727 123.41 43.326C123.659 43.1647 123.945 43.0253 124.268 42.908C124.591 42.7907 124.862 42.732 125.082 42.732C125.683 42.732 126.182 42.9813 126.578 43.48C126.989 43.964 127.341 44.624 127.634 45.46L129.262 50.036L128.602 50.52L130.802 47.132C131.213 46.516 131.462 45.9807 131.55 45.526C131.653 45.0713 131.719 44.69 131.748 44.382C131.777 44.118 131.939 43.8907 132.232 43.7C132.525 43.4947 132.87 43.3187 133.266 43.172C133.662 43.0253 134.036 42.9153 134.388 42.842C134.755 42.7687 135.026 42.732 135.202 42.732C135.466 42.732 135.598 42.8493 135.598 43.084C135.598 43.2307 135.539 43.414 135.422 43.634C135.305 43.854 135.143 44.1033 134.938 44.382L129.394 52.258H127.524ZM127.414 58.176C127.15 58.176 126.967 58.0587 126.864 57.824C126.761 57.5893 126.71 57.274 126.71 56.878C126.71 56.5847 126.732 56.2547 126.776 55.888L127.37 50.542L129.988 50.938L129.196 58.176H127.414Z"/>
<path d="M139.563 61.74C138.801 61.74 138.236 61.5567 137.869 61.19C137.488 60.8233 137.297 60.288 137.297 59.584C137.297 59.4373 137.334 59.3273 137.407 59.254C137.466 59.1953 137.525 59.166 137.583 59.166C137.657 59.166 137.737 59.1807 137.825 59.21C137.899 59.254 138.031 59.3127 138.221 59.386C138.573 59.5327 138.918 59.6573 139.255 59.76C139.578 59.8773 139.864 59.936 140.113 59.936C140.333 59.936 140.517 59.826 140.663 59.606C140.825 59.386 140.957 59.0047 141.059 58.462C141.177 57.934 141.287 57.208 141.389 56.284L142.885 42.71H144.425C144.836 42.71 145.1 42.8567 145.217 43.15C145.335 43.4287 145.393 43.766 145.393 44.162C145.393 44.426 145.357 44.8293 145.283 45.372C145.21 45.9147 145.115 46.7067 144.997 47.748L144.205 55.052C144.073 56.2987 143.853 57.3473 143.545 58.198C143.252 59.0633 142.9 59.7527 142.489 60.266C142.079 60.794 141.624 61.168 141.125 61.388C140.627 61.6227 140.106 61.74 139.563 61.74ZM153.24 58.352C151.979 58.352 150.871 58.11 149.918 57.626C148.979 57.1273 148.246 56.3867 147.718 55.404C147.205 54.4213 146.948 53.2113 146.948 51.774C146.948 50.454 147.153 49.244 147.564 48.144C147.975 47.0293 148.547 46.0687 149.28 45.262C150.028 44.4407 150.893 43.81 151.876 43.37C152.859 42.9153 153.929 42.688 155.088 42.688C157.068 42.688 158.608 43.2453 159.708 44.36C160.823 45.46 161.38 47.088 161.38 49.244C161.38 50.564 161.175 51.7813 160.764 52.896C160.353 53.996 159.774 54.9567 159.026 55.778C158.293 56.5993 157.435 57.2373 156.452 57.692C155.469 58.132 154.399 58.352 153.24 58.352ZM153.526 56.592C154.142 56.592 154.743 56.4307 155.33 56.108C155.917 55.7707 156.445 55.294 156.914 54.678C157.383 54.062 157.757 53.336 158.036 52.5C158.315 51.6493 158.454 50.7107 158.454 49.684C158.454 48.4813 158.285 47.4987 157.948 46.736C157.625 45.9587 157.185 45.3867 156.628 45.02C156.085 44.6387 155.477 44.448 154.802 44.448C153.907 44.448 153.086 44.7413 152.338 45.328C151.59 45.9 150.989 46.7067 150.534 47.748C150.094 48.7893 149.874 49.992 149.874 51.356C149.874 52.544 150.035 53.5267 150.358 54.304C150.695 55.0813 151.143 55.6607 151.7 56.042C152.257 56.4087 152.866 56.592 153.526 56.592ZM172.22 58.154C171.927 58.154 171.582 57.9707 171.186 57.604C170.805 57.2227 170.394 56.7167 169.954 56.086C169.529 55.4553 169.089 54.7513 168.634 53.974C168.194 53.1967 167.761 52.4047 167.336 51.598C167.263 51.4367 167.182 51.268 167.094 51.092C167.021 50.916 166.984 50.7253 166.984 50.52C166.984 50.2707 167.043 49.97 167.16 49.618C167.292 49.266 167.549 48.8187 167.93 48.276C168.311 47.7333 168.898 47.0513 169.69 46.23L171.164 44.712C171.78 44.0667 172.345 43.5753 172.858 43.238C173.386 42.9007 173.907 42.732 174.42 42.732C174.875 42.732 175.183 42.8347 175.344 43.04C175.52 43.2453 175.608 43.5387 175.608 43.92C175.608 44.272 175.564 44.5947 175.476 44.888C175.388 45.1667 175.278 45.3867 175.146 45.548C175.014 45.7093 174.875 45.79 174.728 45.79C174.581 45.79 174.413 45.768 174.222 45.724C174.031 45.6653 173.804 45.636 173.54 45.636C173.364 45.636 173.166 45.6873 172.946 45.79C172.726 45.878 172.462 46.054 172.154 46.318C171.846 46.582 171.457 46.9853 170.988 47.528L168.59 50.278L168.986 48.804C169.441 50.036 169.969 51.1433 170.57 52.126C171.186 53.1087 171.765 53.9227 172.308 54.568C172.851 55.2133 173.247 55.646 173.496 55.866C173.833 56.1447 174.097 56.3427 174.288 56.46C174.493 56.5627 174.64 56.636 174.728 56.68C174.816 56.724 174.86 56.8047 174.86 56.922C174.86 57.054 174.765 57.1933 174.574 57.34C174.398 57.4867 174.171 57.626 173.892 57.758C173.613 57.8753 173.32 57.9707 173.012 58.044C172.719 58.1173 172.455 58.154 172.22 58.154ZM163.904 58.176C163.699 58.176 163.53 58.088 163.398 57.912C163.281 57.736 163.193 57.5087 163.134 57.23C163.075 56.9513 163.046 56.6727 163.046 56.394C163.046 55.7927 163.083 55.2133 163.156 54.656C163.229 54.0987 163.295 53.4973 163.354 52.852L164.41 42.71H165.95C166.331 42.71 166.581 42.8567 166.698 43.15C166.83 43.4287 166.896 43.766 166.896 44.162C166.896 44.514 166.881 44.8293 166.852 45.108C166.823 45.3867 166.779 45.724 166.72 46.12C166.676 46.516 166.617 47.0587 166.544 47.748L165.444 58.176H163.904ZM177.46 58.264C177.196 58.264 176.991 58.1027 176.844 57.78C176.712 57.4573 176.646 57.098 176.646 56.702C176.646 56.13 176.712 55.1987 176.844 53.908L177.944 43.04H181.332C182.373 43.04 183.195 43.0253 183.796 42.996C184.412 42.952 184.874 42.9153 185.182 42.886C185.505 42.842 185.739 42.82 185.886 42.82C186.047 42.82 186.157 42.8493 186.216 42.908C186.289 42.952 186.326 43.084 186.326 43.304C186.326 43.568 186.275 43.854 186.172 44.162C186.069 44.47 185.93 44.734 185.754 44.954C185.593 45.174 185.402 45.284 185.182 45.284C185.035 45.284 184.793 45.262 184.456 45.218C184.119 45.174 183.737 45.1227 183.312 45.064L180.452 44.69L179.462 54.502C179.433 54.81 179.418 55.118 179.418 55.426C179.418 55.734 179.44 56.042 179.484 56.35L184.192 55.426C184.456 55.3673 184.676 55.3233 184.852 55.294C185.043 55.25 185.167 55.228 185.226 55.228C185.402 55.228 185.49 55.3307 185.49 55.536C185.49 55.9027 185.424 56.2767 185.292 56.658C185.175 57.0393 185.006 57.362 184.786 57.626C184.566 57.8753 184.295 58 183.972 58H183.312C181.669 58 180.379 58.044 179.44 58.132C178.501 58.22 177.841 58.264 177.46 58.264ZM178.582 51.07L178.868 49.376H179.924C180.555 49.376 181.149 49.354 181.706 49.31C182.263 49.266 182.733 49.222 183.114 49.178C183.495 49.134 183.737 49.112 183.84 49.112C183.957 49.112 184.045 49.1487 184.104 49.222C184.163 49.2807 184.192 49.3687 184.192 49.486C184.192 49.706 184.045 49.9333 183.752 50.168C183.459 50.4027 183.092 50.6007 182.652 50.762C182.227 50.9233 181.809 51.0113 181.398 51.026L178.582 51.07ZM195.746 58.198C195.365 58.198 194.925 57.912 194.426 57.34C193.942 56.7533 193.451 55.998 192.952 55.074C192.454 54.1353 191.977 53.1307 191.522 52.06C191.464 51.928 191.398 51.796 191.324 51.664C191.266 51.5173 191.236 51.3707 191.236 51.224C191.236 51.0627 191.288 50.9527 191.39 50.894C191.493 50.8207 191.603 50.7767 191.72 50.762C192.718 50.5713 193.546 50.1753 194.206 49.574C194.881 48.9727 195.218 48.2027 195.218 47.264C195.218 46.736 195.101 46.2667 194.866 45.856C194.646 45.4307 194.25 45.0933 193.678 44.844C193.106 44.5947 192.314 44.47 191.302 44.47H191.214L189.762 58.176H187.98C187.731 58.176 187.555 58.0587 187.452 57.824C187.35 57.5893 187.298 57.274 187.298 56.878C187.298 56.5847 187.32 56.2547 187.364 55.888L188.772 43.04C189.418 42.9667 190.056 42.9153 190.686 42.886C191.332 42.842 191.97 42.82 192.6 42.82C193.671 42.82 194.624 42.9667 195.46 43.26C196.296 43.5533 196.949 44.008 197.418 44.624C197.902 45.24 198.144 46.0393 198.144 47.022C198.144 47.7113 198.005 48.3273 197.726 48.87C197.462 49.4127 197.096 49.882 196.626 50.278C196.172 50.6593 195.666 50.9747 195.108 51.224C194.551 51.4733 193.986 51.6567 193.414 51.774L193.59 50.674C194.089 51.7153 194.573 52.6027 195.042 53.336C195.526 54.0693 195.959 54.656 196.34 55.096C196.722 55.5213 197.015 55.822 197.22 55.998C197.587 56.2767 197.851 56.4747 198.012 56.592C198.188 56.6947 198.276 56.812 198.276 56.944C198.276 57.076 198.181 57.2153 197.99 57.362C197.814 57.494 197.587 57.626 197.308 57.758C197.03 57.89 196.744 57.9927 196.45 58.066C196.172 58.154 195.937 58.198 195.746 58.198Z"/>
</mask>
<path d="M73.046 58.264C72.782 58.264 72.5767 58.1027 72.43 57.78C72.298 57.4573 72.232 57.098 72.232 56.702C72.232 56.13 72.298 55.1987 72.43 53.908L73.574 42.71H75.334C75.8033 42.71 76.06 42.9007 76.104 43.282C76.148 43.6487 76.1187 44.2793 76.016 45.174L75.004 54.502C74.9747 54.81 74.96 55.118 74.96 55.426C74.96 55.734 74.982 56.042 75.026 56.35L79.756 55.25C79.9173 55.2207 80.042 55.1987 80.13 55.184C80.218 55.1547 80.284 55.14 80.328 55.14C80.504 55.14 80.592 55.2427 80.592 55.448C80.592 55.8147 80.526 56.196 80.394 56.592C80.2767 56.988 80.108 57.3253 79.888 57.604C79.668 57.868 79.3967 58 79.074 58H78.414C77.314 58 76.412 58.022 75.708 58.066C75.0187 58.11 74.4687 58.154 74.058 58.198C73.6473 58.242 73.31 58.264 73.046 58.264ZM87.8783 58.352C86.4556 58.352 85.3116 58.1907 84.4463 57.868C83.5956 57.5307 83.009 56.9733 82.6863 56.196C82.3636 55.4187 82.2683 54.3627 82.4003 53.028L83.4783 42.71H85.2383C85.5316 42.71 85.7296 42.7833 85.8323 42.93C85.9496 43.062 86.0083 43.326 86.0083 43.722C86.0083 44.074 85.9863 44.426 85.9423 44.778C85.913 45.13 85.869 45.5407 85.8103 46.01C85.7516 46.4793 85.6856 47.0587 85.6123 47.748L85.1283 52.236C84.967 53.732 85.1283 54.832 85.6123 55.536C86.111 56.24 87.0423 56.592 88.4063 56.592C89.037 56.592 89.609 56.4673 90.1223 56.218C90.6503 55.9687 91.083 55.58 91.4203 55.052C91.7723 54.5093 91.9923 53.8053 92.0803 52.94L92.5423 48.672C92.6303 47.8507 92.667 47.1687 92.6523 46.626C92.6376 46.0833 92.5936 45.636 92.5203 45.284C92.447 44.9173 92.381 44.6167 92.3223 44.382C92.2636 44.1327 92.2343 43.9127 92.2343 43.722C92.2343 43.546 92.3443 43.3847 92.5643 43.238C92.799 43.0767 93.0703 42.952 93.3783 42.864C93.6863 42.776 93.9576 42.732 94.1923 42.732C94.4123 42.732 94.581 42.8053 94.6983 42.952C94.8303 43.084 94.9183 43.2527 94.9623 43.458C95.021 43.6633 95.0503 43.8613 95.0503 44.052C95.0503 44.3013 95.0283 44.6533 94.9843 45.108C94.9403 45.548 94.889 46.0027 94.8303 46.472L94.1483 52.764C93.987 54.2747 93.6496 55.4333 93.1363 56.24C92.6376 57.0467 91.9483 57.604 91.0683 57.912C90.203 58.2053 89.1396 58.352 87.8783 58.352ZM102.469 58.352C101.237 58.352 100.159 58.11 99.2348 57.626C98.3254 57.1273 97.6141 56.3867 97.1008 55.404C96.5874 54.4213 96.3308 53.2113 96.3308 51.774C96.3308 50.454 96.5361 49.244 96.9468 48.144C97.3721 47.0293 97.9661 46.0687 98.7288 45.262C99.4914 44.4407 100.401 43.81 101.457 43.37C102.513 42.9153 103.686 42.688 104.977 42.688C106.179 42.688 107.081 42.82 107.683 43.084C108.284 43.3333 108.585 43.788 108.585 44.448C108.585 44.8 108.519 45.1007 108.387 45.35C108.269 45.5993 108.137 45.724 107.991 45.724C107.859 45.724 107.705 45.68 107.529 45.592C107.367 45.504 107.184 45.4087 106.979 45.306C106.627 45.13 106.238 44.9467 105.813 44.756C105.402 44.5507 104.852 44.448 104.163 44.448C103.268 44.448 102.447 44.7413 101.699 45.328C100.965 45.9147 100.371 46.7287 99.9168 47.77C99.4768 48.7967 99.2568 49.9993 99.2568 51.378C99.2568 52.5367 99.4254 53.5047 99.7628 54.282C100.115 55.0593 100.577 55.6387 101.149 56.02C101.721 56.4013 102.344 56.592 103.019 56.592C103.576 56.592 104.075 56.4893 104.515 56.284C104.955 56.064 105.336 55.8147 105.659 55.536C105.996 55.2573 106.297 55.0153 106.561 54.81C106.825 54.59 107.059 54.48 107.265 54.48C107.426 54.48 107.558 54.5167 107.661 54.59C107.778 54.6633 107.837 54.8173 107.837 55.052C107.837 55.624 107.595 56.1593 107.111 56.658C106.627 57.1567 105.981 57.5673 105.175 57.89C104.368 58.198 103.466 58.352 102.469 58.352ZM118.896 58.154C118.602 58.154 118.258 57.9707 117.862 57.604C117.48 57.2227 117.07 56.7167 116.63 56.086C116.204 55.4553 115.764 54.7513 115.31 53.974C114.87 53.1967 114.437 52.4047 114.012 51.598C113.938 51.4367 113.858 51.268 113.77 51.092C113.696 50.916 113.66 50.7253 113.66 50.52C113.66 50.2707 113.718 49.97 113.836 49.618C113.968 49.266 114.224 48.8187 114.606 48.276C114.987 47.7333 115.574 47.0513 116.366 46.23L117.84 44.712C118.456 44.0667 119.02 43.5753 119.534 43.238C120.062 42.9007 120.582 42.732 121.096 42.732C121.55 42.732 121.858 42.8347 122.02 43.04C122.196 43.2453 122.284 43.5387 122.284 43.92C122.284 44.272 122.24 44.5947 122.152 44.888C122.064 45.1667 121.954 45.3867 121.822 45.548C121.69 45.7093 121.55 45.79 121.404 45.79C121.257 45.79 121.088 45.768 120.898 45.724C120.707 45.6653 120.48 45.636 120.216 45.636C120.04 45.636 119.842 45.6873 119.622 45.79C119.402 45.878 119.138 46.054 118.83 46.318C118.522 46.582 118.133 46.9853 117.664 47.528L115.266 50.278L115.662 48.804C116.116 50.036 116.644 51.1433 117.246 52.126C117.862 53.1087 118.441 53.9227 118.984 54.568C119.526 55.2133 119.922 55.646 120.172 55.866C120.509 56.1447 120.773 56.3427 120.964 56.46C121.169 56.5627 121.316 56.636 121.404 56.68C121.492 56.724 121.536 56.8047 121.536 56.922C121.536 57.054 121.44 57.1933 121.25 57.34C121.074 57.4867 120.846 57.626 120.568 57.758C120.289 57.8753 119.996 57.9707 119.688 58.044C119.394 58.1173 119.13 58.154 118.896 58.154ZM110.58 58.176C110.374 58.176 110.206 58.088 110.074 57.912C109.956 57.736 109.868 57.5087 109.81 57.23C109.751 56.9513 109.722 56.6727 109.722 56.394C109.722 55.7927 109.758 55.2133 109.832 54.656C109.905 54.0987 109.971 53.4973 110.03 52.852L111.086 42.71H112.626C113.007 42.71 113.256 42.8567 113.374 43.15C113.506 43.4287 113.572 43.766 113.572 44.162C113.572 44.514 113.557 44.8293 113.528 45.108C113.498 45.3867 113.454 45.724 113.396 46.12C113.352 46.516 113.293 47.0587 113.22 47.748L112.12 58.176H110.58ZM127.524 52.258L125.544 47.55C125.251 46.846 124.979 46.274 124.73 45.834C124.495 45.3793 124.231 45.0347 123.938 44.8C123.571 44.5067 123.329 44.294 123.212 44.162C123.095 44.03 123.036 43.8907 123.036 43.744C123.036 43.612 123.161 43.4727 123.41 43.326C123.659 43.1647 123.945 43.0253 124.268 42.908C124.591 42.7907 124.862 42.732 125.082 42.732C125.683 42.732 126.182 42.9813 126.578 43.48C126.989 43.964 127.341 44.624 127.634 45.46L129.262 50.036L128.602 50.52L130.802 47.132C131.213 46.516 131.462 45.9807 131.55 45.526C131.653 45.0713 131.719 44.69 131.748 44.382C131.777 44.118 131.939 43.8907 132.232 43.7C132.525 43.4947 132.87 43.3187 133.266 43.172C133.662 43.0253 134.036 42.9153 134.388 42.842C134.755 42.7687 135.026 42.732 135.202 42.732C135.466 42.732 135.598 42.8493 135.598 43.084C135.598 43.2307 135.539 43.414 135.422 43.634C135.305 43.854 135.143 44.1033 134.938 44.382L129.394 52.258H127.524ZM127.414 58.176C127.15 58.176 126.967 58.0587 126.864 57.824C126.761 57.5893 126.71 57.274 126.71 56.878C126.71 56.5847 126.732 56.2547 126.776 55.888L127.37 50.542L129.988 50.938L129.196 58.176H127.414Z" fill="#A100FF"/>
<path d="M139.563 61.74C138.801 61.74 138.236 61.5567 137.869 61.19C137.488 60.8233 137.297 60.288 137.297 59.584C137.297 59.4373 137.334 59.3273 137.407 59.254C137.466 59.1953 137.525 59.166 137.583 59.166C137.657 59.166 137.737 59.1807 137.825 59.21C137.899 59.254 138.031 59.3127 138.221 59.386C138.573 59.5327 138.918 59.6573 139.255 59.76C139.578 59.8773 139.864 59.936 140.113 59.936C140.333 59.936 140.517 59.826 140.663 59.606C140.825 59.386 140.957 59.0047 141.059 58.462C141.177 57.934 141.287 57.208 141.389 56.284L142.885 42.71H144.425C144.836 42.71 145.1 42.8567 145.217 43.15C145.335 43.4287 145.393 43.766 145.393 44.162C145.393 44.426 145.357 44.8293 145.283 45.372C145.21 45.9147 145.115 46.7067 144.997 47.748L144.205 55.052C144.073 56.2987 143.853 57.3473 143.545 58.198C143.252 59.0633 142.9 59.7527 142.489 60.266C142.079 60.794 141.624 61.168 141.125 61.388C140.627 61.6227 140.106 61.74 139.563 61.74ZM153.24 58.352C151.979 58.352 150.871 58.11 149.918 57.626C148.979 57.1273 148.246 56.3867 147.718 55.404C147.205 54.4213 146.948 53.2113 146.948 51.774C146.948 50.454 147.153 49.244 147.564 48.144C147.975 47.0293 148.547 46.0687 149.28 45.262C150.028 44.4407 150.893 43.81 151.876 43.37C152.859 42.9153 153.929 42.688 155.088 42.688C157.068 42.688 158.608 43.2453 159.708 44.36C160.823 45.46 161.38 47.088 161.38 49.244C161.38 50.564 161.175 51.7813 160.764 52.896C160.353 53.996 159.774 54.9567 159.026 55.778C158.293 56.5993 157.435 57.2373 156.452 57.692C155.469 58.132 154.399 58.352 153.24 58.352ZM153.526 56.592C154.142 56.592 154.743 56.4307 155.33 56.108C155.917 55.7707 156.445 55.294 156.914 54.678C157.383 54.062 157.757 53.336 158.036 52.5C158.315 51.6493 158.454 50.7107 158.454 49.684C158.454 48.4813 158.285 47.4987 157.948 46.736C157.625 45.9587 157.185 45.3867 156.628 45.02C156.085 44.6387 155.477 44.448 154.802 44.448C153.907 44.448 153.086 44.7413 152.338 45.328C151.59 45.9 150.989 46.7067 150.534 47.748C150.094 48.7893 149.874 49.992 149.874 51.356C149.874 52.544 150.035 53.5267 150.358 54.304C150.695 55.0813 151.143 55.6607 151.7 56.042C152.257 56.4087 152.866 56.592 153.526 56.592ZM172.22 58.154C171.927 58.154 171.582 57.9707 171.186 57.604C170.805 57.2227 170.394 56.7167 169.954 56.086C169.529 55.4553 169.089 54.7513 168.634 53.974C168.194 53.1967 167.761 52.4047 167.336 51.598C167.263 51.4367 167.182 51.268 167.094 51.092C167.021 50.916 166.984 50.7253 166.984 50.52C166.984 50.2707 167.043 49.97 167.16 49.618C167.292 49.266 167.549 48.8187 167.93 48.276C168.311 47.7333 168.898 47.0513 169.69 46.23L171.164 44.712C171.78 44.0667 172.345 43.5753 172.858 43.238C173.386 42.9007 173.907 42.732 174.42 42.732C174.875 42.732 175.183 42.8347 175.344 43.04C175.52 43.2453 175.608 43.5387 175.608 43.92C175.608 44.272 175.564 44.5947 175.476 44.888C175.388 45.1667 175.278 45.3867 175.146 45.548C175.014 45.7093 174.875 45.79 174.728 45.79C174.581 45.79 174.413 45.768 174.222 45.724C174.031 45.6653 173.804 45.636 173.54 45.636C173.364 45.636 173.166 45.6873 172.946 45.79C172.726 45.878 172.462 46.054 172.154 46.318C171.846 46.582 171.457 46.9853 170.988 47.528L168.59 50.278L168.986 48.804C169.441 50.036 169.969 51.1433 170.57 52.126C171.186 53.1087 171.765 53.9227 172.308 54.568C172.851 55.2133 173.247 55.646 173.496 55.866C173.833 56.1447 174.097 56.3427 174.288 56.46C174.493 56.5627 174.64 56.636 174.728 56.68C174.816 56.724 174.86 56.8047 174.86 56.922C174.86 57.054 174.765 57.1933 174.574 57.34C174.398 57.4867 174.171 57.626 173.892 57.758C173.613 57.8753 173.32 57.9707 173.012 58.044C172.719 58.1173 172.455 58.154 172.22 58.154ZM163.904 58.176C163.699 58.176 163.53 58.088 163.398 57.912C163.281 57.736 163.193 57.5087 163.134 57.23C163.075 56.9513 163.046 56.6727 163.046 56.394C163.046 55.7927 163.083 55.2133 163.156 54.656C163.229 54.0987 163.295 53.4973 163.354 52.852L164.41 42.71H165.95C166.331 42.71 166.581 42.8567 166.698 43.15C166.83 43.4287 166.896 43.766 166.896 44.162C166.896 44.514 166.881 44.8293 166.852 45.108C166.823 45.3867 166.779 45.724 166.72 46.12C166.676 46.516 166.617 47.0587 166.544 47.748L165.444 58.176H163.904ZM177.46 58.264C177.196 58.264 176.991 58.1027 176.844 57.78C176.712 57.4573 176.646 57.098 176.646 56.702C176.646 56.13 176.712 55.1987 176.844 53.908L177.944 43.04H181.332C182.373 43.04 183.195 43.0253 183.796 42.996C184.412 42.952 184.874 42.9153 185.182 42.886C185.505 42.842 185.739 42.82 185.886 42.82C186.047 42.82 186.157 42.8493 186.216 42.908C186.289 42.952 186.326 43.084 186.326 43.304C186.326 43.568 186.275 43.854 186.172 44.162C186.069 44.47 185.93 44.734 185.754 44.954C185.593 45.174 185.402 45.284 185.182 45.284C185.035 45.284 184.793 45.262 184.456 45.218C184.119 45.174 183.737 45.1227 183.312 45.064L180.452 44.69L179.462 54.502C179.433 54.81 179.418 55.118 179.418 55.426C179.418 55.734 179.44 56.042 179.484 56.35L184.192 55.426C184.456 55.3673 184.676 55.3233 184.852 55.294C185.043 55.25 185.167 55.228 185.226 55.228C185.402 55.228 185.49 55.3307 185.49 55.536C185.49 55.9027 185.424 56.2767 185.292 56.658C185.175 57.0393 185.006 57.362 184.786 57.626C184.566 57.8753 184.295 58 183.972 58H183.312C181.669 58 180.379 58.044 179.44 58.132C178.501 58.22 177.841 58.264 177.46 58.264ZM178.582 51.07L178.868 49.376H179.924C180.555 49.376 181.149 49.354 181.706 49.31C182.263 49.266 182.733 49.222 183.114 49.178C183.495 49.134 183.737 49.112 183.84 49.112C183.957 49.112 184.045 49.1487 184.104 49.222C184.163 49.2807 184.192 49.3687 184.192 49.486C184.192 49.706 184.045 49.9333 183.752 50.168C183.459 50.4027 183.092 50.6007 182.652 50.762C182.227 50.9233 181.809 51.0113 181.398 51.026L178.582 51.07ZM195.746 58.198C195.365 58.198 194.925 57.912 194.426 57.34C193.942 56.7533 193.451 55.998 192.952 55.074C192.454 54.1353 191.977 53.1307 191.522 52.06C191.464 51.928 191.398 51.796 191.324 51.664C191.266 51.5173 191.236 51.3707 191.236 51.224C191.236 51.0627 191.288 50.9527 191.39 50.894C191.493 50.8207 191.603 50.7767 191.72 50.762C192.718 50.5713 193.546 50.1753 194.206 49.574C194.881 48.9727 195.218 48.2027 195.218 47.264C195.218 46.736 195.101 46.2667 194.866 45.856C194.646 45.4307 194.25 45.0933 193.678 44.844C193.106 44.5947 192.314 44.47 191.302 44.47H191.214L189.762 58.176H187.98C187.731 58.176 187.555 58.0587 187.452 57.824C187.35 57.5893 187.298 57.274 187.298 56.878C187.298 56.5847 187.32 56.2547 187.364 55.888L188.772 43.04C189.418 42.9667 190.056 42.9153 190.686 42.886C191.332 42.842 191.97 42.82 192.6 42.82C193.671 42.82 194.624 42.9667 195.46 43.26C196.296 43.5533 196.949 44.008 197.418 44.624C197.902 45.24 198.144 46.0393 198.144 47.022C198.144 47.7113 198.005 48.3273 197.726 48.87C197.462 49.4127 197.096 49.882 196.626 50.278C196.172 50.6593 195.666 50.9747 195.108 51.224C194.551 51.4733 193.986 51.6567 193.414 51.774L193.59 50.674C194.089 51.7153 194.573 52.6027 195.042 53.336C195.526 54.0693 195.959 54.656 196.34 55.096C196.722 55.5213 197.015 55.822 197.22 55.998C197.587 56.2767 197.851 56.4747 198.012 56.592C198.188 56.6947 198.276 56.812 198.276 56.944C198.276 57.076 198.181 57.2153 197.99 57.362C197.814 57.494 197.587 57.626 197.308 57.758C197.03 57.89 196.744 57.9927 196.45 58.066C196.172 58.154 195.937 58.198 195.746 58.198Z" fill="#FF6A00"/>
<path d="M72.43 57.78L71.9672 57.9693C71.9696 57.9752 71.9722 57.9811 71.9748 57.9869L72.43 57.78ZM72.43 53.908L72.9274 53.9589L72.9274 53.9588L72.43 53.908ZM73.574 42.71V42.21C73.3175 42.21 73.1027 42.404 73.0766 42.6592L73.574 42.71ZM76.104 43.282L75.6073 43.3393L75.6076 43.3416L76.104 43.282ZM76.016 45.174L75.5193 45.117L75.5189 45.1201L76.016 45.174ZM75.004 54.502L74.5069 54.4481L74.5063 54.4546L75.004 54.502ZM75.026 56.35L74.531 56.4207C74.5508 56.5594 74.628 56.6835 74.7436 56.7626C74.8592 56.8418 75.0028 56.8687 75.1393 56.837L75.026 56.35ZM79.756 55.25L79.6666 54.7581C79.6586 54.7595 79.6506 54.7612 79.6427 54.763L79.756 55.25ZM80.13 55.184L80.2122 55.6772C80.238 55.6729 80.2633 55.6666 80.2881 55.6583L80.13 55.184ZM80.394 56.592L79.9197 56.4339C79.9179 56.4392 79.9162 56.4446 79.9146 56.45L80.394 56.592ZM79.888 57.604L80.2722 57.9242L80.2804 57.9138L79.888 57.604ZM75.708 58.066L75.6768 57.567L75.6762 57.567L75.708 58.066ZM74.058 58.198L74.1113 58.6952L74.058 58.198ZM73.046 57.764C73.0247 57.764 73.0164 57.7605 73.0029 57.7498C72.9816 57.7331 72.9367 57.6863 72.8852 57.5731L71.9748 57.9869C72.1696 58.4155 72.517 58.764 73.046 58.764V57.764ZM72.8928 57.5907C72.7885 57.3357 72.732 57.0418 72.732 56.702H71.732C71.732 57.1542 71.8075 57.5789 71.9672 57.9693L72.8928 57.5907ZM72.732 56.702C72.732 56.1576 72.7955 55.2483 72.9274 53.9589L71.9326 53.8571C71.8005 55.149 71.732 56.1024 71.732 56.702H72.732ZM72.9274 53.9588L74.0714 42.7608L73.0766 42.6592L71.9326 53.8572L72.9274 53.9588ZM73.574 43.21H75.334V42.21H73.574V43.21ZM75.334 43.21C75.5094 43.21 75.5702 43.2468 75.5803 43.2544C75.5837 43.2568 75.5855 43.2585 75.5885 43.2644C75.5926 43.2721 75.6021 43.294 75.6073 43.3393L76.6007 43.2247C76.5663 42.9266 76.4378 42.6456 76.1767 42.4516C75.9302 42.2685 75.628 42.21 75.334 42.21V43.21ZM75.6076 43.3416C75.6438 43.6437 75.622 44.2215 75.5193 45.117L76.5127 45.231C76.6153 44.3371 76.6522 43.6537 76.6004 43.2224L75.6076 43.3416ZM75.5189 45.1201L74.5069 54.4481L75.5011 54.5559L76.5131 45.2279L75.5189 45.1201ZM74.5063 54.4546C74.4754 54.7783 74.46 55.1021 74.46 55.426H75.46C75.46 55.1339 75.4739 54.8417 75.5017 54.5494L74.5063 54.4546ZM74.46 55.426C74.46 55.7579 74.4837 56.0895 74.531 56.4207L75.521 56.2793C75.4803 55.9945 75.46 55.7101 75.46 55.426H74.46ZM75.1393 56.837L79.8693 55.737L79.6427 54.763L74.9127 55.863L75.1393 56.837ZM79.8454 55.7419C80.006 55.7127 80.1278 55.6913 80.2122 55.6772L80.0478 54.6908C79.9562 54.7061 79.8287 54.7286 79.6666 54.7581L79.8454 55.7419ZM80.2881 55.6583C80.3213 55.6473 80.3426 55.6416 80.354 55.6391C80.3594 55.6379 80.3601 55.6379 80.357 55.6384C80.3542 55.6387 80.3439 55.64 80.328 55.64V54.64C80.1982 54.64 80.0673 54.6779 79.9719 54.7097L80.2881 55.6583ZM80.328 55.64C80.3245 55.64 80.2992 55.6396 80.2623 55.6253C80.2223 55.6097 80.1805 55.5822 80.1464 55.5424C80.0812 55.4663 80.092 55.4052 80.092 55.448H81.092C81.092 55.2855 81.0588 55.0703 80.9056 54.8916C80.7398 54.6981 80.5149 54.64 80.328 54.64V55.64ZM80.092 55.448C80.092 55.7541 80.037 56.0819 79.9197 56.4339L80.8683 56.7501C81.015 56.3101 81.092 55.8753 81.092 55.448H80.092ZM79.9146 56.45C79.8124 56.7948 79.6703 57.0728 79.4956 57.2942L80.2804 57.9138C80.5457 57.5778 80.7409 57.1812 80.8734 56.734L79.9146 56.45ZM79.5039 57.2839C79.3718 57.4424 79.2376 57.5 79.074 57.5V58.5C79.5557 58.5 79.9642 58.2936 80.2721 57.9241L79.5039 57.2839ZM79.074 57.5H78.414V58.5H79.074V57.5ZM78.414 57.5C77.3086 57.5 76.3952 57.5221 75.6768 57.567L75.7392 58.565C76.4288 58.5219 77.3194 58.5 78.414 58.5V57.5ZM75.6762 57.567C74.9837 57.6112 74.4257 57.6557 74.0047 57.7008L74.1113 58.6952C74.5117 58.6523 75.0536 58.6088 75.7399 58.565L75.6762 57.567ZM74.0047 57.7008C73.6031 57.7439 73.2852 57.764 73.046 57.764V58.764C73.3348 58.764 73.6916 58.7401 74.1113 58.6952L74.0047 57.7008ZM84.4463 57.868L84.2619 58.3329L84.2716 58.3365L84.4463 57.868ZM82.6863 56.196L82.2245 56.3877L82.6863 56.196ZM82.4003 53.028L81.903 52.976L81.9027 52.9788L82.4003 53.028ZM83.4783 42.71V42.21C83.2223 42.21 83.0076 42.4034 82.981 42.658L83.4783 42.71ZM85.8323 42.93L85.4227 43.2167C85.4338 43.2326 85.4458 43.2477 85.4586 43.2622L85.8323 42.93ZM85.9423 44.778L85.4462 44.716C85.4453 44.7228 85.4446 44.7296 85.444 44.7365L85.9423 44.778ZM85.8103 46.01L85.3142 45.948V45.948L85.8103 46.01ZM85.6123 47.748L86.1094 47.8016L86.1095 47.8009L85.6123 47.748ZM85.1283 52.236L84.6312 52.1824H84.6312L85.1283 52.236ZM85.6123 55.536L85.2002 55.8193L85.2043 55.825L85.6123 55.536ZM90.1223 56.218L89.9088 55.7658L89.9038 55.7682L90.1223 56.218ZM91.4203 55.052L91.0008 54.7799L90.9989 54.7828L91.4203 55.052ZM92.0803 52.94L91.5832 52.8862L91.5829 52.8894L92.0803 52.94ZM92.5423 48.672L93.0394 48.7258L93.0395 48.7253L92.5423 48.672ZM92.5203 45.284L92.03 45.3821L92.0308 45.386L92.5203 45.284ZM92.3223 44.382L91.8355 44.4965L91.8372 44.5033L92.3223 44.382ZM92.5643 43.238L92.8417 43.6541L92.8476 43.65L92.5643 43.238ZM93.3783 42.864L93.5157 43.3448L93.3783 42.864ZM94.6983 42.952L94.3079 43.2643C94.3194 43.2788 94.3317 43.2925 94.3447 43.3056L94.6983 42.952ZM94.9623 43.458L94.4734 43.5628C94.4757 43.5737 94.4785 43.5846 94.4815 43.5954L94.9623 43.458ZM94.9843 45.108L95.4818 45.1578L95.482 45.1562L94.9843 45.108ZM94.8303 46.472L94.3341 46.41L94.3332 46.4181L94.8303 46.472ZM94.1483 52.764L93.6512 52.7101L93.6511 52.7109L94.1483 52.764ZM93.1363 56.24L92.7144 55.9715L92.711 55.9771L93.1363 56.24ZM91.0683 57.912L91.2288 58.3856L91.2335 58.3839L91.0683 57.912ZM87.8783 57.852C86.4865 57.852 85.4087 57.6932 84.621 57.3995L84.2716 58.3365C85.2146 58.6881 86.4247 58.852 87.8783 58.852V57.852ZM84.6306 57.4032C83.8934 57.1109 83.4142 56.6453 83.1481 56.0043L82.2245 56.3877C82.6038 57.3014 83.2979 57.9505 84.262 58.3328L84.6306 57.4032ZM83.1481 56.0043C82.8704 55.3354 82.7697 54.3736 82.8979 53.0772L81.9027 52.9788C81.7669 54.3517 81.8568 55.502 82.2245 56.3877L83.1481 56.0043ZM82.8976 53.08L83.9756 42.762L82.981 42.658L81.903 52.976L82.8976 53.08ZM83.4783 43.21H85.2383V42.21H83.4783V43.21ZM85.2383 43.21C85.3471 43.21 85.4068 43.2241 85.4331 43.2339C85.4543 43.2417 85.4395 43.2408 85.4227 43.2167L86.2419 42.6433C85.9983 42.2952 85.5895 42.21 85.2383 42.21V43.21ZM85.4586 43.2622C85.4384 43.2395 85.4564 43.2461 85.4762 43.3355C85.4949 43.4196 85.5083 43.5453 85.5083 43.722H86.5083C86.5083 43.5027 86.4924 43.2984 86.4524 43.1185C86.4136 42.9439 86.3435 42.7525 86.206 42.5978L85.4586 43.2622ZM85.5083 43.722C85.5083 44.0531 85.4876 44.3844 85.4462 44.716L86.4384 44.84C86.485 44.4676 86.5083 44.0949 86.5083 43.722H85.5083ZM85.444 44.7365C85.4154 45.0798 85.3722 45.4833 85.3142 45.948L86.3064 46.072C86.3657 45.598 86.4105 45.1802 86.4406 44.8195L85.444 44.7365ZM85.3142 45.948C85.255 46.4214 85.1886 47.004 85.1151 47.6951L86.1095 47.8009C86.1826 47.1133 86.2483 46.5373 86.3064 46.072L85.3142 45.948ZM85.1152 47.6944L84.6312 52.1824L85.6254 52.2896L86.1094 47.8016L85.1152 47.6944ZM84.6312 52.1824C84.4658 53.7155 84.6132 54.9654 85.2003 55.8193L86.0243 55.2527C85.6433 54.6986 85.4681 53.7485 85.6254 52.2896L84.6312 52.1824ZM85.2043 55.825C85.8412 56.7242 86.9766 57.092 88.4063 57.092V56.092C87.1079 56.092 86.3807 55.7558 86.0203 55.247L85.2043 55.825ZM88.4063 57.092C89.1046 57.092 89.7524 56.9535 90.3407 56.6678L89.9038 55.7682C89.4655 55.9812 88.9693 56.092 88.4063 56.092V57.092ZM90.3358 56.6701C90.9552 56.3776 91.4575 55.9225 91.8416 55.3212L90.9989 54.7828C90.7084 55.2375 90.3454 55.5597 89.9088 55.7659L90.3358 56.6701ZM91.8398 55.3241C92.2473 54.6959 92.4843 53.9089 92.5777 52.9906L91.5829 52.8894C91.5003 53.7018 91.2973 54.3228 91.0008 54.7799L91.8398 55.3241ZM92.5774 52.9938L93.0394 48.7258L92.0452 48.6182L91.5832 52.8862L92.5774 52.9938ZM93.0395 48.7253C93.1287 47.8919 93.1676 47.1857 93.1521 46.6125L92.1525 46.6395C92.1663 47.1516 92.1319 47.8094 92.0451 48.6187L93.0395 48.7253ZM93.1521 46.6125C93.137 46.0535 93.0914 45.5738 93.0098 45.182L92.0308 45.386C92.0958 45.6982 92.1383 46.1132 92.1525 46.6395L93.1521 46.6125ZM93.0106 45.1859C92.9364 44.8152 92.8687 44.506 92.8074 44.2607L91.8372 44.5033C91.8932 44.7273 91.9575 45.0195 92.03 45.3821L93.0106 45.1859ZM92.809 44.2675C92.7564 44.0438 92.7343 43.8635 92.7343 43.722H91.7343C91.7343 43.9618 91.7709 44.2216 91.8356 44.4965L92.809 44.2675ZM92.7343 43.722C92.7343 43.7311 92.7327 43.7403 92.7303 43.7478C92.728 43.7548 92.7264 43.7558 92.7299 43.7507C92.7384 43.7383 92.7673 43.7036 92.8416 43.654L92.2869 42.822C92.0018 43.0121 91.7343 43.3061 91.7343 43.722H92.7343ZM92.8476 43.65C93.0324 43.5229 93.2533 43.4197 93.5157 43.3448L93.2409 42.3832C92.8873 42.4843 92.5655 42.6304 92.281 42.826L92.8476 43.65ZM93.5157 43.3448C93.7941 43.2652 94.0175 43.232 94.1923 43.232V42.232C93.8977 42.232 93.5785 42.2868 93.2409 42.3832L93.5157 43.3448ZM94.1923 43.232C94.2469 43.232 94.2741 43.241 94.2844 43.2455C94.2925 43.249 94.2989 43.2532 94.3079 43.2643L95.0887 42.6397C94.8597 42.3534 94.5351 42.232 94.1923 42.232V43.232ZM94.3447 43.3056C94.4003 43.3611 94.447 43.4395 94.4734 43.5628L95.4512 43.3532C95.3896 43.0658 95.2603 42.8069 95.0519 42.5984L94.3447 43.3056ZM94.4815 43.5954C94.5289 43.7613 94.5503 43.913 94.5503 44.052H95.5503C95.5503 43.8097 95.513 43.5654 95.4431 43.3206L94.4815 43.5954ZM94.5503 44.052C94.5503 44.2772 94.5301 44.6104 94.4866 45.0598L95.482 45.1562C95.5265 44.6963 95.5503 44.3255 95.5503 44.052H94.5503ZM94.4868 45.0582C94.4432 45.4939 94.3923 45.9445 94.3342 46.41L95.3264 46.534C95.3856 46.0609 95.4374 45.6021 95.4818 45.1578L94.4868 45.0582ZM94.3332 46.4181L93.6512 52.7101L94.6454 52.8179L95.3274 46.5259L94.3332 46.4181ZM93.6511 52.7109C93.4937 54.1853 93.1691 55.2572 92.7145 55.9716L93.5581 56.5084C94.1302 55.6095 94.4803 54.364 94.6455 52.8171L93.6511 52.7109ZM92.711 55.9771C92.2714 56.6882 91.673 57.1706 90.9031 57.4401L91.2335 58.3839C92.2236 58.0374 93.0038 57.4052 93.5616 56.5029L92.711 55.9771ZM90.9078 57.4385C90.1097 57.709 89.1043 57.852 87.8783 57.852V58.852C89.175 58.852 90.2963 58.7017 91.2288 58.3855L90.9078 57.4385ZM99.2348 57.626L98.9943 58.0645L99.0028 58.0689L99.2348 57.626ZM97.1008 55.404L97.5439 55.1725L97.1008 55.404ZM96.9468 48.144L96.4796 47.9657L96.4783 47.9691L96.9468 48.144ZM98.7288 45.262L99.0921 45.6055L99.0952 45.6022L98.7288 45.262ZM101.457 43.37L101.649 43.8316L101.654 43.8292L101.457 43.37ZM107.683 43.084L107.482 43.5419L107.491 43.5459L107.683 43.084ZM108.387 45.35L107.945 45.1161C107.941 45.123 107.938 45.13 107.934 45.1371L108.387 45.35ZM107.529 45.592L107.289 46.0309C107.295 46.0338 107.3 46.0366 107.305 46.0392L107.529 45.592ZM106.979 45.306L106.755 45.7532L106.755 45.7532L106.979 45.306ZM105.813 44.756L105.589 45.2032C105.595 45.2064 105.602 45.2094 105.608 45.2123L105.813 44.756ZM101.699 45.328L101.39 44.9346L101.386 44.9376L101.699 45.328ZM99.9168 47.77L99.4585 47.5699L99.4572 47.573L99.9168 47.77ZM99.7628 54.282L99.304 54.4811L99.3073 54.4883L99.7628 54.282ZM101.149 56.02L101.426 55.604L101.149 56.02ZM104.515 56.284L104.726 56.7373L104.738 56.7312L104.515 56.284ZM105.659 55.536L105.34 55.1504L105.332 55.1576L105.659 55.536ZM106.561 54.81L106.868 55.2047C106.872 55.2012 106.877 55.1977 106.881 55.1941L106.561 54.81ZM107.661 54.59L107.37 54.9969C107.379 55.0028 107.387 55.0086 107.396 55.014L107.661 54.59ZM107.111 56.658L107.47 57.0062L107.111 56.658ZM105.175 57.89L105.353 58.3572L105.36 58.3542L105.175 57.89ZM102.469 57.852C101.303 57.852 100.307 57.6234 99.4668 57.1831L99.0028 58.0689C100.01 58.5966 101.171 58.852 102.469 58.852V57.852ZM99.4752 57.1876C98.6584 56.7397 98.0149 56.074 97.5439 55.1725L96.6576 55.6355C97.2133 56.6993 97.9924 57.515 98.9944 58.0644L99.4752 57.1876ZM97.5439 55.1725C97.0774 54.2793 96.8308 53.1539 96.8308 51.774H95.8308C95.8308 53.2688 96.0975 54.5634 96.6576 55.6355L97.5439 55.1725ZM96.8308 51.774C96.8308 50.5063 97.0278 49.3564 97.4152 48.3189L96.4783 47.9691C96.0444 49.1316 95.8308 50.4017 95.8308 51.774H96.8308ZM97.4139 48.3223C97.8176 47.2643 98.3778 46.361 99.0921 45.6055L98.3654 44.9185C97.5544 45.7764 96.9266 46.7943 96.4796 47.9657L97.4139 48.3223ZM99.0952 45.6022C99.8081 44.8344 100.658 44.2446 101.649 43.8315L101.264 42.9085C100.144 43.3754 99.1747 44.0469 98.3624 44.9218L99.0952 45.6022ZM101.654 43.8292C102.641 43.4046 103.746 43.188 104.977 43.188V42.188C103.626 42.188 102.385 42.4261 101.259 42.9108L101.654 43.8292ZM104.977 43.188C106.158 43.188 106.977 43.32 107.482 43.5418L107.884 42.6262C107.186 42.32 106.201 42.188 104.977 42.188V43.188ZM107.491 43.5459C107.718 43.6399 107.857 43.7586 107.942 43.8878C108.028 44.0175 108.085 44.1952 108.085 44.448H109.085C109.085 44.0408 108.991 43.6612 108.776 43.3362C108.561 43.0107 108.249 42.7774 107.874 42.6221L107.491 43.5459ZM108.085 44.448C108.085 44.7383 108.03 44.9545 107.945 45.1161L108.829 45.5839C109.007 45.2468 109.085 44.8617 109.085 44.448H108.085ZM107.934 45.1371C107.913 45.1819 107.895 45.2141 107.88 45.2363C107.873 45.2472 107.867 45.2549 107.863 45.2601C107.858 45.2652 107.856 45.2672 107.856 45.267C107.857 45.2667 107.869 45.2554 107.894 45.2442C107.921 45.2323 107.954 45.224 107.991 45.224V46.224C108.459 46.224 108.713 45.831 108.839 45.5629L107.934 45.1371ZM107.991 45.224C107.965 45.224 107.89 45.2137 107.752 45.1448L107.305 46.0392C107.519 46.1463 107.752 46.224 107.991 46.224V45.224ZM107.768 45.1531C107.601 45.0616 107.412 44.9635 107.202 44.8588L106.755 45.7532C106.956 45.8538 107.134 45.9464 107.289 46.0309L107.768 45.1531ZM107.202 44.8588C106.843 44.6791 106.448 44.4928 106.017 44.2997L105.608 45.2123C106.028 45.4005 106.41 45.5809 106.755 45.7532L107.202 44.8588ZM106.036 44.3088C105.53 44.0557 104.894 43.948 104.163 43.948V44.948C104.81 44.948 105.274 45.0456 105.589 45.2032L106.036 44.3088ZM104.163 43.948C103.149 43.948 102.22 44.2835 101.39 44.9346L102.007 45.7214C102.673 45.1992 103.387 44.948 104.163 44.948V43.948ZM101.386 44.9376C100.578 45.5845 99.9389 46.4697 99.4585 47.5699L100.375 47.9701C100.804 46.9876 101.353 46.2448 102.011 45.7184L101.386 44.9376ZM99.4572 47.573C98.9851 48.6747 98.7568 49.947 98.7568 51.378H99.7568C99.7568 50.0516 99.9685 48.9186 100.376 47.967L99.4572 47.573ZM98.7568 51.378C98.7568 52.5815 98.9314 53.6223 99.3041 54.481L100.221 54.083C99.9194 53.387 99.7568 52.4918 99.7568 51.378H98.7568ZM99.3073 54.4883C99.6886 55.3303 100.205 55.9916 100.871 56.436L101.426 55.604C100.949 55.2857 100.541 54.7884 100.218 54.0757L99.3073 54.4883ZM100.871 56.436C101.524 56.871 102.243 57.092 103.019 57.092V56.092C102.445 56.092 101.918 55.9317 101.426 55.604L100.871 56.436ZM103.019 57.092C103.638 57.092 104.211 56.9776 104.726 56.7371L104.303 55.8309C103.939 56.0011 103.514 56.092 103.019 56.092V57.092ZM104.738 56.7312C105.21 56.4954 105.627 56.224 105.986 55.9144L105.332 55.1576C105.045 55.4053 104.7 55.6326 104.291 55.8368L104.738 56.7312ZM105.977 55.9215C106.312 55.645 106.609 55.4062 106.868 55.2047L106.254 54.4153C105.985 54.6244 105.68 54.8696 105.34 55.1505L105.977 55.9215ZM106.881 55.1941C107.111 55.0026 107.233 54.98 107.265 54.98V53.98C106.886 53.98 106.539 54.1774 106.241 54.4259L106.881 55.1941ZM107.265 54.98C107.308 54.98 107.335 54.985 107.351 54.9893C107.359 54.9914 107.363 54.9934 107.366 54.9946C107.369 54.9958 107.37 54.9966 107.37 54.9969L107.951 54.1831C107.743 54.0343 107.501 53.98 107.265 53.98V54.98ZM107.396 55.014C107.373 54.9998 107.355 54.9826 107.342 54.9662C107.33 54.9505 107.326 54.9394 107.326 54.9385C107.325 54.938 107.328 54.946 107.331 54.9658C107.334 54.9854 107.337 55.0137 107.337 55.052H108.337C108.337 54.7668 108.269 54.3806 107.926 54.166L107.396 55.014ZM107.337 55.052C107.337 55.4671 107.166 55.8831 106.752 56.3098L107.47 57.0062C108.023 56.4355 108.337 55.7809 108.337 55.052H107.337ZM106.752 56.3098C106.328 56.7471 105.746 57.1228 104.989 57.4258L105.36 58.3542C106.217 58.0118 106.926 57.5662 107.47 57.0062L106.752 56.3098ZM104.996 57.4229C104.255 57.7061 103.414 57.852 102.469 57.852V58.852C103.518 58.852 104.481 58.6899 105.353 58.3571L104.996 57.4229ZM117.862 57.604L117.508 57.9576C117.513 57.9621 117.517 57.9665 117.522 57.9709L117.862 57.604ZM116.63 56.086L116.215 56.3656L116.22 56.3721L116.63 56.086ZM115.31 53.974L114.875 54.2203L114.878 54.2264L115.31 53.974ZM114.012 51.598L113.557 51.8049C113.561 51.8138 113.565 51.8226 113.569 51.8312L114.012 51.598ZM113.77 51.092L113.308 51.2843C113.313 51.2949 113.317 51.3053 113.323 51.3156L113.77 51.092ZM113.836 49.618L113.368 49.4424C113.365 49.4482 113.363 49.454 113.361 49.4599L113.836 49.618ZM116.366 46.23L116.007 45.8817L116.006 45.8829L116.366 46.23ZM117.84 44.712L118.198 45.0603L118.201 45.0572L117.84 44.712ZM119.534 43.238L119.265 42.8166L119.259 42.8201L119.534 43.238ZM122.02 43.04L121.627 43.3489C121.631 43.3545 121.635 43.36 121.64 43.3654L122.02 43.04ZM122.152 44.888L122.629 45.0386L122.631 45.0317L122.152 44.888ZM121.822 45.548L121.435 45.2314L121.435 45.2314L121.822 45.548ZM120.898 45.724L120.751 46.2019C120.762 46.2054 120.774 46.2085 120.785 46.2112L120.898 45.724ZM119.622 45.79L119.807 46.2542C119.816 46.2508 119.825 46.247 119.833 46.2431L119.622 45.79ZM117.664 47.528L118.041 47.8566L118.042 47.8551L117.664 47.528ZM115.266 50.278L114.783 50.1483C114.722 50.373 114.825 50.6097 115.03 50.7192C115.236 50.8287 115.49 50.782 115.643 50.6066L115.266 50.278ZM115.662 48.804L116.131 48.6309C116.055 48.4266 115.856 48.2946 115.639 48.3045C115.421 48.3144 115.235 48.464 115.179 48.6743L115.662 48.804ZM117.246 52.126L116.819 52.387L116.822 52.3916L117.246 52.126ZM120.172 55.866L119.841 56.2409C119.845 56.2445 119.849 56.248 119.853 56.2515L120.172 55.866ZM120.964 56.46L120.702 56.8858C120.714 56.8935 120.727 56.9007 120.74 56.9072L120.964 56.46ZM121.25 57.34L120.945 56.9437C120.94 56.9477 120.935 56.9517 120.93 56.9559L121.25 57.34ZM120.568 57.758L120.762 58.2188C120.768 58.216 120.775 58.213 120.782 58.2099L120.568 57.758ZM119.688 58.044L119.572 57.5576L119.566 57.5589L119.688 58.044ZM110.074 57.912L109.658 58.1894C109.663 58.197 109.668 58.2046 109.674 58.212L110.074 57.912ZM109.81 57.23L110.299 57.127L109.81 57.23ZM109.832 54.656L109.336 54.5908L109.832 54.656ZM110.03 52.852L109.532 52.8002L109.532 52.8067L110.03 52.852ZM111.086 42.71V42.21C110.83 42.21 110.615 42.4035 110.588 42.6582L111.086 42.71ZM113.374 43.15L112.909 43.3357C112.913 43.3453 112.917 43.3547 112.922 43.364L113.374 43.15ZM113.528 45.108L114.025 45.1603V45.1603L113.528 45.108ZM113.396 46.12L112.901 46.0467C112.9 46.0527 112.899 46.0588 112.899 46.0648L113.396 46.12ZM113.22 47.748L112.723 47.6951L112.722 47.6955L113.22 47.748ZM112.12 58.176V58.676C112.376 58.676 112.59 58.4829 112.617 58.2285L112.12 58.176ZM118.896 57.654C118.799 57.654 118.574 57.5825 118.201 57.2371L117.522 57.9709C117.941 58.3589 118.406 58.654 118.896 58.654V57.654ZM118.215 57.2504C117.861 56.8966 117.469 56.4157 117.04 55.7999L116.22 56.3721C116.67 57.0176 117.099 57.5487 117.508 57.9576L118.215 57.2504ZM117.044 55.8064C116.626 55.1861 116.192 54.4913 115.741 53.7216L114.878 54.2264C115.337 55.0114 115.783 55.7246 116.215 56.3656L117.044 55.8064ZM115.745 53.7277C115.307 52.9548 114.877 52.1672 114.454 51.3648L113.569 51.8312C113.997 52.6422 114.432 53.4385 114.875 54.2203L115.745 53.7277ZM114.467 51.3911C114.391 51.2236 114.307 51.0493 114.217 50.8684L113.323 51.3156C113.408 51.4867 113.486 51.6498 113.557 51.8049L114.467 51.3911ZM114.231 50.8997C114.185 50.7892 114.16 50.6644 114.16 50.52H113.16C113.16 50.7862 113.208 51.0428 113.308 51.2843L114.231 50.8997ZM114.16 50.52C114.16 50.3438 114.202 50.0995 114.31 49.7761L113.361 49.4599C113.235 49.8405 113.16 50.1975 113.16 50.52H114.16ZM114.304 49.7936C114.414 49.5003 114.642 49.0935 115.015 48.5635L114.197 47.9885C113.806 48.5438 113.522 49.0317 113.368 49.4424L114.304 49.7936ZM115.015 48.5635C115.374 48.0516 115.941 47.391 116.726 46.5771L116.006 45.8829C115.207 46.7116 114.6 47.415 114.197 47.9885L115.015 48.5635ZM116.724 46.5783L118.198 45.0603L117.481 44.3637L116.007 45.8817L116.724 46.5783ZM118.201 45.0572C118.802 44.4282 119.337 43.9653 119.808 43.6559L119.259 42.8201C118.703 43.1853 118.11 43.7052 117.478 44.3668L118.201 45.0572ZM119.803 43.6593C120.268 43.362 120.697 43.232 121.096 43.232V42.232C120.468 42.232 119.855 42.4393 119.265 42.8167L119.803 43.6593ZM121.096 43.232C121.507 43.232 121.612 43.3299 121.627 43.3489L122.413 42.7311C122.105 42.3394 121.594 42.232 121.096 42.232V43.232ZM121.64 43.3654C121.712 43.4491 121.784 43.6096 121.784 43.92H122.784C122.784 43.4678 122.68 43.0416 122.399 42.7146L121.64 43.3654ZM121.784 43.92C121.784 44.2304 121.745 44.504 121.673 44.7443L122.631 45.0317C122.735 44.6854 122.784 44.3135 122.784 43.92H121.784ZM121.675 44.7374C121.599 44.9781 121.514 45.1347 121.435 45.2314L122.209 45.8646C122.394 45.6387 122.529 45.3552 122.629 45.0386L121.675 44.7374ZM121.435 45.2314C121.396 45.2785 121.372 45.294 121.368 45.2968C121.366 45.2978 121.369 45.2958 121.377 45.2936C121.384 45.2914 121.394 45.29 121.404 45.29V46.29C121.756 46.29 122.023 46.091 122.209 45.8646L121.435 45.2314ZM121.404 45.29C121.305 45.29 121.175 45.2749 121.01 45.2368L120.785 46.2112C121.001 46.2611 121.209 46.29 121.404 46.29V45.29ZM121.045 45.2461C120.794 45.1689 120.514 45.136 120.216 45.136V46.136C120.445 46.136 120.62 46.1617 120.751 46.2019L121.045 45.2461ZM120.216 45.136C119.944 45.136 119.673 45.2144 119.41 45.3369L119.833 46.2431C120.011 46.1603 120.135 46.136 120.216 46.136V45.136ZM119.436 45.3258C119.141 45.4436 118.829 45.6603 118.504 45.9384L119.155 46.6976C119.447 46.4477 119.662 46.3124 119.807 46.2542L119.436 45.3258ZM118.504 45.9384C118.168 46.2263 117.761 46.6514 117.286 47.2009L118.042 47.8551C118.505 47.3193 118.875 46.9377 119.155 46.6976L118.504 45.9384ZM117.287 47.1994L114.889 49.9494L115.643 50.6066L118.041 47.8566L117.287 47.1994ZM115.749 50.4077L116.145 48.9337L115.179 48.6743L114.783 50.1483L115.749 50.4077ZM115.193 48.9771C115.657 50.2356 116.199 51.3729 116.819 52.387L117.672 51.865C117.09 50.9137 116.576 49.8364 116.131 48.6309L115.193 48.9771ZM116.822 52.3916C117.446 53.3872 118.039 54.2215 118.601 54.8898L119.366 54.2462C118.843 53.6238 118.277 52.8302 117.669 51.8604L116.822 52.3916ZM118.601 54.8898C119.143 55.534 119.56 55.9933 119.841 56.2409L120.503 55.4911C120.284 55.2987 119.91 54.8927 119.366 54.2462L118.601 54.8898ZM119.853 56.2515C120.195 56.5338 120.481 56.7498 120.702 56.8858L121.226 56.0342C121.066 55.9356 120.823 55.7555 120.49 55.4805L119.853 56.2515ZM120.74 56.9072C120.945 57.0099 121.092 57.0832 121.18 57.1272L121.627 56.2328C121.539 56.1888 121.393 56.1155 121.187 56.0128L120.74 56.9072ZM121.18 57.1272C121.14 57.107 121.094 57.0687 121.064 57.0129C121.036 56.9622 121.036 56.9244 121.036 56.922H122.036C122.036 56.8023 122.013 56.6654 121.942 56.5341C121.867 56.3977 121.756 56.297 121.627 56.2328L121.18 57.1272ZM121.036 56.922C121.036 56.8624 121.058 56.8335 121.052 56.8432C121.048 56.8481 121.039 56.8598 121.021 56.8778C121.003 56.8957 120.978 56.9178 120.945 56.9437L121.555 57.7363C121.773 57.5687 122.036 57.2995 122.036 56.922H121.036ZM120.93 56.9559C120.795 57.0681 120.606 57.1864 120.354 57.3061L120.782 58.2099C121.086 58.0656 121.353 57.9052 121.57 57.7241L120.93 56.9559ZM120.374 57.2972C120.122 57.4034 119.854 57.4903 119.572 57.5576L119.804 58.5304C120.137 58.451 120.457 58.3473 120.762 58.2188L120.374 57.2972ZM119.566 57.5589C119.302 57.625 119.08 57.654 118.896 57.654V58.654C119.181 58.654 119.487 58.6096 119.809 58.5291L119.566 57.5589ZM110.58 57.676C110.544 57.676 110.519 57.6726 110.474 57.612L109.674 58.212C109.892 58.5034 110.204 58.676 110.58 58.676V57.676ZM110.49 57.6346C110.418 57.5264 110.349 57.3637 110.299 57.127L109.32 57.333C109.388 57.6536 109.495 57.9456 109.658 58.1894L110.49 57.6346ZM110.299 57.127C110.247 56.8815 110.222 56.6373 110.222 56.394H109.222C109.222 56.708 109.255 57.0212 109.32 57.333L110.299 57.127ZM110.222 56.394C110.222 55.813 110.257 55.2555 110.327 54.7212L109.336 54.5908C109.26 55.1712 109.222 55.7724 109.222 56.394H110.222ZM110.327 54.7212C110.402 54.1563 110.468 53.5483 110.528 52.8973L109.532 52.8067C109.474 53.4464 109.408 54.041 109.336 54.5908L110.327 54.7212ZM110.527 52.9038L111.583 42.7618L110.588 42.6582L109.532 52.8002L110.527 52.9038ZM111.086 43.21H112.626V42.21H111.086V43.21ZM112.626 43.21C112.755 43.21 112.818 43.235 112.845 43.251C112.865 43.2629 112.888 43.2818 112.909 43.3357L113.838 42.9643C113.742 42.7249 113.581 42.5238 113.352 42.389C113.13 42.2583 112.878 42.21 112.626 42.21V43.21ZM112.922 43.364C113.014 43.5596 113.072 43.8197 113.072 44.162H114.072C114.072 43.7123 113.997 43.2977 113.826 42.936L112.922 43.364ZM113.072 44.162C113.072 44.5007 113.058 44.7981 113.03 45.0557L114.025 45.1603C114.057 44.8606 114.072 44.5273 114.072 44.162H113.072ZM113.03 45.0557C113.002 45.3251 112.959 45.655 112.901 46.0467L113.89 46.1933C113.95 45.793 113.995 45.4483 114.025 45.1603L113.03 45.0557ZM112.899 46.0648C112.855 46.4619 112.796 47.0055 112.723 47.6951L113.717 47.8009C113.79 47.1119 113.849 46.5701 113.893 46.1752L112.899 46.0648ZM112.722 47.6955L111.622 58.1235L112.617 58.2285L113.717 47.8005L112.722 47.6955ZM112.12 57.676H110.58V58.676H112.12V57.676ZM127.524 52.258L127.063 52.4518C127.141 52.6373 127.323 52.758 127.524 52.758V52.258ZM125.544 47.55L125.082 47.7423L125.083 47.7438L125.544 47.55ZM124.73 45.834L124.286 46.0633C124.289 46.0691 124.292 46.0748 124.295 46.0805L124.73 45.834ZM123.938 44.8L123.625 45.1904L123.938 44.8ZM123.41 43.326L123.663 43.757C123.669 43.7534 123.676 43.7496 123.681 43.7458L123.41 43.326ZM124.268 42.908L124.097 42.4381V42.4381L124.268 42.908ZM126.578 43.48L126.186 43.7909C126.19 43.7952 126.193 43.7994 126.197 43.8035L126.578 43.48ZM127.634 45.46L127.162 45.6255L127.163 45.6276L127.634 45.46ZM129.262 50.036L129.558 50.4392C129.736 50.3086 129.807 50.0765 129.733 49.8684L129.262 50.036ZM128.602 50.52L128.182 50.2477C128.051 50.4502 128.083 50.7177 128.258 50.8835C128.434 51.0492 128.703 51.066 128.898 50.9232L128.602 50.52ZM130.802 47.132L130.386 46.8546L130.382 46.8597L130.802 47.132ZM131.55 45.526L131.062 45.4159C131.061 45.4209 131.06 45.4259 131.059 45.431L131.55 45.526ZM131.748 44.382L131.251 44.3268L131.25 44.3346L131.748 44.382ZM132.232 43.7L132.504 44.1192C132.509 44.1161 132.514 44.1129 132.519 44.1096L132.232 43.7ZM133.266 43.172L133.092 42.7031L133.266 43.172ZM134.388 42.842L134.29 42.3517L134.286 42.3525L134.388 42.842ZM135.422 43.634L134.981 43.3987V43.3987L135.422 43.634ZM134.938 44.382L134.535 44.0853L134.529 44.0942L134.938 44.382ZM129.394 52.258V52.758C129.557 52.758 129.709 52.6788 129.803 52.5458L129.394 52.258ZM126.864 57.824L127.322 57.6236L126.864 57.824ZM126.776 55.888L127.272 55.9476L127.273 55.9432L126.776 55.888ZM127.37 50.542L127.445 50.0476C127.31 50.0273 127.173 50.0626 127.065 50.1455C126.957 50.2283 126.888 50.3516 126.873 50.4868L127.37 50.542ZM129.988 50.938L130.485 50.9924C130.514 50.7258 130.328 50.4837 130.063 50.4436L129.988 50.938ZM129.196 58.176V58.676C129.451 58.676 129.665 58.484 129.693 58.2304L129.196 58.176ZM127.985 52.0642L126.005 47.3562L125.083 47.7438L127.063 52.4518L127.985 52.0642ZM126.005 47.3577C125.708 46.6434 125.428 46.0514 125.165 45.5875L124.295 46.0805C124.531 46.4966 124.793 47.0486 125.082 47.7423L126.005 47.3577ZM125.174 45.6047C124.918 45.1089 124.614 44.7009 124.25 44.4096L123.625 45.1904C123.848 45.3684 124.072 45.6498 124.286 46.0633L125.174 45.6047ZM124.25 44.4096C123.881 44.1142 123.671 43.9258 123.586 43.8298L122.838 44.4942C122.987 44.6622 123.261 44.8992 123.625 45.1904L124.25 44.4096ZM123.586 43.8298C123.532 43.7697 123.536 43.7443 123.536 43.744H122.536C122.536 44.0371 122.657 44.2903 122.838 44.4942L123.586 43.8298ZM123.536 43.744C123.536 43.8439 123.488 43.8898 123.502 43.8739C123.508 43.8675 123.522 43.8532 123.55 43.8318C123.578 43.8107 123.615 43.7856 123.663 43.757L123.156 42.895C123.009 42.9819 122.867 43.0839 122.757 43.2071C122.646 43.3305 122.536 43.5121 122.536 43.744H123.536ZM123.681 43.7458C123.895 43.6078 124.146 43.4843 124.439 43.3779L124.097 42.4381C123.744 42.5663 123.424 42.7216 123.138 42.9062L123.681 43.7458ZM124.439 43.3779C124.734 43.2706 124.943 43.232 125.082 43.232V42.232C124.78 42.232 124.447 42.3107 124.097 42.4381L124.439 43.3779ZM125.082 43.232C125.521 43.232 125.879 43.4036 126.186 43.7909L126.969 43.1691C126.485 42.5591 125.846 42.232 125.082 42.232V43.232ZM126.197 43.8035C126.555 44.2263 126.882 44.8261 127.162 45.6255L128.106 45.2945C127.799 44.4219 127.422 43.7017 126.959 43.1565L126.197 43.8035ZM127.163 45.6276L128.791 50.2036L129.733 49.8684L128.105 45.2924L127.163 45.6276ZM128.966 49.6328L128.306 50.1168L128.898 50.9232L129.558 50.4392L128.966 49.6328ZM129.021 50.7923L131.221 47.4043L130.382 46.8597L128.182 50.2477L129.021 50.7923ZM131.218 47.4093C131.646 46.7673 131.935 46.1682 132.041 45.621L131.059 45.431C130.989 45.7932 130.779 46.2647 130.386 46.8546L131.218 47.4093ZM132.038 45.6361C132.143 45.17 132.214 44.7662 132.246 44.4294L131.25 44.3346C131.224 44.6138 131.162 44.9726 131.062 45.4159L132.038 45.6361ZM132.245 44.4372C132.253 44.3662 132.294 44.256 132.504 44.1192L131.959 43.2808C131.583 43.5253 131.302 43.8698 131.251 44.3268L132.245 44.4372ZM132.519 44.1096C132.771 43.9327 133.077 43.7753 133.44 43.6409L133.092 42.7031C132.663 42.8621 132.279 43.0566 131.945 43.2904L132.519 44.1096ZM133.44 43.6409C133.816 43.5014 134.166 43.399 134.49 43.3315L134.286 42.3525C133.906 42.4317 133.508 42.5493 133.092 42.7031L133.44 43.6409ZM134.486 43.3323C134.848 43.2599 135.078 43.232 135.202 43.232V42.232C134.973 42.232 134.661 42.2774 134.29 42.3517L134.486 43.3323ZM135.202 43.232C135.27 43.232 135.228 43.2485 135.167 43.1937C135.135 43.1656 135.115 43.1326 135.105 43.1056C135.096 43.0814 135.098 43.071 135.098 43.084H136.098C136.098 42.8733 136.036 42.6284 135.831 42.4463C135.637 42.2742 135.397 42.232 135.202 42.232V43.232ZM135.098 43.084C135.098 43.1099 135.083 43.2068 134.981 43.3987L135.863 43.8693C135.995 43.6212 136.098 43.3514 136.098 43.084H135.098ZM134.981 43.3987C134.878 43.591 134.731 43.8193 134.535 44.0854L135.34 44.6786C135.555 44.3873 135.731 44.117 135.863 43.8693L134.981 43.3987ZM134.529 44.0942L128.985 51.9702L129.803 52.5458L135.347 44.6698L134.529 44.0942ZM129.394 51.758H127.524V52.758H129.394V51.758ZM127.414 57.676C127.357 57.676 127.343 57.664 127.348 57.6669C127.349 57.6675 127.348 57.6671 127.344 57.6627C127.34 57.6579 127.332 57.6462 127.322 57.6236L126.406 58.0244C126.49 58.216 126.62 58.3883 126.809 58.5091C126.997 58.6293 127.207 58.676 127.414 58.676V57.676ZM127.322 57.6236C127.258 57.4771 127.21 57.2388 127.21 56.878H126.21C126.21 57.3092 126.265 57.7016 126.406 58.0244L127.322 57.6236ZM127.21 56.878C127.21 56.6089 127.23 56.2993 127.272 55.9476L126.279 55.8284C126.234 56.2101 126.21 56.5604 126.21 56.878H127.21ZM127.273 55.9432L127.867 50.5972L126.873 50.4868L126.279 55.8328L127.273 55.9432ZM127.295 51.0364L129.913 51.4324L130.063 50.4436L127.445 50.0476L127.295 51.0364ZM129.491 50.8836L128.699 58.1216L129.693 58.2304L130.485 50.9924L129.491 50.8836ZM129.196 57.676H127.414V58.676H129.196V57.676ZM137.869 61.19L138.223 60.8364L138.216 60.8296L137.869 61.19ZM137.407 59.254L137.054 58.9004L137.407 59.254ZM137.825 59.21L138.082 58.7813C138.051 58.7625 138.018 58.7472 137.983 58.7357L137.825 59.21ZM138.221 59.386L138.414 58.9243L138.401 58.9193L138.221 59.386ZM139.255 59.76L139.426 59.2901C139.418 59.2871 139.409 59.2843 139.401 59.2817L139.255 59.76ZM140.663 59.606L140.26 59.3103C140.256 59.3163 140.251 59.3224 140.247 59.3286L140.663 59.606ZM141.059 58.462L140.571 58.3535C140.57 58.3587 140.569 58.3639 140.568 58.3691L141.059 58.462ZM141.389 56.284L141.886 56.3392L141.886 56.3388L141.389 56.284ZM142.885 42.71V42.21C142.63 42.21 142.416 42.4018 142.388 42.6552L142.885 42.71ZM145.217 43.15L144.753 43.3357L144.756 43.344L145.217 43.15ZM145.283 45.372L144.788 45.305L145.283 45.372ZM144.997 47.748L144.5 47.692L144.5 47.6941L144.997 47.748ZM144.205 55.052L143.708 54.9981L143.708 54.9994L144.205 55.052ZM143.545 58.198L143.075 58.0277L143.072 58.0375L143.545 58.198ZM142.489 60.266L142.099 59.9536L142.094 59.959L142.489 60.266ZM141.125 61.388L140.923 60.9304L140.912 60.9356L141.125 61.388ZM139.563 61.24C138.871 61.24 138.459 61.073 138.223 60.8364L137.516 61.5436C138.012 62.0403 138.73 62.24 139.563 62.24V61.24ZM138.216 60.8296C137.962 60.5853 137.797 60.1988 137.797 59.584H136.797C136.797 60.3772 137.014 61.0613 137.523 61.5504L138.216 60.8296ZM137.797 59.584C137.797 59.5508 137.801 59.5422 137.799 59.5496C137.798 59.5538 137.794 59.5622 137.788 59.5731C137.781 59.5842 137.772 59.5961 137.761 59.6076L137.054 58.9004C136.853 59.1006 136.797 59.3603 136.797 59.584H137.797ZM137.761 59.6076C137.761 59.6076 137.76 59.6083 137.758 59.6097C137.757 59.611 137.754 59.613 137.751 59.6155C137.745 59.6204 137.734 59.6277 137.719 59.6352C137.687 59.6511 137.64 59.666 137.583 59.666V58.666C137.345 58.666 137.167 58.7873 137.054 58.9004L137.761 59.6076ZM137.583 59.666C137.591 59.666 137.617 59.6677 137.667 59.6843L137.983 58.7357C137.857 58.6936 137.722 58.666 137.583 58.666V59.666ZM137.568 59.6387C137.682 59.7073 137.851 59.7793 138.042 59.8527L138.401 58.9193C138.21 58.8461 138.115 58.8007 138.082 58.7813L137.568 59.6387ZM138.029 59.8475C138.395 60.0001 138.755 60.1305 139.11 60.2383L139.401 59.2817C139.08 59.1842 138.751 59.0653 138.413 58.9245L138.029 59.8475ZM139.084 60.2299C139.443 60.3602 139.788 60.436 140.113 60.436V59.436C139.94 59.436 139.713 59.3945 139.426 59.2901L139.084 60.2299ZM140.113 60.436C140.536 60.436 140.861 60.2102 141.079 59.8834L140.247 59.3286C140.172 59.4418 140.131 59.436 140.113 59.436V60.436ZM141.066 59.9017C141.298 59.5865 141.445 59.1108 141.55 58.5549L140.568 58.3691C140.468 58.8985 140.351 59.1855 140.26 59.3103L141.066 59.9017ZM141.547 58.5705C141.67 58.0168 141.783 57.2704 141.886 56.3392L140.892 56.2288C140.79 57.1456 140.683 57.8512 140.571 58.3535L141.547 58.5705ZM141.886 56.3388L143.382 42.7648L142.388 42.6552L140.892 56.2292L141.886 56.3388ZM142.885 43.21H144.425V42.21H142.885V43.21ZM144.425 43.21C144.575 43.21 144.653 43.2372 144.688 43.2571C144.715 43.2718 144.735 43.2905 144.753 43.3357L145.681 42.9643C145.582 42.7162 145.411 42.5148 145.174 42.3829C144.946 42.2561 144.686 42.21 144.425 42.21V43.21ZM144.756 43.344C144.841 43.5454 144.893 43.813 144.893 44.162H145.893C145.893 43.719 145.828 43.3119 145.678 42.956L144.756 43.344ZM144.893 44.162C144.893 44.3906 144.86 44.7663 144.788 45.305L145.779 45.439C145.853 44.8924 145.893 44.4614 145.893 44.162H144.893ZM144.788 45.305C144.714 45.8533 144.618 46.6497 144.5 47.692L145.494 47.804C145.611 46.7637 145.706 45.976 145.779 45.439L144.788 45.305ZM144.5 47.6941L143.708 54.9981L144.702 55.1059L145.494 47.8019L144.5 47.6941ZM143.708 54.9994C143.579 56.2201 143.365 57.2265 143.075 58.0278L144.015 58.3682C144.341 57.4682 144.568 56.3773 144.702 55.1046L143.708 54.9994ZM143.072 58.0375C142.79 58.8676 142.462 59.4996 142.099 59.9537L142.88 60.5783C143.338 60.0057 143.713 59.259 144.019 58.3585L143.072 58.0375ZM142.094 59.959C141.723 60.4364 141.331 60.7507 140.923 60.9305L141.327 61.8455C141.917 61.5853 142.434 61.1516 142.884 60.573L142.094 59.959ZM140.912 60.9356C140.479 61.1394 140.031 61.24 139.563 61.24V62.24C140.181 62.24 140.774 62.1059 141.338 61.8404L140.912 60.9356ZM149.918 57.626L149.683 58.0676L149.692 58.0718L149.918 57.626ZM147.718 55.404L147.275 55.6355L147.278 55.6407L147.718 55.404ZM147.564 48.144L148.032 48.3189L148.033 48.3169L147.564 48.144ZM149.28 45.262L148.91 44.9253L148.91 44.9257L149.28 45.262ZM151.876 43.37L152.08 43.8264L152.086 43.8238L151.876 43.37ZM159.708 44.36L159.352 44.7112L159.357 44.7159L159.708 44.36ZM160.764 52.896L161.232 53.0709L161.233 53.0689L160.764 52.896ZM159.026 55.778L158.656 55.4413L158.653 55.445L159.026 55.778ZM156.452 57.692L156.656 58.1484L156.662 58.1458L156.452 57.692ZM155.33 56.108L155.571 56.5462L155.579 56.5415L155.33 56.108ZM156.914 54.678L157.312 54.981L156.914 54.678ZM158.036 52.5L158.51 52.6581L158.511 52.6557L158.036 52.5ZM157.948 46.736L157.486 46.9277L157.491 46.9383L157.948 46.736ZM156.628 45.02L156.34 45.4291C156.345 45.432 156.349 45.4349 156.353 45.4377L156.628 45.02ZM152.338 45.328L152.642 45.7252L152.647 45.7214L152.338 45.328ZM150.534 47.748L150.076 47.5479L150.073 47.5534L150.534 47.748ZM150.358 54.304L149.896 54.4957L149.899 54.503L150.358 54.304ZM151.7 56.042L151.418 56.4547L151.425 56.4597L151.7 56.042ZM153.24 57.852C152.043 57.852 151.016 57.6227 150.144 57.1802L149.692 58.0718C150.727 58.5973 151.914 58.852 153.24 58.852V57.852ZM150.153 57.1844C149.306 56.7346 148.642 56.0674 148.158 55.1673L147.278 55.6407C147.85 56.7059 148.653 57.5201 149.683 58.0676L150.153 57.1844ZM148.161 55.1725C147.695 54.2793 147.448 53.1539 147.448 51.774H146.448C146.448 53.2688 146.715 54.5634 147.275 55.6355L148.161 55.1725ZM147.448 51.774C147.448 50.5063 147.645 49.3564 148.032 48.3189L147.096 47.9691C146.662 49.1316 146.448 50.4017 146.448 51.774H147.448ZM148.033 48.3169C148.424 47.2571 148.964 46.3533 149.65 45.5983L148.91 44.9257C148.13 45.784 147.526 46.8016 147.095 47.9711L148.033 48.3169ZM149.65 45.5987C150.353 44.8265 151.162 44.2373 152.08 43.8263L151.672 42.9137C150.624 43.3827 149.703 44.0548 148.91 44.9253L149.65 45.5987ZM152.086 43.8238C152.998 43.4017 153.997 43.188 155.088 43.188V42.188C153.862 42.188 152.719 42.429 151.666 42.9162L152.086 43.8238ZM155.088 43.188C156.971 43.188 158.369 43.7154 159.352 44.7112L160.064 44.0088C158.847 42.7753 157.164 42.188 155.088 42.188V43.188ZM159.357 44.7159C160.345 45.691 160.88 47.1702 160.88 49.244H161.88C161.88 47.0058 161.3 45.229 160.059 44.0041L159.357 44.7159ZM160.88 49.244C160.88 50.5115 160.683 51.6696 160.295 52.7231L161.233 53.0689C161.666 51.893 161.88 50.6165 161.88 49.244H160.88ZM160.296 52.7211C159.906 53.7648 159.359 54.6698 158.656 55.4413L159.396 56.1147C160.189 55.2435 160.801 54.2272 161.232 53.0709L160.296 52.7211ZM158.653 55.445C157.964 56.2162 157.162 56.8127 156.242 57.2382L156.662 58.1458C157.708 57.6619 158.621 56.9824 159.399 56.111L158.653 55.445ZM156.248 57.2357C155.334 57.6447 154.334 57.852 153.24 57.852V58.852C154.464 58.852 155.605 58.6193 156.656 58.1483L156.248 57.2357ZM153.526 57.092C154.233 57.092 154.917 56.9058 155.571 56.5461L155.089 55.6699C154.57 55.9556 154.05 56.092 153.526 56.092V57.092ZM155.579 56.5415C156.231 56.1665 156.808 55.6424 157.312 54.981L156.516 54.375C156.081 54.9456 155.602 55.3748 155.081 55.6745L155.579 56.5415ZM157.312 54.981C157.819 54.3157 158.217 53.5392 158.51 52.6581L157.562 52.3419C157.298 53.1328 156.948 53.8083 156.516 54.375L157.312 54.981ZM158.511 52.6557C158.808 51.748 158.954 50.7559 158.954 49.684H157.954C157.954 50.6654 157.821 51.5507 157.561 52.3443L158.511 52.6557ZM158.954 49.684C158.954 48.4401 158.78 47.3818 158.405 46.5337L157.491 46.9383C157.79 47.6156 157.954 48.5226 157.954 49.684H158.954ZM158.41 46.5443C158.059 45.6988 157.563 45.0367 156.903 44.6023L156.353 45.4377C156.807 45.7366 157.192 46.2185 157.486 46.9277L158.41 46.5443ZM156.915 44.6109C156.287 44.1693 155.578 43.948 154.802 43.948V44.948C155.376 44.948 155.884 45.108 156.34 45.4291L156.915 44.6109ZM154.802 43.948C153.788 43.948 152.86 44.2835 152.029 44.9346L152.647 45.7214C153.312 45.1992 154.026 44.948 154.802 44.948V43.948ZM152.034 44.9308C151.206 45.564 150.557 46.4449 150.076 47.5479L150.992 47.9481C151.42 46.9685 151.974 46.236 152.642 45.7252L152.034 44.9308ZM150.073 47.5534C149.603 48.6676 149.374 49.9386 149.374 51.356H150.374C150.374 50.0454 150.585 48.911 150.995 47.9426L150.073 47.5534ZM149.374 51.356C149.374 52.5847 149.54 53.6381 149.896 54.4957L150.82 54.1123C150.53 53.4153 150.374 52.5033 150.374 51.356H149.374ZM149.899 54.503C150.265 55.3449 150.765 56.0081 151.418 56.4547L151.982 55.6293C151.52 55.3132 151.126 54.8178 150.817 54.105L149.899 54.503ZM151.425 56.4597C152.063 56.8794 152.767 57.092 153.526 57.092V56.092C152.965 56.092 152.451 55.9379 151.975 55.6243L151.425 56.4597ZM171.186 57.604L170.832 57.9576C170.837 57.9621 170.842 57.9665 170.846 57.9709L171.186 57.604ZM169.954 56.086L169.539 56.3656L169.544 56.3721L169.954 56.086ZM168.634 53.974L168.199 54.2203L168.202 54.2264L168.634 53.974ZM167.336 51.598L166.881 51.8049C166.885 51.8138 166.889 51.8226 166.894 51.8312L167.336 51.598ZM167.094 51.092L166.632 51.2843C166.637 51.2949 166.642 51.3053 166.647 51.3156L167.094 51.092ZM167.16 49.618L166.692 49.4424C166.69 49.4482 166.688 49.454 166.686 49.4599L167.16 49.618ZM169.69 46.23L169.331 45.8817L169.33 45.8829L169.69 46.23ZM171.164 44.712L171.523 45.0603L171.526 45.0572L171.164 44.712ZM172.858 43.238L172.589 42.8166L172.583 42.8201L172.858 43.238ZM175.344 43.04L174.951 43.3489C174.955 43.3545 174.96 43.36 174.964 43.3654L175.344 43.04ZM175.476 44.888L175.953 45.0386L175.955 45.0317L175.476 44.888ZM175.146 45.548L174.759 45.2314V45.2314L175.146 45.548ZM174.222 45.724L174.075 46.2019C174.086 46.2054 174.098 46.2085 174.11 46.2112L174.222 45.724ZM172.946 45.79L173.132 46.2542C173.14 46.2508 173.149 46.247 173.157 46.2431L172.946 45.79ZM170.988 47.528L171.365 47.8566L171.366 47.8551L170.988 47.528ZM168.59 50.278L168.107 50.1483C168.047 50.373 168.149 50.6097 168.355 50.7192C168.56 50.8287 168.814 50.782 168.967 50.6066L168.59 50.278ZM168.986 48.804L169.455 48.6309C169.38 48.4266 169.181 48.2946 168.963 48.3045C168.746 48.3144 168.56 48.464 168.503 48.6743L168.986 48.804ZM170.57 52.126L170.143 52.387L170.146 52.3916L170.57 52.126ZM173.496 55.866L173.165 56.2409C173.169 56.2445 173.173 56.248 173.177 56.2515L173.496 55.866ZM174.288 56.46L174.026 56.8858C174.038 56.8935 174.051 56.9007 174.064 56.9072L174.288 56.46ZM174.574 57.34L174.269 56.9437C174.264 56.9477 174.259 56.9517 174.254 56.9559L174.574 57.34ZM173.892 57.758L174.086 58.2188C174.093 58.216 174.099 58.213 174.106 58.2099L173.892 57.758ZM173.012 58.044L172.896 57.5576L172.891 57.5589L173.012 58.044ZM163.398 57.912L162.982 58.1894C162.987 58.197 162.992 58.2046 162.998 58.212L163.398 57.912ZM163.134 57.23L163.623 57.127L163.134 57.23ZM163.156 54.656L162.66 54.5908L163.156 54.656ZM163.354 52.852L162.857 52.8002L162.856 52.8067L163.354 52.852ZM164.41 42.71V42.21C164.154 42.21 163.939 42.4035 163.913 42.6582L164.41 42.71ZM166.698 43.15L166.234 43.3357C166.238 43.3453 166.242 43.3547 166.246 43.364L166.698 43.15ZM166.852 45.108L167.349 45.1603V45.1603L166.852 45.108ZM166.72 46.12L166.225 46.0467C166.224 46.0527 166.224 46.0588 166.223 46.0648L166.72 46.12ZM166.544 47.748L166.047 47.6951L166.047 47.6955L166.544 47.748ZM165.444 58.176V58.676C165.7 58.676 165.914 58.4829 165.941 58.2285L165.444 58.176ZM172.22 57.654C172.123 57.654 171.899 57.5825 171.526 57.2371L170.846 57.9709C171.265 58.3589 171.73 58.654 172.22 58.654V57.654ZM171.539 57.2504C171.186 56.8966 170.794 56.4157 170.364 55.7999L169.544 56.3721C169.994 57.0176 170.424 57.5487 170.832 57.9576L171.539 57.2504ZM170.368 55.8064C169.95 55.1861 169.516 54.4913 169.066 53.7216L168.202 54.2264C168.661 55.0114 169.107 55.7246 169.539 56.3656L170.368 55.8064ZM169.069 53.7277C168.632 52.9548 168.201 52.1672 167.778 51.3648L166.894 51.8312C167.321 52.6422 167.756 53.4385 168.199 54.2203L169.069 53.7277ZM167.791 51.3911C167.715 51.2236 167.632 51.0493 167.541 50.8684L166.647 51.3156C166.732 51.4867 166.81 51.6498 166.881 51.8049L167.791 51.3911ZM167.555 50.8997C167.509 50.7892 167.484 50.6644 167.484 50.52H166.484C166.484 50.7862 166.532 51.0428 166.632 51.2843L167.555 50.8997ZM167.484 50.52C167.484 50.3438 167.526 50.0995 167.634 49.7761L166.686 49.4599C166.559 49.8405 166.484 50.1975 166.484 50.52H167.484ZM167.628 49.7936C167.738 49.5003 167.967 49.0935 168.339 48.5635L167.521 47.9885C167.131 48.5438 166.846 49.0317 166.692 49.4424L167.628 49.7936ZM168.339 48.5635C168.699 48.0516 169.265 47.391 170.05 46.5771L169.33 45.8829C168.531 46.7116 167.924 47.415 167.521 47.9885L168.339 48.5635ZM170.049 46.5783L171.523 45.0603L170.805 44.3637L169.331 45.8817L170.049 46.5783ZM171.526 45.0572C172.126 44.4282 172.662 43.9653 173.133 43.6559L172.583 42.8201C172.028 43.1853 171.434 43.7052 170.802 44.3668L171.526 45.0572ZM173.127 43.6593C173.593 43.362 174.021 43.232 174.42 43.232V42.232C173.792 42.232 173.179 42.4393 172.589 42.8167L173.127 43.6593ZM174.42 43.232C174.831 43.232 174.936 43.3299 174.951 43.3489L175.737 42.7311C175.429 42.3394 174.918 42.232 174.42 42.232V43.232ZM174.964 43.3654C175.036 43.4491 175.108 43.6096 175.108 43.92H176.108C176.108 43.4678 176.004 43.0416 175.724 42.7146L174.964 43.3654ZM175.108 43.92C175.108 44.2304 175.069 44.504 174.997 44.7443L175.955 45.0317C176.059 44.6854 176.108 44.3135 176.108 43.92H175.108ZM174.999 44.7374C174.923 44.9781 174.838 45.1347 174.759 45.2314L175.533 45.8646C175.718 45.6387 175.853 45.3552 175.953 45.0386L174.999 44.7374ZM174.759 45.2314C174.72 45.2785 174.697 45.294 174.692 45.2968C174.69 45.2978 174.693 45.2958 174.701 45.2936C174.709 45.2914 174.718 45.29 174.728 45.29V46.29C175.08 46.29 175.348 46.091 175.533 45.8646L174.759 45.2314ZM174.728 45.29C174.629 45.29 174.5 45.2749 174.334 45.2368L174.11 46.2112C174.326 46.2611 174.533 46.29 174.728 46.29V45.29ZM174.369 45.2461C174.118 45.1689 173.839 45.136 173.54 45.136V46.136C173.769 46.136 173.944 46.1617 174.075 46.2019L174.369 45.2461ZM173.54 45.136C173.269 45.136 172.997 45.2144 172.734 45.3369L173.157 46.2431C173.335 46.1603 173.459 46.136 173.54 46.136V45.136ZM172.76 45.3258C172.466 45.4436 172.153 45.6603 171.829 45.9384L172.479 46.6976C172.771 46.4477 172.986 46.3124 173.132 46.2542L172.76 45.3258ZM171.829 45.9384C171.493 46.2263 171.085 46.6514 170.61 47.2009L171.366 47.8551C171.83 47.3193 172.199 46.9377 172.479 46.6976L171.829 45.9384ZM170.611 47.1994L168.213 49.9494L168.967 50.6066L171.365 47.8566L170.611 47.1994ZM169.073 50.4077L169.469 48.9337L168.503 48.6743L168.107 50.1483L169.073 50.4077ZM168.517 48.9771C168.981 50.2356 169.523 51.3729 170.143 52.387L170.996 51.865C170.414 50.9137 169.9 49.8364 169.455 48.6309L168.517 48.9771ZM170.146 52.3916C170.77 53.3872 171.363 54.2215 171.925 54.8898L172.691 54.2462C172.167 53.6238 171.601 52.8302 170.994 51.8604L170.146 52.3916ZM171.925 54.8898C172.467 55.534 172.885 55.9933 173.165 56.2409L173.827 55.4911C173.609 55.2987 173.234 54.8927 172.691 54.2462L171.925 54.8898ZM173.177 56.2515C173.519 56.5338 173.805 56.7498 174.026 56.8858L174.55 56.0342C174.39 55.9356 174.147 55.7555 173.814 55.4805L173.177 56.2515ZM174.064 56.9072C174.27 57.0099 174.416 57.0832 174.504 57.1272L174.952 56.2328C174.864 56.1888 174.717 56.1155 174.512 56.0128L174.064 56.9072ZM174.504 57.1272C174.464 57.107 174.418 57.0687 174.388 57.0129C174.36 56.9622 174.36 56.9244 174.36 56.922H175.36C175.36 56.8023 175.338 56.6654 175.266 56.5341C175.191 56.3977 175.08 56.297 174.952 56.2328L174.504 57.1272ZM174.36 56.922C174.36 56.8624 174.382 56.8335 174.376 56.8432C174.372 56.8481 174.364 56.8598 174.346 56.8778C174.328 56.8957 174.303 56.9178 174.269 56.9437L174.879 57.7363C175.097 57.5687 175.36 57.2995 175.36 56.922H174.36ZM174.254 56.9559C174.119 57.0681 173.931 57.1864 173.678 57.3061L174.106 58.2099C174.411 58.0656 174.677 57.9052 174.894 57.7241L174.254 56.9559ZM173.698 57.2972C173.446 57.4034 173.179 57.4903 172.896 57.5576L173.128 58.5304C173.461 58.451 173.781 58.3473 174.086 58.2188L173.698 57.2972ZM172.891 57.5589C172.626 57.625 172.404 57.654 172.22 57.654V58.654C172.505 58.654 172.811 58.6096 173.133 58.5291L172.891 57.5589ZM163.904 57.676C163.869 57.676 163.843 57.6726 163.798 57.612L162.998 58.212C163.217 58.5034 163.529 58.676 163.904 58.676V57.676ZM163.814 57.6346C163.742 57.5264 163.673 57.3637 163.623 57.127L162.645 57.333C162.712 57.6536 162.819 57.9456 162.982 58.1894L163.814 57.6346ZM163.623 57.127C163.572 56.8815 163.546 56.6373 163.546 56.394H162.546C162.546 56.708 162.579 57.0212 162.645 57.333L163.623 57.127ZM163.546 56.394C163.546 55.813 163.581 55.2555 163.652 54.7212L162.66 54.5908C162.584 55.1712 162.546 55.7724 162.546 56.394H163.546ZM163.652 54.7212C163.726 54.1563 163.793 53.5483 163.852 52.8973L162.856 52.8067C162.798 53.4464 162.733 54.041 162.66 54.5908L163.652 54.7212ZM163.851 52.9038L164.907 42.7618L163.913 42.6582L162.857 52.8002L163.851 52.9038ZM164.41 43.21H165.95V42.21H164.41V43.21ZM165.95 43.21C166.079 43.21 166.142 43.235 166.169 43.251C166.19 43.2629 166.212 43.2818 166.234 43.3357L167.162 42.9643C167.066 42.7249 166.906 42.5238 166.676 42.389C166.454 42.2583 166.202 42.21 165.95 42.21V43.21ZM166.246 43.364C166.339 43.5596 166.396 43.8197 166.396 44.162H167.396C167.396 43.7123 167.321 43.2977 167.15 42.936L166.246 43.364ZM166.396 44.162C166.396 44.5007 166.382 44.7981 166.355 45.0557L167.349 45.1603C167.381 44.8606 167.396 44.5273 167.396 44.162H166.396ZM166.355 45.0557C166.326 45.3251 166.283 45.655 166.225 46.0467L167.215 46.1933C167.274 45.793 167.319 45.4483 167.349 45.1603L166.355 45.0557ZM166.223 46.0648C166.179 46.4619 166.12 47.0055 166.047 47.6951L167.041 47.8009C167.114 47.1119 167.173 46.5701 167.217 46.1752L166.223 46.0648ZM166.047 47.6955L164.947 58.1235L165.941 58.2285L167.041 47.8005L166.047 47.6955ZM165.444 57.676H163.904V58.676H165.444V57.676ZM176.844 57.78L176.381 57.9693C176.384 57.9752 176.386 57.9811 176.389 57.9869L176.844 57.78ZM176.844 53.908L177.341 53.9589L177.342 53.9583L176.844 53.908ZM177.944 43.04V42.54C177.687 42.54 177.472 42.7343 177.447 42.9896L177.944 43.04ZM183.796 42.996L183.82 43.4955L183.832 43.4947L183.796 42.996ZM185.182 42.886L185.229 43.3837C185.236 43.3831 185.243 43.3823 185.25 43.3814L185.182 42.886ZM186.216 42.908L185.863 43.2616C185.891 43.2905 185.924 43.3157 185.959 43.3367L186.216 42.908ZM186.172 44.162L186.646 44.3201V44.3201L186.172 44.162ZM185.754 44.954L185.364 44.6417C185.359 44.6471 185.355 44.6527 185.351 44.6583L185.754 44.954ZM183.312 45.064L183.38 44.5687L183.377 44.5682L183.312 45.064ZM180.452 44.69L180.517 44.1942C180.383 44.1767 180.247 44.2142 180.142 44.2981C180.036 44.3821 179.968 44.5053 179.955 44.6398L180.452 44.69ZM179.462 54.502L178.965 54.4518L178.964 54.4546L179.462 54.502ZM179.484 56.35L178.989 56.4207C179.008 56.5564 179.083 56.6783 179.195 56.7577C179.306 56.837 179.446 56.867 179.58 56.8406L179.484 56.35ZM184.192 55.426L184.288 55.9168L184.301 55.9141L184.192 55.426ZM184.852 55.294L184.934 55.7872C184.944 55.7855 184.954 55.7835 184.964 55.7812L184.852 55.294ZM185.292 56.658L184.82 56.4944C184.818 56.4999 184.816 56.5054 184.814 56.511L185.292 56.658ZM184.786 57.626L185.161 57.9569L185.17 57.9461L184.786 57.626ZM179.44 58.132L179.487 58.6298L179.44 58.132ZM178.582 51.07L178.089 50.9868C178.064 51.1332 178.106 51.2831 178.203 51.3958C178.3 51.5084 178.441 51.5723 178.59 51.5699L178.582 51.07ZM178.868 49.376V48.876C178.624 48.876 178.416 49.0521 178.375 49.2928L178.868 49.376ZM181.706 49.31L181.745 49.8084L181.706 49.31ZM183.114 49.178L183.171 49.6747L183.114 49.178ZM184.104 49.222L183.714 49.5343C183.725 49.5488 183.737 49.5625 183.751 49.5756L184.104 49.222ZM183.752 50.168L183.44 49.7776V49.7776L183.752 50.168ZM182.652 50.762L182.48 50.2925L182.475 50.2945L182.652 50.762ZM181.398 51.026L181.406 51.526L181.416 51.5257L181.398 51.026ZM177.46 57.764C177.439 57.764 177.431 57.7605 177.417 57.7498C177.396 57.7331 177.351 57.6863 177.299 57.5731L176.389 57.9869C176.584 58.4155 176.931 58.764 177.46 58.764V57.764ZM177.307 57.5907C177.203 57.3357 177.146 57.0418 177.146 56.702H176.146C176.146 57.1542 176.222 57.5789 176.381 57.9693L177.307 57.5907ZM177.146 56.702C177.146 56.1576 177.21 55.2483 177.341 53.9589L176.347 53.8571C176.215 55.149 176.146 56.1024 176.146 56.702H177.146ZM177.342 53.9583L178.442 43.0904L177.447 42.9896L176.347 53.8577L177.342 53.9583ZM177.944 43.54H181.332V42.54H177.944V43.54ZM181.332 43.54C182.377 43.54 183.207 43.5253 183.82 43.4954L183.772 42.4966C183.182 42.5253 182.37 42.54 181.332 42.54V43.54ZM183.832 43.4947C184.449 43.4507 184.915 43.4137 185.229 43.3837L185.135 42.3883C184.833 42.417 184.376 42.4533 183.76 42.4973L183.832 43.4947ZM185.25 43.3814C185.57 43.3377 185.776 43.32 185.886 43.32V42.32C185.703 42.32 185.439 42.3463 185.115 42.3906L185.25 43.3814ZM185.886 43.32C185.912 43.32 185.93 43.3212 185.944 43.3226C185.957 43.324 185.962 43.3255 185.961 43.3251C185.959 43.3248 185.948 43.3217 185.931 43.3128C185.914 43.3036 185.889 43.2877 185.863 43.2616L186.57 42.5544C186.361 42.3455 186.07 42.32 185.886 42.32V43.32ZM185.959 43.3367C185.896 43.2993 185.859 43.2534 185.84 43.2225C185.831 43.2072 185.825 43.1948 185.822 43.1869C185.818 43.1791 185.817 43.1743 185.817 43.1738C185.817 43.1735 185.819 43.1835 185.822 43.2073C185.824 43.2306 185.826 43.2623 185.826 43.304H186.826C186.826 43.1726 186.816 43.0339 186.78 42.9062C186.747 42.7877 186.67 42.5972 186.473 42.4793L185.959 43.3367ZM185.826 43.304C185.826 43.5035 185.787 43.7356 185.698 44.0039L186.646 44.3201C186.762 43.9724 186.826 43.6325 186.826 43.304H185.826ZM185.698 44.0039C185.611 44.2643 185.498 44.4741 185.364 44.6417L186.145 45.2663C186.362 44.9938 186.528 44.6757 186.646 44.3201L185.698 44.0039ZM185.351 44.6583C185.258 44.7843 185.204 44.784 185.182 44.784V45.784C185.6 45.784 185.927 45.5637 186.157 45.2497L185.351 44.6583ZM185.182 44.784C185.071 44.784 184.857 44.7661 184.521 44.7222L184.391 45.7138C184.73 45.7579 185 45.784 185.182 45.784V44.784ZM184.521 44.7222C184.185 44.6784 183.805 44.6272 183.38 44.5687L183.244 45.5593C183.67 45.6181 184.053 45.6696 184.391 45.7138L184.521 44.7222ZM183.377 44.5682L180.517 44.1942L180.387 45.1858L183.247 45.5598L183.377 44.5682ZM179.955 44.6398L178.965 54.4518L179.96 54.5522L180.95 44.7402L179.955 44.6398ZM178.964 54.4546C178.933 54.7783 178.918 55.1021 178.918 55.426H179.918C179.918 55.1339 179.932 54.8417 179.96 54.5494L178.964 54.4546ZM178.918 55.426C178.918 55.7579 178.942 56.0895 178.989 56.4207L179.979 56.2793C179.938 55.9945 179.918 55.7101 179.918 55.426H178.918ZM179.58 56.8406L184.288 55.9166L184.096 54.9354L179.388 55.8594L179.58 56.8406ZM184.301 55.9141C184.56 55.8565 184.77 55.8145 184.934 55.7872L184.77 54.8008C184.582 54.8321 184.352 54.8782 184.084 54.9379L184.301 55.9141ZM184.964 55.7812C185.055 55.7602 185.125 55.7458 185.175 55.7369C185.201 55.7325 185.218 55.7299 185.229 55.7286C185.242 55.727 185.239 55.728 185.226 55.728V54.728C185.1 54.728 184.916 54.766 184.74 54.8068L184.964 55.7812ZM185.226 55.728C185.223 55.728 185.197 55.7276 185.16 55.7133C185.12 55.6977 185.079 55.6702 185.044 55.6304C184.979 55.5543 184.99 55.4932 184.99 55.536H185.99C185.99 55.3735 185.957 55.1583 185.804 54.9796C185.638 54.7861 185.413 54.728 185.226 54.728V55.728ZM184.99 55.536C184.99 55.8417 184.935 56.1605 184.82 56.4944L185.765 56.8216C185.913 56.3929 185.99 55.9636 185.99 55.536H184.99ZM184.814 56.511C184.713 56.839 184.573 57.1003 184.402 57.3059L185.17 57.9461C185.439 57.6237 185.636 57.2396 185.77 56.805L184.814 56.511ZM184.411 57.2952C184.283 57.4407 184.146 57.5 183.972 57.5V58.5C184.443 58.5 184.849 58.31 185.161 57.9568L184.411 57.2952ZM183.972 57.5H183.312V58.5H183.972V57.5ZM183.312 57.5C181.663 57.5 180.355 57.544 179.393 57.6342L179.487 58.6298C180.403 58.544 181.675 58.5 183.312 58.5V57.5ZM179.393 57.6342C178.454 57.7222 177.815 57.764 177.46 57.764V58.764C177.867 58.764 178.549 58.7178 179.487 58.6298L179.393 57.6342ZM179.075 51.1532L179.361 49.4592L178.375 49.2928L178.089 50.9868L179.075 51.1532ZM178.868 49.876H179.924V48.876H178.868V49.876ZM179.924 49.876C180.566 49.876 181.173 49.8536 181.745 49.8084L181.667 48.8116C181.124 48.8544 180.543 48.876 179.924 48.876V49.876ZM181.745 49.8084C182.306 49.7642 182.782 49.7196 183.171 49.6747L183.057 48.6813C182.683 48.7244 182.22 48.7678 181.667 48.8116L181.745 49.8084ZM183.171 49.6747C183.562 49.6296 183.772 49.612 183.84 49.612V48.612C183.702 48.612 183.429 48.6384 183.057 48.6813L183.171 49.6747ZM183.84 49.612C183.848 49.612 183.831 49.6132 183.802 49.601C183.769 49.5876 183.738 49.5643 183.714 49.5343L184.494 48.9097C184.318 48.6887 184.068 48.612 183.84 48.612V49.612ZM183.751 49.5756C183.719 49.5438 183.703 49.511 183.696 49.4901C183.69 49.4717 183.692 49.4675 183.692 49.486H184.692C184.692 49.2916 184.643 49.054 184.458 48.8684L183.751 49.5756ZM183.692 49.486C183.692 49.4798 183.695 49.4989 183.662 49.5504C183.627 49.6049 183.559 49.6819 183.44 49.7776L184.064 50.5584C184.395 50.294 184.692 49.9381 184.692 49.486H183.692ZM183.44 49.7776C183.198 49.9713 182.881 50.1454 182.48 50.2926L182.824 51.2314C183.303 51.0559 183.72 50.834 184.064 50.5584L183.44 49.7776ZM182.475 50.2945C182.095 50.4385 181.731 50.5138 181.38 50.5263L181.416 51.5257C181.887 51.5089 182.358 51.4081 182.829 51.2295L182.475 50.2945ZM181.39 50.5261L178.574 50.5701L178.59 51.5699L181.406 51.5259L181.39 50.5261ZM194.426 57.34L194.04 57.6583L194.049 57.6686L194.426 57.34ZM192.952 55.074L192.511 55.3086L192.512 55.3115L192.952 55.074ZM191.522 52.06L191.982 51.8645L191.979 51.8569L191.522 52.06ZM191.324 51.664L190.86 51.8497C190.868 51.8693 190.877 51.8884 190.887 51.9068L191.324 51.664ZM191.39 50.894L191.638 51.3281C191.653 51.3198 191.667 51.3107 191.681 51.3009L191.39 50.894ZM191.72 50.762L191.782 51.2581C191.793 51.2568 191.804 51.2551 191.814 51.2531L191.72 50.762ZM194.206 49.574L193.873 49.2007L193.869 49.2044L194.206 49.574ZM194.866 45.856L194.422 46.0857C194.425 46.0919 194.429 46.098 194.432 46.1041L194.866 45.856ZM193.678 44.844L193.878 44.3857L193.678 44.844ZM191.214 44.47V43.97C190.958 43.97 190.744 44.163 190.717 44.4173L191.214 44.47ZM189.762 58.176V58.676C190.018 58.676 190.232 58.483 190.259 58.2287L189.762 58.176ZM187.452 57.824L187.91 57.6236L187.452 57.824ZM187.364 55.888L187.861 55.9476L187.861 55.9425L187.364 55.888ZM188.772 43.04L188.716 42.5432C188.484 42.5696 188.301 42.7533 188.275 42.9855L188.772 43.04ZM190.686 42.886L190.709 43.3856L190.72 43.3848L190.686 42.886ZM195.46 43.26L195.295 43.7318V43.7318L195.46 43.26ZM197.418 44.624L197.02 44.9271L197.025 44.9329L197.418 44.624ZM197.726 48.87L197.281 48.6415L197.277 48.6513L197.726 48.87ZM196.626 50.278L196.947 50.6611L196.949 50.6601L196.626 50.278ZM195.108 51.224L194.904 50.7676L195.108 51.224ZM193.414 51.774L192.92 51.695C192.895 51.8571 192.95 52.0217 193.068 52.1352C193.187 52.2487 193.354 52.2968 193.515 52.2638L193.414 51.774ZM193.59 50.674L194.041 50.458C193.947 50.2608 193.735 50.1478 193.518 50.1792C193.302 50.2106 193.131 50.379 193.096 50.595L193.59 50.674ZM195.042 53.336L194.621 53.6056L194.625 53.6114L195.042 53.336ZM196.34 55.096L195.962 55.4235L195.968 55.4298L196.34 55.096ZM197.22 55.998L196.895 56.3776C196.902 56.384 196.91 56.3902 196.918 56.3961L197.22 55.998ZM198.012 56.592L197.718 56.9964C197.732 57.0062 197.746 57.0154 197.76 57.0239L198.012 56.592ZM197.99 57.362L198.29 57.762L198.295 57.7583L197.99 57.362ZM197.308 57.758L197.094 57.3061L197.308 57.758ZM196.45 58.066L196.329 57.5809C196.319 57.5834 196.309 57.5862 196.3 57.5892L196.45 58.066ZM195.746 57.698C195.6 57.698 195.29 57.5703 194.803 57.0114L194.049 57.6686C194.559 58.2537 195.129 58.698 195.746 58.698V57.698ZM194.812 57.0218C194.355 56.4676 193.881 55.7419 193.392 54.8365L192.512 55.3115C193.021 56.2541 193.53 57.039 194.041 57.6582L194.812 57.0218ZM193.394 54.8394C192.902 53.9147 192.432 52.9231 191.982 51.8646L191.062 52.2554C191.522 53.3382 192.005 54.356 192.511 55.3086L193.394 54.8394ZM191.979 51.8569C191.914 51.7108 191.841 51.5655 191.761 51.4212L190.887 51.9068C190.954 52.0265 191.013 52.1452 191.065 52.2631L191.979 51.8569ZM191.788 51.4783C191.752 51.3861 191.736 51.3023 191.736 51.224H190.736C190.736 51.439 190.779 51.6486 190.86 51.8497L191.788 51.4783ZM191.736 51.224C191.736 51.1935 191.741 51.2027 191.728 51.2319C191.721 51.2474 191.709 51.2661 191.692 51.2848C191.675 51.3035 191.656 51.3179 191.638 51.3281L191.142 50.4599C190.829 50.639 190.736 50.9572 190.736 51.224H191.736ZM191.681 51.3009C191.721 51.2725 191.753 51.2618 191.782 51.2581L191.658 50.2659C191.453 50.2915 191.265 50.3688 191.1 50.4871L191.681 51.3009ZM191.814 51.2531C192.889 51.0475 193.806 50.6152 194.543 49.9436L193.869 49.2044C193.287 49.7354 192.546 50.0951 191.626 50.2709L191.814 51.2531ZM194.539 49.9473C195.325 49.247 195.718 48.339 195.718 47.264H194.718C194.718 48.0663 194.437 48.6984 193.874 49.2007L194.539 49.9473ZM195.718 47.264C195.718 46.6593 195.583 46.1026 195.3 45.6079L194.432 46.1041C194.619 46.4307 194.718 46.8127 194.718 47.264H195.718ZM195.31 45.6263C195.023 45.0715 194.523 44.6668 193.878 44.3857L193.478 45.3023C193.977 45.5199 194.269 45.7898 194.422 46.0857L195.31 45.6263ZM193.878 44.3857C193.216 44.097 192.345 43.97 191.302 43.97V44.97C192.283 44.97 192.997 45.0923 193.478 45.3023L193.878 44.3857ZM191.302 43.97H191.214V44.97H191.302V43.97ZM190.717 44.4173L189.265 58.1233L190.259 58.2287L191.711 44.5227L190.717 44.4173ZM189.762 57.676H187.98V58.676H189.762V57.676ZM187.98 57.676C187.957 57.676 187.945 57.6733 187.94 57.672C187.936 57.6709 187.936 57.6705 187.939 57.672C187.946 57.6767 187.931 57.6719 187.91 57.6236L186.994 58.0244C187.076 58.2108 187.201 58.382 187.384 58.504C187.568 58.6266 187.775 58.676 187.98 58.676V57.676ZM187.91 57.6236C187.846 57.4771 187.798 57.2388 187.798 56.878H186.798C186.798 57.3092 186.853 57.7016 186.994 58.0244L187.91 57.6236ZM187.798 56.878C187.798 56.6089 187.818 56.2993 187.861 55.9476L186.868 55.8284C186.822 56.2101 186.798 56.5604 186.798 56.878H187.798ZM187.861 55.9425L189.269 43.0945L188.275 42.9855L186.867 55.8335L187.861 55.9425ZM188.829 43.5368C189.463 43.4647 190.09 43.4143 190.709 43.3855L190.663 42.3865C190.021 42.4164 189.372 42.4686 188.716 42.5432L188.829 43.5368ZM190.72 43.3848C191.354 43.3416 191.981 43.32 192.6 43.32V42.32C191.958 42.32 191.309 42.3424 190.652 42.3872L190.72 43.3848ZM192.6 43.32C193.626 43.32 194.522 43.4606 195.295 43.7318L195.626 42.7882C194.727 42.4728 193.716 42.32 192.6 42.32V43.32ZM195.295 43.7318C196.052 43.9976 196.619 44.3995 197.02 44.927L197.816 44.321C197.279 43.6165 196.54 43.1091 195.626 42.7882L195.295 43.7318ZM197.025 44.9329C197.424 45.4404 197.644 46.1223 197.644 47.022H198.644C198.644 45.9564 198.381 45.0396 197.811 44.3151L197.025 44.9329ZM197.644 47.022C197.644 47.6423 197.519 48.1783 197.281 48.6416L198.171 49.0984C198.49 48.4763 198.644 47.7803 198.644 47.022H197.644ZM197.277 48.6513C197.044 49.1301 196.721 49.544 196.304 49.8959L196.949 50.6601C197.47 50.22 197.881 49.6953 198.176 49.0887L197.277 48.6513ZM196.305 49.8949C195.887 50.2456 195.42 50.5366 194.904 50.7676L195.312 51.6804C195.911 51.4127 196.456 51.073 196.947 50.6611L196.305 49.8949ZM194.904 50.7676C194.378 51.0027 193.848 51.1745 193.314 51.2842L193.515 52.2638C194.124 52.1388 194.723 51.9439 195.312 51.6804L194.904 50.7676ZM193.908 51.853L194.084 50.753L193.096 50.595L192.92 51.695L193.908 51.853ZM193.139 50.89C193.644 51.9442 194.138 52.8505 194.621 53.6055L195.463 53.0665C195.008 52.3549 194.534 51.4865 194.041 50.458L193.139 50.89ZM194.625 53.6114C195.116 54.3548 195.562 54.961 195.962 55.4235L196.718 54.7685C196.356 54.351 195.937 53.7839 195.459 53.0606L194.625 53.6114ZM195.968 55.4298C196.352 55.8576 196.663 56.179 196.895 56.3776L197.546 55.6184C197.367 55.465 197.092 55.185 196.712 54.7622L195.968 55.4298ZM196.918 56.3961C197.284 56.6749 197.552 56.8757 197.718 56.9964L198.306 56.1876C198.15 56.0737 197.889 55.8785 197.523 55.5999L196.918 56.3961ZM197.76 57.0239C197.785 57.038 197.799 57.0491 197.808 57.0559C197.816 57.0626 197.815 57.0635 197.81 57.057C197.805 57.0501 197.796 57.0358 197.788 57.0142C197.78 56.992 197.776 56.9678 197.776 56.944H198.776C198.776 56.5505 198.504 56.3002 198.264 56.1601L197.76 57.0239ZM197.776 56.944C197.776 56.8844 197.799 56.8555 197.792 56.8652C197.789 56.8701 197.78 56.8818 197.762 56.8998C197.744 56.9177 197.719 56.9398 197.685 56.9657L198.295 57.7583C198.513 57.5907 198.776 57.3215 198.776 56.944H197.776ZM197.69 56.962C197.549 57.0677 197.354 57.1832 197.094 57.3061L197.522 58.2099C197.82 58.0688 198.079 57.9203 198.29 57.762L197.69 56.962ZM197.094 57.3061C196.845 57.4243 196.59 57.5157 196.329 57.5809L196.571 58.5511C196.897 58.4696 197.214 58.3557 197.522 58.2099L197.094 57.3061ZM196.3 57.5892C196.047 57.6691 195.866 57.698 195.746 57.698V58.698C196.007 58.698 196.296 58.6389 196.601 58.5428L196.3 57.5892Z" fill="white" mask="url(#path-9-outside-1_44_6554)"/>
</g>
</g>
<defs>
<filter id="filter0_d_44_6554" x="0" y="0" width="269.635" height="111.989" filterUnits="userSpaceOnUse" color-interpolation-filters="sRGB">
<feFlood flood-opacity="0" result="BackgroundImageFix"/>
<feColorMatrix in="SourceAlpha" type="matrix" values="0 0 0 0 0 0 0 0 0 0 0 0 0 0 0 0 0 0 127 0" result="hardAlpha"/>
<feOffset/>
<feGaussianBlur stdDeviation="12.5"/>
<feComposite in2="hardAlpha" operator="out"/>
<feColorMatrix type="matrix" values="0 0 0 0 1 0 0 0 0 0.415686 0 0 0 0 0.427451 0 0 0 1 0"/>
<feBlend mode="normal" in2="BackgroundImageFix" result="effect1_dropShadow_44_6554"/>
<feBlend mode="normal" in="SourceGraphic" in2="effect1_dropShadow_44_6554" result="shape"/>
</filter>
<filter id="filter1_d_44_6554" x="72.232" y="42.688" width="126.044" height="21.052" filterUnits="userSpaceOnUse" color-interpolation-filters="sRGB">
<feFlood flood-opacity="0" result="BackgroundImageFix"/>
<feColorMatrix in="SourceAlpha" type="matrix" values="0 0 0 0 0 0 0 0 0 0 0 0 0 0 0 0 0 0 127 0" result="hardAlpha"/>
<feOffset dy="2"/>
<feComposite in2="hardAlpha" operator="out"/>
<feColorMatrix type="matrix" values="0 0 0 0 0 0 0 0 0 0 0 0 0 0 0 0 0 0 1 0"/>
<feBlend mode="normal" in2="BackgroundImageFix" result="effect1_dropShadow_44_6554"/>
<feBlend mode="normal" in="SourceGraphic" in2="effect1_dropShadow_44_6554" result="shape"/>
</filter>
<linearGradient id="paint0_linear_44_6554" x1="26.1005" y1="71.8863" x2="242.18" y2="71.8863" gradientUnits="userSpaceOnUse">
<stop stop-color="#7A1818"/>
<stop offset="0.14" stop-color="#E35B68"/>
<stop offset="0.26" stop-color="#D1515C"/>
<stop offset="0.51" stop-color="#A1363C"/>
<stop offset="0.76" stop-color="#691717"/>
<stop offset="0.8" stop-color="#6E1414"/>
<stop offset="0.84" stop-color="#7E0C0C"/>
<stop offset="0.87" stop-color="#8C0404"/>
<stop offset="0.92" stop-color="#780303"/>
<stop offset="1" stop-color="#4F0202"/>
</linearGradient>
<linearGradient id="paint1_linear_44_6554" x1="134.139" y1="82.8068" x2="134.139" y2="30.8082" gradientUnits="userSpaceOnUse">
<stop stop-color="#7A0505"/>
<stop offset="1" stop-color="#3B0000"/>
</linearGradient>
<linearGradient id="paint2_linear_44_6554" x1="28.376" y1="64.6371" x2="239.902" y2="64.6371" gradientUnits="userSpaceOnUse">
<stop stop-color="#9C561F"/>
<stop offset="0.14" stop-color="#FFD66D"/>
<stop offset="0.25" stop-color="#EFC464"/>
<stop offset="0.48" stop-color="#C5944C"/>
<stop offset="0.76" stop-color="#8A502B"/>
<stop offset="0.79" stop-color="#8F5529"/>
<stop offset="0.82" stop-color="#9F6524"/>
<stop offset="0.85" stop-color="#B97E1C"/>
<stop offset="0.87" stop-color="#CF9315"/>
<stop offset="0.91" stop-color="#BF7F11"/>
<stop offset="0.98" stop-color="#954A08"/>
<stop offset="1" stop-color="#853604"/>
</linearGradient>
<linearGradient id="paint3_linear_44_6554" x1="134.138" y1="85.3623" x2="134.138" y2="74.9998" gradientUnits="userSpaceOnUse">
<stop stop-color="#FF7070"/>
<stop offset="1"/>
</linearGradient>
<linearGradient id="paint4_linear_44_6554" x1="134.139" y1="72.4911" x2="134.139" y2="25" gradientUnits="userSpaceOnUse">
<stop stop-color="#CF8F3E"/>
<stop offset="0.2" stop-color="#DAA24D"/>
<stop offset="0.73" stop-color="#F5D273"/>
<stop offset="1" stop-color="#FFE482"/>
</linearGradient>
<linearGradient id="paint5_linear_44_6554" x1="134.14" y1="48.7454" x2="134.14" y2="26.1151" gradientUnits="userSpaceOnUse">
<stop stop-color="#A86920"/>
<stop offset="1" stop-color="#D6B367"/>
</linearGradient>
<linearGradient id="paint6_linear_44_6554" x1="134.139" y1="75.0465" x2="134.139" y2="65.1487" gradientUnits="userSpaceOnUse">
<stop stop-color="#FFE978"/>
<stop offset="1"/>
</linearGradient>
</defs>
</svg>
