<svg width="111" height="111" viewBox="0 0 111 111" fill="none" xmlns="http://www.w3.org/2000/svg">
<path d="M51.0489 95.6817V109.734C39.3679 108.789 28.7298 104.155 20.2992 96.9957L30.2361 87.0588C36.0665 91.7321 43.2217 94.8242 51.0489 95.6817ZM14.0044 90.7008C6.8454 82.2702 2.21109 71.6321 1.26564 59.9511H15.3183C16.1758 67.7783 19.2679 74.9335 23.9412 80.7639L14.0044 90.7008ZM15.3183 51.0489H1.26564C2.21109 39.3679 6.8454 28.7298 14.0044 20.2992L23.9412 30.2361C19.2679 36.0665 16.1758 43.2217 15.3183 51.0489ZM30.2361 23.9412L20.2992 14.0044C28.7298 6.8454 39.3679 2.21109 51.0489 1.26564V15.3183C43.2217 16.1758 36.0665 19.2679 30.2361 23.9412ZM59.9511 15.3183V1.26564C71.6321 2.21109 82.2702 6.8454 90.7008 14.0044L80.7639 23.9412C74.9335 19.2679 67.7783 16.1758 59.9511 15.3183ZM87.0588 30.2361L96.9957 20.2992C104.155 28.7298 108.789 39.3679 109.734 51.0489H95.6817C94.8242 43.2217 91.7321 36.0665 87.0588 30.2361ZM95.6817 59.9511H109.734C108.789 71.6321 104.155 82.2702 96.9957 90.7008L87.0588 80.7639C91.7321 74.9335 94.8242 67.7783 95.6817 59.9511ZM90.7008 96.9957C82.2702 104.155 71.6321 108.789 59.9511 109.734V95.6817C67.7783 94.8242 74.9335 91.7321 80.7639 87.0588L90.7008 96.9957ZM55.5 87.0219C38.091 87.0219 23.9781 72.909 23.9781 55.5C23.9781 38.091 38.091 23.9781 55.5 23.9781C72.909 23.9781 87.0219 38.091 87.0219 55.5C87.0219 72.909 72.909 87.0219 55.5 87.0219Z" stroke="white" stroke-width="2.3617" stroke-linejoin="round"/>
</svg>
