<svg width="35" height="15" viewBox="0 0 35 15" fill="none" xmlns="http://www.w3.org/2000/svg">
<path d="M34.75 7.5C34.75 8.45099 34.3013 9.37788 33.4468 10.2437C32.5912 11.1107 31.3408 11.9028 29.7759 12.5735C26.647 13.9145 22.3069 14.75 17.5 14.75C12.6931 14.75 8.35304 13.9145 5.22411 12.5735C3.6592 11.9028 2.40876 11.1107 1.55317 10.2437C0.698651 9.37788 0.25 8.45099 0.25 7.5C0.25 6.54901 0.698651 5.62212 1.55317 4.75627C2.40876 3.88934 3.6592 3.09716 5.22411 2.42649C8.35304 1.08551 12.6931 0.25 17.5 0.25C22.3069 0.25 26.647 1.08551 29.7759 2.42649C31.3408 3.09716 32.5912 3.88934 33.4468 4.75627C34.3013 5.62212 34.75 6.54901 34.75 7.5Z" fill="#152744" stroke="#68FFED" stroke-width="0.5" stroke-linejoin="round"/>
</svg>
