<svg width="88" height="91" viewBox="0 0 88 91" fill="none" xmlns="http://www.w3.org/2000/svg">
<path d="M44.5388 5.35596C36.1563 5.3569 27.9623 7.84347 20.9929 12.5012C14.0236 17.159 8.59189 23.7788 5.38469 31.5235C2.17749 39.2682 1.33878 47.79 2.97471 56.0114C4.61064 64.2327 8.64772 71.7844 14.5754 77.7114C20.5031 83.6384 28.0551 87.6746 36.2767 89.3096C44.4982 90.9446 53.0199 90.105 60.7643 86.8969C68.5087 83.6888 75.1278 78.2564 79.7848 71.2865C84.4418 64.3166 86.9274 56.1223 86.9274 47.7398C86.9261 36.4985 82.4597 25.718 74.5104 17.7696C66.5611 9.82123 55.7802 5.35596 44.5388 5.35596ZM44.5388 80.3082C38.0972 80.3092 31.7999 78.3999 26.4434 74.8218C21.087 71.2437 16.9119 66.1575 14.4461 60.2065C11.9804 54.2555 11.3347 47.7069 12.5908 41.3889C13.847 35.071 16.9484 29.2674 21.503 24.7121C26.0576 20.1569 31.8607 17.0546 38.1785 15.7975C44.4963 14.5405 51.045 15.1851 56.9964 17.65C62.9477 20.1149 68.0345 24.2893 71.6134 29.6452C75.1923 35.0012 77.1025 41.2982 77.1025 47.7398C77.1025 56.3766 73.6718 64.6598 67.5651 70.7675C61.4583 76.8751 53.1757 80.3069 44.5388 80.3082Z" fill="url(#paint0_linear_40_5461)"/>
<mask id="mask0_40_5461" style="mask-type:luminance" maskUnits="userSpaceOnUse" x="2" y="5" width="85" height="86">
<path d="M44.5388 5.35596C36.1563 5.3569 27.9623 7.84347 20.9929 12.5012C14.0236 17.159 8.59189 23.7788 5.38469 31.5235C2.17749 39.2682 1.33878 47.79 2.97471 56.0114C4.61064 64.2327 8.64772 71.7844 14.5754 77.7114C20.5031 83.6384 28.0551 87.6746 36.2767 89.3096C44.4982 90.9446 53.0199 90.105 60.7643 86.8969C68.5087 83.6888 75.1278 78.2564 79.7848 71.2865C84.4418 64.3166 86.9274 56.1223 86.9274 47.7398C86.9261 36.4985 82.4597 25.718 74.5104 17.7696C66.5611 9.82123 55.7802 5.35596 44.5388 5.35596ZM44.5388 80.3082C38.0972 80.3092 31.7999 78.3999 26.4434 74.8218C21.087 71.2437 16.9119 66.1575 14.4461 60.2065C11.9804 54.2555 11.3347 47.7069 12.5908 41.3889C13.847 35.071 16.9484 29.2674 21.503 24.7121C26.0576 20.1569 31.8607 17.0546 38.1785 15.7975C44.4963 14.5405 51.045 15.1851 56.9964 17.65C62.9477 20.1149 68.0345 24.2893 71.6134 29.6452C75.1923 35.0012 77.1025 41.2982 77.1025 47.7398C77.1025 56.3766 73.6718 64.6598 67.5651 70.7675C61.4583 76.8751 53.1757 80.3069 44.5388 80.3082Z" fill="white"/>
</mask>
<g mask="url(#mask0_40_5461)">
<path fill-rule="evenodd" clip-rule="evenodd" d="M107.055 62.6588L103.384 58.6343L103.087 60.6967L79.6757 61.4844L107.055 62.6588Z" fill="#E6774F"/>
<path fill-rule="evenodd" clip-rule="evenodd" d="M0.417236 44.7943L8.3994 43.343H22.0722L0.417236 44.7943Z" fill="#E6774F"/>
<path fill-rule="evenodd" clip-rule="evenodd" d="M65.1005 87.3832L29.4672 84.9103L16.5104 86.5382L65.1005 87.3832Z" fill="#801B34"/>
<g style="mix-blend-mode:multiply" opacity="0.2">
<path fill-rule="evenodd" clip-rule="evenodd" d="M-3.38287 12.5027C-3.38287 12.5027 15.4268 7.49473 33.7352 8.47818C52.0436 9.46163 59.7011 11.0323 83.4567 12.5027C107.212 13.9731 110.43 26.1135 110.43 26.1135L109.217 31.8423C109.217 31.8423 100.911 17.3006 76.4866 13.5912C52.0627 9.88175 44.8778 11.1373 23.872 10.7268C2.86631 10.3162 -2.69544 15.3767 -2.69544 15.3767L-3.38287 12.5027Z" fill="url(#paint1_linear_40_5461)"/>
<path fill-rule="evenodd" clip-rule="evenodd" d="M-1.6499 19.7927C-1.6499 19.7927 5.03371 16.723 37.225 16.9283C69.4163 17.1336 91.31 20.3656 96.6091 27.0397C101.908 33.7138 95.9217 43.9207 68.7336 48.9286C41.5455 53.9366 2.11203 54.414 2.11203 54.414L1.98313 53.1489C1.98313 53.1489 46.7444 54.1037 69.7743 48.1409C92.8042 42.1782 98.1082 29.7561 92.809 25.4356C87.5098 21.1151 30.8517 11.7962 -1.11999 22.0508L-1.6499 19.7927Z" fill="url(#paint2_linear_40_5461)"/>
<path fill-rule="evenodd" clip-rule="evenodd" d="M1.87341 34.616C1.87341 34.616 51.3562 17.9928 79.6901 31.2312C79.6901 31.2312 77.0405 42.1112 54.5739 42.1112C32.1073 42.1112 36.0268 34.1242 26.6029 32.2958C17.1789 30.4673 2.44627 36.9696 2.44627 36.9696L1.87341 34.616Z" fill="url(#paint3_linear_40_5461)"/>
<path fill-rule="evenodd" clip-rule="evenodd" d="M2.74219 58.6345C2.74219 58.6345 81.2654 51.9508 106.549 41.1472L106.162 43.3433C106.162 43.3433 52.8265 56.2331 2.74219 59.7803V58.6345Z" fill="url(#paint4_linear_40_5461)"/>
<path fill-rule="evenodd" clip-rule="evenodd" d="M3.52039 64.8692C3.52039 64.8692 82.8074 64.0481 104.892 50.4612L104.639 51.8934C104.639 51.8934 78.697 63.986 3.63018 65.824L3.52039 64.8692Z" fill="url(#paint5_linear_40_5461)"/>
<path fill-rule="evenodd" clip-rule="evenodd" d="M5.32483 82.8625C5.32483 82.8625 69.5259 59.9472 105.183 69.7387L104.543 73.5579C104.543 73.5579 90.46 65.8001 50.9311 72.2164C11.4021 78.6327 7.48742 86.381 7.48742 86.381L5.65421 86.3476L5.32483 82.8625Z" fill="url(#paint6_linear_40_5461)"/>
<path fill-rule="evenodd" clip-rule="evenodd" d="M90.9806 75.4866C90.9806 75.4866 72.6579 67.767 45.8279 77.7113C45.8279 77.7113 78.4154 79.5446 90.9806 75.4866Z" fill="url(#paint7_linear_40_5461)"/>
<path fill-rule="evenodd" clip-rule="evenodd" d="M61.1428 87.1063C61.1428 87.1063 87.2042 83.2488 104.276 75.3765L104.071 76.8421C104.071 76.8421 81.8191 83.8695 62.3841 87.345L61.1428 87.1063Z" fill="url(#paint8_linear_40_5461)"/>
<path fill-rule="evenodd" clip-rule="evenodd" d="M0.0258179 28.1092C0.0258179 28.1092 23.6142 18.184 54.6311 19.7785C85.648 21.3731 90.274 28.8874 90.1976 33.4991C90.1212 38.1108 64.1172 52.9628 1.51053 51.7836L1.59166 51.163C1.59166 51.163 35.6878 52.2419 62.1216 46.0261C88.5554 39.8104 90.656 32.6111 86.3355 27.6366C82.015 22.662 42.6293 14.0974 0.0258179 28.1092Z" fill="url(#paint9_linear_40_5461)"/>
<path fill-rule="evenodd" clip-rule="evenodd" d="M59.6343 56.7054C59.6343 56.7054 75.1451 55.9846 86.2065 52.5807L59.6343 56.7054Z" fill="url(#paint10_linear_40_5461)"/>
<path fill-rule="evenodd" clip-rule="evenodd" d="M79.6757 87.3357L95.1674 83.0773L83.6524 87.7033L79.6757 87.3357Z" fill="url(#paint11_linear_40_5461)"/>
</g>
<path style="mix-blend-mode:multiply" opacity="0.2" fill-rule="evenodd" clip-rule="evenodd" d="M45.7657 29.4839C45.7657 29.4839 66.6711 24.8721 73.9324 32.6252C73.9324 32.6252 66.0839 39.7862 52.1438 38.8075C38.2036 37.8289 30.7466 31.2311 30.7466 31.2311C30.7466 31.2311 40.1896 38.755 52.9506 37.9148C65.7116 37.0746 66.3751 27.7175 45.7657 29.4839Z" fill="url(#paint12_linear_40_5461)"/>
<path fill-rule="evenodd" clip-rule="evenodd" d="M78.4154 61.7468L66.8193 63.1026L45.8279 63.4034L78.4154 61.7468Z" fill="#DC634F"/>
<path fill-rule="evenodd" clip-rule="evenodd" d="M-1.02917 23.8219L7.18697 27.8941L-0.546993 25.8556L-1.02917 23.8219Z" fill="#892334"/>
<path fill-rule="evenodd" clip-rule="evenodd" d="M22.0722 43.3429L107.723 38.8601L107.565 39.6144L22.0722 43.3429Z" fill="#892334"/>
<path opacity="0.2" fill-rule="evenodd" clip-rule="evenodd" d="M0.417236 44.7941L107.566 39.6143L103.087 60.6964L45.8278 63.4032L3.95003 68.8122L0.417236 44.7941Z" fill="#D9772F"/>
<path fill-rule="evenodd" clip-rule="evenodd" d="M3.94995 68.8124L45.8277 63.4034L72.462 61.7468L79.6756 61.4843L45.8277 63.8378L22.7453 67.3038L3.94995 68.8124Z" fill="#801B34"/>
<path style="mix-blend-mode:multiply" opacity="0.6" fill-rule="evenodd" clip-rule="evenodd" d="M61.1429 87.1063L29.4672 84.9103L34.4418 86.8485L61.1429 87.1063Z" fill="url(#paint13_linear_40_5461)"/>
<path opacity="0.4" fill-rule="evenodd" clip-rule="evenodd" d="M7.48297 86.3806C7.48297 86.3806 13.0208 77.4007 52.9508 71.8962C52.9508 71.8962 19.0648 76.5318 7.48297 86.3806Z" fill="#D9772F"/>
<path opacity="0.4" fill-rule="evenodd" clip-rule="evenodd" d="M2.74219 59.7799C2.74219 59.7799 33.4153 57.3261 61.1572 52.4041C61.1429 52.4041 43.1305 56.9012 2.74219 59.7799Z" fill="#D9772F"/>
<path opacity="0.4" fill-rule="evenodd" clip-rule="evenodd" d="M63.3725 52.0126C63.3725 52.0126 99.7745 45.4817 106.94 42.9658L106.668 43.787C106.668 43.787 79.2557 49.4108 63.3725 52.0126Z" fill="#D9772F"/>
<path fill-rule="evenodd" clip-rule="evenodd" d="M41.7841 42.4835L48.9547 43.3429L59.1138 41.7292L41.7841 42.4835Z" fill="#E6774F"/>
<path fill-rule="evenodd" clip-rule="evenodd" d="M41.7841 42.4835L47.8471 42.536L59.1138 41.7292L49.9859 40.8364L41.7841 42.4835Z" fill="#892334"/>
<path fill-rule="evenodd" clip-rule="evenodd" d="M85.1658 40.6981L90.1976 42.9658L85.8103 40.4785L85.1658 40.6981Z" fill="#892334"/>
<path fill-rule="evenodd" clip-rule="evenodd" d="M22.7025 66.3919L28.2929 63.4033L24.0583 66.22L22.7025 66.3919Z" fill="#892334"/>
<path fill-rule="evenodd" clip-rule="evenodd" d="M70.1085 82.5853L73.9039 80.098L81.1986 79.8354L73.9325 80.7855L70.1085 82.5853Z" fill="#801B34"/>
<path fill-rule="evenodd" clip-rule="evenodd" d="M35.2916 60.6485L36.8002 59.7797H40.777L35.2916 60.6485Z" fill="#801B34"/>
<path fill-rule="evenodd" clip-rule="evenodd" d="M80.3774 0.20459L87.2424 3.41273L90.7179 8.47798L94.2507 11.4856L88.5123 7.56137L81.9814 3.66576L80.3774 0.20459Z" fill="#A73234"/>
<path fill-rule="evenodd" clip-rule="evenodd" d="M94.2507 11.4856L89.2475 7.56137L81.5423 2.71096L80.3774 0.20459L87.2424 3.41273L90.1975 7.71414L94.2507 11.4856Z" fill="#892334"/>
<path fill-rule="evenodd" clip-rule="evenodd" d="M71.0204 82.1556L80.1054 79.9786L73.9325 80.7854L71.0204 82.1556Z" fill="#DC634F"/>
<path fill-rule="evenodd" clip-rule="evenodd" d="M35.2916 60.6485L38.0319 61.0257L40.777 59.7797L35.2916 60.6485Z" fill="#DC634F"/>
<path fill-rule="evenodd" clip-rule="evenodd" d="M24.0582 66.22L28.2928 63.4033L25.1706 66.072L24.0582 66.22Z" fill="#DC634F"/>
<path fill-rule="evenodd" clip-rule="evenodd" d="M84.951 40.6027L88.3071 42.1113L83.6525 40.6743L84.951 40.6027Z" fill="#DC634F"/>
<path fill-rule="evenodd" clip-rule="evenodd" d="M-0.54716 25.8556L-1.35394 26.438L7.1868 27.8941L-0.54716 25.8556Z" fill="#E6774F"/>
<path fill-rule="evenodd" clip-rule="evenodd" d="M9.77441 57.2303L11.2449 56.7052H15.1404L9.77441 57.2303Z" fill="#801B34"/>
<path fill-rule="evenodd" clip-rule="evenodd" d="M9.77441 72.1828L11.8989 71.6099H12.7152L10.4905 72.1828H9.77441Z" fill="#801B34"/>
<path fill-rule="evenodd" clip-rule="evenodd" d="M7.1391 72.6316L8.31833 73.066H7.48287L7.1391 72.6316Z" fill="#801B34"/>
<path fill-rule="evenodd" clip-rule="evenodd" d="M2.33173 14.8369L3.13851 14.5648L4.04081 14.7033L3.4775 15.1663L2.33173 14.8369Z" fill="#892334"/>
<path fill-rule="evenodd" clip-rule="evenodd" d="M19.246 12.8178L19.8093 12.1447L21.9051 12.8178L21.3466 13.9015H19.9574L19.246 12.8178Z" fill="#892334"/>
<path fill-rule="evenodd" clip-rule="evenodd" d="M24.6788 14.5793L24.9414 14.3168L26.0681 14.8658L25.3472 15.3289L24.6788 14.8228V14.5793Z" fill="#892334"/>
<path fill-rule="evenodd" clip-rule="evenodd" d="M19.246 12.8179L19.9478 13.6867L21.1126 13.8204H21.3896L21.3466 13.9016L19.9574 13.9875L19.246 12.8179Z" fill="#F2774F"/>
<path fill-rule="evenodd" clip-rule="evenodd" d="M24.6788 14.8229L25.1515 15.1093H25.6289L26.0681 14.8658L25.4905 15.3289H25.3472L24.6788 14.8229Z" fill="#F2774F"/>
<path fill-rule="evenodd" clip-rule="evenodd" d="M2.33173 14.837L3.02872 15.1665L3.75916 15.2667L4.04081 14.7034L3.5634 14.985L2.33173 14.837Z" fill="#F2774F"/>
<path fill-rule="evenodd" clip-rule="evenodd" d="M32.6086 73.0661L33.0335 72.9419L37.5831 71.61L45.1118 70.9082L32.6086 73.0661Z" fill="#801B34"/>
<path fill-rule="evenodd" clip-rule="evenodd" d="M87.6816 16.9091L81.8859 15.3289L73.9324 15.2668C78.5449 15.5307 83.1367 16.0792 87.6816 16.9091Z" fill="#892334"/>
<path fill-rule="evenodd" clip-rule="evenodd" d="M0.412292 44.8177L2.3219 50.4893L7.12461 51.8833L2.44126 52.0361L3.1717 56.9915L3.93553 68.8359C3.93553 68.8359 1.78721 51.4059 0.412292 44.8177Z" fill="#982F34"/>
<path fill-rule="evenodd" clip-rule="evenodd" d="M5.32483 82.8624L16.2335 79.3344L5.56831 84.1561L5.32483 82.8624Z" fill="#801B34"/>
<path fill-rule="evenodd" clip-rule="evenodd" d="M3.94995 68.8123L5.66859 79.3342L5.64948 86.3473L3.94995 68.8123Z" fill="#801B34"/>
<path fill-rule="evenodd" clip-rule="evenodd" d="M19.3607 6.41568L22.9268 10.3399L20.578 6.3584L19.3607 6.41568Z" fill="#B64034"/>
<path fill-rule="evenodd" clip-rule="evenodd" d="M19.8713 6.97913L20.3201 8.34927L22.9267 10.34L19.8713 6.97913Z" fill="#F2774F"/>
<path fill-rule="evenodd" clip-rule="evenodd" d="M2.14056 37.5713H13.0444L54.5594 37.767L16.7109 38.8603L2.14056 37.5713Z" fill="#9D2B34"/>
<path fill-rule="evenodd" clip-rule="evenodd" d="M2.14056 37.5713L16.7109 38.2158L54.5594 37.767L2.14056 37.5713Z" fill="#7A1C34"/>
<path fill-rule="evenodd" clip-rule="evenodd" d="M1.44855 50.7141L2.33173 50.4658L6.86706 51.7834L2.37946 50.8334L1.44855 50.7141Z" fill="#7A1C34"/>
</g>
<path d="M44.5389 9.73853C37.0239 9.73758 29.6773 11.9651 23.4283 16.1394C17.1793 20.3138 12.3084 26.2474 9.43169 33.19C6.55496 40.1326 5.80154 47.7723 7.26671 55.1431C8.73189 62.5139 12.3499 69.2847 17.6631 74.5992C22.9763 79.9138 29.7462 83.5335 37.1166 85.0005C44.487 86.4675 52.127 85.716 59.0703 82.841C66.0136 79.966 71.9484 75.0967 76.1243 68.8487C80.3002 62.6008 82.5296 55.2548 82.5306 47.7398C82.5306 37.6629 78.5282 27.9986 71.4036 20.8722C64.2791 13.7459 54.6158 9.74106 44.5389 9.73853ZM44.5389 80.3082C38.0972 80.3092 31.8 78.3999 26.4435 74.8218C21.087 71.2437 16.9119 66.1575 14.4462 60.2065C11.9804 54.2555 11.3348 47.7069 12.5909 41.3889C13.847 35.071 16.9484 29.2674 21.503 24.7121C26.0576 20.1569 31.8608 17.0546 38.1786 15.7975C44.4963 14.5405 51.045 15.1852 56.9964 17.65C62.9478 20.1149 68.0345 24.2893 71.6134 29.6453C75.1923 35.0012 77.1025 41.2982 77.1025 47.7398C77.1025 56.3767 73.6718 64.6598 67.5651 70.7675C61.4584 76.8751 53.1757 80.307 44.5389 80.3082Z" fill="#6B172C"/>
<g style="mix-blend-mode:multiply" opacity="0.5">
<path d="M9.51166 71.6148C9.51166 71.6148 27.2328 86.8917 46.5151 85.6552C65.7974 84.4187 81.0695 69.2421 81.0695 69.2421C81.0695 69.2421 70.3471 90.1141 45.2643 90.1141C20.1816 90.1141 9.51166 71.6148 9.51166 71.6148Z" fill="#BE2F55"/>
</g>
<g style="mix-blend-mode:multiply" opacity="0.3">
<path d="M3.24822 38.1344C5.55885 31.0736 6.66162 52.8862 7.034 58.6866C7.30366 62.4863 7.78178 66.2682 8.46621 70.0154C8.46621 70.0154 -1.15343 55.7983 3.24822 38.1344Z" fill="#BE2F55"/>
</g>
<path d="M44.4395 81.8181C63.2913 81.8181 78.5737 66.5356 78.5737 47.6838C78.5737 28.8319 63.2913 13.5494 44.4395 13.5494C25.5876 13.5494 10.3051 28.8319 10.3051 47.6838C10.3051 66.5356 25.5876 81.8181 44.4395 81.8181Z" fill="url(#paint14_linear_40_5461)"/>
<path d="M43.799 5.8812H43.7274H43.694C30.2647 7.82423 19.1125 15.2335 9.18729 23.8125C6.87189 25.8176 1.54884 22.1654 0.173924 20.146C-1.201 18.1266 6.51863 19.5063 13.8563 14.7132C22.0629 9.35192 30.933 5.04575 40.1564 1.34588C40.1564 1.34588 40.1803 1.34588 40.1946 1.34588C40.8439 1.01169 41.2497 0.715702 41.3547 0.434035C42.0756 -1.47558 43.3884 3.77586 43.7131 5.41812C43.756 5.70456 43.799 5.8812 43.799 5.8812Z" fill="url(#paint15_linear_40_5461)"/>
<path d="M78.2244 23.8123C68.2992 15.219 57.1518 7.82406 43.7177 5.88103H43.6843H43.6127L43.7034 5.40363C44.0185 3.77091 45.3313 -1.51394 46.057 0.419538C46.1954 0.787139 46.8495 1.18338 47.8568 1.64646L47.9618 1.6942C56.9377 5.10968 65.5186 9.48416 73.5554 14.7416C79.098 18.3556 84.76 18.4415 86.7222 19.1624C87.3523 19.3915 87.5767 19.678 87.233 20.1697C85.8485 22.17 80.5589 25.8269 78.2244 23.8123Z" fill="url(#paint16_linear_40_5461)"/>
<g style="mix-blend-mode:multiply" opacity="0.5">
<path d="M8.04615 24.3374C6.09835 24.7575 7.02452 17.544 22.3205 10.9701C37.6165 4.39631 43.8036 5.89536 43.8036 5.89536C54.9176 6.37276 65.0433 10.994 74.3956 16.0115C79.2365 18.6086 79.2269 24.2085 79.2269 24.2085C77.7136 23.4556 76.3151 22.4912 75.0735 21.3441C66.5137 13.7486 55.7387 8.50675 44.1378 8.30624C28.522 8.0007 16.9258 22.4087 8.04615 24.3374Z" fill="#BE2F55"/>
</g>
<path d="M86.7268 19.1482C86.0098 19.6549 85.217 20.0448 84.378 20.3035C82.8837 20.7809 79.1982 19.0479 67.9935 12.4502C57.6625 6.36808 49.2555 2.39132 47.9426 1.70386C56.9247 5.11505 65.512 9.48635 73.5552 14.7417C79.0979 18.3557 84.7599 18.4416 86.7221 19.1625L86.7268 19.1482Z" fill="#FF8B3E"/>
<path d="M40.1466 1.37427C38.7717 2.41978 36.4276 4.32462 34.2984 5.25078C25.7052 8.9793 16.5343 13.844 8.94355 19.9452C5.0002 23.1247 0.1641 20.1648 0.1641 20.1648C-1.22992 18.155 6.5088 19.5251 13.8465 14.732C22.053 9.36122 30.9088 5.05504 40.1466 1.37427Z" fill="#FF8B3E"/>
<g style="mix-blend-mode:multiply" opacity="0.5">
<path d="M45.0686 0.682167C45.8993 -0.272638 45.8993 6.35849 45.8993 6.35849C45.0639 6.14843 44.6389 6.05295 43.7939 5.88108C43.7987 5.88108 44.4862 1.3744 45.0686 0.682167Z" fill="#BE2F55"/>
</g>
<g style="mix-blend-mode:multiply" opacity="0.5">
<path d="M42.2759 0.586793C41.7985 -0.28208 41.2877 6.31563 41.2877 6.31563C42.2425 6.12944 42.7199 6.04828 43.7176 5.91461C43.7176 5.89074 42.8011 1.50818 42.2759 0.586793Z" fill="#BE2F55"/>
</g>
<g filter="url(#filter0_d_40_5461)">
<path d="M26 48.4959V35.1788C26 29.6614 32.547 26.21 37.7776 28.9728L50.424 35.6353L63.0705 42.2978C68.3098 45.0525 68.3098 51.9553 63.0705 54.71L50.424 61.3726L37.7776 68.0351C32.547 70.7818 26 67.3384 26 61.821V48.4959Z" fill="url(#paint17_linear_40_5461)"/>
<path d="M38.2425 68.9205L38.2437 68.9198L50.8901 62.2573L63.5358 55.5951C69.4881 52.4656 69.4881 44.5422 63.5358 41.4127L50.8901 34.7506L38.2446 28.0885C38.2445 28.0884 38.2443 28.0883 38.2441 28.0882C35.3157 26.5417 32.0216 26.7366 29.4611 28.0861C26.8983 29.4367 25 31.9897 25 35.1788V48.4959V61.821C25 65.0105 26.8986 67.5613 29.4611 68.9118C32.0212 70.261 35.3145 70.458 38.2425 68.9205Z" stroke="white" stroke-width="2"/>
</g>
<defs>
<filter id="filter0_d_40_5461" x="24" y="26" width="45" height="48" filterUnits="userSpaceOnUse" color-interpolation-filters="sRGB">
<feFlood flood-opacity="0" result="BackgroundImageFix"/>
<feColorMatrix in="SourceAlpha" type="matrix" values="0 0 0 0 0 0 0 0 0 0 0 0 0 0 0 0 0 0 127 0" result="hardAlpha"/>
<feOffset dy="3"/>
<feComposite in2="hardAlpha" operator="out"/>
<feColorMatrix type="matrix" values="0 0 0 0 0.419608 0 0 0 0 0.0901961 0 0 0 0 0.172549 0 0 0 1 0"/>
<feBlend mode="normal" in2="BackgroundImageFix" result="effect1_dropShadow_40_5461"/>
<feBlend mode="normal" in="SourceGraphic" in2="effect1_dropShadow_40_5461" result="shape"/>
</filter>
<linearGradient id="paint0_linear_40_5461" x1="44.534" y1="90.1236" x2="44.534" y2="5.35596" gradientUnits="userSpaceOnUse">
<stop stop-color="#8C2747"/>
<stop offset="1" stop-color="#D65731"/>
</linearGradient>
<linearGradient id="paint1_linear_40_5461" x1="-3.38287" y1="20.0934" x2="110.43" y2="20.0934" gradientUnits="userSpaceOnUse">
<stop stop-color="#C77CBD"/>
<stop offset="1" stop-color="#974577"/>
</linearGradient>
<linearGradient id="paint2_linear_40_5461" x1="-1.6499" y1="35.6568" x2="98.366" y2="35.6568" gradientUnits="userSpaceOnUse">
<stop stop-color="#C77CBD"/>
<stop offset="1" stop-color="#974577"/>
</linearGradient>
<linearGradient id="paint3_linear_40_5461" x1="1.87341" y1="34.1147" x2="79.6758" y2="34.1147" gradientUnits="userSpaceOnUse">
<stop stop-color="#C77CBD"/>
<stop offset="1" stop-color="#974577"/>
</linearGradient>
<linearGradient id="paint4_linear_40_5461" x1="2.72787" y1="50.4661" x2="106.534" y2="50.4661" gradientUnits="userSpaceOnUse">
<stop stop-color="#C77CBD"/>
<stop offset="1" stop-color="#974577"/>
</linearGradient>
<linearGradient id="paint5_linear_40_5461" x1="3.52039" y1="58.1474" x2="104.892" y2="58.1474" gradientUnits="userSpaceOnUse">
<stop stop-color="#C77CBD"/>
<stop offset="1" stop-color="#974577"/>
</linearGradient>
<linearGradient id="paint6_linear_40_5461" x1="5.32483" y1="76.8425" x2="105.183" y2="76.8425" gradientUnits="userSpaceOnUse">
<stop stop-color="#C77CBD"/>
<stop offset="1" stop-color="#974577"/>
</linearGradient>
<linearGradient id="paint7_linear_40_5461" x1="45.8279" y1="75.3768" x2="90.9806" y2="75.3768" gradientUnits="userSpaceOnUse">
<stop stop-color="#C77CBD"/>
<stop offset="1" stop-color="#974577"/>
</linearGradient>
<linearGradient id="paint8_linear_40_5461" x1="61.1428" y1="81.3535" x2="104.276" y2="81.3535" gradientUnits="userSpaceOnUse">
<stop stop-color="#C77CBD"/>
<stop offset="1" stop-color="#974577"/>
</linearGradient>
<linearGradient id="paint9_linear_40_5461" x1="0.0258179" y1="35.7429" x2="90.1976" y2="35.7429" gradientUnits="userSpaceOnUse">
<stop stop-color="#C77CBD"/>
<stop offset="1" stop-color="#974577"/>
</linearGradient>
<linearGradient id="paint10_linear_40_5461" x1="59.6343" y1="54.6431" x2="86.2065" y2="54.6431" gradientUnits="userSpaceOnUse">
<stop stop-color="#C77CBD"/>
<stop offset="1" stop-color="#974577"/>
</linearGradient>
<linearGradient id="paint11_linear_40_5461" x1="79.6757" y1="85.3927" x2="95.1674" y2="85.3927" gradientUnits="userSpaceOnUse">
<stop stop-color="#C77CBD"/>
<stop offset="1" stop-color="#974577"/>
</linearGradient>
<linearGradient id="paint12_linear_40_5461" x1="30.7466" y1="33.5131" x2="73.9324" y2="33.5131" gradientUnits="userSpaceOnUse">
<stop stop-color="#C77CBD"/>
<stop offset="1" stop-color="#974577"/>
</linearGradient>
<linearGradient id="paint13_linear_40_5461" x1="29.4672" y1="86.0083" x2="61.1429" y2="86.0083" gradientUnits="userSpaceOnUse">
<stop stop-color="#C77CBD"/>
<stop offset="1" stop-color="#974577"/>
</linearGradient>
<linearGradient id="paint14_linear_40_5461" x1="44.4394" y1="81.8181" x2="44.4394" y2="13.5494" gradientUnits="userSpaceOnUse">
<stop stop-color="#B12510"/>
<stop offset="1" stop-color="#7D0D10"/>
</linearGradient>
<linearGradient id="paint15_linear_40_5461" x1="21.8958" y1="24.4044" x2="21.8958" y2="0.00914642" gradientUnits="userSpaceOnUse">
<stop stop-color="#8C2747"/>
<stop offset="1" stop-color="#D65731"/>
</linearGradient>
<linearGradient id="paint16_linear_40_5461" x1="65.5064" y1="24.4043" x2="65.5064" y2="0.00897163" gradientUnits="userSpaceOnUse">
<stop stop-color="#8C2747"/>
<stop offset="1" stop-color="#D65731"/>
</linearGradient>
<linearGradient id="paint17_linear_40_5461" x1="46.5" y1="28" x2="46.5" y2="69" gradientUnits="userSpaceOnUse">
<stop stop-color="#FF0000"/>
<stop offset="1" stop-color="#7E0000"/>
</linearGradient>
</defs>
</svg>
