<svg width="87" height="86" viewBox="0 0 87 86" fill="none" xmlns="http://www.w3.org/2000/svg">
<path style="mix-blend-mode:multiply" fill-rule="evenodd" clip-rule="evenodd" d="M78.4703 42.9154C78.4703 46.6629 77.7346 51.7984 76.2264 55.2359C75.1623 57.2855 73.5245 57.2994 71.4194 57.2808C70.3322 57.2808 69.2958 57.2253 68.2132 57.1791C66.7882 57.1143 70.0314 57.5723 70.1008 57.5816C71.239 57.7574 73.307 57.9517 73.8807 59.0574C74.0195 59.45 74.0012 59.8809 73.8298 60.2604C73.5054 60.9799 73.102 61.6611 72.6269 62.2914C69.4357 67.0996 65.1039 71.043 60.018 73.77C54.9322 76.497 49.2504 77.9227 43.4796 77.9199C38.7929 77.8552 31.7096 76.6476 27.7493 74.1123C25.0242 72.3773 28.6746 72.1043 29.8775 71.9193C31.4829 71.6648 27.6799 71.563 27.6475 71.5584C24.0804 71.3548 22.5583 71.2392 19.8332 68.727L19.204 68.181C15.5373 64.6623 12.684 60.3847 10.8438 55.6477C10.173 53.8248 10.8947 53.7184 12.5788 53.6074C13.5041 53.5472 14.3785 53.575 15.2853 53.538C16.9 53.4732 13.1941 53.1632 13.1849 53.1632C12.1624 53.0475 10.4968 52.8255 9.82137 51.9788C9.49631 51.3945 9.2844 50.7541 9.19678 50.0912V50.0218C8.71866 47.691 8.47685 45.3179 8.47504 42.9385C8.48183 40.7203 8.67996 38.5067 9.06724 36.3225C9.2708 35.3186 9.62705 34.8883 10.1591 34.6709C12.4724 33.7178 20.4301 32.6444 30.0533 31.6728C19.5094 32.3576 11.1076 32.6537 10.6773 32.006C10.1313 31.1732 11.6674 28.3325 12.1069 27.421C14.9814 21.5939 19.4235 16.6836 24.9343 13.2413C30.445 9.79899 36.8063 7.96109 43.3038 7.93396H43.4888C56.471 8.01261 67.51 15.1283 74.1537 26.084C74.9171 27.3378 74.5053 27.421 73.2793 27.6709C71.5304 28.0271 66.1868 28.6378 59.3163 29.2994C68.1068 28.7396 74.6441 28.4805 75.1669 28.7257C75.8331 29.0357 75.9904 29.7528 76.3976 30.9372C77.7801 34.7876 78.4891 38.8474 78.4934 42.9385L78.4703 42.9154Z" fill="url(#paint0_radial_40_5464)"/>
<path fill-rule="evenodd" clip-rule="evenodd" d="M43.5106 2.84412C51.4221 2.84412 59.1559 5.19015 65.7341 9.58554C72.3122 13.9809 77.4393 20.2283 80.4669 27.5375C83.4945 34.8468 84.2867 42.8897 82.7432 50.6492C81.1998 58.4087 77.39 65.5362 71.7957 71.1305C66.2015 76.7248 59.0739 80.5345 51.3144 82.078C43.555 83.6214 35.512 82.8293 28.2028 79.8017C20.8935 76.7741 14.6462 71.647 10.2508 65.0689C5.85537 58.4907 3.50934 50.7569 3.50934 42.8454C3.50934 32.2364 7.72374 22.0619 15.2254 14.5602C22.7271 7.05852 32.9016 2.84412 43.5106 2.84412Z" fill="url(#paint1_radial_40_5464)"/>
<circle cx="43.6369" cy="43.2763" r="35.3423" fill="url(#paint2_linear_40_5464)"/>
<path style="mix-blend-mode:multiply" fill-rule="evenodd" clip-rule="evenodd" d="M43.5106 2.84412C51.4221 2.84412 59.1559 5.19015 65.7341 9.58554C72.3122 13.9809 77.4393 20.2283 80.4669 27.5375C83.4945 34.8468 84.2867 42.8897 82.7432 50.6492C81.1998 58.4087 77.39 65.5362 71.7957 71.1305C66.2015 76.7248 59.0739 80.5345 51.3144 82.078C43.555 83.6214 35.512 82.8293 28.2028 79.8017C20.8935 76.7741 14.6462 71.647 10.2508 65.0689C5.85537 58.4907 3.50934 50.7569 3.50934 42.8454C3.50934 32.2364 7.72374 22.0619 15.2254 14.5602C22.7271 7.05852 32.9016 2.84412 43.5106 2.84412Z" fill="url(#paint3_radial_40_5464)"/>
<path fill-rule="evenodd" clip-rule="evenodd" d="M78.9776 17.5937C80.5506 19.6988 85.5149 25.9215 85.316 28.3874C85.1679 30.2057 86.3107 34.6749 86.6021 36.8032C86.8665 38.7552 86.9994 40.7229 87 42.6928C86.9584 47.6339 85.7323 51.6498 84.4647 56.3781C83.7086 59.3558 82.5109 62.2034 80.9115 64.8262C79.7271 66.885 78.9174 68.6108 77.8996 70.7344C77.3953 71.7892 77.3028 71.308 76.3312 71.7568C75.1051 72.3305 73.1481 74.4078 72.0053 75.3887C70.2621 76.831 68.4478 78.1852 66.5691 79.4462C65.6825 80.1001 64.833 80.8029 64.0245 81.5512C63.2935 82.1897 63.2797 81.889 62.3775 82.0139C60.9525 82.2267 58.6762 83.2492 57.168 83.7304C48.891 86.3351 42.1687 86.0436 33.7391 84.3734C29.1125 83.4481 26.0682 82.0833 21.9321 79.8764C21.1872 79.4739 16.8012 77.3596 16.5606 77.1514C16.5236 77.119 15.2051 75.2452 14.9043 74.8936C11.5778 71.049 10.5739 70.4336 8.08016 65.7053C5.47078 60.7595 2.72261 56.6465 1.60298 51.1085C1.5012 50.5949 1.40866 50.0906 1.31613 49.5771C1.06364 47.9797 0.708193 46.4003 0.252024 44.8488C-0.210632 43.1786 0.289036 43.632 0.599016 42.1191C0.895116 40.6802 0.927502 38.6353 1.13107 37.0715C2.12115 30.1317 3.44435 29.0167 6.11388 23.016C8.42716 17.9268 9.53753 16.3491 13.2712 12.1806C14.6036 10.7047 18.6472 5.66641 20.2526 5.34718C24.0325 4.60693 27.6135 2.5111 31.4998 1.3452C37.5143 -0.403637 41.854 -0.0427647 47.8917 0.225576C56.3676 0.614207 63.7747 3.00151 70.0992 8.86799C72.2182 10.8389 74.6702 12.8561 76.6689 14.8409C77.5213 15.6953 78.3085 16.6124 79.0238 17.5844L78.9776 17.5937ZM61.2532 9.84882C63.3074 11.5098 64.0292 11.2831 66.0186 12.4073C71.1402 15.4099 75.1329 21.3551 78.1725 26.3518C81.2631 31.441 81.2307 35.1052 81.5175 40.8375C81.8368 47.6386 80.2452 56.6095 76.3404 62.2585C73.731 66.0014 67.4898 73.7324 63.3305 75.6755C61.7945 76.3973 59.4489 77.1375 57.7787 77.776C54.735 78.9478 51.559 79.7418 48.322 80.1401C44.2645 80.6028 43.0986 80.1402 39.3511 79.3906C37.3848 78.9974 36.8342 79.6821 34.632 79.2056C30.7411 78.3265 24.3703 75.967 21.3214 73.4733C19.2422 71.6221 17.2871 69.6361 15.4688 67.5281L15.2097 67.2274C14.525 66.4178 13.905 65.6081 13.285 64.743C11.8138 62.661 11.4344 61.4581 10.5091 59.2651C10.0465 58.2473 9.35247 57.6921 8.78803 56.429C7.09471 52.6538 6.20178 47.1759 6.17865 43.049V42.6974C6.21103 36.9003 7.40006 29.9836 11.0319 25.3015C12.5217 23.3815 11.8045 23.8719 12.6049 22.0629C15.7926 15.3174 25.8138 8.69218 32.8646 6.45755C41.1601 3.82967 54.2116 4.39873 61.2671 9.87195L61.2532 9.84882Z" fill="url(#paint4_radial_40_5464)"/>
<path style="mix-blend-mode:multiply" fill-rule="evenodd" clip-rule="evenodd" d="M61.2533 9.8487C63.3075 11.5096 64.0292 11.2829 66.0186 12.4072C71.1402 15.4098 75.1329 21.355 78.1726 26.3516C81.2631 31.4409 81.2308 35.1051 81.5176 40.8374C81.5454 41.4712 81.5592 42.1236 81.5546 42.7898C81.9571 39.2042 82.045 35.4243 81.3557 32.0099C80.9117 29.735 80.1762 27.5269 79.1673 25.4402C76.8078 20.6471 73.856 18.4125 70.3352 14.7575C68.4198 12.7866 67.0318 10.4779 65.5421 9.41843C63.6544 8.08135 60.402 7.35961 58.3524 6.6101C56.3028 5.8606 54.3227 4.72709 52.1898 4.14415C46.5963 2.62664 42.1363 3.44554 36.6492 4.48651C34.6505 4.86589 32.564 4.83813 30.6347 5.44421C26.6096 6.70263 24.3564 8.44685 21.1179 10.8573C19.7299 11.9075 17.1853 13.6702 15.9824 14.961C14.4556 16.6081 14.3677 17.737 13.0399 19.5506C12.3135 20.5453 11.2402 21.23 11.0181 21.776C10.5878 22.8493 9.9077 24.5982 9.41266 25.6438C8.6354 27.2492 7.34921 28.6372 6.93282 30.3675C5.95662 34.5314 5.91035 38.1077 6.17407 41.994C6.29436 36.345 7.52965 29.7892 11.0181 25.2968C12.5078 23.3768 11.7907 23.8672 12.5911 22.0582C15.7788 15.3127 25.7999 8.68743 32.8508 6.4528C41.1462 3.82491 54.1978 4.39398 61.2533 9.8672V9.8487Z" fill="url(#paint5_radial_40_5464)"/>
<path style="mix-blend-mode:multiply" fill-rule="evenodd" clip-rule="evenodd" d="M64.6861 78.2294C63.3907 78.7707 62.3173 79.7377 61.0589 80.3484C53.7767 83.8969 45.4072 86.076 37.4357 83.8414C35.1224 83.1983 32.8785 82.3609 30.5884 81.653C28.5897 81.0331 26.554 80.5936 24.6988 79.5295C23.1674 78.6504 21.8766 77.4012 20.3868 76.4482C19.0775 75.6108 16.7596 74.8289 15.7973 73.6398C14.71 72.2935 14.2381 70.628 12.7854 69.0549C11.2123 67.3477 8.1912 64.6227 7.69616 63.5771C7.20112 62.5315 7.10396 61.3517 6.66906 60.2876C5.30885 56.938 2.86603 52.8851 2.28771 49.4013C2.05638 48.0133 2.17667 45.7001 1.97773 44.3121C1.87132 43.5209 1.293 42.5447 1.19121 41.1938C1.11646 39.4607 1.1319 37.725 1.23748 35.9935C1.18196 36.3421 1.12644 36.7076 1.07092 37.09C0.867355 38.6538 0.834969 40.6987 0.538869 42.1376C0.228889 43.6505 -0.280032 43.1971 0.191877 44.8673C0.656244 46.4213 1.01942 48.0038 1.27912 49.6049C1.37165 50.1184 1.46418 50.6227 1.56597 51.1363C2.70873 56.6881 5.4569 60.7873 8.04315 65.7331C10.5369 70.4614 11.5408 71.0767 14.8673 74.9214C15.1681 75.273 16.4866 77.1468 16.5236 77.1792C16.7642 77.3874 21.1502 79.4924 21.8951 79.9042C26.0312 82.1111 29.0662 83.4805 33.7021 84.4012C42.1316 86.0807 48.854 86.3629 57.131 83.7581C58.6346 83.2955 60.9155 82.2545 62.3405 82.0417C63.2658 81.9075 63.2658 82.2082 63.9875 81.579C64.796 80.8307 65.6455 80.1279 66.5321 79.4739C68.4139 78.2132 70.2313 76.859 71.9776 75.4164C73.1203 74.4356 75.0774 72.3583 76.3034 71.7846C77.275 71.3219 77.3675 71.817 77.8718 70.7621C78.8897 68.6385 79.7225 66.9128 80.8837 64.854C82.4848 62.2314 83.6841 59.3838 84.4415 56.4059C85.7092 51.6776 86.9353 47.6617 86.9769 42.7205V42.6049C86.3523 48.9155 85.4131 49.2718 84.1084 54.0186C83.8355 55.0041 83.7568 56.0404 83.4931 57.0305C82.9287 59.1263 82.1051 61.6293 80.8189 63.3966C80.125 64.3682 79.1395 65.0992 78.3576 66.0014C77.6294 66.8328 76.9438 67.7007 76.3034 68.6015C73.8652 72.0483 73.0001 73.5381 69.5255 76.4667C68.7464 77.0924 67.8652 77.5791 66.9208 77.9055C66.2083 78.1646 65.3662 77.9518 64.663 78.2479L64.6861 78.2294Z" fill="url(#paint6_radial_40_5464)"/>
<path style="mix-blend-mode:multiply" opacity="0.65" fill-rule="evenodd" clip-rule="evenodd" d="M84.2703 27.9387C84.4137 28.679 84.5432 29.5673 84.6265 30.3168C84.7514 31.3901 85.5935 32.9308 86.8195 38.714C86.764 38.0801 86.69 37.4463 86.6021 36.8032C86.3106 34.675 85.1678 30.2057 85.3159 28.3875C85.5148 25.9169 80.5505 19.6988 78.9775 17.5937C78.2622 16.6217 77.475 15.7046 76.6226 14.8502C74.6239 12.8654 72.1718 10.8482 70.0529 8.87729C63.7376 3.02007 56.3305 0.623509 47.8454 0.234878C41.8077 -0.0149561 37.4495 -0.394334 31.4535 1.35451C27.5672 2.5204 23.9862 4.61623 20.2063 5.35648C18.6009 5.67571 14.5573 10.714 13.2248 12.1899C9.49118 16.3538 8.35767 17.9176 6.06753 23.0253C4.18452 27.2262 2.98161 29.0398 2.08868 32.1119C3.41651 28.6188 4.57777 27.3743 6.10454 24.7094C6.57261 23.9377 6.98839 23.1355 7.34908 22.3082C7.71921 21.3829 7.81174 20.3974 8.23738 19.5045C9.66236 16.3677 11.2724 14.9612 13.5764 12.4999C14.3241 11.6297 15.1245 10.8061 15.973 10.0339C17.5969 8.64596 20.1045 7.74841 21.858 6.3697C22.1865 6.11524 22.1587 5.57856 22.4409 5.2732C22.7618 4.94856 23.1461 4.69343 23.5698 4.5237C26.4368 3.27769 29.3882 2.23566 32.4019 1.4054C35.4938 0.643201 38.6697 0.274785 41.854 0.308903C43.4548 0.369048 45.2869 0.919609 47.0218 0.993634C48.1831 1.04453 49.3351 0.808572 50.5149 0.928862C54.776 1.36376 57.9775 1.97446 61.8453 3.87135C67.1427 6.47148 70.039 9.72858 74.3371 13.6288C76.8863 15.942 78.5796 17.4364 80.532 20.3373C81.5729 21.8359 82.5112 23.4033 83.3403 25.0286C83.7736 25.9544 84.0846 26.9327 84.2656 27.9387H84.2703Z" fill="url(#paint7_radial_40_5464)"/>
<path style="mix-blend-mode:multiply" opacity="0.65" fill-rule="evenodd" clip-rule="evenodd" d="M10.4998 59.2603C10.0371 58.2425 9.34311 57.6873 8.77867 56.4242C7.59854 53.5964 6.8199 50.6173 6.46539 47.5736C6.54984 49.29 6.74455 50.9992 7.04834 52.6906C7.44622 54.4579 8.24662 56.1096 8.82956 57.8261C9.02218 58.5434 9.25072 59.2506 9.5143 59.945C10.4859 62.1195 11.934 63.9239 13.4145 65.7652C14.4786 67.0931 15.5797 68.3885 16.6993 69.6701C17.9254 71.058 20.7013 74.4308 22.2512 75.2821C23.7381 76.0719 25.2985 76.715 26.9102 77.2021C29.6861 78.0719 31.9254 78.5901 35.0575 79.8022C35.77 80.0844 36.4455 80.5471 37.2135 80.6258C39.5731 80.8663 41.9604 80.7229 44.3338 80.7599C45.4612 80.8324 46.5917 80.8447 47.7204 80.7969C51.4587 80.4499 53.61 79.5524 57.0661 78.5716C59.4997 77.8822 62.2201 77.1836 64.0522 76.2583C65.0284 75.7586 65.2458 74.9166 66.2452 74.1023C67.7812 72.8485 69.5763 71.8908 70.9689 70.4751C72.3615 69.0594 73.3701 67.2365 74.5961 65.6126C75.8222 63.9886 77.2656 62.6747 78.2233 60.9582C79.0006 59.5703 79.2782 57.9602 79.7316 56.4381C80.3312 54.3821 80.7112 52.2682 80.8651 50.1321C80.0786 54.5828 78.5935 58.992 76.3218 62.2768C73.7124 66.0197 67.4712 73.7507 63.3119 75.6938C61.7759 76.4156 59.4303 77.1558 57.7601 77.7943C54.7215 78.9583 51.5519 79.7461 48.3219 80.14C44.2644 80.6026 43.0985 80.14 39.351 79.3905C37.3847 78.9972 36.8341 79.6819 34.6319 79.2054C30.741 78.3263 24.3702 75.9668 21.3213 73.4731C19.2421 71.6219 17.287 69.6359 15.4687 67.528L15.2096 67.2272C14.5249 66.4176 13.9049 65.6079 13.2849 64.7428C11.8137 62.6608 11.4343 61.4579 10.509 59.2649L10.4998 59.2603Z" fill="url(#paint8_radial_40_5464)"/>
<path style="mix-blend-mode:screen" fill-rule="evenodd" clip-rule="evenodd" d="M9.30151 35.7251C14.1178 34.3973 20.1739 33.1805 25.6703 32.0563C20.5811 32.5652 13.2804 33.5368 10.9995 33.8653C10.6016 33.9254 9.73641 34.9941 9.30151 35.7159V35.7251Z" fill="url(#paint9_radial_40_5464)"/>
<path style="mix-blend-mode:screen" fill-rule="evenodd" clip-rule="evenodd" d="M75.9609 29.345C72.144 29.0443 67.3417 29.0211 62.9788 28.9887C67.1427 28.7019 72.8056 28.3271 74.6192 28.1606C74.9338 28.1328 75.6186 28.8407 75.9609 29.345Z" fill="url(#paint10_radial_40_5464)"/>
<path style="mix-blend-mode:screen" fill-rule="evenodd" clip-rule="evenodd" d="M10.1251 54.7773C14.178 54.1018 19.2163 53.7086 23.8521 53.269C19.4338 53.4032 14.8905 53.4263 11.5501 53.3708C11.2124 53.3708 10.486 54.199 10.1251 54.7588V54.7773Z" fill="url(#paint11_radial_40_5464)"/>
<g filter="url(#filter0_d_40_5464)">
<path d="M27 43.4959V30.1788C27 24.6614 33.547 21.21 38.7776 23.9728L51.424 30.6353L64.0705 37.2978C69.3098 40.0525 69.3098 46.9553 64.0705 49.71L51.424 56.3726L38.7776 63.0351C33.547 65.7818 27 62.3384 27 56.821V43.4959Z" fill="url(#paint12_linear_40_5464)"/>
<path d="M39.2425 63.9205L39.2437 63.9198L51.8901 57.2573L64.5358 50.5951C70.4881 47.4656 70.4881 39.5422 64.5358 36.4127L51.8901 29.7506L39.2446 23.0885C39.2445 23.0884 39.2443 23.0883 39.2441 23.0882C36.3157 21.5417 33.0216 21.7366 30.4611 23.0861C27.8983 24.4367 26 26.9897 26 30.1788V43.4959V56.821C26 60.0105 27.8986 62.5613 30.4611 63.9118C33.0212 65.261 36.3145 65.458 39.2425 63.9205Z" stroke="white" stroke-width="2"/>
</g>
<defs>
<filter id="filter0_d_40_5464" x="25" y="21" width="45" height="48" filterUnits="userSpaceOnUse" color-interpolation-filters="sRGB">
<feFlood flood-opacity="0" result="BackgroundImageFix"/>
<feColorMatrix in="SourceAlpha" type="matrix" values="0 0 0 0 0 0 0 0 0 0 0 0 0 0 0 0 0 0 127 0" result="hardAlpha"/>
<feOffset dy="3"/>
<feComposite in2="hardAlpha" operator="out"/>
<feColorMatrix type="matrix" values="0 0 0 0 0.341176 0 0 0 0 0.184314 0 0 0 0 0.027451 0 0 0 1 0"/>
<feBlend mode="normal" in2="BackgroundImageFix" result="effect1_dropShadow_40_5464"/>
<feBlend mode="normal" in="SourceGraphic" in2="effect1_dropShadow_40_5464" result="shape"/>
</filter>
<radialGradient id="paint0_radial_40_5464" cx="0" cy="0" r="1" gradientUnits="userSpaceOnUse" gradientTransform="translate(42.3368 -8.97611) scale(123.312 123.312)">
<stop stop-color="#C49D7C"/>
<stop offset="0.44" stop-color="#E1CDBD"/>
<stop offset="0.82" stop-color="#F7F1ED"/>
<stop offset="1" stop-color="white"/>
</radialGradient>
<radialGradient id="paint1_radial_40_5464" cx="0" cy="0" r="1" gradientUnits="userSpaceOnUse" gradientTransform="translate(45.7776 91.563) scale(102.543)">
<stop stop-color="#824E20"/>
<stop offset="1" stop-color="#6E3F05"/>
</radialGradient>
<linearGradient id="paint2_linear_40_5464" x1="43.6369" y1="7.93396" x2="43.6369" y2="78.6186" gradientUnits="userSpaceOnUse">
<stop stop-color="#7ECF38"/>
<stop offset="1" stop-color="#377C08"/>
</linearGradient>
<radialGradient id="paint3_radial_40_5464" cx="0" cy="0" r="1" gradientUnits="userSpaceOnUse" gradientTransform="translate(43.7604 44.5017) scale(41.033)">
<stop offset="0.77" stop-color="white"/>
<stop offset="0.8" stop-color="#FCFBFA"/>
<stop offset="0.83" stop-color="#F2EFEC"/>
<stop offset="0.87" stop-color="#E3DBD5"/>
<stop offset="0.9" stop-color="#CDC0B4"/>
<stop offset="0.94" stop-color="#B19C8A"/>
<stop offset="0.96" stop-color="#9E846D"/>
</radialGradient>
<radialGradient id="paint4_radial_40_5464" cx="0" cy="0" r="1" gradientUnits="userSpaceOnUse" gradientTransform="translate(43.5104 42.1561) scale(44.2114)">
<stop offset="0.85" stop-color="#6B4314"/>
<stop offset="0.93" stop-color="#916843"/>
<stop offset="0.97" stop-color="#754B1C"/>
</radialGradient>
<radialGradient id="paint5_radial_40_5464" cx="0" cy="0" r="1" gradientUnits="userSpaceOnUse" gradientTransform="translate(43.6122 42.0866) scale(39.8069 39.8069)">
<stop offset="0.78" stop-color="#B5A291"/>
<stop offset="0.85" stop-color="#B7A493"/>
<stop offset="0.89" stop-color="#BCAB9C"/>
<stop offset="0.92" stop-color="#C6B7AA"/>
<stop offset="0.95" stop-color="#D3C8BE"/>
<stop offset="0.97" stop-color="#E5DED8"/>
<stop offset="1" stop-color="white"/>
</radialGradient>
<radialGradient id="paint6_radial_40_5464" cx="0" cy="0" r="1" gradientUnits="userSpaceOnUse" gradientTransform="translate(44.1905 41.4529) scale(45.3449)">
<stop offset="0.88" stop-color="white"/>
<stop offset="0.97" stop-color="#C6B7AA"/>
<stop offset="1" stop-color="#B5A291"/>
</radialGradient>
<radialGradient id="paint7_radial_40_5464" cx="0" cy="0" r="1" gradientUnits="userSpaceOnUse" gradientTransform="translate(43.4409 42.1376) scale(44.91 44.91)">
<stop offset="0.88" stop-color="white"/>
<stop offset="0.97" stop-color="#C6B7AA"/>
<stop offset="1" stop-color="#B5A291"/>
</radialGradient>
<radialGradient id="paint8_radial_40_5464" cx="0" cy="0" r="1" gradientUnits="userSpaceOnUse" gradientTransform="translate(43.6861 42.9609) scale(39.756 39.756)">
<stop offset="0.88" stop-color="white"/>
<stop offset="0.97" stop-color="#C6B7AA"/>
<stop offset="1" stop-color="#B5A291"/>
</radialGradient>
<radialGradient id="paint9_radial_40_5464" cx="0" cy="0" r="1" gradientUnits="userSpaceOnUse" gradientTransform="translate(8.98228 38.353) scale(37.3733 37.3733)">
<stop stop-color="#522F18"/>
<stop offset="1"/>
</radialGradient>
<radialGradient id="paint10_radial_40_5464" cx="0" cy="0" r="1" gradientUnits="userSpaceOnUse" gradientTransform="translate(78.1539 33.4025) scale(29.5452 29.5452)">
<stop stop-color="#522F18"/>
<stop offset="1"/>
</radialGradient>
<radialGradient id="paint11_radial_40_5464" cx="0" cy="0" r="1" gradientUnits="userSpaceOnUse" gradientTransform="translate(10.1483 59.3715) scale(28.8697 28.8697)">
<stop stop-color="#522F18"/>
<stop offset="1"/>
</radialGradient>
<linearGradient id="paint12_linear_40_5464" x1="47.5" y1="23" x2="47.5" y2="64" gradientUnits="userSpaceOnUse">
<stop stop-color="#FFCD43"/>
<stop offset="1" stop-color="#846100"/>
</linearGradient>
</defs>
</svg>
