<svg width="63" height="20" viewBox="0 0 63 20" fill="none" xmlns="http://www.w3.org/2000/svg">
<g filter="url(#filter0_d_46_8836)">
<mask id="path-1-outside-1_46_8836" maskUnits="userSpaceOnUse" x="-1" y="-1" width="64" height="19" fill="black">
<rect fill="white" x="-1" y="-1" width="64" height="19"/>
<path d="M9.368 17.216C8.952 17.216 8.472 16.904 7.928 16.28C7.4 15.64 6.864 14.816 6.32 13.808C5.776 12.784 5.256 11.688 4.76 10.52C4.696 10.376 4.624 10.232 4.544 10.088C4.48 9.928 4.448 9.768 4.448 9.608C4.448 9.432 4.504 9.312 4.616 9.248C4.728 9.168 4.848 9.12 4.976 9.104C6.064 8.896 6.968 8.464 7.688 7.808C8.424 7.152 8.792 6.312 8.792 5.288C8.792 4.712 8.664 4.2 8.408 3.752C8.168 3.288 7.736 2.92 7.112 2.648C6.488 2.376 5.624 2.24 4.52 2.24H4.424L2.84 17.192H0.896C0.624 17.192 0.432 17.064 0.32 16.808C0.208 16.552 0.152 16.208 0.152 15.776C0.152 15.456 0.176 15.096 0.224 14.696L1.76 0.68C2.464 0.599999 3.16 0.543999 3.848 0.511999C4.552 0.463999 5.248 0.439999 5.936 0.439999C7.104 0.439999 8.144 0.599999 9.056 0.92C9.968 1.24 10.68 1.736 11.192 2.408C11.72 3.08 11.984 3.952 11.984 5.024C11.984 5.776 11.832 6.448 11.528 7.04C11.24 7.632 10.84 8.144 10.328 8.576C9.832 8.992 9.28 9.336 8.672 9.608C8.064 9.88 7.448 10.08 6.824 10.208L7.016 9.008C7.56 10.144 8.088 11.112 8.6 11.912C9.128 12.712 9.6 13.352 10.016 13.832C10.432 14.296 10.752 14.624 10.976 14.816C11.376 15.12 11.664 15.336 11.84 15.464C12.032 15.576 12.128 15.704 12.128 15.848C12.128 15.992 12.024 16.144 11.816 16.304C11.624 16.448 11.376 16.592 11.072 16.736C10.768 16.88 10.456 16.992 10.136 17.072C9.832 17.168 9.576 17.216 9.368 17.216ZM20.2252 17.384C18.6732 17.384 17.4252 17.208 16.4812 16.856C15.5532 16.488 14.9132 15.88 14.5612 15.032C14.2092 14.184 14.1052 13.032 14.2492 11.576L15.4252 0.319999H17.3452C17.6652 0.319999 17.8812 0.399999 17.9932 0.559999C18.1212 0.703999 18.1852 0.991999 18.1852 1.424C18.1852 1.808 18.1612 2.192 18.1132 2.576C18.0812 2.96 18.0332 3.408 17.9692 3.92C17.9052 4.432 17.8332 5.064 17.7532 5.816L17.2252 10.712C17.0492 12.344 17.2252 13.544 17.7532 14.312C18.2972 15.08 19.3132 15.464 20.8012 15.464C21.4892 15.464 22.1132 15.328 22.6732 15.056C23.2492 14.784 23.7212 14.36 24.0892 13.784C24.4732 13.192 24.7132 12.424 24.8092 11.48L25.3132 6.824C25.4092 5.928 25.4492 5.184 25.4332 4.592C25.4172 4 25.3692 3.512 25.2892 3.128C25.2092 2.728 25.1372 2.4 25.0732 2.144C25.0092 1.872 24.9772 1.632 24.9772 1.424C24.9772 1.232 25.0972 1.056 25.3372 0.896C25.5932 0.719999 25.8892 0.583999 26.2252 0.487999C26.5612 0.392 26.8572 0.344 27.1132 0.344C27.3532 0.344 27.5372 0.424 27.6652 0.584C27.8092 0.728 27.9052 0.912 27.9532 1.136C28.0172 1.36 28.0492 1.576 28.0492 1.784C28.0492 2.056 28.0252 2.44 27.9772 2.936C27.9292 3.416 27.8732 3.912 27.8092 4.424L27.0652 11.288C26.8892 12.936 26.5212 14.2 25.9612 15.08C25.4172 15.96 24.6652 16.568 23.7052 16.904C22.7612 17.224 21.6012 17.384 20.2252 17.384ZM30.6461 17.288C30.3581 17.288 30.1341 17.112 29.9741 16.76C29.8301 16.408 29.7581 16.016 29.7581 15.584C29.7581 14.96 29.8301 13.944 29.9741 12.536L31.2221 0.319999H33.1421C33.6541 0.319999 33.9341 0.527999 33.9821 0.943999C34.0301 1.344 33.9981 2.032 33.8861 3.008L32.7821 13.184C32.7501 13.52 32.7341 13.856 32.7341 14.192C32.7341 14.528 32.7581 14.864 32.8061 15.2L37.9661 14C38.1421 13.968 38.2781 13.944 38.3741 13.928C38.4701 13.896 38.5421 13.88 38.5901 13.88C38.7821 13.88 38.8781 13.992 38.8781 14.216C38.8781 14.616 38.8061 15.032 38.6621 15.464C38.5341 15.896 38.3501 16.264 38.1101 16.568C37.8701 16.856 37.5741 17 37.2221 17H36.5021C35.3021 17 34.3181 17.024 33.5501 17.072C32.7981 17.12 32.1981 17.168 31.7501 17.216C31.3021 17.264 30.9341 17.288 30.6461 17.288ZM41.4508 17.288C41.1628 17.288 40.9388 17.112 40.7788 16.76C40.6348 16.408 40.5628 16.016 40.5628 15.584C40.5628 14.96 40.6348 13.944 40.7788 12.536L41.9788 0.68H45.6748C46.8108 0.68 47.7068 0.664 48.3628 0.631999C49.0348 0.583999 49.5388 0.543999 49.8748 0.511999C50.2268 0.463999 50.4828 0.439999 50.6428 0.439999C50.8188 0.439999 50.9388 0.471999 51.0028 0.535999C51.0828 0.583999 51.1228 0.727999 51.1228 0.967999C51.1228 1.256 51.0668 1.568 50.9548 1.904C50.8428 2.24 50.6908 2.528 50.4988 2.768C50.3228 3.008 50.1148 3.128 49.8748 3.128C49.7148 3.128 49.4508 3.104 49.0828 3.056C48.7148 3.008 48.2988 2.952 47.8348 2.888L44.7148 2.48L43.6348 13.184C43.6028 13.52 43.5868 13.856 43.5868 14.192C43.5868 14.528 43.6108 14.864 43.6588 15.2L48.7948 14.192C49.0828 14.128 49.3228 14.08 49.5148 14.048C49.7228 14 49.8588 13.976 49.9228 13.976C50.1148 13.976 50.2108 14.088 50.2108 14.312C50.2108 14.712 50.1388 15.12 49.9948 15.536C49.8668 15.952 49.6828 16.304 49.4428 16.592C49.2028 16.864 48.9068 17 48.5548 17H47.8348C46.0428 17 44.6348 17.048 43.6108 17.144C42.5868 17.24 41.8668 17.288 41.4508 17.288ZM42.6748 9.44L42.9868 7.592H44.1388C44.8268 7.592 45.4748 7.568 46.0828 7.52C46.6908 7.472 47.2028 7.424 47.6188 7.376C48.0348 7.328 48.2988 7.304 48.4108 7.304C48.5388 7.304 48.6348 7.344 48.6988 7.424C48.7628 7.488 48.7948 7.584 48.7948 7.712C48.7948 7.952 48.6348 8.2 48.3148 8.456C47.9948 8.712 47.5948 8.928 47.1148 9.104C46.6508 9.28 46.1948 9.376 45.7468 9.392L42.6748 9.44ZM55.9993 17.312C54.6393 17.312 53.5353 17.096 52.6873 16.664C51.8393 16.232 51.4153 15.672 51.4153 14.984C51.4153 14.456 51.4553 14.08 51.5353 13.856C51.6153 13.632 51.7513 13.52 51.9433 13.52C52.0713 13.52 52.2713 13.616 52.5433 13.808C52.8153 14 53.1433 14.216 53.5273 14.456C53.9273 14.696 54.3673 14.912 54.8473 15.104C55.3433 15.296 55.8793 15.392 56.4553 15.392C57.2873 15.392 57.9593 15.216 58.4713 14.864C58.9993 14.496 59.2633 13.936 59.2633 13.184C59.2633 12.464 59.0953 11.92 58.7593 11.552C58.4233 11.184 57.9193 10.784 57.2473 10.352L55.7353 9.392C55.1913 9.04 54.6953 8.68 54.2473 8.312C53.7993 7.944 53.4393 7.504 53.1673 6.992C52.8953 6.464 52.7593 5.8 52.7593 5C52.7593 4.008 53.0153 3.16 53.5273 2.456C54.0393 1.752 54.7433 1.216 55.6393 0.847999C56.5353 0.479999 57.5593 0.295999 58.7113 0.295999C59.7833 0.295999 60.5833 0.367999 61.1113 0.511999C61.6393 0.639999 61.9833 0.823999 62.1433 1.064C62.3193 1.304 62.4073 1.584 62.4073 1.904C62.4073 2.352 62.3433 2.696 62.2153 2.936C62.0873 3.16 61.9513 3.272 61.8073 3.272C61.6793 3.272 61.5353 3.232 61.3753 3.152C61.2153 3.072 60.9913 2.968 60.7033 2.84C60.4793 2.728 60.1193 2.6 59.6233 2.456C59.1433 2.296 58.6393 2.216 58.1113 2.216C57.4233 2.216 56.8393 2.392 56.3593 2.744C55.8953 3.096 55.6633 3.624 55.6633 4.328C55.6633 4.984 55.8393 5.504 56.1913 5.888C56.5433 6.256 57.0153 6.584 57.6073 6.872L58.9273 7.496C59.5513 7.784 60.1273 8.104 60.6553 8.456C61.1993 8.808 61.6313 9.264 61.9513 9.824C62.2873 10.368 62.4553 11.096 62.4553 12.008C62.4553 13.704 61.8713 15.016 60.7033 15.944C59.5353 16.856 57.9673 17.312 55.9993 17.312Z"/>
</mask>
<path d="M9.368 17.216C8.952 17.216 8.472 16.904 7.928 16.28C7.4 15.64 6.864 14.816 6.32 13.808C5.776 12.784 5.256 11.688 4.76 10.52C4.696 10.376 4.624 10.232 4.544 10.088C4.48 9.928 4.448 9.768 4.448 9.608C4.448 9.432 4.504 9.312 4.616 9.248C4.728 9.168 4.848 9.12 4.976 9.104C6.064 8.896 6.968 8.464 7.688 7.808C8.424 7.152 8.792 6.312 8.792 5.288C8.792 4.712 8.664 4.2 8.408 3.752C8.168 3.288 7.736 2.92 7.112 2.648C6.488 2.376 5.624 2.24 4.52 2.24H4.424L2.84 17.192H0.896C0.624 17.192 0.432 17.064 0.32 16.808C0.208 16.552 0.152 16.208 0.152 15.776C0.152 15.456 0.176 15.096 0.224 14.696L1.76 0.68C2.464 0.599999 3.16 0.543999 3.848 0.511999C4.552 0.463999 5.248 0.439999 5.936 0.439999C7.104 0.439999 8.144 0.599999 9.056 0.92C9.968 1.24 10.68 1.736 11.192 2.408C11.72 3.08 11.984 3.952 11.984 5.024C11.984 5.776 11.832 6.448 11.528 7.04C11.24 7.632 10.84 8.144 10.328 8.576C9.832 8.992 9.28 9.336 8.672 9.608C8.064 9.88 7.448 10.08 6.824 10.208L7.016 9.008C7.56 10.144 8.088 11.112 8.6 11.912C9.128 12.712 9.6 13.352 10.016 13.832C10.432 14.296 10.752 14.624 10.976 14.816C11.376 15.12 11.664 15.336 11.84 15.464C12.032 15.576 12.128 15.704 12.128 15.848C12.128 15.992 12.024 16.144 11.816 16.304C11.624 16.448 11.376 16.592 11.072 16.736C10.768 16.88 10.456 16.992 10.136 17.072C9.832 17.168 9.576 17.216 9.368 17.216ZM20.2252 17.384C18.6732 17.384 17.4252 17.208 16.4812 16.856C15.5532 16.488 14.9132 15.88 14.5612 15.032C14.2092 14.184 14.1052 13.032 14.2492 11.576L15.4252 0.319999H17.3452C17.6652 0.319999 17.8812 0.399999 17.9932 0.559999C18.1212 0.703999 18.1852 0.991999 18.1852 1.424C18.1852 1.808 18.1612 2.192 18.1132 2.576C18.0812 2.96 18.0332 3.408 17.9692 3.92C17.9052 4.432 17.8332 5.064 17.7532 5.816L17.2252 10.712C17.0492 12.344 17.2252 13.544 17.7532 14.312C18.2972 15.08 19.3132 15.464 20.8012 15.464C21.4892 15.464 22.1132 15.328 22.6732 15.056C23.2492 14.784 23.7212 14.36 24.0892 13.784C24.4732 13.192 24.7132 12.424 24.8092 11.48L25.3132 6.824C25.4092 5.928 25.4492 5.184 25.4332 4.592C25.4172 4 25.3692 3.512 25.2892 3.128C25.2092 2.728 25.1372 2.4 25.0732 2.144C25.0092 1.872 24.9772 1.632 24.9772 1.424C24.9772 1.232 25.0972 1.056 25.3372 0.896C25.5932 0.719999 25.8892 0.583999 26.2252 0.487999C26.5612 0.392 26.8572 0.344 27.1132 0.344C27.3532 0.344 27.5372 0.424 27.6652 0.584C27.8092 0.728 27.9052 0.912 27.9532 1.136C28.0172 1.36 28.0492 1.576 28.0492 1.784C28.0492 2.056 28.0252 2.44 27.9772 2.936C27.9292 3.416 27.8732 3.912 27.8092 4.424L27.0652 11.288C26.8892 12.936 26.5212 14.2 25.9612 15.08C25.4172 15.96 24.6652 16.568 23.7052 16.904C22.7612 17.224 21.6012 17.384 20.2252 17.384ZM30.6461 17.288C30.3581 17.288 30.1341 17.112 29.9741 16.76C29.8301 16.408 29.7581 16.016 29.7581 15.584C29.7581 14.96 29.8301 13.944 29.9741 12.536L31.2221 0.319999H33.1421C33.6541 0.319999 33.9341 0.527999 33.9821 0.943999C34.0301 1.344 33.9981 2.032 33.8861 3.008L32.7821 13.184C32.7501 13.52 32.7341 13.856 32.7341 14.192C32.7341 14.528 32.7581 14.864 32.8061 15.2L37.9661 14C38.1421 13.968 38.2781 13.944 38.3741 13.928C38.4701 13.896 38.5421 13.88 38.5901 13.88C38.7821 13.88 38.8781 13.992 38.8781 14.216C38.8781 14.616 38.8061 15.032 38.6621 15.464C38.5341 15.896 38.3501 16.264 38.1101 16.568C37.8701 16.856 37.5741 17 37.2221 17H36.5021C35.3021 17 34.3181 17.024 33.5501 17.072C32.7981 17.12 32.1981 17.168 31.7501 17.216C31.3021 17.264 30.9341 17.288 30.6461 17.288ZM41.4508 17.288C41.1628 17.288 40.9388 17.112 40.7788 16.76C40.6348 16.408 40.5628 16.016 40.5628 15.584C40.5628 14.96 40.6348 13.944 40.7788 12.536L41.9788 0.68H45.6748C46.8108 0.68 47.7068 0.664 48.3628 0.631999C49.0348 0.583999 49.5388 0.543999 49.8748 0.511999C50.2268 0.463999 50.4828 0.439999 50.6428 0.439999C50.8188 0.439999 50.9388 0.471999 51.0028 0.535999C51.0828 0.583999 51.1228 0.727999 51.1228 0.967999C51.1228 1.256 51.0668 1.568 50.9548 1.904C50.8428 2.24 50.6908 2.528 50.4988 2.768C50.3228 3.008 50.1148 3.128 49.8748 3.128C49.7148 3.128 49.4508 3.104 49.0828 3.056C48.7148 3.008 48.2988 2.952 47.8348 2.888L44.7148 2.48L43.6348 13.184C43.6028 13.52 43.5868 13.856 43.5868 14.192C43.5868 14.528 43.6108 14.864 43.6588 15.2L48.7948 14.192C49.0828 14.128 49.3228 14.08 49.5148 14.048C49.7228 14 49.8588 13.976 49.9228 13.976C50.1148 13.976 50.2108 14.088 50.2108 14.312C50.2108 14.712 50.1388 15.12 49.9948 15.536C49.8668 15.952 49.6828 16.304 49.4428 16.592C49.2028 16.864 48.9068 17 48.5548 17H47.8348C46.0428 17 44.6348 17.048 43.6108 17.144C42.5868 17.24 41.8668 17.288 41.4508 17.288ZM42.6748 9.44L42.9868 7.592H44.1388C44.8268 7.592 45.4748 7.568 46.0828 7.52C46.6908 7.472 47.2028 7.424 47.6188 7.376C48.0348 7.328 48.2988 7.304 48.4108 7.304C48.5388 7.304 48.6348 7.344 48.6988 7.424C48.7628 7.488 48.7948 7.584 48.7948 7.712C48.7948 7.952 48.6348 8.2 48.3148 8.456C47.9948 8.712 47.5948 8.928 47.1148 9.104C46.6508 9.28 46.1948 9.376 45.7468 9.392L42.6748 9.44ZM55.9993 17.312C54.6393 17.312 53.5353 17.096 52.6873 16.664C51.8393 16.232 51.4153 15.672 51.4153 14.984C51.4153 14.456 51.4553 14.08 51.5353 13.856C51.6153 13.632 51.7513 13.52 51.9433 13.52C52.0713 13.52 52.2713 13.616 52.5433 13.808C52.8153 14 53.1433 14.216 53.5273 14.456C53.9273 14.696 54.3673 14.912 54.8473 15.104C55.3433 15.296 55.8793 15.392 56.4553 15.392C57.2873 15.392 57.9593 15.216 58.4713 14.864C58.9993 14.496 59.2633 13.936 59.2633 13.184C59.2633 12.464 59.0953 11.92 58.7593 11.552C58.4233 11.184 57.9193 10.784 57.2473 10.352L55.7353 9.392C55.1913 9.04 54.6953 8.68 54.2473 8.312C53.7993 7.944 53.4393 7.504 53.1673 6.992C52.8953 6.464 52.7593 5.8 52.7593 5C52.7593 4.008 53.0153 3.16 53.5273 2.456C54.0393 1.752 54.7433 1.216 55.6393 0.847999C56.5353 0.479999 57.5593 0.295999 58.7113 0.295999C59.7833 0.295999 60.5833 0.367999 61.1113 0.511999C61.6393 0.639999 61.9833 0.823999 62.1433 1.064C62.3193 1.304 62.4073 1.584 62.4073 1.904C62.4073 2.352 62.3433 2.696 62.2153 2.936C62.0873 3.16 61.9513 3.272 61.8073 3.272C61.6793 3.272 61.5353 3.232 61.3753 3.152C61.2153 3.072 60.9913 2.968 60.7033 2.84C60.4793 2.728 60.1193 2.6 59.6233 2.456C59.1433 2.296 58.6393 2.216 58.1113 2.216C57.4233 2.216 56.8393 2.392 56.3593 2.744C55.8953 3.096 55.6633 3.624 55.6633 4.328C55.6633 4.984 55.8393 5.504 56.1913 5.888C56.5433 6.256 57.0153 6.584 57.6073 6.872L58.9273 7.496C59.5513 7.784 60.1273 8.104 60.6553 8.456C61.1993 8.808 61.6313 9.264 61.9513 9.824C62.2873 10.368 62.4553 11.096 62.4553 12.008C62.4553 13.704 61.8713 15.016 60.7033 15.944C59.5353 16.856 57.9673 17.312 55.9993 17.312Z" fill="#EC24FF"/>
<path d="M7.928 16.28L7.54217 16.5983L7.55111 16.6086L7.928 16.28ZM6.32 13.808L5.87843 14.0426L5.87999 14.0455L6.32 13.808ZM4.76 10.52L5.22029 10.3245L5.21691 10.3169L4.76 10.52ZM4.544 10.088L4.07976 10.2737C4.0876 10.2933 4.09667 10.3124 4.10692 10.3308L4.544 10.088ZM4.616 9.248L4.86407 9.68212C4.8787 9.67376 4.8929 9.66466 4.90662 9.65487L4.616 9.248ZM4.976 9.104L5.03802 9.60014C5.04869 9.5988 5.05932 9.59713 5.06989 9.59511L4.976 9.104ZM7.688 7.808L7.3553 7.43472L7.35126 7.4384L7.688 7.808ZM8.408 3.752L7.96389 3.98171C7.96709 3.9879 7.97042 3.99402 7.97388 4.00007L8.408 3.752ZM7.112 2.648L7.31179 2.18965L7.112 2.648ZM4.424 2.24V1.74C4.16825 1.74 3.95373 1.933 3.92678 2.18733L4.424 2.24ZM2.84 17.192V17.692C3.09575 17.692 3.31027 17.499 3.33722 17.2447L2.84 17.192ZM0.32 16.808L0.778079 16.6076H0.778079L0.32 16.808ZM0.224 14.696L0.720465 14.7556L0.721024 14.7505L0.224 14.696ZM1.76 0.68L1.70354 0.183197C1.47137 0.209581 1.28843 0.393253 1.26298 0.625531L1.76 0.68ZM3.848 0.511999L3.87124 1.01158L3.88201 1.01084L3.848 0.511999ZM9.056 0.92L8.89046 1.3918H8.89046L9.056 0.92ZM11.192 2.408L10.7942 2.71105L10.7988 2.71691L11.192 2.408ZM11.528 7.04L11.0831 6.81154L11.0784 6.82127L11.528 7.04ZM10.328 8.576L10.6493 8.9591L10.6504 8.95815L10.328 8.576ZM8.672 9.608L8.46782 9.15159L8.672 9.608ZM6.824 10.208L6.33028 10.129C6.30434 10.2911 6.35965 10.4557 6.47825 10.5692C6.59685 10.6827 6.76364 10.7308 6.92447 10.6978L6.824 10.208ZM7.016 9.008L7.46696 8.79205C7.37249 8.59476 7.16074 8.48179 6.94426 8.51317C6.72779 8.54456 6.55684 8.71301 6.52228 8.929L7.016 9.008ZM8.6 11.912L8.17882 12.1816L8.1827 12.1874L8.6 11.912ZM10.016 13.832L9.6381 14.1595L9.64372 14.1658L10.016 13.832ZM10.976 14.816L10.6506 15.1956C10.658 15.202 10.6657 15.2082 10.6735 15.2141L10.976 14.816ZM11.84 15.464L11.5459 15.8684C11.5595 15.8782 11.5736 15.8874 11.5881 15.8959L11.84 15.464ZM11.816 16.304L12.116 16.704L12.1209 16.7003L11.816 16.304ZM11.072 16.736L10.858 16.2841L11.072 16.736ZM10.136 17.072L10.0147 16.5869C10.0049 16.5894 9.99511 16.5922 9.98543 16.5952L10.136 17.072ZM9.368 16.716C9.18762 16.716 8.83741 16.5623 8.30489 15.9514L7.55111 16.6086C8.10659 17.2457 8.71638 17.716 9.368 17.716V16.716ZM8.31369 15.9618C7.81251 15.3543 7.29394 14.5599 6.76001 13.5705L5.87999 14.0455C6.43406 15.0721 6.9875 15.9257 7.54231 16.5982L8.31369 15.9618ZM6.76156 13.5734C6.22494 12.5633 5.71109 11.4805 5.22022 10.3246L4.29978 10.7154C4.80091 11.8955 5.32706 13.0047 5.87844 14.0426L6.76156 13.5734ZM5.21691 10.3169C5.14663 10.1588 5.06795 10.0015 4.98108 9.84518L4.10692 10.3308C4.18005 10.4625 4.24538 10.5932 4.30309 10.7231L5.21691 10.3169ZM5.00824 9.9023C4.96603 9.79678 4.948 9.69963 4.948 9.608H3.948C3.948 9.83637 3.99397 10.0592 4.07976 10.2737L5.00824 9.9023ZM4.948 9.608C4.948 9.57016 4.9544 9.57322 4.94309 9.59744C4.93702 9.61045 4.92699 9.62694 4.91174 9.64363C4.89641 9.66043 4.87965 9.67322 4.86407 9.68212L4.36793 8.81388C4.04511 8.99835 3.948 9.32651 3.948 9.608H4.948ZM4.90662 9.65487C4.95568 9.61982 4.99796 9.60515 5.03802 9.60014L4.91398 8.60786C4.69804 8.63485 4.50032 8.71618 4.32538 8.84113L4.90662 9.65487ZM5.06989 9.59511C6.23578 9.37222 7.22757 8.90391 8.02474 8.1776L7.35126 7.4384C6.70843 8.02409 5.89222 8.41978 4.88211 8.61289L5.06989 9.59511ZM8.02069 8.18126C8.86771 7.4263 9.292 6.44832 9.292 5.288H8.292C8.292 6.17568 7.98029 6.8777 7.35532 7.43474L8.02069 8.18126ZM9.292 5.288C9.292 4.63533 9.14615 4.03598 8.84212 3.50393L7.97388 4.00007C8.18185 4.36402 8.292 4.78867 8.292 5.288H9.292ZM8.85211 3.52229C8.54517 2.92888 8.00881 2.49348 7.31179 2.18965L6.91221 3.10635C7.46319 3.34652 7.79083 3.64712 7.96389 3.98171L8.85211 3.52229ZM7.31179 2.18965C6.59759 1.87833 5.65514 1.74 4.52 1.74V2.74C5.59287 2.74 6.37841 2.87367 6.91221 3.10635L7.31179 2.18965ZM4.52 1.74H4.424V2.74H4.52V1.74ZM3.92678 2.18733L2.34278 17.1393L3.33722 17.2447L4.92122 2.29267L3.92678 2.18733ZM2.84 16.692H0.896V17.692H2.84V16.692ZM0.896 16.692C0.840707 16.692 0.825415 16.68 0.82535 16.68C0.82438 16.6793 0.803872 16.6665 0.778079 16.6076L-0.138079 17.0084C-0.0518718 17.2055 0.0796204 17.3847 0.27065 17.512C0.462585 17.64 0.679293 17.692 0.896 17.692V16.692ZM0.778079 16.6076C0.70465 16.4398 0.652 16.1728 0.652 15.776H-0.348C-0.348 16.2432 -0.28865 16.6642 -0.138079 17.0084L0.778079 16.6076ZM0.652 15.776C0.652 15.4802 0.674234 15.1406 0.720438 14.7556L-0.272438 14.6364C-0.322234 15.0514 -0.348 15.4318 -0.348 15.776H0.652ZM0.721024 14.7505L2.25702 0.734468L1.26298 0.625531L-0.273024 14.6415L0.721024 14.7505ZM1.81646 1.1768C2.50973 1.09802 3.19464 1.04293 3.87123 1.01146L3.82477 0.0125389C3.12536 0.0450697 2.41827 0.101977 1.70354 0.183197L1.81646 1.1768ZM3.88201 1.01084C4.57498 0.963593 5.25963 0.939999 5.936 0.939999V-0.0600014C5.23637 -0.0600014 4.52902 -0.0355949 3.81399 0.0131569L3.88201 1.01084ZM5.936 0.939999C7.05901 0.939999 8.04143 1.09389 8.89046 1.3918L9.22155 0.448199C8.24657 0.106103 7.14899 -0.0600014 5.936 -0.0600014V0.939999ZM8.89046 1.3918C9.72389 1.68423 10.3497 2.12753 10.7943 2.71102L11.5897 2.10498C11.0103 1.34447 10.2121 0.795765 9.22154 0.448199L8.89046 1.3918ZM10.7988 2.71691C11.2416 3.28041 11.484 4.03497 11.484 5.024H12.484C12.484 3.86903 12.1984 2.87959 11.5852 2.09909L10.7988 2.71691ZM11.484 5.024C11.484 5.70699 11.3464 6.29899 11.0832 6.8116L11.9728 7.2684C12.3176 6.59701 12.484 5.84501 12.484 5.024H11.484ZM11.0784 6.82127C10.8215 7.34939 10.4652 7.80604 10.0056 8.19385L10.6504 8.95815C11.2148 8.48196 11.6585 7.91461 11.9776 7.25873L11.0784 6.82127ZM10.0067 8.1929C9.54717 8.57831 9.0348 8.89794 8.46782 9.15159L8.87618 10.0644C9.5252 9.77406 10.1168 9.40569 10.6493 8.9591L10.0067 8.1929ZM8.46782 9.15159C7.89155 9.40939 7.31026 9.59784 6.72353 9.7182L6.92447 10.6978C7.58574 10.5622 8.23645 10.3506 8.87618 10.0644L8.46782 9.15159ZM7.31772 10.287L7.50972 9.087L6.52228 8.929L6.33028 10.129L7.31772 10.287ZM6.56504 9.22395C7.11522 10.3729 7.65295 11.3598 8.17886 12.1815L9.02114 11.6425C8.52305 10.8642 8.00478 9.91515 7.46696 8.79205L6.56504 9.22395ZM8.1827 12.1874C8.71732 12.9975 9.20266 13.657 9.63816 14.1595L10.3938 13.5045C9.99734 13.047 9.53868 12.4265 9.0173 11.6366L8.1827 12.1874ZM9.64372 14.1658C10.062 14.6323 10.4002 14.981 10.6506 15.1956L11.3014 14.4364C11.1038 14.267 10.802 13.9597 10.3883 13.4982L9.64372 14.1658ZM10.6735 15.2141C11.0736 15.5182 11.3653 15.737 11.5459 15.8684L12.1341 15.0596C11.9627 14.935 11.6784 14.7218 11.2785 14.4179L10.6735 15.2141ZM11.5881 15.8959C11.6163 15.9124 11.6348 15.9258 11.6459 15.9351C11.657 15.9444 11.6589 15.9478 11.656 15.944C11.6528 15.9398 11.6452 15.9282 11.6385 15.9094C11.6317 15.89 11.628 15.8688 11.628 15.848H12.628C12.628 15.4425 12.348 15.1815 12.0919 15.0321L11.5881 15.8959ZM11.628 15.848C11.628 15.7944 11.6483 15.7717 11.6373 15.7877C11.6247 15.8061 11.5896 15.8473 11.5111 15.9077L12.1209 16.7003C12.3561 16.5193 12.628 16.2375 12.628 15.848H11.628ZM11.516 15.904C11.3591 16.0217 11.1427 16.1493 10.858 16.2841L11.286 17.1879C11.6093 17.0347 11.8889 16.8743 12.116 16.704L11.516 15.904ZM10.858 16.2841C10.5831 16.4143 10.3022 16.5151 10.0147 16.5869L10.2573 17.5571C10.6098 17.4689 10.9529 17.3457 11.286 17.1879L10.858 16.2841ZM9.98543 16.5952C9.70711 16.6831 9.50536 16.716 9.368 16.716V17.716C9.64664 17.716 9.95689 17.6529 10.2866 17.5488L9.98543 16.5952ZM16.4812 16.856L16.2968 17.3209L16.3065 17.3245L16.4812 16.856ZM14.5612 15.032L14.0994 15.2237L14.5612 15.032ZM14.2492 11.576L13.7519 11.524L13.7516 11.5268L14.2492 11.576ZM15.4252 0.319999V-0.180001C15.1692 -0.180001 14.9545 0.013401 14.9279 0.268043L15.4252 0.319999ZM17.9932 0.559999L17.5836 0.84673C17.5947 0.862561 17.6066 0.877737 17.6195 0.89218L17.9932 0.559999ZM18.1132 2.576L17.617 2.51398C17.6162 2.5208 17.6155 2.52763 17.6149 2.53448L18.1132 2.576ZM17.9692 3.92L17.473 3.85798V3.85798L17.9692 3.92ZM17.7532 5.816L18.2503 5.86961L18.2504 5.86889L17.7532 5.816ZM17.2252 10.712L16.7281 10.6584L17.2252 10.712ZM17.7532 14.312L17.3411 14.5953L17.3452 14.601L17.7532 14.312ZM22.6732 15.056L22.4597 14.6038L22.4547 14.6062L22.6732 15.056ZM24.0892 13.784L23.6697 13.5119L23.6678 13.5148L24.0892 13.784ZM24.8092 11.48L24.3121 11.4262L24.3118 11.4294L24.8092 11.48ZM25.3132 6.824L25.8103 6.87781L25.8103 6.87727L25.3132 6.824ZM25.2892 3.128L24.7989 3.22606L24.7997 3.22998L25.2892 3.128ZM25.0732 2.144L24.5864 2.25853L24.5881 2.26527L25.0732 2.144ZM25.3372 0.896L25.6146 1.31207L25.6205 1.30802L25.3372 0.896ZM26.2252 0.487999L26.3625 0.968761L26.2252 0.487999ZM27.6652 0.584L27.2748 0.896348C27.2863 0.910752 27.2986 0.924509 27.3116 0.937553L27.6652 0.584ZM27.9532 1.136L27.4643 1.24076C27.4666 1.25172 27.4693 1.26259 27.4724 1.27336L27.9532 1.136ZM27.9772 2.936L28.4747 2.98575L28.4749 2.98416L27.9772 2.936ZM27.8092 4.424L27.313 4.36197L27.3121 4.37012L27.8092 4.424ZM27.0652 11.288L26.5681 11.2341L26.568 11.2349L27.0652 11.288ZM25.9612 15.08L25.5393 14.8115L25.5359 14.8171L25.9612 15.08ZM23.7052 16.904L23.8657 17.3776L23.8704 17.3759L23.7052 16.904ZM20.2252 16.884C18.7041 16.884 17.5222 16.7106 16.6559 16.3875L16.3065 17.3245C17.3281 17.7054 18.6423 17.884 20.2252 17.884V16.884ZM16.6655 16.3912C15.851 16.0682 15.3184 15.552 15.023 14.8403L14.0994 15.2237C14.508 16.208 15.2554 16.9078 16.2969 17.3208L16.6655 16.3912ZM15.023 14.8403C14.716 14.1007 14.6065 13.0429 14.7468 11.6252L13.7516 11.5268C13.6038 13.0211 13.7024 14.2673 14.0994 15.2237L15.023 14.8403ZM14.7465 11.628L15.9225 0.371955L14.9279 0.268043L13.7519 11.524L14.7465 11.628ZM15.4252 0.819999H17.3452V-0.180001H15.4252V0.819999ZM17.3452 0.819999C17.4673 0.819999 17.5381 0.835767 17.5735 0.848873C17.6037 0.86005 17.5957 0.86412 17.5836 0.84673L18.4028 0.273267C18.1499 -0.088089 17.7231 -0.180001 17.3452 -0.180001V0.819999ZM17.6195 0.89218C17.6046 0.875491 17.6266 0.891142 17.6491 0.992464C17.6705 1.08859 17.6852 1.22931 17.6852 1.424H18.6852C18.6852 1.18669 18.6679 0.967408 18.6253 0.775534C18.5838 0.588856 18.5097 0.388506 18.3669 0.227817L17.6195 0.89218ZM17.6852 1.424C17.6852 1.78711 17.6625 2.15039 17.617 2.51398L18.6093 2.63802C18.6599 2.23361 18.6852 1.82889 18.6852 1.424H17.6852ZM17.6149 2.53448C17.5836 2.90979 17.5365 3.35068 17.473 3.85798L18.4653 3.98202C18.5299 3.46532 18.5787 3.01021 18.6115 2.61752L17.6149 2.53448ZM17.473 3.85798C17.4085 4.37406 17.3362 5.00932 17.256 5.76311L18.2504 5.86889C18.3302 5.11868 18.4018 4.48994 18.4653 3.98202L17.473 3.85798ZM17.2561 5.76239L16.7281 10.6584L17.7223 10.7656L18.2503 5.86961L17.2561 5.76239ZM16.7281 10.6584C16.5481 12.3275 16.7101 13.6774 17.3412 14.5953L18.1652 14.0287C17.7402 13.4106 17.5503 12.3605 17.7223 10.7656L16.7281 10.6584ZM17.3452 14.601C18.0275 15.5642 19.2475 15.964 20.8012 15.964V14.964C19.3788 14.964 18.5669 14.5958 18.1612 14.023L17.3452 14.601ZM20.8012 15.964C21.5568 15.964 22.2567 15.8142 22.8916 15.5058L22.4547 14.6062C21.9697 14.8418 21.4216 14.964 20.8012 14.964V15.964ZM22.8867 15.5081C23.5541 15.193 24.0957 14.7025 24.5105 14.0532L23.6678 13.5148C23.3467 14.0175 22.9443 14.375 22.4597 14.6039L22.8867 15.5081ZM24.5087 14.0561C24.9481 13.3786 25.2052 12.5276 25.3066 11.5306L24.3118 11.4294C24.2211 12.3204 23.9982 13.0054 23.6697 13.5119L24.5087 14.0561ZM25.3063 11.5338L25.8103 6.87781L24.8161 6.77019L24.3121 11.4262L25.3063 11.5338ZM25.8103 6.87727C25.9076 5.96925 25.9498 5.20108 25.933 4.57849L24.9334 4.60551C24.9485 5.16692 24.9107 5.88675 24.816 6.77073L25.8103 6.87727ZM25.933 4.57849C25.9166 3.97014 25.867 3.44984 25.7787 3.02602L24.7997 3.22998C24.8714 3.57416 24.9178 4.02986 24.9334 4.60551L25.933 4.57849ZM25.7795 3.02994C25.6987 2.62586 25.6249 2.28937 25.5583 2.02273L24.5881 2.26527C24.6495 2.51062 24.7197 2.83014 24.7989 3.22606L25.7795 3.02994ZM25.5599 2.02948C25.5019 1.78309 25.4772 1.58286 25.4772 1.424H24.4772C24.4772 1.68113 24.5165 1.96091 24.5865 2.25852L25.5599 2.02948ZM25.4772 1.424C25.4772 1.43936 25.4705 1.44411 25.4803 1.42967C25.4937 1.40994 25.5302 1.36823 25.6145 1.31203L25.0598 0.479975C24.7547 0.683421 24.4772 0.992137 24.4772 1.424H25.4772ZM25.6205 1.30802C25.8267 1.16624 26.0722 1.05173 26.3625 0.968761L26.0878 0.00723743C25.7062 0.11627 25.3597 0.273754 25.0539 0.483979L25.6205 1.30802ZM26.3625 0.968761C26.6689 0.88122 26.9171 0.844 27.1132 0.844V-0.156C26.7973 -0.156 26.4534 -0.0972204 26.0878 0.00723743L26.3625 0.968761ZM27.1132 0.844C27.2304 0.844 27.2585 0.875978 27.2748 0.896348L28.0556 0.271651C27.8159 -0.0279779 27.4759 -0.156 27.1132 -0.156V0.844ZM27.3116 0.937553C27.3792 1.00512 27.4339 1.09886 27.4643 1.24076L28.4421 1.03123C28.3765 0.725138 28.2392 0.450878 28.0187 0.230446L27.3116 0.937553ZM27.4724 1.27336C27.5252 1.45796 27.5492 1.62764 27.5492 1.784H28.5492C28.5492 1.52436 28.5092 1.26203 28.434 0.998641L27.4724 1.27336ZM27.5492 1.784C27.5492 2.03184 27.527 2.39704 27.4795 2.88784L28.4749 2.98416C28.5234 2.48296 28.5492 2.08016 28.5492 1.784H27.5492ZM27.4797 2.88625C27.4321 3.36188 27.3766 3.85378 27.313 4.36198L28.3053 4.48602C28.3698 3.97021 28.4263 3.47012 28.4747 2.98575L27.4797 2.88625ZM27.3121 4.37012L26.5681 11.2341L27.5623 11.3419L28.3063 4.47788L27.3121 4.37012ZM26.568 11.2349C26.3959 12.8466 26.0406 14.0238 25.5394 14.8116L26.383 15.3484C27.0017 14.3762 27.3825 13.0254 27.5624 11.3411L26.568 11.2349ZM25.5359 14.8171C25.051 15.6015 24.3899 16.1346 23.54 16.4321L23.8704 17.3759C24.9405 17.0014 25.7834 16.3185 26.3865 15.3429L25.5359 14.8171ZM23.5447 16.4305C22.6679 16.7277 21.5658 16.884 20.2252 16.884V17.884C21.6366 17.884 22.8545 17.7203 23.8657 17.3775L23.5447 16.4305ZM29.9741 16.76L29.5113 16.9493C29.5137 16.9552 29.5162 16.9611 29.5189 16.9669L29.9741 16.76ZM29.9741 12.536L30.4715 12.5869L30.4715 12.5868L29.9741 12.536ZM31.2221 0.319999V-0.180001C30.9656 -0.180001 30.7507 0.0140448 30.7247 0.269183L31.2221 0.319999ZM33.9821 0.943999L33.4854 1.00131L33.4856 1.00357L33.9821 0.943999ZM33.8861 3.008L33.3893 2.951L33.389 2.95407L33.8861 3.008ZM32.7821 13.184L32.2849 13.1301L32.2843 13.1366L32.7821 13.184ZM32.8061 15.2L32.3111 15.2707C32.3309 15.4094 32.408 15.5335 32.5237 15.6126C32.6393 15.6918 32.7828 15.7187 32.9193 15.687L32.8061 15.2ZM37.9661 14L37.8766 13.5081C37.8686 13.5095 37.8607 13.5112 37.8528 13.513L37.9661 14ZM38.3741 13.928L38.4563 14.4212C38.482 14.4169 38.5074 14.4106 38.5322 14.4023L38.3741 13.928ZM38.6621 15.464L38.1877 15.3059C38.1859 15.3112 38.1843 15.3166 38.1827 15.322L38.6621 15.464ZM38.1101 16.568L38.4943 16.8882L38.5025 16.8778L38.1101 16.568ZM33.5501 17.072L33.5189 16.573L33.5182 16.573L33.5501 17.072ZM31.7501 17.216L31.8033 17.7132L31.7501 17.216ZM30.6461 16.788C30.6128 16.788 30.5938 16.7808 30.571 16.7628C30.5404 16.7388 30.4874 16.681 30.4292 16.5531L29.5189 16.9669C29.727 17.4248 30.0931 17.788 30.6461 17.788V16.788ZM30.4368 16.5707C30.3205 16.2864 30.2581 15.9598 30.2581 15.584H29.2581C29.2581 16.0722 29.3396 16.5296 29.5113 16.9493L30.4368 16.5707ZM30.2581 15.584C30.2581 14.9876 30.3276 13.9937 30.4715 12.5869L29.4767 12.4851C29.3325 13.8943 29.2581 14.9324 29.2581 15.584H30.2581ZM30.4715 12.5868L31.7195 0.370814L30.7247 0.269183L29.4767 12.4852L30.4715 12.5868ZM31.2221 0.819999H33.1421V-0.180001H31.2221V0.819999ZM33.1421 0.819999C33.3388 0.819999 33.4161 0.861143 33.4379 0.877371C33.4451 0.882724 33.4738 0.900751 33.4854 1.00131L34.4788 0.886687C34.4424 0.571247 34.307 0.277274 34.0342 0.0746269C33.7761 -0.117146 33.4574 -0.180001 33.1421 -0.180001V0.819999ZM33.4856 1.00357C33.5259 1.339 33.5014 1.97419 33.3893 2.951L34.3828 3.065C34.4947 2.08981 34.5342 1.34899 34.4785 0.884426L33.4856 1.00357ZM33.389 2.95407L32.285 13.1301L33.2791 13.2379L34.3831 3.06193L33.389 2.95407ZM32.2843 13.1366C32.2508 13.4883 32.2341 13.8401 32.2341 14.192H33.2341C33.2341 13.8719 33.2493 13.5517 33.2798 13.2314L32.2843 13.1366ZM32.2341 14.192C32.2341 14.5519 32.2598 14.9115 32.3111 15.2707L33.301 15.1293C33.2563 14.8165 33.2341 14.5041 33.2341 14.192H32.2341ZM32.9193 15.687L38.0793 14.487L37.8528 13.513L32.6928 14.713L32.9193 15.687ZM38.0555 14.4919C38.2307 14.4601 38.3639 14.4366 38.4563 14.4212L38.2919 13.4348C38.1922 13.4514 38.0534 13.4759 37.8766 13.5081L38.0555 14.4919ZM38.5322 14.4023C38.5694 14.3899 38.5942 14.3833 38.6085 14.3801C38.6154 14.3786 38.6175 14.3784 38.6156 14.3786C38.6141 14.3788 38.605 14.38 38.5901 14.38V13.38C38.4563 13.38 38.3193 13.4192 38.216 13.4537L38.5322 14.4023ZM38.5901 14.38C38.5899 14.38 38.5847 14.38 38.5754 14.3784C38.5659 14.3769 38.5519 14.3736 38.5348 14.367C38.4979 14.3526 38.4586 14.3269 38.4264 14.2894C38.3652 14.218 38.3781 14.1638 38.3781 14.216H39.3781C39.3781 14.0442 39.3429 13.822 39.1857 13.6386C39.0159 13.4405 38.785 13.38 38.5901 13.38V14.38ZM38.3781 14.216C38.3781 14.5554 38.317 14.9179 38.1877 15.3059L39.1364 15.6221C39.2951 15.1461 39.3781 14.6766 39.3781 14.216H38.3781ZM38.1827 15.322C38.0698 15.7028 37.9124 16.0115 37.7176 16.2582L38.5025 16.8778C38.7878 16.5165 38.9983 16.0892 39.1415 15.606L38.1827 15.322ZM37.726 16.2479C37.5739 16.4304 37.415 16.5 37.2221 16.5V17.5C37.7331 17.5 38.1662 17.2816 38.4942 16.8881L37.726 16.2479ZM37.2221 16.5H36.5021V17.5H37.2221V16.5ZM36.5021 16.5C35.2967 16.5 34.3013 16.5241 33.5189 16.573L33.5813 17.571C34.3348 17.5239 35.3074 17.5 36.5021 17.5V16.5ZM33.5182 16.573C32.7631 16.6212 32.1551 16.6697 31.6968 16.7188L31.8033 17.7132C32.2411 17.6663 32.833 17.6188 33.5819 17.571L33.5182 16.573ZM31.6968 16.7188C31.2578 16.7659 30.9093 16.788 30.6461 16.788V17.788C30.9588 17.788 31.3463 17.7621 31.8033 17.7132L31.6968 16.7188ZM40.7788 16.76L40.316 16.9493C40.3184 16.9552 40.3209 16.9611 40.3236 16.9669L40.7788 16.76ZM40.7788 12.536L41.2762 12.5869L41.2762 12.5863L40.7788 12.536ZM41.9787 0.68V0.18C41.7221 0.18 41.5071 0.374309 41.4813 0.62965L41.9787 0.68ZM48.3628 0.631999L48.3871 1.13153L48.3984 1.13073L48.3628 0.631999ZM49.8748 0.511999L49.9222 1.00975C49.9289 1.00911 49.9356 1.00833 49.9423 1.00741L49.8748 0.511999ZM51.0028 0.535999L50.6492 0.889552C50.6781 0.918459 50.7104 0.943711 50.7455 0.964745L51.0028 0.535999ZM50.9548 1.904L51.4291 2.06211L50.9548 1.904ZM50.4987 2.768L50.1083 2.45565C50.1039 2.46112 50.0997 2.46667 50.0955 2.47232L50.4987 2.768ZM47.8348 2.888L47.9031 2.39268L47.8996 2.39222L47.8348 2.888ZM44.7148 2.48L44.7796 1.98422C44.6456 1.96669 44.5102 2.00418 44.4042 2.08812C44.2983 2.17207 44.2308 2.29533 44.2173 2.42981L44.7148 2.48ZM43.6348 13.184L43.1373 13.1338L43.137 13.1366L43.6348 13.184ZM43.6587 15.2L43.1638 15.2707C43.1832 15.4064 43.2574 15.5283 43.3692 15.6076C43.481 15.687 43.6205 15.717 43.755 15.6906L43.6587 15.2ZM48.7948 14.192L48.8911 14.6828L48.9032 14.6801L48.7948 14.192ZM49.5148 14.048L49.597 14.5412C49.6071 14.5395 49.6172 14.5375 49.6272 14.5352L49.5148 14.048ZM49.9948 15.536L49.5223 15.3724C49.5204 15.3779 49.5186 15.3834 49.5169 15.389L49.9948 15.536ZM49.4427 16.592L49.8178 16.9229L49.8269 16.9121L49.4427 16.592ZM43.6108 17.144L43.6574 17.6418L43.6108 17.144ZM42.6748 9.44L42.1817 9.35676C42.157 9.50322 42.1987 9.65308 42.2954 9.76576C42.3922 9.87844 42.5341 9.94226 42.6826 9.93994L42.6748 9.44ZM42.9868 7.592V7.092C42.7427 7.092 42.5344 7.26814 42.4937 7.50876L42.9868 7.592ZM46.0827 7.52L46.1221 8.01845L46.0827 7.52ZM47.6188 7.376L47.6761 7.8727L47.6188 7.376ZM48.6987 7.424L48.3083 7.73635C48.3198 7.75075 48.3322 7.76451 48.3452 7.77755L48.6987 7.424ZM48.3148 8.456L48.0024 8.06557L48.3148 8.456ZM47.1147 9.104L46.9426 8.63453L46.9374 8.6365L47.1147 9.104ZM45.7467 9.392L45.7546 9.89204L45.7646 9.89168L45.7467 9.392ZM41.4507 16.788C41.4174 16.788 41.3985 16.7808 41.3757 16.7628C41.345 16.7388 41.2921 16.681 41.2339 16.5531L40.3236 16.9669C40.5317 17.4248 40.8978 17.788 41.4507 17.788V16.788ZM41.2415 16.5707C41.1252 16.2864 41.0628 15.9598 41.0628 15.584H40.0628C40.0628 16.0722 40.1443 16.5296 40.316 16.9493L41.2415 16.5707ZM41.0628 15.584C41.0628 14.9876 41.1323 13.9937 41.2762 12.5869L40.2813 12.4851C40.1372 13.8943 40.0628 14.9324 40.0628 15.584H41.0628ZM41.2762 12.5863L42.4762 0.73035L41.4813 0.62965L40.2813 12.4856L41.2762 12.5863ZM41.9787 1.18H45.6748V0.18H41.9787V1.18ZM45.6748 1.18C46.8139 1.18 47.7192 1.16399 48.3871 1.1314L48.3384 0.132593C47.6943 0.164014 46.8076 0.18 45.6748 0.18V1.18ZM48.3984 1.13073C49.0713 1.08267 49.5801 1.04233 49.9222 1.00975L49.8273 0.0142517C49.4974 0.0456705 48.9982 0.0853319 48.3271 0.133269L48.3984 1.13073ZM49.9423 1.00741C50.2922 0.959706 50.5193 0.939999 50.6427 0.939999V-0.0600014C50.4462 -0.0600014 50.1613 -0.0317087 49.8072 0.0165844L49.9423 1.00741ZM50.6427 0.939999C50.6719 0.939999 50.6942 0.941341 50.7105 0.943102C50.727 0.944881 50.7348 0.946824 50.7359 0.947116C50.7371 0.947435 50.7282 0.945228 50.713 0.937291C50.6974 0.929148 50.674 0.914332 50.6492 0.889552L51.3563 0.182446C51.1421 -0.0317965 50.8411 -0.0600014 50.6427 -0.0600014V0.939999ZM50.7455 0.964745C50.6848 0.928321 50.6493 0.883864 50.6313 0.854998C50.6142 0.827647 50.61 0.81023 50.611 0.813821C50.6117 0.816528 50.615 0.829983 50.6179 0.857802C50.6208 0.885056 50.6227 0.921337 50.6227 0.967999H51.6227C51.6227 0.826562 51.6117 0.679903 51.5745 0.546177C51.5399 0.421657 51.4599 0.227201 51.26 0.107253L50.7455 0.964745ZM50.6227 0.967999C50.6227 1.19155 50.5792 1.4496 50.4804 1.74589L51.4291 2.06211C51.5543 1.68639 51.6227 1.32045 51.6227 0.967999H50.6227ZM50.4804 1.74589C50.3843 2.03432 50.2583 2.26815 50.1083 2.45565L50.8892 3.08035C51.1232 2.78785 51.3012 2.44567 51.4291 2.06211L50.4804 1.74589ZM50.0955 2.47232C49.9885 2.61831 49.9171 2.628 49.8748 2.628V3.628C50.3124 3.628 50.657 3.39769 50.902 3.06368L50.0955 2.47232ZM49.8748 2.628C49.7502 2.628 49.5145 2.60808 49.1474 2.5602L49.0181 3.5518C49.387 3.59992 49.6793 3.628 49.8748 3.628V2.628ZM49.1474 2.5602C48.7809 2.51239 48.3661 2.45656 47.9031 2.39269L47.7664 3.38331C48.2313 3.44744 48.6486 3.50361 49.0181 3.5518L49.1474 2.5602ZM47.8996 2.39222L44.7796 1.98422L44.6499 2.97578L47.7699 3.38378L47.8996 2.39222ZM44.2173 2.42981L43.1373 13.1338L44.1322 13.2342L45.2122 2.53019L44.2173 2.42981ZM43.137 13.1366C43.1035 13.4883 43.0868 13.8401 43.0868 14.192H44.0868C44.0868 13.8719 44.102 13.5517 44.1325 13.2314L43.137 13.1366ZM43.0868 14.192C43.0868 14.5519 43.1125 14.9115 43.1638 15.2707L44.1537 15.1293C44.109 14.8165 44.0868 14.5041 44.0868 14.192H43.0868ZM43.755 15.6906L48.891 14.6826L48.6985 13.7014L43.5625 14.7094L43.755 15.6906ZM48.9032 14.6801C49.1864 14.6172 49.417 14.5712 49.597 14.5412L49.4326 13.5548C49.2285 13.5888 48.9791 13.6388 48.6863 13.7039L48.9032 14.6801ZM49.6272 14.5352C49.7267 14.5122 49.8035 14.4963 49.8596 14.4864C49.8876 14.4815 49.9076 14.4785 49.9208 14.4769C49.9359 14.4751 49.9346 14.476 49.9227 14.476V13.476C49.7909 13.476 49.5964 13.516 49.4023 13.5608L49.6272 14.5352ZM49.9227 14.476C49.9226 14.476 49.9174 14.476 49.9081 14.4744C49.8986 14.4729 49.8846 14.4696 49.8675 14.463C49.8306 14.4486 49.7912 14.4229 49.7591 14.3854C49.6979 14.314 49.7108 14.2598 49.7108 14.312H50.7108C50.7108 14.1402 50.6756 13.918 50.5184 13.7346C50.3485 13.5365 50.1177 13.476 49.9227 13.476V14.476ZM49.7108 14.312C49.7108 14.651 49.6499 15.0038 49.5223 15.3724L50.4672 15.6996C50.6276 15.2362 50.7108 14.773 50.7108 14.312H49.7108ZM49.5169 15.389C49.4052 15.7517 49.25 16.0423 49.0586 16.2719L49.8269 16.9121C50.1155 16.5657 50.3283 16.1523 50.4726 15.683L49.5169 15.389ZM49.0678 16.2612C48.9194 16.4294 48.7584 16.5 48.5548 16.5V17.5C49.0551 17.5 49.4861 17.2986 49.8177 16.9228L49.0678 16.2612ZM48.5548 16.5H47.8348V17.5H48.5548V16.5ZM47.8348 16.5C46.0368 16.5 44.6109 16.548 43.5641 16.6462L43.6574 17.6418C44.6586 17.548 46.0487 17.5 47.8348 17.5V16.5ZM43.5641 16.6462C42.5396 16.7422 41.8407 16.788 41.4507 16.788V17.788C41.8928 17.788 42.6339 17.7378 43.6574 17.6418L43.5641 16.6462ZM43.1678 9.52324L43.4798 7.67524L42.4937 7.50876L42.1817 9.35676L43.1678 9.52324ZM42.9868 8.092H44.1388V7.092H42.9868V8.092ZM44.1388 8.092C44.8383 8.092 45.4995 8.0676 46.1221 8.01845L46.0434 7.02155C45.45 7.0684 44.8152 7.092 44.1388 7.092V8.092ZM46.1221 8.01845C46.7337 7.97017 47.2521 7.92163 47.6761 7.8727L47.5614 6.8793C47.1534 6.92637 46.6478 6.97383 46.0434 7.02155L46.1221 8.01845ZM47.6761 7.8727C48.1014 7.82362 48.3337 7.804 48.4108 7.804V6.804C48.2638 6.804 47.9681 6.83238 47.5614 6.8793L47.6761 7.8727ZM48.4108 7.804C48.4235 7.804 48.4117 7.80606 48.3864 7.79554C48.3581 7.78375 48.3296 7.76296 48.3083 7.73635L49.0892 7.11165C48.9071 6.88401 48.6491 6.804 48.4108 6.804V7.804ZM48.3452 7.77755C48.3161 7.74847 48.302 7.71897 48.2964 7.70211C48.2916 7.68768 48.2948 7.68818 48.2948 7.712H49.2948C49.2948 7.50693 49.2431 7.26129 49.0523 7.07045L48.3452 7.77755ZM48.2948 7.712C48.2948 7.71993 48.2851 7.83938 48.0024 8.06557L48.6271 8.84643C48.9844 8.56062 49.2948 8.18407 49.2948 7.712H48.2948ZM48.0024 8.06557C47.7335 8.28067 47.3839 8.47275 46.9426 8.63456L47.2869 9.57344C47.8056 9.38326 48.256 9.14333 48.6271 8.84643L48.0024 8.06557ZM46.9374 8.6365C46.519 8.7952 46.1168 8.87846 45.7289 8.89232L45.7646 9.89168C46.2727 9.87354 46.7825 9.7648 47.2921 9.5715L46.9374 8.6365ZM45.7389 8.89206L42.6669 8.94006L42.6826 9.93994L45.7546 9.89194L45.7389 8.89206ZM52.6872 16.664L52.9142 16.2185L52.6872 16.664ZM51.5353 13.856L51.0644 13.6878L51.5353 13.856ZM52.5433 13.808L52.2549 14.2165L52.5433 13.808ZM53.5272 14.456L53.2622 14.8801L53.27 14.8847L53.5272 14.456ZM54.8473 15.104L54.6615 15.5683L54.6668 15.5703L54.8473 15.104ZM58.4712 14.864L58.7545 15.276L58.7571 15.2742L58.4712 14.864ZM58.7593 11.552L59.1285 11.2149L58.7593 11.552ZM57.2472 10.352L57.5176 9.9314L57.5153 9.92989L57.2472 10.352ZM55.7352 9.392L55.4636 9.8118L55.4672 9.81411L55.7352 9.392ZM53.1673 6.992L52.7227 7.221L52.7257 7.22658L53.1673 6.992ZM53.5272 2.456L53.9316 2.75009L53.5272 2.456ZM55.6393 0.848L55.4493 0.385489L55.6393 0.848ZM61.1113 0.511999L60.9797 0.994381C60.9843 0.995627 60.9888 0.996808 60.9935 0.997924L61.1113 0.511999ZM62.1432 1.064L61.7272 1.34135C61.7314 1.34756 61.7356 1.35367 61.74 1.35968L62.1432 1.064ZM62.2153 2.936L62.6494 3.18407C62.6518 3.17984 62.6541 3.17559 62.6564 3.17129L62.2153 2.936ZM60.7033 2.84L60.4796 3.28721C60.4864 3.2906 60.4933 3.29383 60.5002 3.2969L60.7033 2.84ZM59.6232 2.456L59.4651 2.93034C59.4713 2.93241 59.4776 2.93435 59.4838 2.93617L59.6232 2.456ZM56.3592 2.744L56.0635 2.34074L56.0571 2.34565L56.3592 2.744ZM56.1912 5.888L55.8226 6.22594L55.8299 6.23361L56.1912 5.888ZM57.6073 6.872L57.3885 7.32165L57.3936 7.32404L57.6073 6.872ZM58.9272 7.496L58.7136 7.94806L58.7177 7.94998L58.9272 7.496ZM60.6553 8.456L60.3779 8.87206L60.3836 8.87579L60.6553 8.456ZM61.9513 9.824L61.5171 10.0721C61.52 10.077 61.5229 10.0819 61.5259 10.0867L61.9513 9.824ZM60.7033 15.944L61.011 16.3381L61.0143 16.3355L60.7033 15.944ZM55.9993 16.812C54.6865 16.812 53.6683 16.6026 52.9142 16.2185L52.4603 17.1095C53.4022 17.5893 54.592 17.812 55.9993 17.812V16.812ZM52.9142 16.2185C52.1599 15.8342 51.9152 15.4134 51.9152 14.984H50.9152C50.9152 15.9306 51.5186 16.6298 52.4603 17.1095L52.9142 16.2185ZM51.9152 14.984C51.9152 14.4606 51.9575 14.1604 52.0061 14.0242L51.0644 13.6878C50.953 13.9996 50.9152 14.4514 50.9152 14.984H51.9152ZM52.0061 14.0242C52.026 13.9685 52.0372 13.9718 52.0151 13.99C52.0035 13.9995 51.9882 14.0084 51.9713 14.0142C51.955 14.0197 51.9443 14.02 51.9432 14.02V13.02C51.7424 13.02 51.5452 13.0815 51.3794 13.218C51.2213 13.3482 51.1245 13.5195 51.0644 13.6878L52.0061 14.0242ZM51.9432 14.02C51.8963 14.02 51.8978 14.0067 51.9729 14.0428C52.0387 14.0743 52.1316 14.1294 52.2549 14.2165L52.8316 13.3995C52.6829 13.2946 52.5398 13.2057 52.4056 13.1412C52.2807 13.0813 52.1182 13.02 51.9432 13.02V14.02ZM52.2549 14.2165C52.5367 14.4154 52.8729 14.6367 53.2622 14.88L53.7922 14.032C53.4136 13.7953 53.0938 13.5846 52.8316 13.3995L52.2549 14.2165ZM53.27 14.8847C53.6952 15.1398 54.1594 15.3674 54.6616 15.5682L55.0329 14.6398C54.5751 14.4566 54.1593 14.2522 53.7845 14.0273L53.27 14.8847ZM54.6668 15.5703C55.2249 15.7864 55.8227 15.892 56.4552 15.892V14.892C55.9358 14.892 55.4616 14.8056 55.0277 14.6377L54.6668 15.5703ZM56.4552 15.892C57.3547 15.892 58.1352 15.7018 58.7545 15.276L58.188 14.452C57.7833 14.7302 57.2198 14.892 56.4552 14.892V15.892ZM58.7571 15.2742C59.4433 14.796 59.7633 14.0679 59.7633 13.184H58.7633C58.7633 13.8041 58.5552 14.196 58.1854 14.4538L58.7571 15.2742ZM59.7633 13.184C59.7633 12.3942 59.5795 11.7088 59.1285 11.2149L58.39 11.8891C58.611 12.1312 58.7633 12.5338 58.7633 13.184H59.7633ZM59.1285 11.2149C58.7512 10.8016 58.207 10.3746 57.5176 9.93141L56.9769 10.7726C57.6315 11.1934 58.0953 11.5664 58.39 11.8891L59.1285 11.2149ZM57.5153 9.92989L56.0033 8.96989L55.4672 9.81411L56.9792 10.7741L57.5153 9.92989ZM56.0069 8.97222C55.4769 8.62931 54.9964 8.28034 54.5646 7.92564L53.9299 8.69836C54.3941 9.07966 54.9056 9.45069 55.4636 9.81178L56.0069 8.97222ZM54.5646 7.92564C54.1676 7.59954 53.8498 7.21112 53.6088 6.75742L52.7257 7.22658C53.0287 7.79688 53.4309 8.28846 53.9299 8.69836L54.5646 7.92564ZM53.6117 6.76302C53.3866 6.32606 53.2593 5.74673 53.2593 5H52.2593C52.2593 5.85327 52.4039 6.60194 52.7228 7.22098L53.6117 6.76302ZM53.2593 5C53.2593 4.09832 53.4902 3.35699 53.9316 2.75009L53.1229 2.16191C52.5403 2.96301 52.2593 3.91768 52.2593 5H53.2593ZM53.9316 2.75009C54.3831 2.12925 55.009 1.6474 55.8292 1.31051L55.4493 0.385489C54.4775 0.784597 53.6954 1.37475 53.1229 2.16191L53.9316 2.75009ZM55.8292 1.31051C56.6547 0.971478 57.6123 0.796 58.7113 0.796V-0.204C57.5062 -0.204 56.4158 -0.0114803 55.4493 0.385489L55.8292 1.31051ZM58.7113 0.796C59.7727 0.796 60.5181 0.868505 60.9797 0.994381L61.2428 0.0296173C60.6484 -0.132506 59.7938 -0.204 58.7113 -0.204V0.796ZM60.9935 0.997924C61.4947 1.11943 61.6769 1.26585 61.7272 1.34135L62.5593 0.786649C62.2896 0.382147 61.7838 0.160564 61.229 0.0260744L60.9935 0.997924ZM61.74 1.35968C61.8483 1.50733 61.9072 1.68187 61.9072 1.904H62.9072C62.9072 1.48612 62.7902 1.10067 62.5465 0.768317L61.74 1.35968ZM61.9072 1.904C61.9072 2.31696 61.8461 2.56559 61.7741 2.7007L62.6564 3.17129C62.8404 2.82641 62.9072 2.38704 62.9072 1.904H61.9072ZM61.7811 2.68793C61.7589 2.72688 61.7397 2.7548 61.7246 2.77409C61.7093 2.79352 61.7005 2.80116 61.6994 2.80203C61.6986 2.80267 61.708 2.7948 61.7281 2.78676C61.7493 2.77827 61.7767 2.772 61.8073 2.772V3.772C62.2382 3.772 62.5032 3.43988 62.6494 3.18407L61.7811 2.68793ZM61.8073 2.772C61.7814 2.772 61.7154 2.76305 61.5989 2.70479L61.1516 3.59921C61.3551 3.70095 61.5771 3.772 61.8073 3.772V2.772ZM61.5989 2.70479C61.4289 2.61979 61.1969 2.51224 60.9063 2.38309L60.5002 3.2969C60.7856 3.42376 61.0016 3.52421 61.1516 3.59921L61.5989 2.70479ZM60.9269 2.39279C60.6603 2.25949 60.2639 2.12135 59.7627 1.97583L59.4838 2.93617C59.9746 3.07865 60.2982 3.19651 60.4796 3.28721L60.9269 2.39279ZM59.7814 1.98166C59.2482 1.80393 58.6906 1.716 58.1113 1.716V2.716C58.5879 2.716 59.0383 2.78807 59.4651 2.93034L59.7814 1.98166ZM58.1113 1.716C57.3341 1.716 56.6422 1.91645 56.0636 2.3408L56.6549 3.1472C57.0363 2.86755 57.5124 2.716 58.1113 2.716V1.716ZM56.0571 2.34565C55.442 2.81228 55.1632 3.50413 55.1632 4.328H56.1632C56.1632 3.74387 56.3485 3.37972 56.6614 3.14234L56.0571 2.34565ZM55.1632 4.328C55.1632 5.07536 55.3658 5.72748 55.8227 6.22586L56.5598 5.55014C56.3127 5.28052 56.1632 4.89264 56.1632 4.328H55.1632ZM55.8299 6.23361C56.2329 6.65495 56.758 7.01489 57.3885 7.32162L57.826 6.42238C57.2725 6.15311 56.8536 5.85705 56.5526 5.54239L55.8299 6.23361ZM57.3936 7.32404L58.7136 7.94804L59.1409 7.04396L57.8209 6.41996L57.3936 7.32404ZM58.7177 7.94998C59.3201 8.22799 59.8732 8.53555 60.3779 8.87202L60.9326 8.03997C60.3813 7.67245 59.7824 7.34 59.1368 7.04202L58.7177 7.94998ZM60.3836 8.87579C60.8608 9.18457 61.237 9.58181 61.5171 10.0721L62.3854 9.57593C62.0255 8.94619 61.5377 8.43143 60.9269 8.03621L60.3836 8.87579ZM61.5259 10.0867C61.7965 10.525 61.9552 11.1512 61.9552 12.008H62.9552C62.9552 11.0408 62.778 10.211 62.3766 9.56125L61.5259 10.0867ZM61.9552 12.008C61.9552 13.5751 61.4235 14.7332 60.3922 15.5525L61.0143 16.3355C62.319 15.2988 62.9552 13.8329 62.9552 12.008H61.9552ZM60.3955 15.5499C59.3405 16.3737 57.8923 16.812 55.9993 16.812V17.812C58.0422 17.812 59.7301 17.3383 61.011 16.3381L60.3955 15.5499Z" fill="white" mask="url(#path-1-outside-1_46_8836)"/>
</g>
<defs>
<filter id="filter0_d_46_8836" x="0.151978" y="0.296021" width="62.3032" height="19.088" filterUnits="userSpaceOnUse" color-interpolation-filters="sRGB">
<feFlood flood-opacity="0" result="BackgroundImageFix"/>
<feColorMatrix in="SourceAlpha" type="matrix" values="0 0 0 0 0 0 0 0 0 0 0 0 0 0 0 0 0 0 127 0" result="hardAlpha"/>
<feOffset dy="2"/>
<feComposite in2="hardAlpha" operator="out"/>
<feColorMatrix type="matrix" values="0 0 0 0 0 0 0 0 0 0 0 0 0 0 0 0 0 0 1 0"/>
<feBlend mode="normal" in2="BackgroundImageFix" result="effect1_dropShadow_46_8836"/>
<feBlend mode="normal" in="SourceGraphic" in2="effect1_dropShadow_46_8836" result="shape"/>
</filter>
</defs>
</svg>
