<svg width="165" height="169" viewBox="0 0 165 169" fill="none" xmlns="http://www.w3.org/2000/svg">
<g filter="url(#filter0_d_59_1594)">
<path d="M83.6079 32.0478C72.5775 32.0491 61.7951 35.3211 52.6242 41.4502C43.4534 47.5793 36.3059 56.2901 32.0856 66.4813C27.8653 76.6724 26.7617 87.8861 28.9143 98.7045C31.067 109.523 36.3794 119.46 44.1795 127.259C51.9796 135.058 61.9172 140.37 72.7358 142.521C83.5544 144.672 94.768 143.568 104.959 139.346C115.149 135.125 123.859 127.976 129.987 118.805C136.115 109.633 139.386 98.8504 139.386 87.82C139.385 73.0277 133.507 58.8419 123.047 48.3827C112.587 37.9236 98.4002 32.0478 83.6079 32.0478ZM83.6079 130.676C75.1314 130.677 66.845 128.165 59.7965 123.457C52.748 118.748 47.254 112.056 44.0094 104.225C40.7647 96.3939 39.9151 87.7767 41.568 79.463C43.221 71.1493 47.3021 63.5125 53.2954 57.5183C59.2887 51.5241 66.925 47.4418 75.2384 45.7877C83.5519 44.1336 92.1692 44.9819 100.001 48.2254C107.832 51.4689 114.525 56.9619 119.235 64.0097C123.944 71.0575 126.458 79.3436 126.458 87.82C126.458 99.1851 121.943 110.085 113.908 118.122C105.872 126.159 94.973 130.675 83.6079 130.676Z" fill="url(#paint0_linear_59_1594)"/>
<mask id="mask0_59_1594" style="mask-type:luminance" maskUnits="userSpaceOnUse" x="27" y="32" width="113" height="112">
<path d="M83.6079 32.0478C72.5775 32.0491 61.7951 35.3211 52.6242 41.4502C43.4534 47.5793 36.3059 56.2901 32.0856 66.4813C27.8653 76.6724 26.7617 87.8861 28.9143 98.7045C31.067 109.523 36.3794 119.46 44.1795 127.259C51.9796 135.058 61.9172 140.37 72.7358 142.521C83.5544 144.672 94.768 143.568 104.959 139.346C115.149 135.125 123.859 127.976 129.987 118.805C136.115 109.633 139.386 98.8504 139.386 87.82C139.385 73.0277 133.507 58.8419 123.047 48.3827C112.587 37.9236 98.4002 32.0478 83.6079 32.0478ZM83.6079 130.676C75.1314 130.677 66.845 128.165 59.7965 123.457C52.748 118.748 47.254 112.056 44.0094 104.225C40.7647 96.3939 39.9151 87.7767 41.568 79.463C43.221 71.1493 47.3021 63.5125 53.2954 57.5183C59.2887 51.5241 66.925 47.4418 75.2384 45.7877C83.5519 44.1336 92.1692 44.9819 100.001 48.2254C107.832 51.4689 114.525 56.9619 119.235 64.0097C123.944 71.0575 126.458 79.3436 126.458 87.82C126.458 99.1851 121.943 110.085 113.908 118.122C105.872 126.159 94.973 130.675 83.6079 130.676Z" fill="white"/>
</mask>
<g mask="url(#mask0_59_1594)">
<path fill-rule="evenodd" clip-rule="evenodd" d="M165.871 107.452L161.041 102.156L160.651 104.87L129.844 105.906L165.871 107.452Z" fill="#E6774F"/>
<path fill-rule="evenodd" clip-rule="evenodd" d="M25.549 83.944L36.0525 82.0343H54.0444L25.549 83.944Z" fill="#E6774F"/>
<path fill-rule="evenodd" clip-rule="evenodd" d="M110.665 139.986L63.7752 136.732L46.7257 138.874L110.665 139.986Z" fill="#801B34"/>
<g style="mix-blend-mode:multiply" opacity="0.2">
<path fill-rule="evenodd" clip-rule="evenodd" d="M20.5485 41.4521C20.5485 41.4521 45.2998 34.8622 69.3915 36.1563C93.4832 37.4504 103.56 39.5172 134.819 41.4521C166.079 43.3869 170.313 59.3622 170.313 59.3622L168.717 66.9007C168.717 66.9007 157.786 47.7655 125.647 42.8844C93.5083 38.0032 84.0538 39.6554 56.4128 39.1151C28.7717 38.5749 21.453 45.2339 21.453 45.2339L20.5485 41.4521Z" fill="url(#paint1_linear_59_1594)"/>
<path fill-rule="evenodd" clip-rule="evenodd" d="M22.8287 51.0449C22.8287 51.0449 31.6236 47.0056 73.9835 47.2757C116.344 47.5458 145.153 51.7988 152.126 60.5811C159.099 69.3634 151.222 82.7945 115.445 89.3844C79.6688 95.9743 27.779 96.6025 27.779 96.6025L27.6094 94.9377C27.6094 94.9377 86.51 96.1941 116.815 88.3478C147.119 80.5015 154.099 64.1556 147.126 58.4703C140.153 52.785 65.597 40.5225 23.526 54.0163L22.8287 51.0449Z" fill="url(#paint2_linear_59_1594)"/>
<path fill-rule="evenodd" clip-rule="evenodd" d="M27.4652 70.5505C27.4652 70.5505 92.5788 48.6764 129.863 66.0966C129.863 66.0966 126.376 80.4134 96.8129 80.4134C67.2495 80.4134 72.4071 69.9035 60.0063 67.4975C47.6055 65.0914 28.219 73.6476 28.219 73.6476L27.4652 70.5505Z" fill="url(#paint3_linear_59_1594)"/>
<path fill-rule="evenodd" clip-rule="evenodd" d="M28.6084 102.156C28.6084 102.156 131.936 93.3612 165.206 79.1449L164.697 82.0347C164.697 82.0347 94.5135 98.9962 28.6084 103.664V102.156Z" fill="url(#paint4_linear_59_1594)"/>
<path fill-rule="evenodd" clip-rule="evenodd" d="M29.6323 110.36C29.6323 110.36 133.965 109.28 163.026 91.4009L162.693 93.2856C162.693 93.2856 128.556 109.198 29.7768 111.617L29.6323 110.36Z" fill="url(#paint5_linear_59_1594)"/>
<path fill-rule="evenodd" clip-rule="evenodd" d="M32.0067 134.037C32.0067 134.037 116.488 103.883 163.409 116.768L162.567 121.794C162.567 121.794 144.035 111.585 92.0192 120.028C40.0037 128.471 34.8524 138.667 34.8524 138.667L32.4401 138.623L32.0067 134.037Z" fill="url(#paint6_linear_59_1594)"/>
<path fill-rule="evenodd" clip-rule="evenodd" d="M144.72 124.332C144.72 124.332 120.609 114.174 85.3042 127.259C85.3042 127.259 128.186 129.671 144.72 124.332Z" fill="url(#paint7_linear_59_1594)"/>
<path fill-rule="evenodd" clip-rule="evenodd" d="M105.457 139.622C105.457 139.622 139.751 134.546 162.215 124.187L161.945 126.115C161.945 126.115 132.664 135.362 107.09 139.936L105.457 139.622Z" fill="url(#paint8_linear_59_1594)"/>
<path fill-rule="evenodd" clip-rule="evenodd" d="M25.0338 61.9884C25.0338 61.9884 56.0734 48.928 96.888 51.0262C137.703 53.1244 143.79 63.0123 143.689 69.0808C143.589 75.1493 109.371 94.6928 26.9875 93.1411L27.0943 92.3245C27.0943 92.3245 71.9608 93.7442 106.745 85.565C141.528 77.3857 144.292 67.9123 138.607 61.3664C132.922 54.8205 81.095 43.5505 25.0338 61.9884Z" fill="url(#paint9_linear_59_1594)"/>
<path fill-rule="evenodd" clip-rule="evenodd" d="M103.472 99.6177C103.472 99.6177 123.882 98.6691 138.438 94.19L103.472 99.6177Z" fill="url(#paint10_linear_59_1594)"/>
<path fill-rule="evenodd" clip-rule="evenodd" d="M129.844 139.923L150.229 134.32L135.077 140.407L129.844 139.923Z" fill="url(#paint11_linear_59_1594)"/>
</g>
<path style="mix-blend-mode:multiply" opacity="0.2" fill-rule="evenodd" clip-rule="evenodd" d="M85.2222 63.7973C85.2222 63.7973 112.731 57.7288 122.286 67.9309C122.286 67.9309 111.959 77.354 93.615 76.0662C75.2714 74.7784 65.4589 66.0965 65.4589 66.0965C65.4589 66.0965 77.8848 75.9971 94.6768 74.8914C111.469 73.7858 112.342 61.473 85.2222 63.7973Z" fill="url(#paint12_linear_59_1594)"/>
<path fill-rule="evenodd" clip-rule="evenodd" d="M128.186 106.252L112.926 108.036L85.3042 108.431L128.186 106.252Z" fill="#DC634F"/>
<path fill-rule="evenodd" clip-rule="evenodd" d="M23.6455 56.3468L34.457 61.7054L24.28 59.0229L23.6455 56.3468Z" fill="#892334"/>
<path fill-rule="evenodd" clip-rule="evenodd" d="M54.0443 82.0342L166.751 76.1354L166.544 77.1279L54.0443 82.0342Z" fill="#892334"/>
<path opacity="0.2" fill-rule="evenodd" clip-rule="evenodd" d="M25.549 83.9438L166.544 77.1277L160.651 104.869L85.304 108.431L30.1977 115.549L25.549 83.9438Z" fill="#D9772F"/>
<path fill-rule="evenodd" clip-rule="evenodd" d="M30.1978 115.549L85.304 108.431L120.352 106.252L129.844 105.906L85.304 109.003L54.9302 113.564L30.1978 115.549Z" fill="#801B34"/>
<path style="mix-blend-mode:multiply" opacity="0.6" fill-rule="evenodd" clip-rule="evenodd" d="M105.457 139.622L63.7754 136.732L70.3213 139.283L105.457 139.622Z" fill="url(#paint13_linear_59_1594)"/>
<path opacity="0.4" fill-rule="evenodd" clip-rule="evenodd" d="M34.8466 138.667C34.8466 138.667 42.1337 126.85 94.6769 119.607C94.6769 119.607 50.0868 125.707 34.8466 138.667Z" fill="#D9772F"/>
<path opacity="0.4" fill-rule="evenodd" clip-rule="evenodd" d="M28.6084 103.663C28.6084 103.663 68.9707 100.434 105.476 93.9576C105.457 93.9576 81.7547 99.8754 28.6084 103.663Z" fill="#D9772F"/>
<path opacity="0.4" fill-rule="evenodd" clip-rule="evenodd" d="M108.391 93.4425C108.391 93.4425 156.291 84.8486 165.721 81.5379L165.363 82.6184C165.363 82.6184 129.291 90.0187 108.391 93.4425Z" fill="#D9772F"/>
<path fill-rule="evenodd" clip-rule="evenodd" d="M79.983 80.9034L89.4187 82.0342L102.787 79.9109L79.983 80.9034Z" fill="#E6774F"/>
<path fill-rule="evenodd" clip-rule="evenodd" d="M79.983 80.9033L87.9612 80.9725L102.787 79.9108L90.7756 78.736L79.983 80.9033Z" fill="#892334"/>
<path fill-rule="evenodd" clip-rule="evenodd" d="M137.068 78.554L143.689 81.538L137.916 78.265L137.068 78.554Z" fill="#892334"/>
<path fill-rule="evenodd" clip-rule="evenodd" d="M54.8738 112.364L62.2301 108.431L56.6579 112.138L54.8738 112.364Z" fill="#892334"/>
<path fill-rule="evenodd" clip-rule="evenodd" d="M117.254 133.673L122.249 130.4L131.848 130.054L122.286 131.304L117.254 133.673Z" fill="#801B34"/>
<path fill-rule="evenodd" clip-rule="evenodd" d="M71.4397 104.806L73.4248 103.663H78.6578L71.4397 104.806Z" fill="#801B34"/>
<path fill-rule="evenodd" clip-rule="evenodd" d="M130.767 25.2692L139.801 29.4907L144.374 36.156L149.023 40.1137L141.472 34.9498L132.878 29.8237L130.767 25.2692Z" fill="#A73234"/>
<path fill-rule="evenodd" clip-rule="evenodd" d="M149.023 40.1137L142.439 34.9498L132.3 28.5673L130.767 25.2692L139.801 29.4907L143.689 35.1509L149.023 40.1137Z" fill="#892334"/>
<path fill-rule="evenodd" clip-rule="evenodd" d="M118.454 133.107L130.409 130.243L122.287 131.304L118.454 133.107Z" fill="#DC634F"/>
<path fill-rule="evenodd" clip-rule="evenodd" d="M71.4397 104.806L75.0456 105.303L78.6578 103.663L71.4397 104.806Z" fill="#DC634F"/>
<path fill-rule="evenodd" clip-rule="evenodd" d="M56.6577 112.138L62.2299 108.431L58.1214 111.943L56.6577 112.138Z" fill="#DC634F"/>
<path fill-rule="evenodd" clip-rule="evenodd" d="M136.785 78.4284L141.202 80.4135L135.077 78.5226L136.785 78.4284Z" fill="#DC634F"/>
<path fill-rule="evenodd" clip-rule="evenodd" d="M24.2799 59.0229L23.2183 59.7893L34.4569 61.7053L24.2799 59.0229Z" fill="#E6774F"/>
<path fill-rule="evenodd" clip-rule="evenodd" d="M37.8618 100.309L39.7967 99.6175H44.9229L37.8618 100.309Z" fill="#801B34"/>
<path fill-rule="evenodd" clip-rule="evenodd" d="M37.8618 119.984L40.6574 119.23H41.7316L38.8041 119.984H37.8618Z" fill="#801B34"/>
<path fill-rule="evenodd" clip-rule="evenodd" d="M34.3942 120.575L35.9459 121.146H34.8465L34.3942 120.575Z" fill="#801B34"/>
<path fill-rule="evenodd" clip-rule="evenodd" d="M28.0682 44.5236L29.1299 44.1656L30.3172 44.3477L29.5759 44.9571L28.0682 44.5236Z" fill="#892334"/>
<path fill-rule="evenodd" clip-rule="evenodd" d="M50.3254 41.8667L51.0668 40.9809L53.8246 41.8667L53.0896 43.2927H51.2615L50.3254 41.8667Z" fill="#892334"/>
<path fill-rule="evenodd" clip-rule="evenodd" d="M57.4742 44.1846L57.8198 43.8391L59.3023 44.5615L58.3537 45.1709L57.4742 44.505V44.1846Z" fill="#892334"/>
<path fill-rule="evenodd" clip-rule="evenodd" d="M50.3254 41.8669L51.249 43.0102L52.7817 43.1861H53.1462L53.0896 43.2929L51.2615 43.406L50.3254 41.8669Z" fill="#F2774F"/>
<path fill-rule="evenodd" clip-rule="evenodd" d="M57.4742 44.5051L58.0962 44.882H58.7244L59.3023 44.5616L58.5422 45.171H58.3537L57.4742 44.5051Z" fill="#F2774F"/>
<path fill-rule="evenodd" clip-rule="evenodd" d="M28.0682 44.5239L28.9854 44.9574L29.9466 45.0893L30.3172 44.348L29.689 44.7186L28.0682 44.5239Z" fill="#F2774F"/>
<path fill-rule="evenodd" clip-rule="evenodd" d="M67.9092 121.146L68.4682 120.983L74.455 119.23L84.3619 118.307L67.9092 121.146Z" fill="#801B34"/>
<path fill-rule="evenodd" clip-rule="evenodd" d="M140.379 47.2504L132.752 45.171L122.286 45.0894C128.356 45.4366 134.398 46.1583 140.379 47.2504Z" fill="#892334"/>
<path fill-rule="evenodd" clip-rule="evenodd" d="M25.5424 83.975L28.0552 91.4381L34.375 93.2724L28.2122 93.4735L29.1734 99.9942L30.1785 115.58C30.1785 115.58 27.3516 92.6442 25.5424 83.975Z" fill="#982F34"/>
<path fill-rule="evenodd" clip-rule="evenodd" d="M32.0067 134.037L46.3612 129.395L32.3271 135.74L32.0067 134.037Z" fill="#801B34"/>
<path fill-rule="evenodd" clip-rule="evenodd" d="M30.1978 115.549L32.4593 129.395L32.4341 138.623L30.1978 115.549Z" fill="#801B34"/>
<path fill-rule="evenodd" clip-rule="evenodd" d="M50.4763 33.4423L55.169 38.6062L52.0782 33.3669L50.4763 33.4423Z" fill="#B64034"/>
<path fill-rule="evenodd" clip-rule="evenodd" d="M51.1484 34.1837L51.7389 35.9867L55.169 38.6063L51.1484 34.1837Z" fill="#F2774F"/>
<path fill-rule="evenodd" clip-rule="evenodd" d="M27.8167 74.4394H42.1649L96.7938 74.697L46.9895 76.1356L27.8167 74.4394Z" fill="#9D2B34"/>
<path fill-rule="evenodd" clip-rule="evenodd" d="M27.8167 74.4394L46.9895 75.2875L96.7938 74.697L27.8167 74.4394Z" fill="#7A1C34"/>
<path fill-rule="evenodd" clip-rule="evenodd" d="M26.906 91.7337L28.0682 91.407L34.0361 93.1409L28.131 91.8908L26.906 91.7337Z" fill="#7A1C34"/>
</g>
<path d="M83.608 37.8147C73.7191 37.8135 64.0519 40.7446 55.8289 46.2376C47.606 51.7305 41.1965 59.5384 37.411 68.6741C33.6256 77.8097 32.6342 87.8627 34.5622 97.5618C36.4902 107.261 41.251 116.17 48.2426 123.164C55.2342 130.157 64.1426 134.92 73.8412 136.851C83.5398 138.781 93.593 137.792 102.73 134.009C111.866 130.226 119.676 123.818 125.171 115.597C130.666 107.375 133.599 97.7088 133.601 87.8199C133.601 74.5599 128.334 61.8428 118.959 52.4653C109.584 43.0879 96.868 37.818 83.608 37.8147ZM83.608 130.676C75.1316 130.677 66.8451 128.165 59.7966 123.457C52.7481 118.748 47.2542 112.056 44.0095 104.225C40.7649 96.3938 39.9152 87.7767 41.5681 79.4629C43.2211 71.1492 47.3022 63.5124 53.2955 57.5182C59.2888 51.524 66.9251 47.4418 75.2385 45.7876C83.552 44.1335 92.1693 44.9818 100.001 48.2253C107.832 51.4688 114.526 56.9618 119.235 64.0096C123.944 71.0574 126.458 79.3435 126.458 87.8199C126.458 99.185 121.944 110.085 113.908 118.122C105.872 126.159 94.9731 130.675 83.608 130.676Z" fill="#6B172C"/>
<g style="mix-blend-mode:multiply" opacity="0.5">
<path d="M37.5162 119.237C37.5162 119.237 60.8352 139.339 86.2085 137.712C111.582 136.085 131.678 116.114 131.678 116.114C131.678 116.114 117.569 143.58 84.5626 143.58C51.5566 143.58 37.5162 119.237 37.5162 119.237Z" fill="#BE2F55"/>
</g>
<g style="mix-blend-mode:multiply" opacity="0.3">
<path d="M29.2743 75.1805C32.3148 65.8893 33.7659 94.5921 34.2559 102.225C34.6108 107.225 35.2399 112.201 36.1406 117.132C36.1406 117.132 23.4822 98.4241 29.2743 75.1805Z" fill="#BE2F55"/>
</g>
<path d="M83.4772 132.663C108.284 132.663 128.394 112.553 128.394 87.7462C128.394 62.9393 108.284 42.8294 83.4772 42.8294C58.6704 42.8294 38.5604 62.9393 38.5604 87.7462C38.5604 112.553 58.6704 132.663 83.4772 132.663Z" fill="url(#paint14_linear_59_1594)"/>
<path d="M82.6343 32.739H82.5401H82.4962C64.8247 35.2958 50.1498 45.0456 37.0894 56.3344C34.0426 58.9729 27.0381 54.1671 25.2288 51.5098C23.4196 48.8525 33.5777 50.668 43.2332 44.3608C54.0321 37.3061 65.7042 31.6396 77.8411 26.771C77.8411 26.771 77.8725 26.771 77.8914 26.771C78.7457 26.3313 79.2797 25.9418 79.4179 25.5712C80.3665 23.0583 82.0941 29.9686 82.5212 32.1297C82.5778 32.5066 82.6343 32.739 82.6343 32.739Z" fill="url(#paint15_linear_59_1594)"/>
<path d="M127.934 56.3342C114.874 45.0265 100.205 35.2955 82.5275 32.7387H82.4835H82.3893L82.5087 32.1105C82.9233 29.9621 84.6508 23.0078 85.6057 25.5521C85.7879 26.0358 86.6485 26.5572 87.974 27.1666L88.1122 27.2294C99.9234 31.7237 111.215 37.4801 121.79 44.3983C129.084 49.1538 136.534 49.2669 139.116 50.2155C139.946 50.517 140.241 50.8939 139.789 51.541C137.967 54.1732 131.006 58.9852 127.934 56.3342Z" fill="url(#paint16_linear_59_1594)"/>
<g style="mix-blend-mode:multiply" opacity="0.5">
<path d="M35.5879 57.0253C33.0248 57.5781 34.2435 48.0859 54.3713 39.4355C74.499 30.7851 82.6406 32.7577 82.6406 32.7577C97.2652 33.3859 110.589 39.4669 122.896 46.0693C129.266 49.4868 129.253 56.8557 129.253 56.8557C127.262 55.8649 125.422 54.5958 123.788 53.0864C112.524 43.0916 98.3457 36.1939 83.0803 35.9301C62.5316 35.528 47.2725 54.4873 35.5879 57.0253Z" fill="#BE2F55"/>
</g>
<path d="M139.122 50.1967C138.179 50.8635 137.136 51.3766 136.032 51.717C134.065 52.3452 129.216 50.0648 114.472 41.383C100.877 33.3796 89.8145 28.1467 88.0869 27.2421C99.9062 31.7308 111.206 37.4829 121.79 44.3984C129.084 49.1539 136.534 49.267 139.116 50.2156L139.122 50.1967Z" fill="#FF8B3E"/>
<path d="M77.8282 26.8083C76.019 28.1841 72.9345 30.6906 70.1327 31.9093C58.825 36.8156 46.7571 43.2171 36.7687 51.2455C31.5797 55.4294 25.2159 51.5345 25.2159 51.5345C23.3816 48.8898 33.5648 50.6927 43.2204 44.3855C54.0192 37.3182 65.6724 31.6518 77.8282 26.8083Z" fill="#FF8B3E"/>
<g style="mix-blend-mode:multiply" opacity="0.5">
<path d="M84.305 25.8976C85.3981 24.6412 85.3981 33.367 85.3981 33.367C84.2987 33.0906 83.7396 32.9649 82.6277 32.7388C82.634 32.7388 83.5386 26.8085 84.305 25.8976Z" fill="#BE2F55"/>
</g>
<g style="mix-blend-mode:multiply" opacity="0.5">
<path d="M80.6301 25.7721C80.0019 24.6288 79.3297 33.3106 79.3297 33.3106C80.5861 33.0656 81.2143 32.9588 82.5273 32.7829C82.5273 32.7515 81.3212 26.9846 80.6301 25.7721Z" fill="#BE2F55"/>
</g>
<g filter="url(#filter1_d_59_1594)">
<mask id="path-70-outside-1_59_1594" maskUnits="userSpaceOnUse" x="53" y="76" width="59" height="23" fill="black">
<rect fill="white" x="53" y="76" width="59" height="23"/>
<path d="M59.9079 97.371C58.2906 97.371 56.9777 97.1142 55.9693 96.6004C54.9609 96.0867 54.4566 95.4208 54.4566 94.6026C54.4566 93.9747 54.5042 93.5276 54.5994 93.2612C54.6945 92.9948 54.8562 92.8616 55.0845 92.8616C55.2368 92.8616 55.4746 92.9758 55.7981 93.2041C56.1215 93.4324 56.5116 93.6893 56.9682 93.9747C57.4439 94.2601 57.9671 94.517 58.5379 94.7453C59.1278 94.9736 59.7652 95.0878 60.4502 95.0878C61.4396 95.0878 62.2387 94.8785 62.8476 94.4599C63.4755 94.0223 63.7894 93.3563 63.7894 92.4621C63.7894 91.6058 63.5896 90.9589 63.1901 90.5213C62.7905 90.0837 62.1911 89.608 61.392 89.0943L59.5939 87.9526C58.947 87.5341 58.3572 87.1059 57.8244 86.6683C57.2917 86.2307 56.8636 85.7075 56.5401 85.0986C56.2166 84.4707 56.0549 83.6811 56.0549 82.7297C56.0549 81.5501 56.3594 80.5416 56.9682 79.7044C57.5771 78.8672 58.4143 78.2298 59.4798 77.7922C60.5453 77.3546 61.763 77.1358 63.133 77.1358C64.4078 77.1358 65.3591 77.2214 65.987 77.3926C66.6149 77.5449 67.024 77.7637 67.2143 78.0491C67.4236 78.3345 67.5282 78.6675 67.5282 79.048C67.5282 79.5808 67.4521 79.9898 67.2999 80.2752C67.1477 80.5416 66.9859 80.6748 66.8147 80.6748C66.6625 80.6748 66.4912 80.6272 66.301 80.5321C66.1107 80.437 65.8443 80.3133 65.5018 80.1611C65.2355 80.0279 64.8074 79.8757 64.2175 79.7044C63.6467 79.5142 63.0474 79.419 62.4195 79.419C61.6013 79.419 60.9068 79.6283 60.336 80.0469C59.7842 80.4655 59.5083 81.0934 59.5083 81.9306C59.5083 82.7107 59.7176 83.3291 60.1362 83.7857C60.5548 84.2233 61.1161 84.6134 61.8201 84.9559L63.3898 85.6979C64.1319 86.0404 64.8169 86.421 65.4448 86.8396C66.0917 87.2582 66.6054 87.8004 66.9859 88.4664C67.3855 89.1133 67.5853 89.979 67.5853 91.0636C67.5853 93.0804 66.8908 94.6406 65.5018 95.7442C64.1129 96.8288 62.2482 97.371 59.9079 97.371ZM70.7207 97.2283C70.3973 97.2283 70.169 97.0761 70.0358 96.7717C69.9026 96.4672 69.836 96.0582 69.836 95.5444C69.836 95.1639 69.8645 94.7358 69.9216 94.2601L71.7197 77.5924H77.0282C79.3685 77.5924 81.119 77.9825 82.2797 78.7626C83.4403 79.5427 84.0206 80.8365 84.0206 82.6441C84.0206 83.7477 83.7638 84.7561 83.25 85.6694C82.7553 86.5827 82.1084 87.3723 81.3093 88.0383C80.5292 88.7042 79.692 89.2179 78.7977 89.5795C77.9034 89.941 77.0663 90.1217 76.2862 90.1217C76.0769 90.1217 75.839 90.0551 75.5726 89.9219C75.3253 89.7888 75.1065 89.6175 74.9162 89.4082C74.745 89.1989 74.6593 88.9896 74.6593 88.7803C74.6593 88.571 74.7259 88.4283 74.8591 88.3522C74.9923 88.2571 75.135 88.2 75.2872 88.181C76.1434 88.0097 76.9426 87.7148 77.6846 87.2962C78.4457 86.8586 79.0546 86.2878 79.5112 85.5838C79.9869 84.8608 80.2247 84.0045 80.2247 83.0151C80.2247 82.1589 80.0154 81.493 79.5969 81.0173C79.1973 80.5416 78.6074 80.2086 77.8273 80.0184C77.0472 79.8281 76.0769 79.733 74.9162 79.733L73.0325 97.2283H70.7207ZM86.9235 97.2283C86.6571 97.2283 86.4383 97.1142 86.2671 96.8858C86.1149 96.6575 86.0007 96.3626 85.9246 96.0011C85.8485 95.6396 85.8104 95.2781 85.8104 94.9165C85.8104 94.1364 85.858 93.3849 85.9531 92.6618C86.0483 91.9388 86.1339 91.1587 86.21 90.3215L87.58 77.1643H89.5778C90.0725 77.1643 90.396 77.3546 90.5482 77.7351C90.7194 78.0966 90.805 78.5343 90.805 79.048C90.805 79.5046 90.786 79.9137 90.748 80.2752C90.7099 80.6368 90.6528 81.0744 90.5767 81.5881C90.5196 82.1018 90.4435 82.8058 90.3484 83.7001L88.9214 97.2283H86.9235ZM93.7679 97.3425C93.4635 97.3425 93.2637 97.1998 93.1685 96.9144C93.0734 96.629 93.0258 96.2865 93.0258 95.8869C93.0258 95.221 93.0639 94.517 93.14 93.7749C93.2161 93.0138 93.2922 92.2718 93.3683 91.5488L94.9381 77.1643L97.0215 77.1358C97.364 77.1358 97.6304 77.1833 97.8207 77.2785C98.03 77.3546 98.2583 77.6115 98.5056 78.0491C99.4189 79.6473 100.408 81.2361 101.474 82.8154C102.539 84.3756 103.557 85.8692 104.528 87.2962C105.498 88.7232 106.297 90.0266 106.925 91.2063L106.183 92.091L106.811 85.9548C106.963 84.4897 107.03 83.3101 107.011 82.4158C107.011 81.5215 106.963 80.827 106.868 80.3323C106.792 79.8186 106.706 79.419 106.611 79.1336C106.535 78.8482 106.497 78.5818 106.497 78.3345C106.497 78.1442 106.592 77.9825 106.782 77.8493C106.973 77.6971 107.21 77.5734 107.496 77.4783C107.781 77.3831 108.057 77.3165 108.324 77.2785C108.609 77.2214 108.847 77.1929 109.037 77.1929C109.399 77.1929 109.674 77.3831 109.865 77.7637C110.055 78.1442 110.15 78.5248 110.15 78.9053C110.15 79.2288 110.112 79.5998 110.036 80.0184C109.979 80.437 109.903 81.1124 109.808 82.0448L109.408 85.8121C109.218 87.6006 109.085 89.0657 109.009 90.2074C108.951 91.3299 108.923 92.2242 108.923 92.8902C108.923 93.5561 108.932 94.0984 108.951 94.517C108.99 94.9356 109.009 95.3256 109.009 95.6871C109.009 95.8964 108.904 96.1057 108.695 96.315C108.485 96.5053 108.219 96.6765 107.895 96.8288C107.572 96.981 107.258 97.0951 106.954 97.1712C106.649 97.2664 106.392 97.3139 106.183 97.3139C106.012 97.3139 105.86 97.2283 105.726 97.0571C105.593 96.8858 105.536 96.648 105.555 96.3436C105.574 96.0962 105.498 95.7823 105.327 95.4017C105.175 95.0022 104.994 94.5931 104.785 94.1745C104.575 93.7559 104.375 93.3944 104.185 93.0899C103.576 91.9864 102.815 90.7972 101.902 89.5224C101.008 88.2476 100.085 86.9157 99.1335 85.5267C98.1822 84.1377 97.326 82.7297 96.5649 81.3027L96.9644 81.2456L96.1938 88.6376C96.0607 89.9505 95.9846 91.035 95.9655 91.8912C95.9465 92.7284 95.9655 93.3944 96.0226 93.8891C96.0797 94.3838 96.1463 94.7643 96.2224 95.0307C96.2985 95.2971 96.3651 95.5159 96.4222 95.6871C96.4983 95.8394 96.5363 96.0106 96.5363 96.2009C96.5363 96.4102 96.4222 96.5909 96.1938 96.7431C95.9846 96.8763 95.7182 96.9905 95.3947 97.0856C95.0903 97.1808 94.7858 97.2474 94.4814 97.2854C94.177 97.3235 93.9391 97.3425 93.7679 97.3425Z"/>
</mask>
<path d="M59.9079 97.371C58.2906 97.371 56.9777 97.1142 55.9693 96.6004C54.9609 96.0867 54.4566 95.4208 54.4566 94.6026C54.4566 93.9747 54.5042 93.5276 54.5994 93.2612C54.6945 92.9948 54.8562 92.8616 55.0845 92.8616C55.2368 92.8616 55.4746 92.9758 55.7981 93.2041C56.1215 93.4324 56.5116 93.6893 56.9682 93.9747C57.4439 94.2601 57.9671 94.517 58.5379 94.7453C59.1278 94.9736 59.7652 95.0878 60.4502 95.0878C61.4396 95.0878 62.2387 94.8785 62.8476 94.4599C63.4755 94.0223 63.7894 93.3563 63.7894 92.4621C63.7894 91.6058 63.5896 90.9589 63.1901 90.5213C62.7905 90.0837 62.1911 89.608 61.392 89.0943L59.5939 87.9526C58.947 87.5341 58.3572 87.1059 57.8244 86.6683C57.2917 86.2307 56.8636 85.7075 56.5401 85.0986C56.2166 84.4707 56.0549 83.6811 56.0549 82.7297C56.0549 81.5501 56.3594 80.5416 56.9682 79.7044C57.5771 78.8672 58.4143 78.2298 59.4798 77.7922C60.5453 77.3546 61.763 77.1358 63.133 77.1358C64.4078 77.1358 65.3591 77.2214 65.987 77.3926C66.6149 77.5449 67.024 77.7637 67.2143 78.0491C67.4236 78.3345 67.5282 78.6675 67.5282 79.048C67.5282 79.5808 67.4521 79.9898 67.2999 80.2752C67.1477 80.5416 66.9859 80.6748 66.8147 80.6748C66.6625 80.6748 66.4912 80.6272 66.301 80.5321C66.1107 80.437 65.8443 80.3133 65.5018 80.1611C65.2355 80.0279 64.8074 79.8757 64.2175 79.7044C63.6467 79.5142 63.0474 79.419 62.4195 79.419C61.6013 79.419 60.9068 79.6283 60.336 80.0469C59.7842 80.4655 59.5083 81.0934 59.5083 81.9306C59.5083 82.7107 59.7176 83.3291 60.1362 83.7857C60.5548 84.2233 61.1161 84.6134 61.8201 84.9559L63.3898 85.6979C64.1319 86.0404 64.8169 86.421 65.4448 86.8396C66.0917 87.2582 66.6054 87.8004 66.9859 88.4664C67.3855 89.1133 67.5853 89.979 67.5853 91.0636C67.5853 93.0804 66.8908 94.6406 65.5018 95.7442C64.1129 96.8288 62.2482 97.371 59.9079 97.371ZM70.7207 97.2283C70.3973 97.2283 70.169 97.0761 70.0358 96.7717C69.9026 96.4672 69.836 96.0582 69.836 95.5444C69.836 95.1639 69.8645 94.7358 69.9216 94.2601L71.7197 77.5924H77.0282C79.3685 77.5924 81.119 77.9825 82.2797 78.7626C83.4403 79.5427 84.0206 80.8365 84.0206 82.6441C84.0206 83.7477 83.7638 84.7561 83.25 85.6694C82.7553 86.5827 82.1084 87.3723 81.3093 88.0383C80.5292 88.7042 79.692 89.2179 78.7977 89.5795C77.9034 89.941 77.0663 90.1217 76.2862 90.1217C76.0769 90.1217 75.839 90.0551 75.5726 89.9219C75.3253 89.7888 75.1065 89.6175 74.9162 89.4082C74.745 89.1989 74.6593 88.9896 74.6593 88.7803C74.6593 88.571 74.7259 88.4283 74.8591 88.3522C74.9923 88.2571 75.135 88.2 75.2872 88.181C76.1434 88.0097 76.9426 87.7148 77.6846 87.2962C78.4457 86.8586 79.0546 86.2878 79.5112 85.5838C79.9869 84.8608 80.2247 84.0045 80.2247 83.0151C80.2247 82.1589 80.0154 81.493 79.5969 81.0173C79.1973 80.5416 78.6074 80.2086 77.8273 80.0184C77.0472 79.8281 76.0769 79.733 74.9162 79.733L73.0325 97.2283H70.7207ZM86.9235 97.2283C86.6571 97.2283 86.4383 97.1142 86.2671 96.8858C86.1149 96.6575 86.0007 96.3626 85.9246 96.0011C85.8485 95.6396 85.8104 95.2781 85.8104 94.9165C85.8104 94.1364 85.858 93.3849 85.9531 92.6618C86.0483 91.9388 86.1339 91.1587 86.21 90.3215L87.58 77.1643H89.5778C90.0725 77.1643 90.396 77.3546 90.5482 77.7351C90.7194 78.0966 90.805 78.5343 90.805 79.048C90.805 79.5046 90.786 79.9137 90.748 80.2752C90.7099 80.6368 90.6528 81.0744 90.5767 81.5881C90.5196 82.1018 90.4435 82.8058 90.3484 83.7001L88.9214 97.2283H86.9235ZM93.7679 97.3425C93.4635 97.3425 93.2637 97.1998 93.1685 96.9144C93.0734 96.629 93.0258 96.2865 93.0258 95.8869C93.0258 95.221 93.0639 94.517 93.14 93.7749C93.2161 93.0138 93.2922 92.2718 93.3683 91.5488L94.9381 77.1643L97.0215 77.1358C97.364 77.1358 97.6304 77.1833 97.8207 77.2785C98.03 77.3546 98.2583 77.6115 98.5056 78.0491C99.4189 79.6473 100.408 81.2361 101.474 82.8154C102.539 84.3756 103.557 85.8692 104.528 87.2962C105.498 88.7232 106.297 90.0266 106.925 91.2063L106.183 92.091L106.811 85.9548C106.963 84.4897 107.03 83.3101 107.011 82.4158C107.011 81.5215 106.963 80.827 106.868 80.3323C106.792 79.8186 106.706 79.419 106.611 79.1336C106.535 78.8482 106.497 78.5818 106.497 78.3345C106.497 78.1442 106.592 77.9825 106.782 77.8493C106.973 77.6971 107.21 77.5734 107.496 77.4783C107.781 77.3831 108.057 77.3165 108.324 77.2785C108.609 77.2214 108.847 77.1929 109.037 77.1929C109.399 77.1929 109.674 77.3831 109.865 77.7637C110.055 78.1442 110.15 78.5248 110.15 78.9053C110.15 79.2288 110.112 79.5998 110.036 80.0184C109.979 80.437 109.903 81.1124 109.808 82.0448L109.408 85.8121C109.218 87.6006 109.085 89.0657 109.009 90.2074C108.951 91.3299 108.923 92.2242 108.923 92.8902C108.923 93.5561 108.932 94.0984 108.951 94.517C108.99 94.9356 109.009 95.3256 109.009 95.6871C109.009 95.8964 108.904 96.1057 108.695 96.315C108.485 96.5053 108.219 96.6765 107.895 96.8288C107.572 96.981 107.258 97.0951 106.954 97.1712C106.649 97.2664 106.392 97.3139 106.183 97.3139C106.012 97.3139 105.86 97.2283 105.726 97.0571C105.593 96.8858 105.536 96.648 105.555 96.3436C105.574 96.0962 105.498 95.7823 105.327 95.4017C105.175 95.0022 104.994 94.5931 104.785 94.1745C104.575 93.7559 104.375 93.3944 104.185 93.0899C103.576 91.9864 102.815 90.7972 101.902 89.5224C101.008 88.2476 100.085 86.9157 99.1335 85.5267C98.1822 84.1377 97.326 82.7297 96.5649 81.3027L96.9644 81.2456L96.1938 88.6376C96.0607 89.9505 95.9846 91.035 95.9655 91.8912C95.9465 92.7284 95.9655 93.3944 96.0226 93.8891C96.0797 94.3838 96.1463 94.7643 96.2224 95.0307C96.2985 95.2971 96.3651 95.5159 96.4222 95.6871C96.4983 95.8394 96.5363 96.0106 96.5363 96.2009C96.5363 96.4102 96.4222 96.5909 96.1938 96.7431C95.9846 96.8763 95.7182 96.9905 95.3947 97.0856C95.0903 97.1808 94.7858 97.2474 94.4814 97.2854C94.177 97.3235 93.9391 97.3425 93.7679 97.3425Z" fill="url(#paint17_linear_59_1594)"/>
<path d="M55.9693 96.6004L56.4232 95.7094L55.9693 96.6004ZM54.5994 93.2612L53.6576 92.9249H53.6576L54.5994 93.2612ZM55.7981 93.2041L55.2214 94.0211H55.2214L55.7981 93.2041ZM56.9682 93.9747L56.4382 94.8227C56.4434 94.8259 56.4485 94.8291 56.4537 94.8322L56.9682 93.9747ZM58.5379 94.7453L58.1665 95.6738L58.177 95.6779L58.5379 94.7453ZM62.8476 94.4599L63.4141 95.284L63.4194 95.2803L62.8476 94.4599ZM63.1901 90.5213L63.9285 89.847L63.1901 90.5213ZM61.392 89.0943L61.9328 88.2531L61.928 88.2501L61.392 89.0943ZM59.5939 87.9526L59.0507 88.7922L59.0579 88.7969L59.5939 87.9526ZM56.5401 85.0986L55.6511 85.5566L55.657 85.5677L56.5401 85.0986ZM56.9682 79.7044L57.777 80.2926H57.777L56.9682 79.7044ZM59.4798 77.7922L59.0999 76.8672L59.4798 77.7922ZM65.987 77.3926L65.7239 78.3574C65.733 78.3599 65.7422 78.3623 65.7514 78.3645L65.987 77.3926ZM67.2143 78.0491L66.3822 78.6038C66.3905 78.6162 66.399 78.6284 66.4079 78.6404L67.2143 78.0491ZM67.2999 80.2752L68.1681 80.7714C68.173 80.7629 68.1777 80.7544 68.1822 80.7458L67.2999 80.2752ZM65.5018 80.1611L65.0546 81.0555C65.0682 81.0623 65.0819 81.0687 65.0957 81.0749L65.5018 80.1611ZM64.2175 79.7044L63.9013 80.6531C63.9137 80.6572 63.9262 80.6611 63.9387 80.6648L64.2175 79.7044ZM60.336 80.0469L59.7446 79.2405C59.7403 79.2437 59.7359 79.247 59.7316 79.2502L60.336 80.0469ZM60.1362 83.7857L59.3991 84.4615C59.4038 84.4667 59.4087 84.4718 59.4136 84.477L60.1362 83.7857ZM61.8201 84.9559L61.3826 85.8552L61.3927 85.86L61.8201 84.9559ZM63.3898 85.6979L62.9624 86.6021L62.9708 86.6059L63.3898 85.6979ZM65.4448 86.8396L64.89 87.6717L64.9015 87.6791L65.4448 86.8396ZM66.9859 88.4664L66.1177 88.9625C66.1234 88.9724 66.1292 88.9822 66.1351 88.9919L66.9859 88.4664ZM65.5018 95.7442L66.1173 96.5324L66.1239 96.5272L65.5018 95.7442ZM59.9079 96.371C58.3852 96.371 57.2439 96.1275 56.4232 95.7094L55.5154 97.4915C56.7116 98.1009 58.196 98.371 59.9079 98.371V96.371ZM56.4232 95.7094C55.6022 95.2912 55.4566 94.9036 55.4566 94.6026H53.4566C53.4566 95.9379 54.3195 96.8822 55.5154 97.4915L56.4232 95.7094ZM55.4566 94.6026C55.4566 93.984 55.5087 93.6883 55.5411 93.5975L53.6576 92.9249C53.4998 93.3668 53.4566 93.9655 53.4566 94.6026H55.4566ZM55.5411 93.5975C55.5484 93.577 55.527 93.6517 55.4277 93.7334C55.313 93.8279 55.18 93.8616 55.0845 93.8616V91.8616C54.7607 91.8616 54.4327 91.962 54.1563 92.1896C53.8953 92.4045 53.7454 92.679 53.6576 92.9249L55.5411 93.5975ZM55.0845 93.8616C55.0018 93.8616 54.9479 93.8469 54.9339 93.8428C54.9178 93.8381 54.9202 93.8372 54.9443 93.8488C54.9948 93.873 55.085 93.9248 55.2214 94.0211L56.3747 92.3871C56.1876 92.2551 55.9972 92.1357 55.8098 92.0457C55.641 91.9647 55.3826 91.8616 55.0845 91.8616V93.8616ZM55.2214 94.0211C55.5644 94.2632 55.9709 94.5306 56.4382 94.8227L57.4982 93.1267C57.0522 92.8479 56.6786 92.6016 56.3747 92.3871L55.2214 94.0211ZM56.4537 94.8322C56.9797 95.1478 57.5515 95.4277 58.1666 95.6738L58.9093 93.8168C58.3828 93.6062 57.9081 93.3724 57.4827 93.1172L56.4537 94.8322ZM58.177 95.6779C58.8912 95.9543 59.652 96.0878 60.4502 96.0878V94.0878C59.8784 94.0878 59.3644 93.9929 58.8989 93.8127L58.177 95.6779ZM60.4502 96.0878C61.5745 96.0878 62.5905 95.8501 63.4141 95.2839L62.281 93.6358C61.8869 93.9068 61.3046 94.0878 60.4502 94.0878V96.0878ZM63.4194 95.2803C64.3636 94.6222 64.7894 93.6201 64.7894 92.4621H62.7894C62.7894 93.0926 62.5873 93.4224 62.2758 93.6395L63.4194 95.2803ZM64.7894 92.4621C64.7894 91.4662 64.5581 90.5365 63.9285 89.847L62.4516 91.1956C62.6212 91.3813 62.7894 91.7455 62.7894 92.4621H64.7894ZM63.9285 89.847C63.4463 89.3189 62.7666 88.7891 61.9328 88.2531L60.8512 89.9354C61.6157 90.4269 62.1346 90.8484 62.4516 91.1956L63.9285 89.847ZM61.928 88.2501L60.13 87.1084L59.0579 88.7969L60.856 89.9385L61.928 88.2501ZM60.1372 87.1131C59.5184 86.7127 58.9596 86.3066 58.4592 85.8956L57.1897 87.441C57.7548 87.9053 58.3757 88.3554 59.0507 88.7922L60.1372 87.1131ZM58.4592 85.8956C58.0284 85.5418 57.6847 85.1217 57.4232 84.6294L55.657 85.5677C56.0424 86.2932 56.5549 86.9196 57.1897 87.441L58.4592 85.8956ZM57.4291 84.6406C57.1994 84.1948 57.0549 83.5745 57.0549 82.7297H55.0549C55.0549 83.7876 55.2339 84.7466 55.6511 85.5565L57.4291 84.6406ZM57.0549 82.7297C57.0549 81.7307 57.3093 80.9356 57.777 80.2926L56.1595 79.1163C55.4094 80.1476 55.0549 81.3694 55.0549 82.7297H57.0549ZM57.777 80.2926C58.2648 79.6217 58.9457 79.0926 59.8597 78.7172L59.0999 76.8672C57.8829 77.367 56.8893 78.1127 56.1595 79.1163L57.777 80.2926ZM59.8597 78.7172C60.7841 78.3376 61.8692 78.1358 63.133 78.1358V76.1358C61.6569 76.1358 60.3064 76.3716 59.0999 76.8672L59.8597 78.7172ZM63.133 78.1358C64.3867 78.1358 65.2289 78.2224 65.7239 78.3574L66.2501 76.4279C65.4893 76.2204 64.4289 76.1358 63.133 76.1358V78.1358ZM65.7514 78.3645C66.0127 78.4278 66.1859 78.4953 66.2931 78.5527C66.4014 78.6106 66.405 78.6379 66.3822 78.6038L68.0463 77.4944C67.6367 76.88 66.9041 76.586 66.2226 76.4208L65.7514 78.3645ZM66.4079 78.6404C66.4817 78.7412 66.5282 78.8632 66.5282 79.048H68.5282C68.5282 78.4717 68.3654 77.9278 68.0207 77.4577L66.4079 78.6404ZM66.5282 79.048C66.5282 79.5107 66.4579 79.729 66.4175 79.8047L68.1822 80.7458C68.4463 80.2507 68.5282 79.6508 68.5282 79.048H66.5282ZM66.4317 79.7791C66.3903 79.8515 66.3833 79.8404 66.4287 79.803C66.4855 79.7562 66.6199 79.6748 66.8147 79.6748V81.6748C67.5599 81.6748 67.9796 81.1014 68.1681 80.7714L66.4317 79.7791ZM66.8147 79.6748C66.8427 79.6748 66.8524 79.6791 66.8398 79.6756C66.8268 79.672 66.7967 79.6619 66.7482 79.6377L65.8538 81.4265C66.131 81.5651 66.4581 81.6748 66.8147 81.6748V79.6748ZM66.7482 79.6377C66.5379 79.5326 66.2556 79.4018 65.908 79.2473L65.0957 81.0749C65.433 81.2248 65.6835 81.3414 65.8538 81.4265L66.7482 79.6377ZM65.9491 79.2667C65.5975 79.0909 65.0967 78.9184 64.4963 78.7441L63.9387 80.6648C64.518 80.833 64.8734 80.9649 65.0546 81.0555L65.9491 79.2667ZM64.5337 78.7557C63.8566 78.53 63.1501 78.419 62.4195 78.419V80.419C62.9446 80.419 63.4368 80.4983 63.9013 80.6531L64.5337 78.7557ZM62.4195 78.419C61.423 78.419 60.5128 78.6772 59.7446 79.2405L60.9274 80.8533C61.3009 80.5794 61.7796 80.419 62.4195 80.419V78.419ZM59.7316 79.2502C58.8776 79.8981 58.5083 80.8537 58.5083 81.9306H60.5083C60.5083 81.3331 60.6908 81.0329 60.9404 80.8436L59.7316 79.2502ZM58.5083 81.9306C58.5083 82.8934 58.7708 83.776 59.3991 84.4615L60.8734 83.11C60.6645 82.8821 60.5083 82.528 60.5083 81.9306H58.5083ZM59.4136 84.477C59.9342 85.0212 60.6017 85.4752 61.3826 85.8551L62.2576 84.0567C61.6306 83.7516 61.1754 83.4255 60.8589 83.0945L59.4136 84.477ZM61.3927 85.86L62.9625 86.602L63.8172 84.7939L62.2475 84.0518L61.3927 85.86ZM62.9708 86.6059C63.6696 86.9284 64.3087 87.2841 64.8901 87.6716L65.9995 86.0075C65.325 85.5579 64.5942 85.1524 63.8089 84.79L62.9708 86.6059ZM64.9015 87.6791C65.4148 88.0113 65.8169 88.436 66.1177 88.9625L67.8542 87.9702C67.394 87.1648 66.7685 86.505 65.988 86L64.9015 87.6791ZM66.1351 88.9919C66.4041 89.4273 66.5853 90.0895 66.5853 91.0636H68.5853C68.5853 89.8685 68.367 88.7993 67.8367 87.9409L66.1351 88.9919ZM66.5853 91.0636C66.5853 92.8227 65.9953 94.075 64.8798 94.9613L66.1239 96.5272C67.7863 95.2063 68.5853 93.3382 68.5853 91.0636H66.5853ZM64.8864 94.956C63.7233 95.8642 62.0983 96.371 59.9079 96.371V98.371C62.3981 98.371 64.5025 97.7933 66.1173 96.5324L64.8864 94.956ZM70.0358 96.7717L70.9519 96.3709L70.0358 96.7717ZM69.9216 94.2601L70.9146 94.3793L70.9158 94.3674L69.9216 94.2601ZM71.7197 77.5924V76.5924C71.2089 76.5924 70.7802 76.9774 70.7254 77.4852L71.7197 77.5924ZM82.2797 78.7626L82.8375 77.9326H82.8375L82.2797 78.7626ZM83.25 85.6694L82.3785 85.1791C82.3759 85.1838 82.3733 85.1884 82.3708 85.1931L83.25 85.6694ZM81.3093 88.0383L80.6691 87.27L80.66 87.2777L81.3093 88.0383ZM78.7977 89.5795L78.4229 88.6523H78.4229L78.7977 89.5795ZM75.5726 89.9219L75.0985 90.8024C75.1074 90.8072 75.1164 90.8119 75.1254 90.8164L75.5726 89.9219ZM74.9162 89.4082L74.1422 90.0415C74.1532 90.0549 74.1646 90.068 74.1763 90.0809L74.9162 89.4082ZM74.8591 88.3522L75.3553 89.2205C75.3845 89.2037 75.4129 89.1855 75.4404 89.1659L74.8591 88.3522ZM75.2872 88.181L75.4113 89.1733C75.4354 89.1702 75.4595 89.1663 75.4833 89.1616L75.2872 88.181ZM77.6846 87.2962L78.176 88.1672L78.1831 88.1631L77.6846 87.2962ZM79.5112 85.5838L78.6758 85.0342L78.6723 85.0396L79.5112 85.5838ZM79.5969 81.0173L78.8312 81.6605C78.8361 81.6664 78.8411 81.6722 78.8461 81.6779L79.5969 81.0173ZM77.8273 80.0184L78.0643 79.0469L77.8273 80.0184ZM74.9162 79.733V78.733C74.4054 78.733 73.9766 79.118 73.922 79.6259L74.9162 79.733ZM73.0325 97.2283V98.2283C73.5434 98.2283 73.9721 97.8433 74.0268 97.3354L73.0325 97.2283ZM70.7207 96.2283C70.7204 96.2283 70.7839 96.2303 70.8616 96.2821C70.9375 96.3327 70.9581 96.385 70.9519 96.3709L69.1196 97.1725C69.2466 97.4628 69.448 97.7434 69.7522 97.9462C70.0582 98.1502 70.3976 98.2283 70.7207 98.2283V96.2283ZM70.9519 96.3709C70.8959 96.2428 70.836 95.9878 70.836 95.5444H68.836C68.836 96.1285 68.9093 96.6917 69.1196 97.1725L70.9519 96.3709ZM70.836 95.5444C70.836 95.2123 70.861 94.825 70.9145 94.3793L68.9287 94.141C68.8681 94.6466 68.836 95.1154 68.836 95.5444H70.836ZM70.9158 94.3674L72.7139 77.6997L70.7254 77.4852L68.9274 94.1529L70.9158 94.3674ZM71.7197 78.5924H77.0282V76.5924H71.7197V78.5924ZM77.0282 78.5924C79.29 78.5924 80.8035 78.9753 81.7218 79.5925L82.8375 77.9326C81.4345 76.9896 79.4471 76.5924 77.0282 76.5924V78.5924ZM81.7218 79.5925C82.5265 80.1334 83.0206 81.0606 83.0206 82.6441H85.0206C85.0206 80.6125 84.3542 78.952 82.8375 77.9326L81.7218 79.5925ZM83.0206 82.6441C83.0206 83.5854 82.8035 84.4236 82.3785 85.1791L84.1216 86.1597C84.7241 85.0886 85.0206 83.9099 85.0206 82.6441H83.0206ZM82.3708 85.1931C81.9366 85.9946 81.3709 86.6852 80.6691 87.27L81.9495 88.8065C82.846 88.0594 83.5741 87.1708 84.1293 86.1457L82.3708 85.1931ZM80.66 87.2777C79.9566 87.8782 79.2112 88.3337 78.4229 88.6523L79.1725 90.5066C80.1728 90.1022 81.1017 89.5303 81.9585 88.7988L80.66 87.2777ZM78.4229 88.6523C77.6205 88.9767 76.9114 89.1217 76.2861 89.1217V91.1217C77.2212 91.1217 78.1864 90.9052 79.1725 90.5066L78.4229 88.6523ZM76.2861 89.1217C76.2873 89.1217 76.2669 89.1218 76.2204 89.1088C76.1737 89.0957 76.1073 89.0713 76.0198 89.0275L75.1254 90.8164C75.4758 90.9916 75.8701 91.1217 76.2861 91.1217V89.1217ZM76.0467 89.0415C75.8998 88.9624 75.7707 88.8616 75.6561 88.7355L74.1763 90.0809C74.4422 90.3734 74.7507 90.6151 75.0985 90.8024L76.0467 89.0415ZM75.6902 88.775C75.6555 88.7326 75.6478 88.7124 75.6491 88.7156C75.6499 88.7176 75.6526 88.7248 75.6551 88.7369C75.6576 88.7492 75.6593 88.764 75.6593 88.7803H73.6593C73.6593 89.2807 73.8682 89.7065 74.1422 90.0415L75.6902 88.775ZM75.6593 88.7803C75.6593 88.7806 75.6593 88.7843 75.6587 88.7911C75.6582 88.7978 75.6569 88.8082 75.6544 88.8217C75.6493 88.8486 75.6385 88.8899 75.6155 88.9392C75.5639 89.0498 75.4731 89.1531 75.3553 89.2205L74.363 87.484C73.8082 87.801 73.6593 88.3601 73.6593 88.7803H75.6593ZM75.4404 89.1659C75.4461 89.1619 75.445 89.1635 75.4374 89.1665C75.4296 89.1697 75.4202 89.1721 75.4113 89.1733L75.1632 87.1887C74.8351 87.2297 74.5369 87.3534 74.2779 87.5385L75.4404 89.1659ZM75.4833 89.1616C76.4405 88.9701 77.3396 88.639 78.176 88.1672L77.1933 86.4252C76.5455 86.7906 75.8464 87.0493 75.0911 87.2004L75.4833 89.1616ZM78.1831 88.1631C79.0751 87.6502 79.8032 86.9712 80.3502 86.128L78.6723 85.0396C78.3059 85.6043 77.8163 86.067 77.1862 86.4293L78.1831 88.1631ZM80.3466 86.1334C80.9445 85.2247 81.2247 84.1711 81.2247 83.0151H79.2247C79.2247 83.838 79.0293 84.4968 78.6758 85.0342L80.3466 86.1334ZM81.2247 83.0151C81.2247 82.0019 80.9759 81.0706 80.3476 80.3567L78.8461 81.6779C79.055 81.9153 79.2247 82.3159 79.2247 83.0151H81.2247ZM80.3626 80.3741C79.7909 79.6935 78.9906 79.2728 78.0643 79.0469L77.5904 80.9899C78.2243 81.1445 78.6037 81.3897 78.8312 81.6605L80.3626 80.3741ZM78.0643 79.0469C77.1807 78.8313 76.1246 78.733 74.9162 78.733V80.733C76.0291 80.733 76.9138 80.8249 77.5904 80.9899L78.0643 79.0469ZM73.922 79.6259L72.0383 97.1213L74.0268 97.3354L75.9105 79.84L73.922 79.6259ZM73.0325 96.2283H70.7207V98.2283H73.0325V96.2283ZM86.2671 96.8858L85.435 97.4405C85.4453 97.4559 85.456 97.471 85.4671 97.4858L86.2671 96.8858ZM85.9246 96.0011L86.9032 95.7951L85.9246 96.0011ZM85.9531 92.6618L84.9617 92.5314L85.9531 92.6618ZM86.21 90.3215L85.2153 90.2179L85.2141 90.231L86.21 90.3215ZM87.58 77.1643V76.1643C87.0678 76.1643 86.6384 76.5513 86.5853 77.0608L87.58 77.1643ZM90.5482 77.7351L89.6197 78.1065C89.6274 78.1257 89.6356 78.1446 89.6444 78.1632L90.5482 77.7351ZM90.748 80.2752L91.7425 80.3799V80.3799L90.748 80.2752ZM90.5767 81.5881L89.5875 81.4416C89.5857 81.4536 89.5842 81.4656 89.5828 81.4777L90.5767 81.5881ZM90.3484 83.7001L89.354 83.5943L89.3539 83.5952L90.3484 83.7001ZM88.9214 97.2283V98.2283C89.433 98.2283 89.8622 97.8421 89.9158 97.3332L88.9214 97.2283ZM86.9235 96.2283C86.9288 96.2283 86.9423 96.2289 86.9617 96.2335C86.9814 96.2381 87.0023 96.2457 87.0222 96.2561C87.0645 96.2782 87.0771 96.2991 87.0671 96.2858L85.4671 97.4858C85.8115 97.9451 86.3171 98.2283 86.9235 98.2283V96.2283ZM87.0991 96.3311C87.0373 96.2384 86.9616 96.0726 86.9032 95.7951L84.9461 96.2071C85.0398 96.6526 85.1924 97.0766 85.435 97.4405L87.0991 96.3311ZM86.9032 95.7951C86.841 95.4998 86.8104 95.2073 86.8104 94.9165H84.8104C84.8104 95.3488 84.856 95.7793 84.9461 96.2071L86.9032 95.7951ZM86.8104 94.9165C86.8104 94.1771 86.8555 93.4692 86.9446 92.7923L84.9617 92.5314C84.8605 93.3005 84.8104 94.0958 84.8104 94.9165H86.8104ZM86.9446 92.7923C87.0417 92.0542 87.1288 91.2606 87.2059 90.412L85.2141 90.231C85.139 91.0568 85.0548 91.8234 84.9617 92.5314L86.9446 92.7923ZM87.2046 90.4251L88.5746 77.2679L86.5853 77.0608L85.2154 90.218L87.2046 90.4251ZM87.58 78.1643H89.5778V76.1643H87.58V78.1643ZM89.5778 78.1643C89.702 78.1643 89.7178 78.1886 89.6844 78.169C89.6671 78.1588 89.6486 78.1435 89.6337 78.1256C89.6194 78.1084 89.6166 78.0989 89.6197 78.1065L91.4767 77.3637C91.3263 76.9879 91.069 76.6631 90.6984 76.4451C90.3416 76.2352 89.9483 76.1643 89.5778 76.1643V78.1643ZM89.6444 78.1632C89.7369 78.3585 89.805 78.6417 89.805 79.048H91.805C91.805 78.4268 91.7019 77.8348 91.4519 77.307L89.6444 78.1632ZM89.805 79.048C89.805 79.4781 89.7871 79.8513 89.7534 80.1706L91.7425 80.3799C91.785 79.9762 91.805 79.5312 91.805 79.048H89.805ZM89.7534 80.1706C89.7173 80.5136 89.6623 80.9364 89.5875 81.4416L91.5659 81.7347C91.6433 81.2124 91.7025 80.7599 91.7425 80.3799L89.7534 80.1706ZM89.5828 81.4777C89.5255 81.9937 89.4492 82.6995 89.354 83.5943L91.3428 83.8059C91.4378 82.9122 91.5138 82.21 91.5706 81.6985L89.5828 81.4777ZM89.3539 83.5952L87.9269 97.1234L89.9158 97.3332L91.3429 83.805L89.3539 83.5952ZM88.9214 96.2283H86.9235V98.2283H88.9214V96.2283ZM93.1685 96.9144L94.1172 96.5982L93.1685 96.9144ZM93.14 93.7749L94.1348 93.8769L94.135 93.8744L93.14 93.7749ZM93.3683 91.5488L92.3742 91.4403L92.3738 91.4441L93.3683 91.5488ZM94.9381 77.1643L94.9244 76.1644C94.4193 76.1713 93.9988 76.5537 93.944 77.0558L94.9381 77.1643ZM97.0215 77.1358V76.1357L97.0078 76.1359L97.0215 77.1358ZM97.8207 77.2785L97.3734 78.1729C97.4077 78.19 97.4429 78.2052 97.4789 78.2183L97.8207 77.2785ZM98.5056 78.0491L97.6351 78.5411L97.6374 78.5452L98.5056 78.0491ZM101.474 82.8153L100.645 83.3747L100.648 83.3793L101.474 82.8153ZM104.528 87.2962L103.701 87.8585L104.528 87.2962ZM106.925 91.2063L107.691 91.8489C107.953 91.5365 107.999 91.0963 107.808 90.7364L106.925 91.2063ZM106.183 92.091L105.188 91.9892C105.144 92.4262 105.389 92.8411 105.794 93.0121C106.198 93.1831 106.667 93.0702 106.949 92.7336L106.183 92.091ZM106.811 85.9548L105.816 85.8515L105.816 85.853L106.811 85.9548ZM107.011 82.4158H106.011C106.011 82.4229 106.011 82.43 106.011 82.4371L107.011 82.4158ZM106.868 80.3323L105.879 80.4789C105.881 80.493 105.883 80.5071 105.886 80.5212L106.868 80.3323ZM106.611 79.1336L105.645 79.3913C105.65 79.411 105.656 79.4305 105.662 79.4498L106.611 79.1336ZM106.782 77.8493L107.356 78.6685C107.373 78.6563 107.39 78.6435 107.407 78.6302L106.782 77.8493ZM108.324 77.2785L108.465 78.2684C108.483 78.2658 108.502 78.2627 108.52 78.2591L108.324 77.2785ZM110.036 80.0184L109.052 79.8395C109.049 79.854 109.047 79.8686 109.045 79.8833L110.036 80.0184ZM109.808 82.0448L110.802 82.1502L110.803 82.1463L109.808 82.0448ZM109.408 85.8121L110.403 85.9179L110.403 85.9176L109.408 85.8121ZM109.009 90.2073L108.011 90.1408C108.01 90.1461 108.01 90.1513 108.01 90.1566L109.009 90.2073ZM108.951 94.517L107.953 94.5624C107.953 94.5774 107.954 94.5925 107.956 94.6075L108.951 94.517ZM108.695 96.315L109.367 97.055C109.379 97.0443 109.39 97.0333 109.402 97.0221L108.695 96.315ZM107.895 96.8288L108.321 97.7336H108.321L107.895 96.8288ZM106.954 97.1712L106.711 96.2011C106.692 96.2058 106.674 96.211 106.655 96.2168L106.954 97.1712ZM105.726 97.0571L106.516 96.4431L105.726 97.0571ZM105.555 96.3436L104.558 96.2669C104.558 96.2716 104.557 96.2764 104.557 96.2812L105.555 96.3436ZM105.327 95.4017L104.392 95.7577C104.399 95.7761 104.407 95.7942 104.415 95.8121L105.327 95.4017ZM104.785 94.1745L103.89 94.6217L103.89 94.6217L104.785 94.1745ZM104.185 93.0899L103.31 93.573C103.318 93.5889 103.328 93.6046 103.337 93.6199L104.185 93.0899ZM101.902 89.5224L101.083 90.0967L101.089 90.1048L101.902 89.5224ZM99.1335 85.5267L98.3085 86.0918L99.1335 85.5267ZM96.5649 81.3027L96.4235 80.3128C96.1006 80.3589 95.8206 80.5595 95.6731 80.8503C95.5255 81.1411 95.5291 81.4856 95.6825 81.7733L96.5649 81.3027ZM96.9644 81.2456L97.9591 81.3493C97.991 81.0429 97.8799 80.7389 97.658 80.5252C97.436 80.3115 97.128 80.2121 96.823 80.2557L96.9644 81.2456ZM96.1938 88.6376L95.1992 88.5339L95.199 88.5367L96.1938 88.6376ZM95.9655 91.8912L96.9653 91.914L96.9653 91.9135L95.9655 91.8912ZM96.0226 93.8891L95.0292 94.0037V94.0037L96.0226 93.8891ZM96.2224 95.0307L95.2609 95.3054L96.2224 95.0307ZM96.4222 95.6871L95.4735 96.0034C95.4885 96.0483 95.5066 96.092 95.5277 96.1343L96.4222 95.6871ZM96.1938 96.7431L96.7307 97.5868C96.7367 97.583 96.7426 97.5791 96.7485 97.5752L96.1938 96.7431ZM95.3947 97.0856L95.1125 96.1263C95.1072 96.1278 95.1018 96.1295 95.0964 96.1311L95.3947 97.0856ZM94.4814 97.2854L94.6054 98.2777L94.4814 97.2854ZM93.7679 96.3425C93.7735 96.3425 93.8643 96.3455 93.971 96.4217C94.0787 96.4987 94.1133 96.5863 94.1172 96.5982L92.2199 97.2306C92.3189 97.5278 92.501 97.8295 92.8085 98.0492C93.115 98.2681 93.4579 98.3425 93.7679 98.3425V96.3425ZM94.1172 96.5982C94.0652 96.4419 94.0258 96.2121 94.0258 95.8869H92.0258C92.0258 96.3609 92.0817 96.816 92.2199 97.2306L94.1172 96.5982ZM94.0258 95.8869C94.0258 95.2588 94.0618 94.5891 94.1348 93.8769L92.1452 93.6729C92.066 94.4449 92.0258 95.1831 92.0258 95.8869H94.0258ZM94.135 93.8744C94.211 93.115 94.2869 92.3747 94.3628 91.6534L92.3738 91.4441C92.2975 92.1689 92.2212 92.9127 92.145 93.6754L94.135 93.8744ZM94.3624 91.6572L95.9322 77.2728L93.944 77.0558L92.3742 91.4403L94.3624 91.6572ZM94.9518 78.1642L97.0352 78.1357L97.0078 76.1359L94.9244 76.1644L94.9518 78.1642ZM97.0215 78.1358C97.1485 78.1358 97.2401 78.1448 97.3024 78.1559C97.3656 78.1672 97.3836 78.178 97.3734 78.1729L98.2679 76.3841C97.8791 76.1897 97.435 76.1358 97.0215 76.1358V78.1358ZM97.4789 78.2183C97.4174 78.1959 97.3831 78.171 97.3757 78.1653C97.3681 78.1595 97.3772 78.1653 97.4015 78.1926C97.4524 78.2499 97.5318 78.3584 97.6351 78.5411L99.3762 77.557C99.2321 77.3021 99.0736 77.0634 98.8963 76.8638C98.7264 76.6727 98.4853 76.4561 98.1624 76.3387L97.4789 78.2183ZM97.6374 78.5452C98.5634 80.1658 99.566 81.7756 100.645 83.3747L102.303 82.256C101.251 80.6967 100.274 79.1289 99.3739 77.5529L97.6374 78.5452ZM100.648 83.3793C101.713 84.939 102.731 86.4321 103.701 87.8585L105.355 86.7339C104.384 85.3063 103.366 83.8121 102.3 82.2514L100.648 83.3793ZM103.701 87.8585C104.656 89.2638 105.435 90.5358 106.042 91.6761L107.808 90.7364C107.159 89.5174 106.34 88.1826 105.355 86.7339L103.701 87.8585ZM106.159 90.5637L105.417 91.4484L106.949 92.7336L107.691 91.8489L106.159 90.5637ZM107.178 92.1928L107.806 86.0566L105.816 85.853L105.188 91.9892L107.178 92.1928ZM107.806 86.0581C107.96 84.5744 108.031 83.3483 108.01 82.3945L106.011 82.4371C106.029 83.2718 105.967 84.405 105.816 85.8515L107.806 86.0581ZM108.011 82.4158C108.011 81.4987 107.963 80.7305 107.85 80.1435L105.886 80.5212C105.963 80.9235 106.011 81.5443 106.011 82.4158H108.011ZM107.857 80.1858C107.778 79.6494 107.682 79.1837 107.56 78.8174L105.662 79.4498C105.731 79.6543 105.806 79.9878 105.879 80.4789L107.857 80.1858ZM107.577 78.876C107.519 78.6589 107.497 78.4799 107.497 78.3345H105.497C105.497 78.6837 105.551 79.0376 105.645 79.3913L107.577 78.876ZM107.497 78.3345C107.497 78.415 107.474 78.5024 107.43 78.5775C107.39 78.6459 107.351 78.672 107.356 78.6685L106.209 77.0301C105.818 77.3036 105.497 77.7441 105.497 78.3345H107.497ZM107.407 78.6302C107.486 78.5667 107.613 78.4932 107.812 78.427L107.18 76.5296C106.808 76.6536 106.459 76.8275 106.158 77.0684L107.407 78.6302ZM107.812 78.427C108.047 78.3486 108.264 78.2971 108.465 78.2684L108.182 76.2885C107.85 76.336 107.515 76.4177 107.18 76.5296L107.812 78.427ZM108.52 78.2591C108.771 78.2089 108.938 78.1929 109.037 78.1929V76.1929C108.756 76.1929 108.447 76.2339 108.127 76.2979L108.52 78.2591ZM109.037 78.1929C109.039 78.1929 109.027 78.193 109.006 78.1868C108.985 78.1803 108.964 78.1702 108.947 78.1588C108.914 78.1357 108.931 78.1317 108.97 78.2109L110.759 77.3165C110.609 77.0151 110.392 76.7257 110.083 76.5124C109.765 76.2929 109.404 76.1929 109.037 76.1929V78.1929ZM108.97 78.2109C109.099 78.4691 109.15 78.6975 109.15 78.9053H111.15C111.15 78.352 111.011 77.8193 110.759 77.3165L108.97 78.2109ZM109.15 78.9053C109.15 79.1534 109.121 79.4626 109.052 79.8395L111.02 80.1973C111.104 79.7369 111.15 79.3041 111.15 78.9053H109.15ZM109.045 79.8833C108.986 80.3199 108.908 81.0098 108.813 81.9432L110.803 82.1463C110.898 81.2151 110.972 80.554 111.027 80.1535L109.045 79.8833ZM108.813 81.9393L108.414 85.7066L110.403 85.9176L110.802 82.1502L108.813 81.9393ZM108.414 85.7063C108.223 87.5015 108.088 88.9809 108.011 90.1408L110.006 90.2739C110.081 89.1505 110.213 87.6998 110.403 85.9179L108.414 85.7063ZM108.01 90.1566C107.952 91.2863 107.923 92.1997 107.923 92.8902H109.923C109.923 92.2487 109.951 91.3736 110.007 90.2581L108.01 90.1566ZM107.923 92.8902C107.923 93.5636 107.933 94.1226 107.953 94.5624L109.95 94.4716C109.932 94.0742 109.923 93.5486 109.923 92.8902H107.923ZM107.956 94.6075C107.991 95.0007 108.009 95.3602 108.009 95.6871H110.009C110.009 95.291 109.988 94.8704 109.947 94.4264L107.956 94.6075ZM108.009 95.6871C108.009 95.6552 108.013 95.6261 108.019 95.6016C108.025 95.5774 108.032 95.5613 108.036 95.5539C108.042 95.5408 108.035 95.5601 107.987 95.6079L109.402 97.0221C109.72 96.7038 110.009 96.2552 110.009 95.6871H108.009ZM108.022 95.5751C107.903 95.6835 107.726 95.8035 107.47 95.9239L108.321 97.7336C108.712 97.5496 109.068 97.3271 109.367 97.055L108.022 95.5751ZM107.47 95.9239C107.197 96.0522 106.944 96.1428 106.711 96.2011L107.196 98.1414C107.572 98.0475 107.947 97.9097 108.321 97.7336L107.47 95.9239ZM106.655 96.2168C106.402 96.2958 106.253 96.3139 106.183 96.3139V98.3139C106.532 98.3139 106.896 98.237 107.252 98.1257L106.655 96.2168ZM106.183 96.3139C106.273 96.3139 106.36 96.3385 106.431 96.3782C106.495 96.4142 106.52 96.4485 106.516 96.4431L104.937 97.671C105.204 98.0145 105.623 98.3139 106.183 98.3139V96.3139ZM106.516 96.4431C106.53 96.4621 106.541 96.48 106.547 96.4944C106.554 96.5086 106.556 96.5169 106.556 96.5169C106.556 96.5152 106.548 96.4823 106.553 96.4059L104.557 96.2812C104.529 96.7307 104.603 97.2417 104.937 97.671L106.516 96.4431ZM106.552 96.4203C106.59 95.9284 106.437 95.433 106.239 94.9914L104.415 95.8121C104.482 95.9614 104.52 96.0756 104.54 96.1582C104.561 96.2421 104.558 96.2741 104.558 96.2669L106.552 96.4203ZM106.261 95.0457C106.096 94.6124 105.902 94.1728 105.679 93.7273L103.89 94.6217C104.086 95.0133 104.253 95.392 104.392 95.7577L106.261 95.0457ZM105.679 93.7273C105.46 93.2883 105.244 92.8978 105.033 92.5599L103.337 93.6199C103.507 93.8909 103.691 94.2234 103.89 94.6217L105.679 93.7273ZM105.061 92.6069C104.429 91.4619 103.646 90.2393 102.715 88.94L101.089 90.1048C101.985 91.3551 102.724 92.5108 103.31 93.573L105.061 92.6069ZM102.721 88.9481C101.829 87.6766 100.908 86.3478 99.9586 84.9616L98.3085 86.0918C99.2618 87.4836 100.187 88.8186 101.083 90.0967L102.721 88.9481ZM99.9586 84.9616C99.0272 83.6018 98.1903 82.2253 97.4472 80.8321L95.6825 81.7733C96.4616 83.2341 97.3372 84.6736 98.3085 86.0918L99.9586 84.9616ZM96.7063 82.2927L97.1059 82.2356L96.823 80.2557L96.4235 80.3128L96.7063 82.2927ZM95.9698 81.1419L95.1992 88.5339L97.1885 88.7413L97.9591 81.3493L95.9698 81.1419ZM95.199 88.5367C95.0644 89.8634 94.9856 90.9765 94.9658 91.869L96.9653 91.9135C96.9835 91.0935 97.057 90.0376 97.1887 88.7386L95.199 88.5367ZM94.9658 91.8685C94.9463 92.7252 94.9645 93.4431 95.0292 94.0037L97.016 93.7745C96.9665 93.3456 96.9467 92.7317 96.9653 91.914L94.9658 91.8685ZM95.0292 94.0037C95.0884 94.5171 95.1624 94.9609 95.2609 95.3054L97.1839 94.756C97.1301 94.5678 97.0709 94.2505 97.016 93.7745L95.0292 94.0037ZM95.2609 95.3054C95.3391 95.5792 95.4101 95.8132 95.4735 96.0034L97.3709 95.3709C97.3201 95.2186 97.2579 95.0149 97.1839 94.756L95.2609 95.3054ZM95.5277 96.1343C95.5281 96.1351 95.5298 96.1384 95.5316 96.1467C95.5335 96.1553 95.5363 96.1726 95.5363 96.2009H97.5363C97.5363 95.8739 97.47 95.5467 97.3166 95.2399L95.5277 96.1343ZM95.5363 96.2009C95.5363 96.1122 95.5637 96.0252 95.6052 95.9594C95.6411 95.9026 95.6684 95.8916 95.6391 95.9111L96.7485 97.5752C97.1586 97.3018 97.5363 96.8459 97.5363 96.2009H95.5363ZM95.657 95.8995C95.5493 95.968 95.376 96.0488 95.1125 96.1263L95.6769 98.045C96.0604 97.9322 96.4198 97.7847 96.7307 97.5868L95.657 95.8995ZM95.0964 96.1311C94.8466 96.2092 94.6004 96.2627 94.3574 96.2931L94.6054 98.2777C94.9713 98.232 95.334 98.1523 95.693 98.0401L95.0964 96.1311ZM94.3574 96.2931C94.0674 96.3294 93.8774 96.3425 93.7679 96.3425V98.3425C94.0008 98.3425 94.2866 98.3175 94.6054 98.2777L94.3574 96.2931Z" fill="white" mask="url(#path-70-outside-1_59_1594)"/>
</g>
</g>
<defs>
<filter id="filter0_d_59_1594" x="0" y="0" width="165" height="168.592" filterUnits="userSpaceOnUse" color-interpolation-filters="sRGB">
<feFlood flood-opacity="0" result="BackgroundImageFix"/>
<feColorMatrix in="SourceAlpha" type="matrix" values="0 0 0 0 0 0 0 0 0 0 0 0 0 0 0 0 0 0 127 0" result="hardAlpha"/>
<feOffset/>
<feGaussianBlur stdDeviation="12.5"/>
<feComposite in2="hardAlpha" operator="out"/>
<feColorMatrix type="matrix" values="0 0 0 0 0.870588 0 0 0 0 0.537255 0 0 0 0 1 0 0 0 1 0"/>
<feBlend mode="normal" in2="BackgroundImageFix" result="effect1_dropShadow_59_1594"/>
<feBlend mode="normal" in="SourceGraphic" in2="effect1_dropShadow_59_1594" result="shape"/>
</filter>
<filter id="filter1_d_59_1594" x="54.4567" y="77.1358" width="55.6935" height="22.8298" filterUnits="userSpaceOnUse" color-interpolation-filters="sRGB">
<feFlood flood-opacity="0" result="BackgroundImageFix"/>
<feColorMatrix in="SourceAlpha" type="matrix" values="0 0 0 0 0 0 0 0 0 0 0 0 0 0 0 0 0 0 127 0" result="hardAlpha"/>
<feOffset dy="2.59459"/>
<feComposite in2="hardAlpha" operator="out"/>
<feColorMatrix type="matrix" values="0 0 0 0 0.354167 0 0 0 0 0.0693576 0 0 0 0 0.14056 0 0 0 1 0"/>
<feBlend mode="normal" in2="BackgroundImageFix" result="effect1_dropShadow_59_1594"/>
<feBlend mode="normal" in="SourceGraphic" in2="effect1_dropShadow_59_1594" result="shape"/>
</filter>
<linearGradient id="paint0_linear_59_1594" x1="83.6016" y1="143.592" x2="83.6016" y2="32.0478" gradientUnits="userSpaceOnUse">
<stop stop-color="#8C2747"/>
<stop offset="1" stop-color="#D65731"/>
</linearGradient>
<linearGradient id="paint1_linear_59_1594" x1="20.5485" y1="51.4405" x2="170.313" y2="51.4405" gradientUnits="userSpaceOnUse">
<stop stop-color="#C77CBD"/>
<stop offset="1" stop-color="#974577"/>
</linearGradient>
<linearGradient id="paint2_linear_59_1594" x1="22.8287" y1="71.9202" x2="154.438" y2="71.9202" gradientUnits="userSpaceOnUse">
<stop stop-color="#C77CBD"/>
<stop offset="1" stop-color="#974577"/>
</linearGradient>
<linearGradient id="paint3_linear_59_1594" x1="27.4652" y1="69.8909" x2="129.844" y2="69.8909" gradientUnits="userSpaceOnUse">
<stop stop-color="#C77CBD"/>
<stop offset="1" stop-color="#974577"/>
</linearGradient>
<linearGradient id="paint4_linear_59_1594" x1="28.5896" y1="91.4075" x2="165.187" y2="91.4075" gradientUnits="userSpaceOnUse">
<stop stop-color="#C77CBD"/>
<stop offset="1" stop-color="#974577"/>
</linearGradient>
<linearGradient id="paint5_linear_59_1594" x1="29.6323" y1="101.515" x2="163.026" y2="101.515" gradientUnits="userSpaceOnUse">
<stop stop-color="#C77CBD"/>
<stop offset="1" stop-color="#974577"/>
</linearGradient>
<linearGradient id="paint6_linear_59_1594" x1="32.0067" y1="126.116" x2="163.409" y2="126.116" gradientUnits="userSpaceOnUse">
<stop stop-color="#C77CBD"/>
<stop offset="1" stop-color="#974577"/>
</linearGradient>
<linearGradient id="paint7_linear_59_1594" x1="85.3042" y1="124.187" x2="144.72" y2="124.187" gradientUnits="userSpaceOnUse">
<stop stop-color="#C77CBD"/>
<stop offset="1" stop-color="#974577"/>
</linearGradient>
<linearGradient id="paint8_linear_59_1594" x1="105.457" y1="132.052" x2="162.215" y2="132.052" gradientUnits="userSpaceOnUse">
<stop stop-color="#C77CBD"/>
<stop offset="1" stop-color="#974577"/>
</linearGradient>
<linearGradient id="paint9_linear_59_1594" x1="25.0338" y1="72.0334" x2="143.689" y2="72.0334" gradientUnits="userSpaceOnUse">
<stop stop-color="#C77CBD"/>
<stop offset="1" stop-color="#974577"/>
</linearGradient>
<linearGradient id="paint10_linear_59_1594" x1="103.472" y1="96.9039" x2="138.438" y2="96.9039" gradientUnits="userSpaceOnUse">
<stop stop-color="#C77CBD"/>
<stop offset="1" stop-color="#974577"/>
</linearGradient>
<linearGradient id="paint11_linear_59_1594" x1="129.844" y1="137.367" x2="150.229" y2="137.367" gradientUnits="userSpaceOnUse">
<stop stop-color="#C77CBD"/>
<stop offset="1" stop-color="#974577"/>
</linearGradient>
<linearGradient id="paint12_linear_59_1594" x1="65.4589" y1="69.0994" x2="122.286" y2="69.0994" gradientUnits="userSpaceOnUse">
<stop stop-color="#C77CBD"/>
<stop offset="1" stop-color="#974577"/>
</linearGradient>
<linearGradient id="paint13_linear_59_1594" x1="63.7754" y1="138.177" x2="105.457" y2="138.177" gradientUnits="userSpaceOnUse">
<stop stop-color="#C77CBD"/>
<stop offset="1" stop-color="#974577"/>
</linearGradient>
<linearGradient id="paint14_linear_59_1594" x1="83.4772" y1="132.663" x2="83.4772" y2="42.8294" gradientUnits="userSpaceOnUse">
<stop stop-color="#B12510"/>
<stop offset="1" stop-color="#7D0D10"/>
</linearGradient>
<linearGradient id="paint15_linear_59_1594" x1="53.8122" y1="57.1134" x2="53.8122" y2="25.0121" gradientUnits="userSpaceOnUse">
<stop stop-color="#8C2747"/>
<stop offset="1" stop-color="#D65731"/>
</linearGradient>
<linearGradient id="paint16_linear_59_1594" x1="111.199" y1="57.1132" x2="111.199" y2="25.0118" gradientUnits="userSpaceOnUse">
<stop stop-color="#8C2747"/>
<stop offset="1" stop-color="#D65731"/>
</linearGradient>
<linearGradient id="paint17_linear_59_1594" x1="82.5" y1="66" x2="82.5" y2="114" gradientUnits="userSpaceOnUse">
<stop stop-color="#FF0000"/>
<stop offset="1" stop-color="#7E0000"/>
</linearGradient>
</defs>
</svg>
