<svg width="172" height="170" viewBox="0 0 172 170" fill="none" xmlns="http://www.w3.org/2000/svg">
<g filter="url(#filter0_d_64_1748)">
<path style="mix-blend-mode:multiply" fill-rule="evenodd" clip-rule="evenodd" d="M134.168 84.7042C134.168 89.9178 133.145 97.0623 131.046 101.845C129.566 104.696 127.287 104.715 124.359 104.69C122.846 104.69 121.404 104.612 119.898 104.548C117.916 104.458 122.428 105.095 122.524 105.108C124.108 105.352 126.985 105.623 127.783 107.161C127.976 107.707 127.951 108.307 127.712 108.835C127.261 109.836 126.7 110.783 126.039 111.66C121.599 118.349 115.573 123.836 108.497 127.629C101.422 131.423 93.5172 133.407 85.4888 133.403C78.9687 133.313 69.1144 131.633 63.6047 128.106C59.8136 125.692 64.892 125.312 66.5655 125.055C68.799 124.701 63.5082 124.559 63.4631 124.553C58.5006 124.269 56.383 124.108 52.5919 120.613L51.7165 119.854C46.6154 114.959 42.6458 109.008 40.0858 102.417C39.1525 99.8815 40.1566 99.7334 42.4995 99.579C43.7868 99.4953 45.0033 99.5339 46.2648 99.4824C48.5111 99.3923 43.3555 98.9611 43.3426 98.9611C41.9202 98.8001 39.603 98.4912 38.6633 97.3133C38.2111 96.5004 37.9163 95.6094 37.7944 94.6872V94.5907C37.1292 91.348 36.7928 88.0466 36.7903 84.7364C36.7997 81.6503 37.0754 78.5709 37.6142 75.5322C37.8974 74.1355 38.393 73.5369 39.1332 73.2344C42.3514 71.9085 53.4222 70.4152 66.8101 69.0635C52.1413 70.0161 40.4527 70.4281 39.8541 69.5269C39.0946 68.3684 41.2315 64.4164 41.8429 63.1484C45.842 55.0417 52.0218 48.2104 59.6885 43.4214C67.3551 38.6325 76.2049 36.0756 85.2442 36.0378H85.5017C103.563 36.1473 118.92 46.0466 128.163 61.2882C129.225 63.0325 128.652 63.1484 126.946 63.4959C124.513 63.9916 117.079 64.8412 107.521 65.7616C119.75 64.9828 128.845 64.6223 129.572 64.9635C130.499 65.3947 130.718 66.3924 131.285 68.0401C133.208 73.3968 134.194 79.0448 134.2 84.7364L134.168 84.7042Z" fill="url(#paint0_radial_64_1748)"/>
<path fill-rule="evenodd" clip-rule="evenodd" d="M85.5321 28.9568C96.5386 28.9568 107.298 32.2207 116.45 38.3356C125.601 44.4505 132.734 53.1418 136.946 63.3105C141.158 73.4792 142.26 84.6686 140.113 95.4636C137.965 106.259 132.665 116.175 124.883 123.957C117.1 131.74 107.184 137.04 96.3888 139.188C85.5938 141.335 74.4044 140.233 64.2357 136.021C54.067 131.809 45.3757 124.676 39.2608 115.524C33.1459 106.373 29.8821 95.6133 29.8821 84.6068C29.8821 69.8475 35.7452 55.6927 46.1816 45.2563C56.618 34.82 70.7728 28.9568 85.5321 28.9568Z" fill="url(#paint1_radial_64_1748)"/>
<circle cx="85.708" cy="85.2063" r="49.1684" fill="url(#paint2_linear_64_1748)"/>
<path style="mix-blend-mode:multiply" fill-rule="evenodd" clip-rule="evenodd" d="M85.5321 28.9568C96.5386 28.9568 107.298 32.2207 116.45 38.3356C125.601 44.4505 132.734 53.1418 136.946 63.3105C141.158 73.4792 142.26 84.6686 140.113 95.4636C137.965 106.259 132.665 116.175 124.883 123.957C117.1 131.74 107.184 137.04 96.3888 139.188C85.5938 141.335 74.4044 140.233 64.2357 136.021C54.067 131.809 45.3757 124.676 39.2608 115.524C33.1459 106.373 29.8821 95.6133 29.8821 84.6068C29.8821 69.8475 35.7452 55.6927 46.1816 45.2563C56.618 34.82 70.7728 28.9568 85.5321 28.9568Z" fill="url(#paint3_radial_64_1748)"/>
<path fill-rule="evenodd" clip-rule="evenodd" d="M134.874 49.4764C137.063 52.405 143.969 61.0621 143.692 64.4928C143.486 67.0223 145.076 73.24 145.481 76.2008C145.849 78.9165 146.034 81.6539 146.035 84.3944C145.977 91.2686 144.271 96.8555 142.508 103.434C141.456 107.576 139.79 111.538 137.565 115.187C135.917 118.051 134.79 120.452 133.374 123.406C132.673 124.874 132.544 124.204 131.192 124.829C129.487 125.627 126.764 128.517 125.174 129.881C122.749 131.888 120.225 133.772 117.611 135.526C116.378 136.436 115.196 137.413 114.071 138.455C113.054 139.343 113.035 138.924 111.78 139.098C109.798 139.394 106.631 140.817 104.532 141.486C93.0175 145.11 83.6653 144.704 71.938 142.381C65.5015 141.094 61.2663 139.195 55.5121 136.125C54.4758 135.565 48.374 132.623 48.0393 132.333C47.9878 132.288 46.1534 129.682 45.735 129.192C41.1072 123.844 39.7105 122.988 36.2412 116.41C32.611 109.529 28.7877 103.807 27.2301 96.1024C27.0885 95.388 26.9598 94.6864 26.831 93.9719C26.4798 91.7497 25.9853 89.5524 25.3506 87.3938C24.707 85.0703 25.4021 85.701 25.8334 83.5963C26.2453 81.5946 26.2904 78.7496 26.5736 76.5741C27.951 66.9193 29.7918 65.3681 33.5057 57.02C36.7239 49.9399 38.2687 47.745 43.463 41.9457C45.3167 39.8925 50.9422 32.8831 53.1756 32.439C58.4342 31.4092 63.4161 28.4935 68.8228 26.8715C77.1902 24.4385 83.2276 24.9405 91.6273 25.3138C103.419 25.8545 113.724 29.1757 122.522 37.3372C125.47 40.0791 128.882 42.8855 131.662 45.6467C132.848 46.8354 133.943 48.1112 134.938 49.4636L134.874 49.4764ZM110.216 38.7017C113.074 41.0124 114.078 40.6971 116.845 42.2611C123.971 46.4384 129.525 54.7093 133.754 61.6607C138.054 68.7409 138.009 73.8386 138.408 81.8134C138.852 91.2751 136.638 103.755 131.205 111.614C127.575 116.822 118.892 127.577 113.106 130.28C110.969 131.284 107.706 132.314 105.382 133.202C101.148 134.833 96.7293 135.937 92.2259 136.491C86.5811 137.135 84.9591 136.491 79.7455 135.449C77.01 134.902 76.244 135.854 73.1803 135.191C67.7672 133.968 58.9041 130.686 54.6625 127.216C51.7699 124.641 49.05 121.878 46.5203 118.946L46.1598 118.527C45.2072 117.401 44.3448 116.274 43.4823 115.071C41.4355 112.174 40.9077 110.501 39.6204 107.45C38.9767 106.034 38.0112 105.262 37.226 103.504C34.8702 98.2522 33.628 90.6314 33.5958 84.8901V84.4009C33.6409 76.3359 35.295 66.7134 40.3477 60.1996C42.4202 57.5285 41.4226 58.2108 42.5361 55.6941C46.9708 46.3097 60.9123 37.0926 70.7215 33.9838C82.2622 30.3279 100.42 31.1195 110.235 38.7339L110.216 38.7017Z" fill="url(#paint4_radial_64_1748)"/>
<path style="mix-blend-mode:multiply" fill-rule="evenodd" clip-rule="evenodd" d="M110.216 38.7018C113.074 41.0125 114.078 40.6971 116.846 42.2612C123.971 46.4385 129.525 54.7094 133.754 61.6608C138.054 68.7409 138.009 73.8386 138.408 81.8135C138.446 82.6953 138.466 83.6028 138.459 84.5297C139.019 79.5414 139.142 74.2828 138.183 69.5326C137.565 66.3678 136.542 63.2958 135.138 60.3928C131.855 53.7246 127.749 50.6157 122.851 45.5309C120.186 42.789 118.255 39.5771 116.183 38.1032C113.556 36.243 109.032 35.2389 106.18 34.1962C103.329 33.1535 100.574 31.5766 97.6068 30.7656C89.8251 28.6544 83.6203 29.7937 75.9866 31.2419C73.2061 31.7697 70.3032 31.7311 67.6192 32.5742C62.0194 34.325 58.8849 36.7515 54.3793 40.1049C52.4484 41.566 48.9083 44.0183 47.2348 45.8141C45.1108 48.1055 44.9885 49.676 43.1412 52.1991C42.1307 53.583 40.6374 54.5356 40.3284 55.2951C39.7298 56.7883 38.7837 59.2213 38.095 60.676C37.0136 62.9095 35.2243 64.8404 34.645 67.2477C33.2869 73.0405 33.2225 78.0159 33.5894 83.4226C33.7568 75.5636 35.4753 66.4431 40.3284 60.1933C42.401 57.5221 41.4033 58.2044 42.5168 55.6877C46.9516 46.3033 60.8931 37.0862 70.7023 33.9774C82.2429 30.3215 100.4 31.1132 110.216 38.7275V38.7018Z" fill="url(#paint5_radial_64_1748)"/>
<path style="mix-blend-mode:multiply" fill-rule="evenodd" clip-rule="evenodd" d="M114.992 133.833C113.19 134.586 111.696 135.931 109.946 136.781C99.8145 141.718 88.1708 144.749 77.0808 141.641C73.8625 140.746 70.7408 139.581 67.5547 138.596C64.7742 137.734 61.9421 137.122 59.3611 135.642C57.2306 134.419 55.4348 132.681 53.3623 131.355C51.5407 130.19 48.316 129.102 46.9773 127.448C45.4647 125.575 44.8082 123.258 42.7871 121.07C40.5987 118.694 36.3956 114.903 35.7069 113.449C35.0182 111.994 34.8831 110.353 34.278 108.872C32.3857 104.212 28.9872 98.574 28.1827 93.7273C27.8609 91.7964 28.0282 88.5781 27.7514 86.6472C27.6034 85.5465 26.7988 84.1884 26.6572 82.309C26.5532 79.8979 26.5747 77.4831 26.7216 75.0743C26.6444 75.5592 26.5671 76.0677 26.4899 76.5998C26.2067 78.7753 26.1616 81.6203 25.7497 83.622C25.3184 85.7267 24.6104 85.096 25.2669 87.4195C25.913 89.5816 26.4182 91.7832 26.7795 94.0105C26.9082 94.725 27.037 95.4265 27.1786 96.141C28.7684 103.865 32.5917 109.568 36.1897 116.448C39.659 123.026 41.0557 123.882 45.6835 129.231C46.1019 129.72 47.9363 132.327 47.9878 132.372C48.3225 132.662 54.4243 135.59 55.4606 136.163C61.2148 139.233 65.4371 141.139 71.8865 142.419C83.6138 144.756 92.966 145.148 104.481 141.525C106.573 140.881 109.746 139.433 111.728 139.137C113.016 138.95 113.016 139.369 114.02 138.493C115.145 137.452 116.326 136.474 117.56 135.565C120.178 133.811 122.706 131.927 125.136 129.92C126.725 128.555 129.448 125.665 131.154 124.867C132.505 124.223 132.634 124.912 133.336 123.445C134.752 120.49 135.91 118.089 137.526 115.225C139.753 111.577 141.422 107.615 142.476 103.472C144.239 96.8941 145.945 91.3072 146.003 84.433V84.2721C145.134 93.0515 143.827 93.5471 142.012 100.151C141.632 101.522 141.523 102.964 141.156 104.341C140.371 107.257 139.225 110.739 137.436 113.198C136.47 114.549 135.099 115.566 134.012 116.821C132.998 117.978 132.045 119.185 131.154 120.439C127.762 125.234 126.558 127.307 121.724 131.381C120.64 132.251 119.414 132.928 118.101 133.383C117.109 133.743 115.938 133.447 114.96 133.859L114.992 133.833Z" fill="url(#paint6_radial_64_1748)"/>
<path style="mix-blend-mode:multiply" opacity="0.65" fill-rule="evenodd" clip-rule="evenodd" d="M142.237 63.8684C142.437 64.8983 142.617 66.1341 142.733 67.1768C142.907 68.6701 144.078 70.8134 145.784 78.8591C145.707 77.9772 145.604 77.0955 145.481 76.2008C145.076 73.24 143.486 67.0223 143.692 64.4928C143.969 61.0557 137.062 52.405 134.874 49.4764C133.879 48.1241 132.784 46.8482 131.598 45.6596C128.817 42.8983 125.406 40.092 122.458 37.3501C113.672 29.2015 103.367 25.8674 91.5629 25.3267C83.1632 24.9791 77.1 24.4513 68.7583 26.8843C63.3517 28.5063 58.3698 31.4221 53.1112 32.4519C50.8778 32.896 45.2522 39.9054 43.3985 41.9586C38.2043 47.7515 36.6273 49.927 33.4413 57.0329C30.8216 62.8772 29.1481 65.4003 27.9059 69.6742C29.7532 64.8146 31.3687 63.0832 33.4928 59.3758C34.144 58.3022 34.7224 57.1862 35.2242 56.0352C35.7391 54.7479 35.8678 53.377 36.46 52.1347C38.4424 47.7708 40.6823 45.8141 43.8877 42.3899C44.9279 41.1792 46.0413 40.0335 47.2218 38.9592C49.481 37.0283 52.9696 35.7796 55.409 33.8615C55.866 33.5075 55.8274 32.7609 56.22 32.336C56.6665 31.8844 57.201 31.5295 57.7905 31.2933C61.7791 29.5599 65.8851 28.1102 70.0778 26.9551C74.3793 25.8948 78.7976 25.3822 83.2276 25.4297C85.4546 25.5134 88.0035 26.2793 90.4172 26.3823C92.0327 26.4531 93.6354 26.1248 95.2767 26.2922C101.205 26.8972 105.659 27.7468 111.04 30.3858C118.409 34.0031 122.439 38.5344 128.418 43.9604C131.965 47.1786 134.321 49.2576 137.037 53.2933C138.485 55.3782 139.79 57.5587 140.944 59.8199C141.546 61.1079 141.979 62.4688 142.231 63.8684H142.237Z" fill="url(#paint7_radial_64_1748)"/>
<path style="mix-blend-mode:multiply" opacity="0.65" fill-rule="evenodd" clip-rule="evenodd" d="M39.6073 107.444C38.9636 106.027 37.9981 105.255 37.2129 103.498C35.5711 99.5638 34.4878 95.4193 33.9946 91.1849C34.1121 93.5728 34.383 95.9506 34.8056 98.3037C35.3592 100.762 36.4727 103.06 37.2837 105.448C37.5517 106.446 37.8696 107.43 38.2363 108.396C39.5879 111.421 41.6026 113.932 43.6623 116.493C45.1426 118.341 46.6745 120.143 48.2322 121.926C49.9378 123.857 53.7997 128.549 55.956 129.733C58.0246 130.832 60.1953 131.727 62.4375 132.404C66.2994 133.614 69.4147 134.335 73.7722 136.022C74.7634 136.414 75.7031 137.058 76.7716 137.167C80.0542 137.502 83.3755 137.302 86.6774 137.354C88.2459 137.455 89.8186 137.472 91.3889 137.405C96.5896 136.923 99.5826 135.674 104.391 134.309C107.776 133.35 111.561 132.379 114.11 131.091C115.468 130.396 115.77 129.225 117.161 128.092C119.298 126.348 121.795 125.015 123.732 123.046C125.67 121.076 127.073 118.54 128.779 116.281C130.484 114.022 132.492 112.194 133.825 109.806C134.906 107.875 135.292 105.635 135.923 103.517C136.757 100.657 137.286 97.7161 137.5 94.7443C136.406 100.936 134.34 107.07 131.179 111.64C127.549 116.847 118.866 127.603 113.08 130.306C110.943 131.31 107.68 132.34 105.356 133.228C101.129 134.848 96.7192 135.943 92.2256 136.491C86.5808 137.135 84.9588 136.491 79.7453 135.449C77.0098 134.902 76.2438 135.854 73.18 135.191C67.7669 133.968 58.9039 130.686 54.6622 127.216C51.7697 124.641 49.0498 121.878 46.5201 118.946L46.1596 118.527C45.207 117.401 44.3445 116.274 43.482 115.071C41.4352 112.174 40.9074 110.501 39.6201 107.45L39.6073 107.444Z" fill="url(#paint8_radial_64_1748)"/>
<path style="mix-blend-mode:screen" fill-rule="evenodd" clip-rule="evenodd" d="M37.9404 74.7011C44.6408 72.8538 53.0662 71.161 60.7128 69.5969C53.6326 70.3049 43.4758 71.6566 40.3026 72.1136C39.7491 72.1973 38.5455 73.6841 37.9404 74.6882V74.7011Z" fill="url(#paint9_radial_64_1748)"/>
<path style="mix-blend-mode:screen" fill-rule="evenodd" clip-rule="evenodd" d="M130.677 65.8251C125.367 65.4067 118.686 65.3746 112.617 65.3295C118.409 64.9304 126.288 64.4091 128.811 64.1774C129.248 64.1388 130.201 65.1235 130.677 65.8251Z" fill="url(#paint10_radial_64_1748)"/>
<path style="mix-blend-mode:screen" fill-rule="evenodd" clip-rule="evenodd" d="M39.0862 101.207C44.7246 100.267 51.7339 99.7197 58.1833 99.1083C52.0364 99.2949 45.7158 99.3271 41.0686 99.2499C40.5988 99.2499 39.5882 100.402 39.0862 101.181V101.207Z" fill="url(#paint11_radial_64_1748)"/>
<g filter="url(#filter1_d_64_1748)">
<mask id="path-13-outside-1_64_1748" maskUnits="userSpaceOnUse" x="56" y="76" width="59" height="23" fill="black">
<rect fill="white" x="56" y="76" width="59" height="23"/>
<path d="M62.9079 97.371C61.2906 97.371 59.9777 97.1142 58.9693 96.6004C57.9609 96.0867 57.4566 95.4208 57.4566 94.6026C57.4566 93.9747 57.5042 93.5276 57.5994 93.2612C57.6945 92.9948 57.8562 92.8616 58.0845 92.8616C58.2368 92.8616 58.4746 92.9758 58.7981 93.2041C59.1215 93.4324 59.5116 93.6893 59.9682 93.9747C60.4439 94.2601 60.9671 94.517 61.5379 94.7453C62.1278 94.9736 62.7652 95.0878 63.4502 95.0878C64.4396 95.0878 65.2387 94.8785 65.8476 94.4599C66.4755 94.0223 66.7894 93.3563 66.7894 92.4621C66.7894 91.6058 66.5896 90.9589 66.1901 90.5213C65.7905 90.0837 65.1911 89.608 64.392 89.0943L62.5939 87.9526C61.947 87.5341 61.3572 87.1059 60.8244 86.6683C60.2917 86.2307 59.8636 85.7075 59.5401 85.0986C59.2166 84.4707 59.0549 83.6811 59.0549 82.7297C59.0549 81.5501 59.3594 80.5416 59.9682 79.7044C60.5771 78.8672 61.4143 78.2298 62.4798 77.7922C63.5453 77.3546 64.763 77.1358 66.133 77.1358C67.4078 77.1358 68.3591 77.2214 68.987 77.3926C69.6149 77.5449 70.024 77.7637 70.2143 78.0491C70.4236 78.3345 70.5282 78.6675 70.5282 79.048C70.5282 79.5808 70.4521 79.9898 70.2999 80.2752C70.1477 80.5416 69.9859 80.6748 69.8147 80.6748C69.6625 80.6748 69.4912 80.6272 69.301 80.5321C69.1107 80.437 68.8443 80.3133 68.5018 80.1611C68.2355 80.0279 67.8074 79.8757 67.2175 79.7044C66.6467 79.5142 66.0474 79.419 65.4195 79.419C64.6013 79.419 63.9068 79.6283 63.336 80.0469C62.7842 80.4655 62.5083 81.0934 62.5083 81.9306C62.5083 82.7107 62.7176 83.3291 63.1362 83.7857C63.5548 84.2233 64.1161 84.6134 64.8201 84.9559L66.3898 85.6979C67.1319 86.0404 67.8169 86.421 68.4448 86.8396C69.0917 87.2582 69.6054 87.8004 69.9859 88.4664C70.3855 89.1133 70.5853 89.979 70.5853 91.0636C70.5853 93.0804 69.8908 94.6406 68.5018 95.7442C67.1129 96.8288 65.2482 97.371 62.9079 97.371ZM73.7207 97.2283C73.3973 97.2283 73.169 97.0761 73.0358 96.7717C72.9026 96.4672 72.836 96.0582 72.836 95.5444C72.836 95.1639 72.8645 94.7358 72.9216 94.2601L74.7197 77.5924H80.0282C82.3685 77.5924 84.119 77.9825 85.2797 78.7626C86.4403 79.5427 87.0206 80.8365 87.0206 82.6441C87.0206 83.7477 86.7638 84.7561 86.25 85.6694C85.7553 86.5827 85.1084 87.3723 84.3093 88.0383C83.5292 88.7042 82.692 89.2179 81.7977 89.5795C80.9034 89.941 80.0663 90.1217 79.2862 90.1217C79.0769 90.1217 78.839 90.0551 78.5726 89.9219C78.3253 89.7888 78.1065 89.6175 77.9162 89.4082C77.745 89.1989 77.6593 88.9896 77.6593 88.7803C77.6593 88.571 77.7259 88.4283 77.8591 88.3522C77.9923 88.2571 78.135 88.2 78.2872 88.181C79.1434 88.0097 79.9426 87.7148 80.6846 87.2962C81.4457 86.8586 82.0546 86.2878 82.5112 85.5838C82.9869 84.8608 83.2247 84.0045 83.2247 83.0151C83.2247 82.1589 83.0154 81.493 82.5969 81.0173C82.1973 80.5416 81.6074 80.2086 80.8273 80.0184C80.0472 79.8281 79.0769 79.733 77.9162 79.733L76.0325 97.2283H73.7207ZM89.9235 97.2283C89.6571 97.2283 89.4383 97.1142 89.2671 96.8858C89.1149 96.6575 89.0007 96.3626 88.9246 96.0011C88.8485 95.6396 88.8104 95.2781 88.8104 94.9165C88.8104 94.1364 88.858 93.3849 88.9531 92.6618C89.0483 91.9388 89.1339 91.1587 89.21 90.3215L90.58 77.1643H92.5778C93.0725 77.1643 93.396 77.3546 93.5482 77.7351C93.7194 78.0966 93.805 78.5343 93.805 79.048C93.805 79.5046 93.786 79.9137 93.748 80.2752C93.7099 80.6368 93.6528 81.0744 93.5767 81.5881C93.5196 82.1018 93.4435 82.8058 93.3484 83.7001L91.9214 97.2283H89.9235ZM96.7679 97.3425C96.4635 97.3425 96.2637 97.1998 96.1685 96.9144C96.0734 96.629 96.0258 96.2865 96.0258 95.8869C96.0258 95.221 96.0639 94.517 96.14 93.7749C96.2161 93.0138 96.2922 92.2718 96.3683 91.5488L97.9381 77.1643L100.022 77.1358C100.364 77.1358 100.63 77.1833 100.821 77.2785C101.03 77.3546 101.258 77.6115 101.506 78.0491C102.419 79.6473 103.408 81.2361 104.474 82.8154C105.539 84.3756 106.557 85.8692 107.528 87.2962C108.498 88.7232 109.297 90.0266 109.925 91.2063L109.183 92.091L109.811 85.9548C109.963 84.4897 110.03 83.3101 110.011 82.4158C110.011 81.5215 109.963 80.827 109.868 80.3323C109.792 79.8186 109.706 79.419 109.611 79.1336C109.535 78.8482 109.497 78.5818 109.497 78.3345C109.497 78.1442 109.592 77.9825 109.782 77.8493C109.973 77.6971 110.21 77.5734 110.496 77.4783C110.781 77.3831 111.057 77.3165 111.324 77.2785C111.609 77.2214 111.847 77.1929 112.037 77.1929C112.399 77.1929 112.674 77.3831 112.865 77.7637C113.055 78.1442 113.15 78.5248 113.15 78.9053C113.15 79.2288 113.112 79.5998 113.036 80.0184C112.979 80.437 112.903 81.1124 112.808 82.0448L112.408 85.8121C112.218 87.6006 112.085 89.0657 112.009 90.2074C111.951 91.3299 111.923 92.2242 111.923 92.8902C111.923 93.5561 111.932 94.0984 111.951 94.517C111.99 94.9356 112.009 95.3256 112.009 95.6871C112.009 95.8964 111.904 96.1057 111.695 96.315C111.485 96.5053 111.219 96.6765 110.895 96.8288C110.572 96.981 110.258 97.0951 109.954 97.1712C109.649 97.2664 109.392 97.3139 109.183 97.3139C109.012 97.3139 108.86 97.2283 108.726 97.0571C108.593 96.8858 108.536 96.648 108.555 96.3436C108.574 96.0962 108.498 95.7823 108.327 95.4017C108.175 95.0022 107.994 94.5931 107.785 94.1745C107.575 93.7559 107.375 93.3944 107.185 93.0899C106.576 91.9864 105.815 90.7972 104.902 89.5224C104.008 88.2476 103.085 86.9157 102.134 85.5267C101.182 84.1377 100.326 82.7297 99.5649 81.3027L99.9644 81.2456L99.1938 88.6376C99.0607 89.9505 98.9846 91.035 98.9655 91.8912C98.9465 92.7284 98.9655 93.3944 99.0226 93.8891C99.0797 94.3838 99.1463 94.7643 99.2224 95.0307C99.2985 95.2971 99.3651 95.5159 99.4222 95.6871C99.4983 95.8394 99.5363 96.0106 99.5363 96.2009C99.5363 96.4102 99.4222 96.5909 99.1938 96.7431C98.9846 96.8763 98.7182 96.9905 98.3947 97.0856C98.0903 97.1808 97.7858 97.2474 97.4814 97.2854C97.177 97.3235 96.9391 97.3425 96.7679 97.3425Z"/>
</mask>
<path d="M62.9079 97.371C61.2906 97.371 59.9777 97.1142 58.9693 96.6004C57.9609 96.0867 57.4566 95.4208 57.4566 94.6026C57.4566 93.9747 57.5042 93.5276 57.5994 93.2612C57.6945 92.9948 57.8562 92.8616 58.0845 92.8616C58.2368 92.8616 58.4746 92.9758 58.7981 93.2041C59.1215 93.4324 59.5116 93.6893 59.9682 93.9747C60.4439 94.2601 60.9671 94.517 61.5379 94.7453C62.1278 94.9736 62.7652 95.0878 63.4502 95.0878C64.4396 95.0878 65.2387 94.8785 65.8476 94.4599C66.4755 94.0223 66.7894 93.3563 66.7894 92.4621C66.7894 91.6058 66.5896 90.9589 66.1901 90.5213C65.7905 90.0837 65.1911 89.608 64.392 89.0943L62.5939 87.9526C61.947 87.5341 61.3572 87.1059 60.8244 86.6683C60.2917 86.2307 59.8636 85.7075 59.5401 85.0986C59.2166 84.4707 59.0549 83.6811 59.0549 82.7297C59.0549 81.5501 59.3594 80.5416 59.9682 79.7044C60.5771 78.8672 61.4143 78.2298 62.4798 77.7922C63.5453 77.3546 64.763 77.1358 66.133 77.1358C67.4078 77.1358 68.3591 77.2214 68.987 77.3926C69.6149 77.5449 70.024 77.7637 70.2143 78.0491C70.4236 78.3345 70.5282 78.6675 70.5282 79.048C70.5282 79.5808 70.4521 79.9898 70.2999 80.2752C70.1477 80.5416 69.9859 80.6748 69.8147 80.6748C69.6625 80.6748 69.4912 80.6272 69.301 80.5321C69.1107 80.437 68.8443 80.3133 68.5018 80.1611C68.2355 80.0279 67.8074 79.8757 67.2175 79.7044C66.6467 79.5142 66.0474 79.419 65.4195 79.419C64.6013 79.419 63.9068 79.6283 63.336 80.0469C62.7842 80.4655 62.5083 81.0934 62.5083 81.9306C62.5083 82.7107 62.7176 83.3291 63.1362 83.7857C63.5548 84.2233 64.1161 84.6134 64.8201 84.9559L66.3898 85.6979C67.1319 86.0404 67.8169 86.421 68.4448 86.8396C69.0917 87.2582 69.6054 87.8004 69.9859 88.4664C70.3855 89.1133 70.5853 89.979 70.5853 91.0636C70.5853 93.0804 69.8908 94.6406 68.5018 95.7442C67.1129 96.8288 65.2482 97.371 62.9079 97.371ZM73.7207 97.2283C73.3973 97.2283 73.169 97.0761 73.0358 96.7717C72.9026 96.4672 72.836 96.0582 72.836 95.5444C72.836 95.1639 72.8645 94.7358 72.9216 94.2601L74.7197 77.5924H80.0282C82.3685 77.5924 84.119 77.9825 85.2797 78.7626C86.4403 79.5427 87.0206 80.8365 87.0206 82.6441C87.0206 83.7477 86.7638 84.7561 86.25 85.6694C85.7553 86.5827 85.1084 87.3723 84.3093 88.0383C83.5292 88.7042 82.692 89.2179 81.7977 89.5795C80.9034 89.941 80.0663 90.1217 79.2862 90.1217C79.0769 90.1217 78.839 90.0551 78.5726 89.9219C78.3253 89.7888 78.1065 89.6175 77.9162 89.4082C77.745 89.1989 77.6593 88.9896 77.6593 88.7803C77.6593 88.571 77.7259 88.4283 77.8591 88.3522C77.9923 88.2571 78.135 88.2 78.2872 88.181C79.1434 88.0097 79.9426 87.7148 80.6846 87.2962C81.4457 86.8586 82.0546 86.2878 82.5112 85.5838C82.9869 84.8608 83.2247 84.0045 83.2247 83.0151C83.2247 82.1589 83.0154 81.493 82.5969 81.0173C82.1973 80.5416 81.6074 80.2086 80.8273 80.0184C80.0472 79.8281 79.0769 79.733 77.9162 79.733L76.0325 97.2283H73.7207ZM89.9235 97.2283C89.6571 97.2283 89.4383 97.1142 89.2671 96.8858C89.1149 96.6575 89.0007 96.3626 88.9246 96.0011C88.8485 95.6396 88.8104 95.2781 88.8104 94.9165C88.8104 94.1364 88.858 93.3849 88.9531 92.6618C89.0483 91.9388 89.1339 91.1587 89.21 90.3215L90.58 77.1643H92.5778C93.0725 77.1643 93.396 77.3546 93.5482 77.7351C93.7194 78.0966 93.805 78.5343 93.805 79.048C93.805 79.5046 93.786 79.9137 93.748 80.2752C93.7099 80.6368 93.6528 81.0744 93.5767 81.5881C93.5196 82.1018 93.4435 82.8058 93.3484 83.7001L91.9214 97.2283H89.9235ZM96.7679 97.3425C96.4635 97.3425 96.2637 97.1998 96.1685 96.9144C96.0734 96.629 96.0258 96.2865 96.0258 95.8869C96.0258 95.221 96.0639 94.517 96.14 93.7749C96.2161 93.0138 96.2922 92.2718 96.3683 91.5488L97.9381 77.1643L100.022 77.1358C100.364 77.1358 100.63 77.1833 100.821 77.2785C101.03 77.3546 101.258 77.6115 101.506 78.0491C102.419 79.6473 103.408 81.2361 104.474 82.8154C105.539 84.3756 106.557 85.8692 107.528 87.2962C108.498 88.7232 109.297 90.0266 109.925 91.2063L109.183 92.091L109.811 85.9548C109.963 84.4897 110.03 83.3101 110.011 82.4158C110.011 81.5215 109.963 80.827 109.868 80.3323C109.792 79.8186 109.706 79.419 109.611 79.1336C109.535 78.8482 109.497 78.5818 109.497 78.3345C109.497 78.1442 109.592 77.9825 109.782 77.8493C109.973 77.6971 110.21 77.5734 110.496 77.4783C110.781 77.3831 111.057 77.3165 111.324 77.2785C111.609 77.2214 111.847 77.1929 112.037 77.1929C112.399 77.1929 112.674 77.3831 112.865 77.7637C113.055 78.1442 113.15 78.5248 113.15 78.9053C113.15 79.2288 113.112 79.5998 113.036 80.0184C112.979 80.437 112.903 81.1124 112.808 82.0448L112.408 85.8121C112.218 87.6006 112.085 89.0657 112.009 90.2074C111.951 91.3299 111.923 92.2242 111.923 92.8902C111.923 93.5561 111.932 94.0984 111.951 94.517C111.99 94.9356 112.009 95.3256 112.009 95.6871C112.009 95.8964 111.904 96.1057 111.695 96.315C111.485 96.5053 111.219 96.6765 110.895 96.8288C110.572 96.981 110.258 97.0951 109.954 97.1712C109.649 97.2664 109.392 97.3139 109.183 97.3139C109.012 97.3139 108.86 97.2283 108.726 97.0571C108.593 96.8858 108.536 96.648 108.555 96.3436C108.574 96.0962 108.498 95.7823 108.327 95.4017C108.175 95.0022 107.994 94.5931 107.785 94.1745C107.575 93.7559 107.375 93.3944 107.185 93.0899C106.576 91.9864 105.815 90.7972 104.902 89.5224C104.008 88.2476 103.085 86.9157 102.134 85.5267C101.182 84.1377 100.326 82.7297 99.5649 81.3027L99.9644 81.2456L99.1938 88.6376C99.0607 89.9505 98.9846 91.035 98.9655 91.8912C98.9465 92.7284 98.9655 93.3944 99.0226 93.8891C99.0797 94.3838 99.1463 94.7643 99.2224 95.0307C99.2985 95.2971 99.3651 95.5159 99.4222 95.6871C99.4983 95.8394 99.5363 96.0106 99.5363 96.2009C99.5363 96.4102 99.4222 96.5909 99.1938 96.7431C98.9846 96.8763 98.7182 96.9905 98.3947 97.0856C98.0903 97.1808 97.7858 97.2474 97.4814 97.2854C97.177 97.3235 96.9391 97.3425 96.7679 97.3425Z" fill="url(#paint12_linear_64_1748)"/>
<path d="M58.9693 96.6004L59.4232 95.7094L58.9693 96.6004ZM57.5994 93.2612L56.6576 92.9249H56.6576L57.5994 93.2612ZM58.7981 93.2041L58.2214 94.0211H58.2214L58.7981 93.2041ZM59.9682 93.9747L59.4382 94.8227C59.4434 94.8259 59.4485 94.8291 59.4537 94.8322L59.9682 93.9747ZM61.5379 94.7453L61.1665 95.6738L61.177 95.6779L61.5379 94.7453ZM65.8476 94.4599L66.4141 95.284L66.4194 95.2803L65.8476 94.4599ZM66.1901 90.5213L66.9285 89.847L66.1901 90.5213ZM64.392 89.0943L64.9328 88.2531L64.928 88.2501L64.392 89.0943ZM62.5939 87.9526L62.0507 88.7922L62.0579 88.7969L62.5939 87.9526ZM59.5401 85.0986L58.6511 85.5566L58.657 85.5677L59.5401 85.0986ZM59.9682 79.7044L60.777 80.2926H60.777L59.9682 79.7044ZM62.4798 77.7922L62.0999 76.8672L62.4798 77.7922ZM68.987 77.3926L68.7239 78.3574C68.733 78.3599 68.7422 78.3623 68.7514 78.3645L68.987 77.3926ZM70.2143 78.0491L69.3822 78.6038C69.3905 78.6162 69.399 78.6284 69.4079 78.6404L70.2143 78.0491ZM70.2999 80.2752L71.1681 80.7714C71.173 80.7629 71.1777 80.7544 71.1822 80.7458L70.2999 80.2752ZM68.5018 80.1611L68.0546 81.0555C68.0682 81.0623 68.0819 81.0687 68.0957 81.0749L68.5018 80.1611ZM67.2175 79.7044L66.9013 80.6531C66.9137 80.6572 66.9262 80.6611 66.9387 80.6648L67.2175 79.7044ZM63.336 80.0469L62.7446 79.2405C62.7403 79.2437 62.7359 79.247 62.7316 79.2502L63.336 80.0469ZM63.1362 83.7857L62.3991 84.4615C62.4038 84.4667 62.4087 84.4718 62.4136 84.477L63.1362 83.7857ZM64.8201 84.9559L64.3826 85.8552L64.3927 85.86L64.8201 84.9559ZM66.3898 85.6979L65.9624 86.6021L65.9708 86.6059L66.3898 85.6979ZM68.4448 86.8396L67.89 87.6717L67.9015 87.6791L68.4448 86.8396ZM69.9859 88.4664L69.1177 88.9625C69.1234 88.9724 69.1292 88.9822 69.1351 88.9919L69.9859 88.4664ZM68.5018 95.7442L69.1173 96.5324L69.1239 96.5272L68.5018 95.7442ZM62.9079 96.371C61.3852 96.371 60.2439 96.1275 59.4232 95.7094L58.5154 97.4915C59.7116 98.1009 61.196 98.371 62.9079 98.371V96.371ZM59.4232 95.7094C58.6022 95.2912 58.4566 94.9036 58.4566 94.6026H56.4566C56.4566 95.9379 57.3195 96.8822 58.5154 97.4915L59.4232 95.7094ZM58.4566 94.6026C58.4566 93.984 58.5087 93.6883 58.5411 93.5975L56.6576 92.9249C56.4998 93.3668 56.4566 93.9655 56.4566 94.6026H58.4566ZM58.5411 93.5975C58.5484 93.577 58.527 93.6517 58.4277 93.7334C58.313 93.8279 58.18 93.8616 58.0845 93.8616V91.8616C57.7607 91.8616 57.4327 91.962 57.1563 92.1896C56.8953 92.4045 56.7454 92.679 56.6576 92.9249L58.5411 93.5975ZM58.0845 93.8616C58.0018 93.8616 57.9479 93.8469 57.9339 93.8428C57.9178 93.8381 57.9202 93.8372 57.9443 93.8488C57.9948 93.873 58.085 93.9248 58.2214 94.0211L59.3747 92.3871C59.1876 92.2551 58.9972 92.1357 58.8098 92.0457C58.641 91.9647 58.3826 91.8616 58.0845 91.8616V93.8616ZM58.2214 94.0211C58.5644 94.2632 58.9709 94.5306 59.4382 94.8227L60.4982 93.1267C60.0522 92.8479 59.6786 92.6016 59.3747 92.3871L58.2214 94.0211ZM59.4537 94.8322C59.9797 95.1478 60.5515 95.4277 61.1666 95.6738L61.9093 93.8168C61.3828 93.6062 60.9081 93.3724 60.4827 93.1172L59.4537 94.8322ZM61.177 95.6779C61.8912 95.9543 62.652 96.0878 63.4502 96.0878V94.0878C62.8784 94.0878 62.3644 93.9929 61.8989 93.8127L61.177 95.6779ZM63.4502 96.0878C64.5745 96.0878 65.5905 95.8501 66.4141 95.2839L65.281 93.6358C64.8869 93.9068 64.3046 94.0878 63.4502 94.0878V96.0878ZM66.4194 95.2803C67.3636 94.6222 67.7894 93.6201 67.7894 92.4621H65.7894C65.7894 93.0926 65.5873 93.4224 65.2758 93.6395L66.4194 95.2803ZM67.7894 92.4621C67.7894 91.4662 67.5581 90.5365 66.9285 89.847L65.4516 91.1956C65.6212 91.3813 65.7894 91.7455 65.7894 92.4621H67.7894ZM66.9285 89.847C66.4463 89.3189 65.7666 88.7891 64.9328 88.2531L63.8512 89.9354C64.6157 90.4269 65.1346 90.8484 65.4516 91.1956L66.9285 89.847ZM64.928 88.2501L63.13 87.1084L62.0579 88.7969L63.856 89.9385L64.928 88.2501ZM63.1372 87.1131C62.5184 86.7127 61.9596 86.3066 61.4592 85.8956L60.1897 87.441C60.7548 87.9053 61.3757 88.3554 62.0507 88.7922L63.1372 87.1131ZM61.4592 85.8956C61.0284 85.5418 60.6847 85.1217 60.4232 84.6294L58.657 85.5677C59.0424 86.2932 59.5549 86.9196 60.1897 87.441L61.4592 85.8956ZM60.4291 84.6406C60.1994 84.1948 60.0549 83.5745 60.0549 82.7297H58.0549C58.0549 83.7876 58.2339 84.7466 58.6511 85.5565L60.4291 84.6406ZM60.0549 82.7297C60.0549 81.7307 60.3093 80.9356 60.777 80.2926L59.1595 79.1163C58.4094 80.1476 58.0549 81.3694 58.0549 82.7297H60.0549ZM60.777 80.2926C61.2648 79.6217 61.9457 79.0926 62.8597 78.7172L62.0999 76.8672C60.8829 77.367 59.8893 78.1127 59.1595 79.1163L60.777 80.2926ZM62.8597 78.7172C63.7841 78.3376 64.8692 78.1358 66.133 78.1358V76.1358C64.6569 76.1358 63.3064 76.3716 62.0999 76.8672L62.8597 78.7172ZM66.133 78.1358C67.3867 78.1358 68.2289 78.2224 68.7239 78.3574L69.2501 76.4279C68.4893 76.2204 67.4289 76.1358 66.133 76.1358V78.1358ZM68.7514 78.3645C69.0127 78.4278 69.1859 78.4953 69.2931 78.5527C69.4014 78.6106 69.405 78.6379 69.3822 78.6038L71.0463 77.4944C70.6367 76.88 69.9041 76.586 69.2226 76.4208L68.7514 78.3645ZM69.4079 78.6404C69.4817 78.7412 69.5282 78.8632 69.5282 79.048H71.5282C71.5282 78.4717 71.3654 77.9278 71.0207 77.4577L69.4079 78.6404ZM69.5282 79.048C69.5282 79.5107 69.4579 79.729 69.4175 79.8047L71.1822 80.7458C71.4463 80.2507 71.5282 79.6508 71.5282 79.048H69.5282ZM69.4317 79.7791C69.3903 79.8515 69.3833 79.8404 69.4287 79.803C69.4855 79.7562 69.6199 79.6748 69.8147 79.6748V81.6748C70.5599 81.6748 70.9796 81.1014 71.1681 80.7714L69.4317 79.7791ZM69.8147 79.6748C69.8427 79.6748 69.8524 79.6791 69.8398 79.6756C69.8268 79.672 69.7967 79.6619 69.7482 79.6377L68.8538 81.4265C69.131 81.5651 69.4581 81.6748 69.8147 81.6748V79.6748ZM69.7482 79.6377C69.5379 79.5326 69.2556 79.4018 68.908 79.2473L68.0957 81.0749C68.433 81.2248 68.6835 81.3414 68.8538 81.4265L69.7482 79.6377ZM68.9491 79.2667C68.5975 79.0909 68.0967 78.9184 67.4963 78.7441L66.9387 80.6648C67.518 80.833 67.8734 80.9649 68.0546 81.0555L68.9491 79.2667ZM67.5337 78.7557C66.8566 78.53 66.1501 78.419 65.4195 78.419V80.419C65.9446 80.419 66.4368 80.4983 66.9013 80.6531L67.5337 78.7557ZM65.4195 78.419C64.423 78.419 63.5128 78.6772 62.7446 79.2405L63.9274 80.8533C64.3009 80.5794 64.7796 80.419 65.4195 80.419V78.419ZM62.7316 79.2502C61.8776 79.8981 61.5083 80.8537 61.5083 81.9306H63.5083C63.5083 81.3331 63.6908 81.0329 63.9404 80.8436L62.7316 79.2502ZM61.5083 81.9306C61.5083 82.8934 61.7708 83.776 62.3991 84.4615L63.8734 83.11C63.6645 82.8821 63.5083 82.528 63.5083 81.9306H61.5083ZM62.4136 84.477C62.9342 85.0212 63.6017 85.4752 64.3826 85.8551L65.2576 84.0567C64.6306 83.7516 64.1754 83.4255 63.8589 83.0945L62.4136 84.477ZM64.3927 85.86L65.9625 86.602L66.8172 84.7939L65.2475 84.0518L64.3927 85.86ZM65.9708 86.6059C66.6696 86.9284 67.3087 87.2841 67.8901 87.6716L68.9995 86.0075C68.325 85.5579 67.5942 85.1524 66.8089 84.79L65.9708 86.6059ZM67.9015 87.6791C68.4148 88.0113 68.8169 88.436 69.1177 88.9625L70.8542 87.9702C70.394 87.1648 69.7685 86.505 68.988 86L67.9015 87.6791ZM69.1351 88.9919C69.4041 89.4273 69.5853 90.0895 69.5853 91.0636H71.5853C71.5853 89.8685 71.367 88.7993 70.8367 87.9409L69.1351 88.9919ZM69.5853 91.0636C69.5853 92.8227 68.9953 94.075 67.8798 94.9613L69.1239 96.5272C70.7863 95.2063 71.5853 93.3382 71.5853 91.0636H69.5853ZM67.8864 94.956C66.7233 95.8642 65.0983 96.371 62.9079 96.371V98.371C65.3981 98.371 67.5025 97.7933 69.1173 96.5324L67.8864 94.956ZM73.0358 96.7717L73.9519 96.3709L73.0358 96.7717ZM72.9216 94.2601L73.9146 94.3793L73.9158 94.3674L72.9216 94.2601ZM74.7197 77.5924V76.5924C74.2089 76.5924 73.7802 76.9774 73.7254 77.4852L74.7197 77.5924ZM85.2797 78.7626L85.8375 77.9326H85.8375L85.2797 78.7626ZM86.25 85.6694L85.3785 85.1791C85.3759 85.1838 85.3733 85.1884 85.3708 85.1931L86.25 85.6694ZM84.3093 88.0383L83.6691 87.27L83.66 87.2777L84.3093 88.0383ZM81.7977 89.5795L81.4229 88.6523H81.4229L81.7977 89.5795ZM78.5726 89.9219L78.0985 90.8024C78.1074 90.8072 78.1164 90.8119 78.1254 90.8164L78.5726 89.9219ZM77.9162 89.4082L77.1422 90.0415C77.1532 90.0549 77.1646 90.068 77.1763 90.0809L77.9162 89.4082ZM77.8591 88.3522L78.3553 89.2205C78.3845 89.2037 78.4129 89.1855 78.4404 89.1659L77.8591 88.3522ZM78.2872 88.181L78.4113 89.1733C78.4354 89.1702 78.4595 89.1663 78.4833 89.1616L78.2872 88.181ZM80.6846 87.2962L81.176 88.1672L81.1831 88.1631L80.6846 87.2962ZM82.5112 85.5838L81.6758 85.0342L81.6723 85.0396L82.5112 85.5838ZM82.5969 81.0173L81.8312 81.6605C81.8361 81.6664 81.8411 81.6722 81.8461 81.6779L82.5969 81.0173ZM80.8273 80.0184L81.0643 79.0469L80.8273 80.0184ZM77.9162 79.733V78.733C77.4054 78.733 76.9766 79.118 76.922 79.6259L77.9162 79.733ZM76.0325 97.2283V98.2283C76.5434 98.2283 76.9721 97.8433 77.0268 97.3354L76.0325 97.2283ZM73.7207 96.2283C73.7204 96.2283 73.7839 96.2303 73.8616 96.2821C73.9375 96.3327 73.9581 96.385 73.9519 96.3709L72.1196 97.1725C72.2466 97.4628 72.448 97.7434 72.7522 97.9462C73.0582 98.1502 73.3976 98.2283 73.7207 98.2283V96.2283ZM73.9519 96.3709C73.8959 96.2428 73.836 95.9878 73.836 95.5444H71.836C71.836 96.1285 71.9093 96.6917 72.1196 97.1725L73.9519 96.3709ZM73.836 95.5444C73.836 95.2123 73.861 94.825 73.9145 94.3793L71.9287 94.141C71.8681 94.6466 71.836 95.1154 71.836 95.5444H73.836ZM73.9158 94.3674L75.7139 77.6997L73.7254 77.4852L71.9274 94.1529L73.9158 94.3674ZM74.7197 78.5924H80.0282V76.5924H74.7197V78.5924ZM80.0282 78.5924C82.29 78.5924 83.8035 78.9753 84.7218 79.5925L85.8375 77.9326C84.4345 76.9896 82.4471 76.5924 80.0282 76.5924V78.5924ZM84.7218 79.5925C85.5265 80.1334 86.0206 81.0606 86.0206 82.6441H88.0206C88.0206 80.6125 87.3542 78.952 85.8375 77.9326L84.7218 79.5925ZM86.0206 82.6441C86.0206 83.5854 85.8035 84.4236 85.3785 85.1791L87.1216 86.1597C87.7241 85.0886 88.0206 83.9099 88.0206 82.6441H86.0206ZM85.3708 85.1931C84.9366 85.9946 84.3709 86.6852 83.6691 87.27L84.9495 88.8065C85.846 88.0594 86.5741 87.1708 87.1293 86.1457L85.3708 85.1931ZM83.66 87.2777C82.9566 87.8782 82.2112 88.3337 81.4229 88.6523L82.1725 90.5066C83.1728 90.1022 84.1017 89.5303 84.9585 88.7988L83.66 87.2777ZM81.4229 88.6523C80.6205 88.9767 79.9114 89.1217 79.2861 89.1217V91.1217C80.2212 91.1217 81.1864 90.9052 82.1725 90.5066L81.4229 88.6523ZM79.2861 89.1217C79.2873 89.1217 79.2669 89.1218 79.2204 89.1088C79.1737 89.0957 79.1073 89.0713 79.0198 89.0275L78.1254 90.8164C78.4758 90.9916 78.8701 91.1217 79.2861 91.1217V89.1217ZM79.0467 89.0415C78.8998 88.9624 78.7707 88.8616 78.6561 88.7355L77.1763 90.0809C77.4422 90.3734 77.7507 90.6151 78.0985 90.8024L79.0467 89.0415ZM78.6902 88.775C78.6555 88.7326 78.6478 88.7124 78.6491 88.7156C78.6499 88.7176 78.6526 88.7248 78.6551 88.7369C78.6576 88.7492 78.6593 88.764 78.6593 88.7803H76.6593C76.6593 89.2807 76.8682 89.7065 77.1422 90.0415L78.6902 88.775ZM78.6593 88.7803C78.6593 88.7806 78.6593 88.7843 78.6587 88.7911C78.6582 88.7978 78.6569 88.8082 78.6544 88.8217C78.6493 88.8486 78.6385 88.8899 78.6155 88.9392C78.5639 89.0498 78.4731 89.1531 78.3553 89.2205L77.363 87.484C76.8082 87.801 76.6593 88.3601 76.6593 88.7803H78.6593ZM78.4404 89.1659C78.4461 89.1619 78.445 89.1635 78.4374 89.1665C78.4296 89.1697 78.4202 89.1721 78.4113 89.1733L78.1632 87.1887C77.8351 87.2297 77.5369 87.3534 77.2779 87.5385L78.4404 89.1659ZM78.4833 89.1616C79.4405 88.9701 80.3396 88.639 81.176 88.1672L80.1933 86.4252C79.5455 86.7906 78.8464 87.0493 78.0911 87.2004L78.4833 89.1616ZM81.1831 88.1631C82.0751 87.6502 82.8032 86.9712 83.3502 86.128L81.6723 85.0396C81.3059 85.6043 80.8163 86.067 80.1862 86.4293L81.1831 88.1631ZM83.3466 86.1334C83.9445 85.2247 84.2247 84.1711 84.2247 83.0151H82.2247C82.2247 83.838 82.0293 84.4968 81.6758 85.0342L83.3466 86.1334ZM84.2247 83.0151C84.2247 82.0019 83.9759 81.0706 83.3476 80.3567L81.8461 81.6779C82.055 81.9153 82.2247 82.3159 82.2247 83.0151H84.2247ZM83.3626 80.3741C82.7909 79.6935 81.9906 79.2728 81.0643 79.0469L80.5904 80.9899C81.2243 81.1445 81.6037 81.3897 81.8312 81.6605L83.3626 80.3741ZM81.0643 79.0469C80.1807 78.8313 79.1246 78.733 77.9162 78.733V80.733C79.0291 80.733 79.9138 80.8249 80.5904 80.9899L81.0643 79.0469ZM76.922 79.6259L75.0383 97.1213L77.0268 97.3354L78.9105 79.84L76.922 79.6259ZM76.0325 96.2283H73.7207V98.2283H76.0325V96.2283ZM89.2671 96.8858L88.435 97.4405C88.4453 97.4559 88.456 97.471 88.4671 97.4858L89.2671 96.8858ZM88.9246 96.0011L89.9032 95.7951L88.9246 96.0011ZM88.9531 92.6618L87.9617 92.5314L88.9531 92.6618ZM89.21 90.3215L88.2153 90.2179L88.2141 90.231L89.21 90.3215ZM90.58 77.1643V76.1643C90.0678 76.1643 89.6384 76.5513 89.5853 77.0608L90.58 77.1643ZM93.5482 77.7351L92.6197 78.1065C92.6274 78.1257 92.6356 78.1446 92.6444 78.1632L93.5482 77.7351ZM93.748 80.2752L94.7425 80.3799V80.3799L93.748 80.2752ZM93.5767 81.5881L92.5875 81.4416C92.5857 81.4536 92.5842 81.4656 92.5828 81.4777L93.5767 81.5881ZM93.3484 83.7001L92.354 83.5943L92.3539 83.5952L93.3484 83.7001ZM91.9214 97.2283V98.2283C92.433 98.2283 92.8622 97.8421 92.9158 97.3332L91.9214 97.2283ZM89.9235 96.2283C89.9288 96.2283 89.9423 96.2289 89.9617 96.2335C89.9814 96.2381 90.0023 96.2457 90.0222 96.2561C90.0645 96.2782 90.0771 96.2991 90.0671 96.2858L88.4671 97.4858C88.8115 97.9451 89.3171 98.2283 89.9235 98.2283V96.2283ZM90.0991 96.3311C90.0373 96.2384 89.9616 96.0726 89.9032 95.7951L87.9461 96.2071C88.0398 96.6526 88.1924 97.0766 88.435 97.4405L90.0991 96.3311ZM89.9032 95.7951C89.841 95.4998 89.8104 95.2073 89.8104 94.9165H87.8104C87.8104 95.3488 87.856 95.7793 87.9461 96.2071L89.9032 95.7951ZM89.8104 94.9165C89.8104 94.1771 89.8555 93.4692 89.9446 92.7923L87.9617 92.5314C87.8605 93.3005 87.8104 94.0958 87.8104 94.9165H89.8104ZM89.9446 92.7923C90.0417 92.0542 90.1288 91.2606 90.2059 90.412L88.2141 90.231C88.139 91.0568 88.0548 91.8234 87.9617 92.5314L89.9446 92.7923ZM90.2046 90.4251L91.5746 77.2679L89.5853 77.0608L88.2154 90.218L90.2046 90.4251ZM90.58 78.1643H92.5778V76.1643H90.58V78.1643ZM92.5778 78.1643C92.702 78.1643 92.7178 78.1886 92.6844 78.169C92.6671 78.1588 92.6486 78.1435 92.6337 78.1256C92.6194 78.1084 92.6166 78.0989 92.6197 78.1065L94.4767 77.3637C94.3263 76.9879 94.069 76.6631 93.6984 76.4451C93.3416 76.2352 92.9483 76.1643 92.5778 76.1643V78.1643ZM92.6444 78.1632C92.7369 78.3585 92.805 78.6417 92.805 79.048H94.805C94.805 78.4268 94.7019 77.8348 94.4519 77.307L92.6444 78.1632ZM92.805 79.048C92.805 79.4781 92.7871 79.8513 92.7534 80.1706L94.7425 80.3799C94.785 79.9762 94.805 79.5312 94.805 79.048H92.805ZM92.7534 80.1706C92.7173 80.5136 92.6623 80.9364 92.5875 81.4416L94.5659 81.7347C94.6433 81.2124 94.7025 80.7599 94.7425 80.3799L92.7534 80.1706ZM92.5828 81.4777C92.5255 81.9937 92.4492 82.6995 92.354 83.5943L94.3428 83.8059C94.4378 82.9122 94.5138 82.21 94.5706 81.6985L92.5828 81.4777ZM92.3539 83.5952L90.9269 97.1234L92.9158 97.3332L94.3429 83.805L92.3539 83.5952ZM91.9214 96.2283H89.9235V98.2283H91.9214V96.2283ZM96.1685 96.9144L97.1172 96.5982L96.1685 96.9144ZM96.14 93.7749L97.1348 93.8769L97.135 93.8744L96.14 93.7749ZM96.3683 91.5488L95.3742 91.4403L95.3738 91.4441L96.3683 91.5488ZM97.9381 77.1643L97.9244 76.1644C97.4193 76.1713 96.9988 76.5537 96.944 77.0558L97.9381 77.1643ZM100.022 77.1358V76.1357L100.008 76.1359L100.022 77.1358ZM100.821 77.2785L100.373 78.1729C100.408 78.19 100.443 78.2052 100.479 78.2183L100.821 77.2785ZM101.506 78.0491L100.635 78.5411L100.637 78.5452L101.506 78.0491ZM104.474 82.8153L103.645 83.3747L103.648 83.3793L104.474 82.8153ZM107.528 87.2962L106.701 87.8585L107.528 87.2962ZM109.925 91.2063L110.691 91.8489C110.953 91.5365 110.999 91.0963 110.808 90.7364L109.925 91.2063ZM109.183 92.091L108.188 91.9892C108.144 92.4262 108.389 92.8411 108.794 93.0121C109.198 93.1831 109.667 93.0702 109.949 92.7336L109.183 92.091ZM109.811 85.9548L108.816 85.8515L108.816 85.853L109.811 85.9548ZM110.011 82.4158H109.011C109.011 82.4229 109.011 82.43 109.011 82.4371L110.011 82.4158ZM109.868 80.3323L108.879 80.4789C108.881 80.493 108.883 80.5071 108.886 80.5212L109.868 80.3323ZM109.611 79.1336L108.645 79.3913C108.65 79.411 108.656 79.4305 108.662 79.4498L109.611 79.1336ZM109.782 77.8493L110.356 78.6685C110.373 78.6563 110.39 78.6435 110.407 78.6302L109.782 77.8493ZM111.324 77.2785L111.465 78.2684C111.483 78.2658 111.502 78.2627 111.52 78.2591L111.324 77.2785ZM113.036 80.0184L112.052 79.8395C112.049 79.854 112.047 79.8686 112.045 79.8833L113.036 80.0184ZM112.808 82.0448L113.802 82.1502L113.803 82.1463L112.808 82.0448ZM112.408 85.8121L113.403 85.9179L113.403 85.9176L112.408 85.8121ZM112.009 90.2073L111.011 90.1408C111.01 90.1461 111.01 90.1513 111.01 90.1566L112.009 90.2073ZM111.951 94.517L110.953 94.5624C110.953 94.5774 110.954 94.5925 110.956 94.6075L111.951 94.517ZM111.695 96.315L112.367 97.055C112.379 97.0443 112.39 97.0333 112.402 97.0221L111.695 96.315ZM110.895 96.8288L111.321 97.7336H111.321L110.895 96.8288ZM109.954 97.1712L109.711 96.2011C109.692 96.2058 109.674 96.211 109.655 96.2168L109.954 97.1712ZM108.726 97.0571L109.516 96.4431L108.726 97.0571ZM108.555 96.3436L107.558 96.2669C107.558 96.2716 107.557 96.2764 107.557 96.2812L108.555 96.3436ZM108.327 95.4017L107.392 95.7577C107.399 95.7761 107.407 95.7942 107.415 95.8121L108.327 95.4017ZM107.785 94.1745L106.89 94.6217L106.89 94.6217L107.785 94.1745ZM107.185 93.0899L106.31 93.573C106.318 93.5889 106.328 93.6046 106.337 93.6199L107.185 93.0899ZM104.902 89.5224L104.083 90.0967L104.089 90.1048L104.902 89.5224ZM102.134 85.5267L101.308 86.0918L102.134 85.5267ZM99.5649 81.3027L99.4235 80.3128C99.1006 80.3589 98.8206 80.5595 98.6731 80.8503C98.5255 81.1411 98.5291 81.4856 98.6825 81.7733L99.5649 81.3027ZM99.9644 81.2456L100.959 81.3493C100.991 81.0429 100.88 80.7389 100.658 80.5252C100.436 80.3115 100.128 80.2121 99.823 80.2557L99.9644 81.2456ZM99.1938 88.6376L98.1992 88.5339L98.199 88.5367L99.1938 88.6376ZM98.9655 91.8912L99.9653 91.914L99.9653 91.9135L98.9655 91.8912ZM99.0226 93.8891L98.0292 94.0037V94.0037L99.0226 93.8891ZM99.2224 95.0307L98.2609 95.3054L99.2224 95.0307ZM99.4222 95.6871L98.4735 96.0034C98.4885 96.0483 98.5066 96.092 98.5277 96.1343L99.4222 95.6871ZM99.1938 96.7431L99.7307 97.5868C99.7367 97.583 99.7426 97.5791 99.7485 97.5752L99.1938 96.7431ZM98.3947 97.0856L98.1125 96.1263C98.1072 96.1278 98.1018 96.1295 98.0964 96.1311L98.3947 97.0856ZM97.4814 97.2854L97.6054 98.2777L97.4814 97.2854ZM96.7679 96.3425C96.7735 96.3425 96.8643 96.3455 96.971 96.4217C97.0787 96.4987 97.1133 96.5863 97.1172 96.5982L95.2199 97.2306C95.3189 97.5278 95.501 97.8295 95.8085 98.0492C96.115 98.2681 96.4579 98.3425 96.7679 98.3425V96.3425ZM97.1172 96.5982C97.0652 96.4419 97.0258 96.2121 97.0258 95.8869H95.0258C95.0258 96.3609 95.0817 96.816 95.2199 97.2306L97.1172 96.5982ZM97.0258 95.8869C97.0258 95.2588 97.0618 94.5891 97.1348 93.8769L95.1452 93.6729C95.066 94.4449 95.0258 95.1831 95.0258 95.8869H97.0258ZM97.135 93.8744C97.211 93.115 97.2869 92.3747 97.3628 91.6534L95.3738 91.4441C95.2975 92.1689 95.2212 92.9127 95.145 93.6754L97.135 93.8744ZM97.3624 91.6572L98.9322 77.2728L96.944 77.0558L95.3742 91.4403L97.3624 91.6572ZM97.9518 78.1642L100.035 78.1357L100.008 76.1359L97.9244 76.1644L97.9518 78.1642ZM100.022 78.1358C100.149 78.1358 100.24 78.1448 100.302 78.1559C100.366 78.1672 100.384 78.178 100.373 78.1729L101.268 76.3841C100.879 76.1897 100.435 76.1358 100.022 76.1358V78.1358ZM100.479 78.2183C100.417 78.1959 100.383 78.171 100.376 78.1653C100.368 78.1595 100.377 78.1653 100.401 78.1926C100.452 78.2499 100.532 78.3584 100.635 78.5411L102.376 77.557C102.232 77.3021 102.074 77.0634 101.896 76.8638C101.726 76.6727 101.485 76.4561 101.162 76.3387L100.479 78.2183ZM100.637 78.5452C101.563 80.1658 102.566 81.7756 103.645 83.3747L105.303 82.256C104.251 80.6967 103.274 79.1289 102.374 77.5529L100.637 78.5452ZM103.648 83.3793C104.713 84.939 105.731 86.4321 106.701 87.8585L108.355 86.7339C107.384 85.3063 106.366 83.8121 105.3 82.2514L103.648 83.3793ZM106.701 87.8585C107.656 89.2638 108.435 90.5358 109.042 91.6761L110.808 90.7364C110.159 89.5174 109.34 88.1826 108.355 86.7339L106.701 87.8585ZM109.159 90.5637L108.417 91.4484L109.949 92.7336L110.691 91.8489L109.159 90.5637ZM110.178 92.1928L110.806 86.0566L108.816 85.853L108.188 91.9892L110.178 92.1928ZM110.806 86.0581C110.96 84.5744 111.031 83.3483 111.01 82.3945L109.011 82.4371C109.029 83.2718 108.967 84.405 108.816 85.8515L110.806 86.0581ZM111.011 82.4158C111.011 81.4987 110.963 80.7305 110.85 80.1435L108.886 80.5212C108.963 80.9235 109.011 81.5443 109.011 82.4158H111.011ZM110.857 80.1858C110.778 79.6494 110.682 79.1837 110.56 78.8174L108.662 79.4498C108.731 79.6543 108.806 79.9878 108.879 80.4789L110.857 80.1858ZM110.577 78.876C110.519 78.6589 110.497 78.4799 110.497 78.3345H108.497C108.497 78.6837 108.551 79.0376 108.645 79.3913L110.577 78.876ZM110.497 78.3345C110.497 78.415 110.474 78.5024 110.43 78.5775C110.39 78.6459 110.351 78.672 110.356 78.6685L109.209 77.0301C108.818 77.3036 108.497 77.7441 108.497 78.3345H110.497ZM110.407 78.6302C110.486 78.5667 110.613 78.4932 110.812 78.427L110.18 76.5296C109.808 76.6536 109.459 76.8275 109.158 77.0684L110.407 78.6302ZM110.812 78.427C111.047 78.3486 111.264 78.2971 111.465 78.2684L111.182 76.2885C110.85 76.336 110.515 76.4177 110.18 76.5296L110.812 78.427ZM111.52 78.2591C111.771 78.2089 111.938 78.1929 112.037 78.1929V76.1929C111.756 76.1929 111.447 76.2339 111.127 76.2979L111.52 78.2591ZM112.037 78.1929C112.039 78.1929 112.027 78.193 112.006 78.1868C111.985 78.1803 111.964 78.1702 111.947 78.1588C111.914 78.1357 111.931 78.1317 111.97 78.2109L113.759 77.3165C113.609 77.0151 113.392 76.7257 113.083 76.5124C112.765 76.2929 112.404 76.1929 112.037 76.1929V78.1929ZM111.97 78.2109C112.099 78.4691 112.15 78.6975 112.15 78.9053H114.15C114.15 78.352 114.011 77.8193 113.759 77.3165L111.97 78.2109ZM112.15 78.9053C112.15 79.1534 112.121 79.4626 112.052 79.8395L114.02 80.1973C114.104 79.7369 114.15 79.3041 114.15 78.9053H112.15ZM112.045 79.8833C111.986 80.3199 111.908 81.0098 111.813 81.9432L113.803 82.1463C113.898 81.2151 113.972 80.554 114.027 80.1535L112.045 79.8833ZM111.813 81.9393L111.414 85.7066L113.403 85.9176L113.802 82.1502L111.813 81.9393ZM111.414 85.7063C111.223 87.5015 111.088 88.9809 111.011 90.1408L113.006 90.2739C113.081 89.1505 113.213 87.6998 113.403 85.9179L111.414 85.7063ZM111.01 90.1566C110.952 91.2863 110.923 92.1997 110.923 92.8902H112.923C112.923 92.2487 112.951 91.3736 113.007 90.2581L111.01 90.1566ZM110.923 92.8902C110.923 93.5636 110.933 94.1226 110.953 94.5624L112.95 94.4716C112.932 94.0742 112.923 93.5486 112.923 92.8902H110.923ZM110.956 94.6075C110.991 95.0007 111.009 95.3602 111.009 95.6871H113.009C113.009 95.291 112.988 94.8704 112.947 94.4264L110.956 94.6075ZM111.009 95.6871C111.009 95.6552 111.013 95.6261 111.019 95.6016C111.025 95.5774 111.032 95.5613 111.036 95.5539C111.042 95.5408 111.035 95.5601 110.987 95.6079L112.402 97.0221C112.72 96.7038 113.009 96.2552 113.009 95.6871H111.009ZM111.022 95.5751C110.903 95.6835 110.726 95.8035 110.47 95.9239L111.321 97.7336C111.712 97.5496 112.068 97.3271 112.367 97.055L111.022 95.5751ZM110.47 95.9239C110.197 96.0522 109.944 96.1428 109.711 96.2011L110.196 98.1414C110.572 98.0475 110.947 97.9097 111.321 97.7336L110.47 95.9239ZM109.655 96.2168C109.402 96.2958 109.253 96.3139 109.183 96.3139V98.3139C109.532 98.3139 109.896 98.237 110.252 98.1257L109.655 96.2168ZM109.183 96.3139C109.273 96.3139 109.36 96.3385 109.431 96.3782C109.495 96.4142 109.52 96.4485 109.516 96.4431L107.937 97.671C108.204 98.0145 108.623 98.3139 109.183 98.3139V96.3139ZM109.516 96.4431C109.53 96.4621 109.541 96.48 109.547 96.4944C109.554 96.5086 109.556 96.5169 109.556 96.5169C109.556 96.5152 109.548 96.4823 109.553 96.4059L107.557 96.2812C107.529 96.7307 107.603 97.2417 107.937 97.671L109.516 96.4431ZM109.552 96.4203C109.59 95.9284 109.437 95.433 109.239 94.9914L107.415 95.8121C107.482 95.9614 107.52 96.0756 107.54 96.1582C107.561 96.2421 107.558 96.2741 107.558 96.2669L109.552 96.4203ZM109.261 95.0457C109.096 94.6124 108.902 94.1728 108.679 93.7273L106.89 94.6217C107.086 95.0133 107.253 95.392 107.392 95.7577L109.261 95.0457ZM108.679 93.7273C108.46 93.2883 108.244 92.8978 108.033 92.5599L106.337 93.6199C106.507 93.8909 106.691 94.2234 106.89 94.6217L108.679 93.7273ZM108.061 92.6069C107.429 91.4619 106.646 90.2393 105.715 88.94L104.089 90.1048C104.985 91.3551 105.724 92.5108 106.31 93.573L108.061 92.6069ZM105.721 88.9481C104.829 87.6766 103.908 86.3478 102.959 84.9616L101.308 86.0918C102.262 87.4836 103.187 88.8186 104.083 90.0967L105.721 88.9481ZM102.959 84.9616C102.027 83.6018 101.19 82.2253 100.447 80.8321L98.6825 81.7733C99.4616 83.2341 100.337 84.6736 101.308 86.0918L102.959 84.9616ZM99.7063 82.2927L100.106 82.2356L99.823 80.2557L99.4235 80.3128L99.7063 82.2927ZM98.9698 81.1419L98.1992 88.5339L100.188 88.7413L100.959 81.3493L98.9698 81.1419ZM98.199 88.5367C98.0644 89.8634 97.9856 90.9765 97.9658 91.869L99.9653 91.9135C99.9835 91.0935 100.057 90.0376 100.189 88.7386L98.199 88.5367ZM97.9658 91.8685C97.9463 92.7252 97.9645 93.4431 98.0292 94.0037L100.016 93.7745C99.9665 93.3456 99.9467 92.7317 99.9653 91.914L97.9658 91.8685ZM98.0292 94.0037C98.0884 94.5171 98.1624 94.9609 98.2609 95.3054L100.184 94.756C100.13 94.5678 100.071 94.2505 100.016 93.7745L98.0292 94.0037ZM98.2609 95.3054C98.3391 95.5792 98.4101 95.8132 98.4735 96.0034L100.371 95.3709C100.32 95.2186 100.258 95.0149 100.184 94.756L98.2609 95.3054ZM98.5277 96.1343C98.5281 96.1351 98.5298 96.1384 98.5316 96.1467C98.5335 96.1553 98.5363 96.1726 98.5363 96.2009H100.536C100.536 95.8739 100.47 95.5467 100.317 95.2399L98.5277 96.1343ZM98.5363 96.2009C98.5363 96.1122 98.5637 96.0252 98.6052 95.9594C98.6411 95.9026 98.6684 95.8916 98.6391 95.9111L99.7485 97.5752C100.159 97.3018 100.536 96.8459 100.536 96.2009H98.5363ZM98.657 95.8995C98.5493 95.968 98.376 96.0488 98.1125 96.1263L98.6769 98.045C99.0604 97.9322 99.4198 97.7847 99.7307 97.5868L98.657 95.8995ZM98.0964 96.1311C97.8466 96.2092 97.6004 96.2627 97.3574 96.2931L97.6054 98.2777C97.9713 98.232 98.334 98.1523 98.693 98.0401L98.0964 96.1311ZM97.3574 96.2931C97.0674 96.3294 96.8774 96.3425 96.7679 96.3425V98.3425C97.0008 98.3425 97.2866 98.3175 97.6054 98.2777L97.3574 96.2931Z" fill="white" mask="url(#path-13-outside-1_64_1748)"/>
</g>
</g>
<defs>
<filter id="filter0_d_64_1748" x="0" y="0" width="171.035" height="169.211" filterUnits="userSpaceOnUse" color-interpolation-filters="sRGB">
<feFlood flood-opacity="0" result="BackgroundImageFix"/>
<feColorMatrix in="SourceAlpha" type="matrix" values="0 0 0 0 0 0 0 0 0 0 0 0 0 0 0 0 0 0 127 0" result="hardAlpha"/>
<feOffset/>
<feGaussianBlur stdDeviation="12.5"/>
<feComposite in2="hardAlpha" operator="out"/>
<feColorMatrix type="matrix" values="0 0 0 0 0.537255 0 0 0 0 1 0 0 0 0 0.537255 0 0 0 1 0"/>
<feBlend mode="normal" in2="BackgroundImageFix" result="effect1_dropShadow_64_1748"/>
<feBlend mode="normal" in="SourceGraphic" in2="effect1_dropShadow_64_1748" result="shape"/>
</filter>
<filter id="filter1_d_64_1748" x="57.4567" y="77.1357" width="55.6935" height="22.8298" filterUnits="userSpaceOnUse" color-interpolation-filters="sRGB">
<feFlood flood-opacity="0" result="BackgroundImageFix"/>
<feColorMatrix in="SourceAlpha" type="matrix" values="0 0 0 0 0 0 0 0 0 0 0 0 0 0 0 0 0 0 127 0" result="hardAlpha"/>
<feOffset dy="2.59459"/>
<feComposite in2="hardAlpha" operator="out"/>
<feColorMatrix type="matrix" values="0 0 0 0 0.0693576 0 0 0 0 0.354167 0 0 0 0 0.0788513 0 0 0 1 0"/>
<feBlend mode="normal" in2="BackgroundImageFix" result="effect1_dropShadow_64_1748"/>
<feBlend mode="normal" in="SourceGraphic" in2="effect1_dropShadow_64_1748" result="shape"/>
</filter>
<radialGradient id="paint0_radial_64_1748" cx="0" cy="0" r="1" gradientUnits="userSpaceOnUse" gradientTransform="translate(83.899 12.5124) scale(171.552 171.552)">
<stop stop-color="#C49D7C"/>
<stop offset="0.44" stop-color="#E1CDBD"/>
<stop offset="0.82" stop-color="#F7F1ED"/>
<stop offset="1" stop-color="white"/>
</radialGradient>
<radialGradient id="paint1_radial_64_1748" cx="0" cy="0" r="1" gradientUnits="userSpaceOnUse" gradientTransform="translate(88.6859 152.383) scale(142.659)">
<stop stop-color="#824E20"/>
<stop offset="1" stop-color="#6E3F05"/>
</radialGradient>
<linearGradient id="paint2_linear_64_1748" x1="85.708" y1="36.0378" x2="85.708" y2="134.375" gradientUnits="userSpaceOnUse">
<stop stop-color="#7ECF38"/>
<stop offset="1" stop-color="#377C08"/>
</linearGradient>
<radialGradient id="paint3_radial_64_1748" cx="0" cy="0" r="1" gradientUnits="userSpaceOnUse" gradientTransform="translate(85.8796 86.9111) scale(57.0853)">
<stop offset="0.77" stop-color="white"/>
<stop offset="0.8" stop-color="#FCFBFA"/>
<stop offset="0.83" stop-color="#F2EFEC"/>
<stop offset="0.87" stop-color="#E3DBD5"/>
<stop offset="0.9" stop-color="#CDC0B4"/>
<stop offset="0.94" stop-color="#B19C8A"/>
<stop offset="0.96" stop-color="#9E846D"/>
</radialGradient>
<radialGradient id="paint4_radial_64_1748" cx="0" cy="0" r="1" gradientUnits="userSpaceOnUse" gradientTransform="translate(85.5319 83.6478) scale(61.5072 61.5072)">
<stop offset="0.85" stop-color="#6B4314"/>
<stop offset="0.93" stop-color="#916843"/>
<stop offset="0.97" stop-color="#754B1C"/>
</radialGradient>
<radialGradient id="paint5_radial_64_1748" cx="0" cy="0" r="1" gradientUnits="userSpaceOnUse" gradientTransform="translate(85.6736 83.5513) scale(55.3796 55.3796)">
<stop offset="0.78" stop-color="#B5A291"/>
<stop offset="0.85" stop-color="#B7A493"/>
<stop offset="0.89" stop-color="#BCAB9C"/>
<stop offset="0.92" stop-color="#C6B7AA"/>
<stop offset="0.95" stop-color="#D3C8BE"/>
<stop offset="0.97" stop-color="#E5DED8"/>
<stop offset="1" stop-color="white"/>
</radialGradient>
<radialGradient id="paint6_radial_64_1748" cx="0" cy="0" r="1" gradientUnits="userSpaceOnUse" gradientTransform="translate(86.478 82.6694) scale(63.0841 63.0841)">
<stop offset="0.88" stop-color="white"/>
<stop offset="0.97" stop-color="#C6B7AA"/>
<stop offset="1" stop-color="#B5A291"/>
</radialGradient>
<radialGradient id="paint7_radial_64_1748" cx="0" cy="0" r="1" gradientUnits="userSpaceOnUse" gradientTransform="translate(85.4353 83.6221) scale(62.4791 62.4791)">
<stop offset="0.88" stop-color="white"/>
<stop offset="0.97" stop-color="#C6B7AA"/>
<stop offset="1" stop-color="#B5A291"/>
</radialGradient>
<radialGradient id="paint8_radial_64_1748" cx="0" cy="0" r="1" gradientUnits="userSpaceOnUse" gradientTransform="translate(85.7763 84.7678) scale(55.3088 55.3088)">
<stop offset="0.88" stop-color="white"/>
<stop offset="0.97" stop-color="#C6B7AA"/>
<stop offset="1" stop-color="#B5A291"/>
</radialGradient>
<radialGradient id="paint9_radial_64_1748" cx="0" cy="0" r="1" gradientUnits="userSpaceOnUse" gradientTransform="translate(37.4963 78.357) scale(51.994 51.994)">
<stop stop-color="#522F18"/>
<stop offset="1"/>
</radialGradient>
<radialGradient id="paint10_radial_64_1748" cx="0" cy="0" r="1" gradientUnits="userSpaceOnUse" gradientTransform="translate(133.728 71.4699) scale(41.1035 41.1034)">
<stop stop-color="#522F18"/>
<stop offset="1"/>
</radialGradient>
<radialGradient id="paint11_radial_64_1748" cx="0" cy="0" r="1" gradientUnits="userSpaceOnUse" gradientTransform="translate(39.1184 107.598) scale(40.1638 40.1637)">
<stop stop-color="#522F18"/>
<stop offset="1"/>
</radialGradient>
<linearGradient id="paint12_linear_64_1748" x1="85.5" y1="66" x2="85.5" y2="114" gradientUnits="userSpaceOnUse">
<stop stop-color="#1EFF00"/>
<stop offset="1" stop-color="#007E43"/>
</linearGradient>
</defs>
</svg>
